<svg height="48" width="48" xmlns="http://www.w3.org/2000/svg" xmlns:svg="http://www.w3.org/2000/svg" xmlns:xlink="http://www.w3.org/1999/xlink"><style type="text/css"><![CDATA[.CSSGicon1{fill: #84b556}
.CSSGicon2{fill: #666}
.CSSGicon3{fill: #336792}
.CSSGicon4{fill: #bcbcbc}
.CSSGicon5{fill: #e0e0e0}
]]></style><g transform="translate(0)"><path class="CSSGicon1" d="M35.1,27.2A8.5,8.5,0,0,0,29,30.2a9.8,9.8,0,0,0-2.4,6.5,9.1,9.1,0,0,0,4.3,7.5c4.3,2.5,7.7,1.1,7.7,1.1a9.3,9.3,0,0,0,5.6-5,10.2,10.2,0,0,0,0-7.7,8,8,0,0,0-1.3-2l1.7-1.3-6-1.7V34l1.9-1.5a5.9,5.9,0,0,1,.7,6.5c-1.8,4-6.2,3.3-6.2,3.3s-5.6-.8-5.1-7.1a6,6,0,0,1,5.3-4.8Z" /><path class="CSSGicon2" d="M34.4,37.7V33.9s.1-.3.6-.3.4,0,.5.3v2.9h2.9a.5.5,0,0,1,.3.5c0,.4-.3.4-.3.4Z" /><path class="CSSGicon3" d="M23.8,36.2H8s-1.1.2-1.1-1.4,0-13,0-18.5V13.5H40.7a.9.9,0,0,1,1,1V25.8a12,12,0,0,1,5.1,5.7A24,24,0,1,0,30.7,47,12,12,0,0,1,23.8,36.2Z" /><path class="CSSGicon4" d="M6.9,14.9V11.7A1.1,1.1,0,0,1,8,10.6H19.2a1.5,1.5,0,0,1,1.1.7l1.9,3.1v1.7l-15.4.2Z" /><path class="CSSGicon5" d="M40.7,13.5H6.9v2.7c0,5.4,0,17.2,0,18.5S8,36.2,8,36.2H23.8A12,12,0,0,1,41.7,25.8V14.5A.9.9,0,0,0,40.7,13.5Z" /></g><view id="icon-file_and_directory_restoration" viewBox="0 0 48 48" /></svg>