<svg height="48" width="154" xmlns="http://www.w3.org/2000/svg" xmlns:svg="http://www.w3.org/2000/svg" xmlns:xlink="http://www.w3.org/1999/xlink"><style type="text/css"><![CDATA[.CSSGicon1{fill:#25323c;}.CSSGicon2{fill:#fff;}.CSSGicon3{fill:#84b556;}.CSSGicon4{fill:#666;}.CSSGicon5{fill:#336792;}.CSSGicon6{fill:#bcbcbc;}.CSSGicon7{fill:#e0e0e0;}.CSSGicon8{fill:#bbb;}.CSSGicon9{fill:#dfdfdf;}.CSSGicon10{fill:#ff6c2c;}]]></style><g transform="translate(0)"><circle class="CSSGicon1" cx="23.92" cy="23.97" r="23.81" /><path class="CSSGicon2" d="M24,2.42A21.62,21.62,0,1,0,45.63,24,21.64,21.64,0,0,0,24,2.42ZM4.57,24a19.36,19.36,0,0,1,1.68-7.91l9.27,25.4A19.44,19.44,0,0,1,4.57,24ZM24,43.48a19.43,19.43,0,0,1-5.49-.79l5.83-16.95,6,16.37a1.82,1.82,0,0,0,.14.27A19.4,19.4,0,0,1,24,43.48Zm2.68-28.55c1.17-.06,2.22-.18,2.22-.18a.8.8,0,0,0-.12-1.6s-3.15.25-5.18.25-5.12-.25-5.12-.25a.8.8,0,0,0-.12,1.6s1,.12,2,.18l3,8.3L19.18,36,12.1,14.93c1.17-.06,2.22-.18,2.22-.18a.8.8,0,0,0-.12-1.6s-3.15.25-5.18.25l-1.25,0A19.43,19.43,0,0,1,37.13,9.71l-.25,0a3.37,3.37,0,0,0-3.26,3.45c0,1.6.92,3,1.91,4.56a10.24,10.24,0,0,1,1.6,5.36c0,1.66-.64,3.59-1.48,6.28l-1.94,6.48Zm14.38-.21a19.44,19.44,0,0,1-7.28,26.13l5.94-17.16a18.35,18.35,0,0,0,1.48-7A14.91,14.91,0,0,0,41.06,14.72Z" /></g><g transform="translate(53)"><path class="CSSGicon3" d="M35.1,27.2A8.5,8.5,0,0,0,29,30.2a9.8,9.8,0,0,0-2.4,6.5,9.1,9.1,0,0,0,4.3,7.5c4.3,2.5,7.7,1.1,7.7,1.1a9.3,9.3,0,0,0,5.6-5,10.2,10.2,0,0,0,0-7.7,8,8,0,0,0-1.3-2l1.7-1.3-6-1.7V34l1.9-1.5a5.9,5.9,0,0,1,.7,6.5c-1.8,4-6.2,3.3-6.2,3.3s-5.6-.8-5.1-7.1a6,6,0,0,1,5.3-4.8Z" /><path class="CSSGicon4" d="M34.4,37.7V33.9s.1-.3.6-.3.4,0,.5.3v2.9h2.9a.5.5,0,0,1,.3.5c0,.4-.3.4-.3.4Z" /><path class="CSSGicon5" d="M23.8,36.2H8s-1.1.2-1.1-1.4,0-13,0-18.5V13.5H40.7a.9.9,0,0,1,1,1V25.8a12,12,0,0,1,5.1,5.7A24,24,0,1,0,30.7,47,12,12,0,0,1,23.8,36.2Z" /><path class="CSSGicon6" d="M6.9,14.9V11.7A1.1,1.1,0,0,1,8,10.6H19.2a1.5,1.5,0,0,1,1.1.7l1.9,3.1v1.7l-15.4.2Z" /><path class="CSSGicon7" d="M40.7,13.5H6.9v2.7c0,5.4,0,17.2,0,18.5S8,36.2,8,36.2H23.8A12,12,0,0,1,41.7,25.8V14.5A.9.9,0,0,0,40.7,13.5Z" /></g><g transform="translate(106)"><path class="CSSGicon8" d="M47.93,17.09,28.42,1.93a7.79,7.79,0,0,0-9.3.5C14.45,6.23.06,17.07.06,17.07V43.91s-.44,3.43,4.11,3.43l41.36.06s2.12-.19,2.31-2.93S47.93,17.09,47.93,17.09ZM42.41,36.68a3,3,0,0,1-1.12,2l-2.1,1.7a3.06,3.06,0,0,1-1.92.68A3,3,0,0,1,34.88,40l-6.25-7.75a3,3,0,0,1-.68-2,10.4,10.4,0,0,1-3.32.54A10.55,10.55,0,1,1,33.7,25.6a3,3,0,0,1,1.8,1.08l6.25,7.75A3,3,0,0,1,42.41,36.68Z" transform="translate(-0.05 -0.6)" /><path class="CSSGicon2" d="M26.9,6.75C23.47,3.83,21,6.64,21,6.64L4.7,19.84l19.36,15-.85,5.75,12.22-.07a3.45,3.45,0,0,1-.55-.53l-6.25-7.75a3,3,0,0,1-.68-2,10.4,10.4,0,0,1-3.32.54A10.55,10.55,0,1,1,33.7,25.6a3,3,0,0,1,1.8,1.08l6.25,7.75a3,3,0,0,1,.66,2.25,3,3,0,0,1-1.12,2l-2.1,1.7-.06,0,4.94,0V20.26S30.32,9.68,26.9,6.75Z" transform="translate(-0.05 -0.6)" /><circle class="CSSGicon7" cx="24.57" cy="19.61" r="6.84" /><path class="CSSGicon9" d="M47.92,44.85V17.1l-12.7,9.29a2.57,2.57,0,0,1,.28.29l6.25,7.75a3,3,0,0,1,.66,2.25,3,3,0,0,1-1.12,2l-2.1,1.7a3.06,3.06,0,0,1-1.92.68A3,3,0,0,1,34.88,40l-6.25-7.75a2.77,2.77,0,0,1-.42-.7L6.6,47.34s35.69.25,38.62.12S47.92,44.85,47.92,44.85Z" transform="translate(-0.05 -0.6)" /><path class="CSSGicon4" d="M30.88,26.05A8.58,8.58,0,1,0,29,27.59h0l1.45,1.82,2-1.58-1.49-1.78Zm-7,1a6.84,6.84,0,1,1,7.53-6.07A6.84,6.84,0,0,1,23.89,27Z" transform="translate(-0.05 -0.6)" /><path class="CSSGicon10" d="M40.2,35.68l-6.26-7.75a1.08,1.08,0,0,0-1.5-.16l-.07.06-2,1.58-.07.06a1.07,1.07,0,0,0-.16,1.5l6.26,7.75a1.07,1.07,0,0,0,1.49.16L40,37.18A1.08,1.08,0,0,0,40.2,35.68Z" transform="translate(-0.05 -0.6)" /></g><view id="icon-cpanel-wordpress-instance-manager" viewBox="0 0 48 48" /><view id="icon-file_and_directory_restoration" viewBox="53 0 48 48" /><view id="icon-solr_search_index" viewBox="106 0 47.9 46.9" /></svg>