<?xml version="1.0" encoding="utf-8"?>
<!-- Generator: Adobe Illustrator 20.0.0, SVG Export Plug-In . SVG Version: 6.00 Build 0)  -->
<svg version="1.1" id="Layer_1" xmlns="http://www.w3.org/2000/svg" xmlns:xlink="http://www.w3.org/1999/xlink" x="0px" y="0px"
	 viewBox="0 0 94 20" style="enable-background:new 0 0 94 20;" xml:space="preserve">
<style type="text/css">
	.st0{fill:#FFFFFF;}
</style>
<title>Asset 1</title>
<g id="Layer_2">
	<g id="Layer_1-2">
		<path class="st0" d="M7.8,4.9h5.9l-0.9,3.3c-0.1,0.4-0.4,0.8-0.8,1.1c-0.4,0.3-0.8,0.4-1.3,0.4H7.9c-0.6,0-1.2,0.2-1.7,0.5
			c-0.5,0.4-0.8,0.9-1,1.4c-0.1,0.4-0.1,0.9,0,1.3c0.1,0.4,0.3,0.7,0.5,1.1c0.2,0.3,0.6,0.6,0.9,0.7C7,15,7.5,15.1,7.9,15.1h1.7
			c0.3,0,0.6,0.1,0.8,0.4c0.2,0.2,0.3,0.5,0.2,0.8l-1,3.7H7.6c-1.2,0-2.4-0.3-3.4-0.8c-1-0.5-1.9-1.2-2.6-2.1
			c-1.4-1.8-1.9-4.2-1.3-6.4l0.1-0.4c0.4-1.6,1.4-2.9,2.7-3.9C3.8,6,4.5,5.6,5.3,5.3C6.1,5.1,6.9,4.9,7.8,4.9z"/>
		<path class="st0" d="M10.7,20l5.1-18.4c0.1-0.4,0.4-0.8,0.8-1.1C17,0.1,17.5,0,18,0h5.4c1.2,0,2.4,0.3,3.4,0.8c2.1,1,3.5,2.9,4,5
			c0.3,1.1,0.2,2.3-0.1,3.4l-0.1,0.4c-0.2,0.8-0.6,1.5-1,2.2c-1.4,2-3.8,3.3-6.3,3.3h-4.7l0.9-3.4c0.1-0.4,0.4-0.8,0.8-1.1
			c0.4-0.3,0.8-0.4,1.3-0.4h1.5c1.2,0,2.3-0.8,2.7-2c0.1-0.4,0.1-0.8,0-1.2c-0.1-0.4-0.3-0.7-0.5-1.1c-0.2-0.3-0.6-0.6-0.9-0.7
			C24,5,23.6,4.9,23.1,4.9h-2.9l-3.8,13.6c-0.1,0.4-0.4,0.8-0.8,1.1c-0.4,0.3-0.8,0.4-1.3,0.4H10.7z"/>
		<path class="st0" d="M43.1,10.2l0.1-0.3c0-0.1,0-0.2-0.1-0.3c-0.1-0.1-0.2-0.1-0.3-0.1h-8.4c-0.3,0-0.7-0.1-1-0.2
			c-0.3-0.1-0.5-0.3-0.7-0.6c-0.2-0.2-0.3-0.5-0.4-0.8c-0.1-0.3-0.1-0.7,0-1l0.5-1.9h11.4c0.7,0,1.3,0.1,1.9,0.4
			c0.6,0.3,1.1,0.7,1.5,1.2c0.4,0.5,0.7,1.1,0.8,1.7c0.1,0.6,0.1,1.3,0,1.9l-2.1,7.3C46,19,44.6,20,43,20l-8.4,0
			c-1.4,0-2.7-0.6-3.6-1.7c-0.4-0.5-0.7-1.1-0.8-1.7c-0.2-0.7-0.1-1.4,0.1-2l0.1-0.4c0.1-0.5,0.3-0.9,0.6-1.3c0.3-0.4,0.6-0.7,1-1
			c0.4-0.3,0.8-0.5,1.3-0.7c0.5-0.2,1-0.2,1.5-0.2h7.1l-0.5,1.9c-0.1,0.4-0.4,0.8-0.8,1.1c-0.4,0.3-0.8,0.4-1.3,0.4h-3.2
			c-0.3,0-0.5,0.1-0.6,0.4c-0.1,0.2,0,0.4,0.1,0.5c0.1,0.1,0.3,0.2,0.5,0.2h5.1c0.2,0,0.4,0,0.5-0.1c0.1-0.1,0.2-0.2,0.3-0.4
			l0.1-0.2L43.1,10.2z"/>
		<path class="st0" d="M58.3,4.9c1.2,0,2.4,0.3,3.5,0.8c1,0.5,1.9,1.2,2.6,2.1c0.7,0.9,1.2,1.9,1.4,3c0.3,1.1,0.2,2.3-0.1,3.4
			l-1.3,4.7c-0.1,0.3-0.3,0.6-0.6,0.8c-0.3,0.2-0.6,0.3-1,0.3H60c-0.5,0-1-0.4-1-0.9c0-0.1,0-0.2,0-0.3l1.6-5.7
			c0.1-0.4,0.1-0.8,0-1.2c-0.1-0.4-0.3-0.7-0.5-1.1c-0.2-0.3-0.6-0.6-0.9-0.7c-0.4-0.2-0.8-0.3-1.2-0.3h-2.9l-2.5,9.1
			c-0.1,0.3-0.3,0.6-0.6,0.8c-0.3,0.2-0.6,0.3-1,0.3h-2.8c-0.3,0-0.6-0.1-0.8-0.4c-0.2-0.2-0.3-0.5-0.2-0.8l3.8-13.9L58.3,4.9z"/>
		<path class="st0" d="M73.6,9.7c-0.2,0.2-0.4,0.4-0.4,0.6L72,14.5c-0.1,0.4,0.1,0.8,0.5,0.9c0.1,0,0.1,0,0.2,0h10.8l-0.8,3
			c-0.1,0.4-0.4,0.8-0.8,1.1C81.5,19.9,81,20,80.6,20h-9.8c-0.7,0-1.3-0.1-1.9-0.4c-0.6-0.3-1.1-0.7-1.5-1.2
			c-0.4-0.5-0.7-1.1-0.8-1.7c-0.1-0.6-0.1-1.3,0.1-1.9l1.6-5.7c0.2-0.6,0.4-1.2,0.8-1.7c0.7-1,1.7-1.8,2.9-2.2
			c0.6-0.2,1.3-0.3,1.9-0.3h6.9c0.7,0,1.3,0.1,1.9,0.4c0.6,0.3,1.1,0.7,1.5,1.2C84.6,7,84.9,7.6,85,8.2c0.1,0.6,0.1,1.3-0.1,1.9
			l-0.5,1.7c-0.2,0.7-0.6,1.4-1.3,1.8c-0.6,0.5-1.4,0.7-2.1,0.7h-7.8l0.5-1.8c0.1-0.4,0.4-0.8,0.8-1.1c0.4-0.3,0.8-0.4,1.3-0.4H79
			c0.3,0,0.5-0.1,0.6-0.4l0.1-0.4c0.1-0.3-0.1-0.6-0.4-0.7c0,0-0.1,0-0.1,0h-4.8C74,9.4,73.8,9.5,73.6,9.7z"/>
		<path class="st0" d="M83.5,20l5.2-18.9c0.1-0.3,0.3-0.6,0.6-0.8c0.3-0.2,0.6-0.3,1-0.3H93c0.3,0,0.6,0.1,0.8,0.4
			C94,0.6,94.1,0.9,94,1.2l-3.9,13.9c-0.2,0.7-0.5,1.4-0.9,2c-0.4,0.6-0.9,1.1-1.5,1.5c-0.6,0.4-1.2,0.8-1.9,1
			C85,19.9,84.2,20,83.5,20z"/>
	</g>
</g>
</svg>
