<?xml version="1.0" encoding="utf-8"?>
<!-- Generator: Adobe Illustrator 20.0.0, SVG Export Plug-In . SVG Version: 6.00 Build 0)  -->
<svg version="1.1" id="Layer_1" xmlns="http://www.w3.org/2000/svg" xmlns:xlink="http://www.w3.org/1999/xlink" x="0px" y="0px"
	 viewBox="0 0 29.9 20" style="enable-background:new 0 0 29.9 20;" xml:space="preserve">
<style type="text/css">
	.st0{fill:#FFFFFF;}
</style>
<title>Asset 1</title>
<g id="Layer_2">
	<g id="Layer_1-2">
		<path class="st0" d="M7.5,4.9h5.6l-0.9,3.3c-0.1,0.4-0.4,0.8-0.7,1.1c-0.4,0.3-0.8,0.4-1.3,0.4H7.6C7,9.8,6.5,10,6,10.3
			c-0.5,0.4-0.8,0.9-1,1.4c-0.1,0.4-0.1,0.9,0,1.3c0.1,0.4,0.2,0.7,0.5,1.1c0.2,0.3,0.5,0.6,0.9,0.7c0.4,0.2,0.8,0.3,1.2,0.3h1.6
			c0.3,0,0.6,0.1,0.7,0.4c0.2,0.2,0.3,0.5,0.2,0.8l-1,3.7H7.4c-1.2,0-2.3-0.3-3.3-0.8c-1-0.5-1.8-1.2-2.5-2.1
			c-1.4-1.8-1.9-4.2-1.3-6.4l0.1-0.4C0.8,8.8,1.7,7.4,3,6.4C3.6,6,4.3,5.6,5.1,5.3C5.8,5.1,6.7,4.9,7.5,4.9z"/>
		<path class="st0" d="M10.3,20l4.9-18.4c0.1-0.4,0.4-0.8,0.7-1.1C16.4,0.1,16.8,0,17.3,0h5.2c1.2,0,2.3,0.3,3.3,0.8
			c2,1,3.4,2.9,3.9,5c0.2,1.1,0.2,2.3-0.1,3.4l-0.1,0.4c-0.2,0.8-0.5,1.5-1,2.2c-1.4,2-3.6,3.3-6.1,3.3h-4.5l0.9-3.4
			c0.1-0.4,0.4-0.8,0.7-1.1c0.4-0.3,0.8-0.4,1.3-0.4h1.4c1.2,0,2.3-0.8,2.5-2c0.1-0.4,0.1-0.8,0-1.2c-0.1-0.4-0.3-0.7-0.5-1.1
			c-0.2-0.3-0.5-0.6-0.9-0.7c-0.4-0.2-0.8-0.3-1.2-0.3h-2.8l-3.6,13.6c-0.1,0.4-0.4,0.8-0.7,1.1c-0.4,0.3-0.8,0.4-1.2,0.4H10.3z"/>
	</g>
</g>
</svg>
