<?xml version="1.0" encoding="utf-8"?>
<!-- Generator: Adobe Illustrator 20.0.0, SVG Export Plug-In . SVG Version: 6.00 Build 0)  -->
<svg version="1.1" id="Layer_1" xmlns="http://www.w3.org/2000/svg" xmlns:xlink="http://www.w3.org/1999/xlink" x="0px" y="0px"
	 viewBox="0 0 121.8 20" style="enable-background:new 0 0 121.8 20;" xml:space="preserve">
<style type="text/css">
	.st0{fill:#FFFFFF;}
</style>
<title>Asset 1</title>
<g id="Layer_2">
	<g id="Layer_1-2">
		<path class="st0" d="M30.4,1.2l-3.6,13.3c-0.2,0.8-0.5,1.5-1,2.2c-0.4,0.7-1,1.2-1.6,1.7c-0.6,0.5-1.3,0.9-2.1,1.1
			c-0.8,0.3-1.6,0.4-2.4,0.4H0L5,1.1c0.1-0.3,0.3-0.6,0.5-0.8C5.8,0.1,6.2,0,6.5,0h2.7c0.3,0,0.6,0.1,0.8,0.4
			c0.2,0.2,0.3,0.5,0.2,0.8L6.4,15.1h5.1l3.7-14c0.1-0.3,0.3-0.6,0.5-0.8C16,0.1,16.3,0,16.6,0h2.7c0.3,0,0.6,0.1,0.7,0.4
			c0.2,0.2,0.2,0.5,0.1,0.8l-3.7,13.9h3c0.6,0,1.2-0.2,1.6-0.5c0.5-0.3,0.8-0.8,0.9-1.4l3.2-12c0.1-0.3,0.3-0.6,0.5-0.8
			C26.2,0.1,26.5,0,26.8,0h2.7c0.3,0,0.6,0.1,0.8,0.4C30.4,0.6,30.5,0.9,30.4,1.2z"/>
		<path class="st0" d="M34.5,9.7c-0.2,0.2-0.3,0.4-0.4,0.6L33,14.5c-0.1,0.4,0.1,0.8,0.5,0.9c0.1,0,0.1,0,0.2,0h10.3l-0.8,3
			c-0.1,0.4-0.4,0.8-0.7,1.1c-0.4,0.3-0.8,0.4-1.2,0.4h-9.4c-0.7,0-1.3-0.1-1.9-0.4c-0.6-0.3-1-0.7-1.4-1.2
			c-0.4-0.5-0.6-1.1-0.8-1.7c-0.1-0.6-0.1-1.3,0.1-1.9l1.5-5.7c0.2-0.6,0.4-1.2,0.8-1.7c0.7-1,1.7-1.8,2.8-2.2
			c0.6-0.2,1.2-0.3,1.8-0.3h6.7c0.7,0,1.3,0.1,1.9,0.4c0.5,0.3,1,0.7,1.4,1.2c0.4,0.5,0.6,1.1,0.8,1.7c0.1,0.6,0.1,1.3,0,1.9
			L45,11.8c-0.2,0.7-0.6,1.4-1.2,1.8c-0.6,0.5-1.3,0.7-2.1,0.7h-7.5l0.5-1.8c0.1-0.4,0.4-0.8,0.7-1.1c0.4-0.3,0.8-0.4,1.3-0.4h3
			c0.3,0,0.5-0.1,0.5-0.4l0.1-0.4c0.1-0.3-0.1-0.6-0.4-0.7c0,0-0.1,0-0.1,0h-4.6C35,9.4,34.7,9.5,34.5,9.7z"/>
		<path class="st0" d="M51.6,0c0.3,0,0.7,0.1,0.9,0.2c0.3,0.1,0.5,0.3,0.7,0.6c0.2,0.2,0.3,0.5,0.4,0.8c0.1,0.3,0.1,0.7,0,1
			l-3.3,12.5h4.2c0.6,0,1.1-0.2,1.6-0.5c0.5-0.4,0.8-0.9,0.9-1.4c0.1-0.4,0.1-0.8,0-1.2c-0.1-0.4-0.3-0.7-0.5-1.1
			c-0.2-0.3-0.6-0.6-0.9-0.7c-0.4-0.2-0.8-0.3-1.2-0.3h-0.2c-0.4,0-0.7-0.1-0.9-0.4c-0.2-0.3-0.3-0.6-0.2-1l0.9-3.5h0.5
			c1.2,0,2.3,0.3,3.3,0.8c2,1,3.4,2.9,3.9,5.1c0.2,1.1,0.2,2.3-0.1,3.4l-0.1,0.4c-0.4,1.6-1.3,2.9-2.6,3.9c-0.6,0.5-1.3,0.9-2.1,1.1
			c-0.8,0.3-1.6,0.4-2.4,0.4h-8c-0.3,0-0.6-0.1-0.9-0.2c-0.3-0.1-0.5-0.3-0.7-0.6c-0.2-0.2-0.3-0.5-0.4-0.8c-0.1-0.3-0.1-0.7,0-1
			L49.2,0H51.6z"/>
		<path class="st0" d="M61.6,18.8l3.7-13.9h15.8c1.2,0,2.3,0.3,3.3,0.8c2,1,3.4,2.9,3.9,5.1c0.2,1.1,0.2,2.3-0.1,3.4l-1.3,4.7
			c-0.1,0.3-0.3,0.6-0.5,0.8c-0.3,0.2-0.6,0.3-0.9,0.3h-2.7c-0.5,0-0.9-0.4-0.9-0.9c0-0.1,0-0.2,0-0.3l1.5-5.7
			c0.1-0.4,0.1-0.8,0-1.2c-0.1-0.4-0.3-0.7-0.5-1.1c-0.2-0.3-0.5-0.6-0.9-0.7c-0.4-0.2-0.8-0.3-1.2-0.3h-1.6l-2.4,9.1
			c-0.1,0.3-0.3,0.6-0.5,0.8C76,19.9,75.7,20,75.3,20h-2.7c-0.3,0-0.6-0.1-0.8-0.4c-0.2-0.2-0.3-0.5-0.2-0.8l2.4-9h-5.1l-2.4,9.1
			c-0.1,0.3-0.3,0.6-0.5,0.8c-0.3,0.2-0.6,0.3-0.9,0.3h-2.7c-0.3,0-0.6-0.1-0.7-0.4C61.6,19.4,61.5,19.1,61.6,18.8z"/>
		<path class="st0" d="M101.7,10.2l0.1-0.3c0-0.1,0-0.2-0.1-0.3c-0.1-0.1-0.2-0.1-0.3-0.1h-8.1c-0.3,0-0.7-0.1-0.9-0.2
			c-0.3-0.1-0.5-0.3-0.7-0.6c-0.2-0.2-0.3-0.5-0.4-0.8c-0.1-0.3-0.1-0.7,0-1l0.5-1.9h11c0.7,0,1.3,0.1,1.9,0.4
			c0.6,0.3,1,0.7,1.4,1.2c0.4,0.5,0.6,1.1,0.8,1.7c0.1,0.6,0.1,1.3,0,1.9l-2,7.3c-0.4,1.5-1.8,2.5-3.3,2.5l-8.1,0
			c-1.4,0-2.6-0.6-3.4-1.7c-0.4-0.5-0.7-1.1-0.8-1.7c-0.2-0.7-0.1-1.4,0-2l0.1-0.4c0.1-0.5,0.3-0.9,0.6-1.3c0.3-0.4,0.6-0.7,1-1
			c0.4-0.3,0.8-0.5,1.2-0.7c0.5-0.2,0.9-0.2,1.4-0.2h6.8l-0.5,1.9c-0.1,0.4-0.4,0.8-0.7,1.1c-0.4,0.3-0.8,0.4-1.2,0.4h-3
			c-0.3,0-0.5,0.1-0.5,0.4c-0.1,0.2,0,0.4,0.1,0.5c0.1,0.1,0.3,0.2,0.4,0.2h4.9c0.2,0,0.3,0,0.5-0.1c0.1-0.1,0.2-0.2,0.2-0.4l0-0.2
			L101.7,10.2z"/>
		<path class="st0" d="M105.4,20l3.2-12c0.1-0.4,0.3-0.9,0.6-1.2c0.3-0.4,0.6-0.7,0.9-1c0.4-0.3,0.8-0.5,1.2-0.6
			c0.4-0.2,0.9-0.2,1.3-0.2h1.9l-3.2,12c-0.1,0.4-0.3,0.9-0.6,1.2c-0.3,0.4-0.6,0.7-0.9,1c-0.4,0.3-0.8,0.5-1.2,0.6
			c-0.4,0.1-0.9,0.2-1.3,0.2H105.4z M110,2.6l0.4-1.4c0.1-0.3,0.3-0.6,0.5-0.8c0.3-0.2,0.6-0.3,0.9-0.3h2.7c0.3,0,0.6,0.1,0.7,0.4
			c0.2,0.2,0.2,0.5,0.2,0.8l-0.4,1.5c-0.1,0.3-0.3,0.6-0.5,0.8c-0.3,0.2-0.6,0.3-0.9,0.3h-2.7c-0.3,0-0.6-0.1-0.7-0.4
			C110,3.2,109.9,2.9,110,2.6z"/>
		<path class="st0" d="M111.6,20l5-18.9c0.1-0.3,0.3-0.6,0.5-0.8c0.3-0.2,0.6-0.3,0.9-0.3h2.7c0.3,0,0.6,0.1,0.8,0.4
			c0.2,0.2,0.3,0.5,0.2,0.8L118,15.1c-0.2,0.7-0.5,1.4-0.9,2c-0.4,0.6-0.9,1.1-1.4,1.5c-0.6,0.4-1.2,0.8-1.9,1
			C113.1,19.9,112.4,20,111.6,20z"/>
	</g>
</g>
</svg>
