<?xml version="1.0" encoding="utf-8"?>
<!-- Generator: Adobe Illustrator 21.1.0, SVG Export Plug-In . SVG Version: 6.00 Build 0)  -->
<svg version="1.1" xmlns="http://www.w3.org/2000/svg" xmlns:xlink="http://www.w3.org/1999/xlink" x="0px" y="0px"
	 viewBox="0 0 48 48" style="enable-background:new 0 0 48 48;" xml:space="preserve">
<style type="text/css">
	.st0{fill:#E0E0E0;}
	.st1{fill:#262626;}
	.st2{fill:#4F5B94;}
	.st3{fill:#15587C;}
	.st4{fill:none;}
	.st5{fill:#BCBCBC;}
	.st6{fill:#FFFFFF;}
	.st7{fill:#D34231;}
	.st8{fill:#666666;}
	.st9{fill:#EDA72B;}
	.st10{fill:#25323C;}
	.st11{fill:#336792;}
	.st12{fill:#32415B;}
	.st13{fill:#84B556;}
	.st14{fill:#6A9638;}
	.st15{fill:#189BD8;}
	.st16{fill:#BA342A;}
	.st17{fill:#FF6C2C;}
	.st18{fill:#8892BF;}
	.st19{fill:#FFFFFF;stroke:#FFFFFF;stroke-width:0.25;stroke-miterlimit:10;}
	.st20{fill:#FFFFFF;stroke:#FFFFFF;stroke-miterlimit:10;}
	.st21{fill:#FF6A1A;}
	.st22{fill:#00AA17;}
	.st23{fill:#FA741D;}
	.st24{fill:none;stroke:#15587C;stroke-miterlimit:10;}
	.st25{fill:none;stroke:#15587C;stroke-width:1.5;stroke-miterlimit:10;}
	.st26{fill:none;stroke:#BA342A;stroke-width:5;stroke-miterlimit:10;}
	.st27{fill:#000004;}
	.st28{fill:#000004;stroke:#FFFFFF;stroke-width:0.5;stroke-miterlimit:10;}
	.st29{fill:#017F00;}
	.st30{fill:none;stroke:#BCBCBC;stroke-miterlimit:10;}
	.st31{fill:#39FF2A;}
	.st32{fill:#FF00B3;}
	.st33{fill:#4DFF00;}
	.st34{fill:#FFFFFF;stroke:#FFFFFF;stroke-width:1.5;stroke-miterlimit:10;}
	.st35{fill:#FFFFFF;stroke:#FFFFFF;stroke-width:0.5;stroke-miterlimit:10;}
	.st36{fill:#FFFFFF;stroke:#BCBCBC;stroke-miterlimit:10;}
</style>
<g id="Layer_1">
</g>
<g id="remote_x5F_mysql">
</g>
<g id="addon_x5F_domains">
	<path class="st10" d="M23.914,0.026c-13.103,0-23.725,10.622-23.725,23.725c0,13.103,10.622,23.725,23.725,23.725
		c2.525,0,4.955-0.398,7.238-1.128c-3.89-1.854-6.586-5.811-6.586-10.408c0-1.076,0.158-2.113,0.434-3.101
		c0.11-0.395,0.238-0.782,0.388-1.158c0.153-0.384,0.322-0.758,0.513-1.121c0.619-1.171,1.437-2.215,2.403-3.104
		c0.416-0.383,0.853-0.744,1.322-1.063c0.687-0.467,1.43-0.855,2.212-1.166c0.66-0.263,1.349-0.47,2.062-0.608
		c0.713-0.138,1.448-0.216,2.202-0.216c0.006,0,0.011,0.001,0.016,0.001c0.703,0.001,1.388,0.074,2.056,0.195
		c1.289,0.234,2.501,0.679,3.603,1.303v0c0.378,0.214,0.74,0.452,1.089,0.706c0.375,0.272,0.732,0.566,1.071,0.881v-0.018h0v0.018
		c1.065,0.988,1.941,2.173,2.573,3.5c0.73-2.282,1.128-4.713,1.128-7.238C47.639,10.648,37.017,0.026,23.914,0.026z"/>
	<path class="st12" d="M22.716,21.987c-0.487,0-0.866,0.173-1.135,0.519c-0.27,0.346-0.405,0.835-0.405,1.468
		c0,1.325,0.518,1.987,1.553,1.987c0.987,0,1.481-0.68,1.481-2.041C24.211,22.631,23.712,21.987,22.716,21.987z"/>
	<path class="st12" d="M38.92,16.912H9.111c-1.623,0-2.938,1.315-2.938,2.938v7.738c0,1.622,1.315,2.938,2.938,2.938h16.875
		c0.618-1.17,1.436-2.215,2.402-3.103h-0.74v-6.897h2.062v1.078h0.026c0.213-0.368,0.512-0.667,0.897-0.899
		c0.385-0.231,0.806-0.347,1.263-0.347c0.943,0,1.589,0.429,1.937,1.286c0.509-0.858,1.257-1.286,2.244-1.286
		c1.453,0,2.179,0.925,2.179,2.774v1.434c1.288,0.234,2.501,0.679,3.602,1.303v-6.02C41.858,18.227,40.543,16.912,38.92,16.912z
		 M11.257,27.277c-0.228,0.209-0.526,0.314-0.891,0.314c-0.339,0-0.621-0.108-0.848-0.324c-0.226-0.215-0.339-0.479-0.339-0.795
		c0-0.323,0.116-0.588,0.349-0.795c0.232-0.206,0.522-0.31,0.87-0.31c0.352,0,0.64,0.105,0.864,0.313
		c0.224,0.209,0.337,0.473,0.337,0.791C11.6,26.801,11.486,27.069,11.257,27.277z M18.13,22.486
		c-0.43-0.332-0.911-0.499-1.442-0.499c-0.591,0-1.06,0.179-1.406,0.536c-0.346,0.357-0.519,0.85-0.519,1.478
		c0,0.611,0.165,1.091,0.496,1.438c0.33,0.348,0.784,0.521,1.363,0.521c0.513,0,1.015-0.165,1.507-0.498v1.711
		c-0.465,0.278-1.137,0.418-2.016,0.418c-1.026,0-1.857-0.322-2.492-0.963c-0.635-0.643-0.952-1.471-0.952-2.485
		c0-1.172,0.34-2.096,1.021-2.772c0.68-0.675,1.59-1.013,2.731-1.013c0.787,0,1.356,0.108,1.709,0.323V22.486z M25.335,26.594
		c-0.649,0.664-1.54,0.997-2.671,0.997c-1.113,0-1.989-0.323-2.626-0.967c-0.637-0.644-0.956-1.518-0.956-2.624
		c0-1.14,0.33-2.033,0.992-2.677c0.661-0.645,1.554-0.967,2.681-0.967c1.109,0,1.979,0.322,2.61,0.967
		c0.63,0.644,0.945,1.496,0.945,2.555C26.311,25.025,25.986,25.93,25.335,26.594z"/>
	<path class="st12" d="M35.132,21.987c-0.34,0-0.616,0.151-0.829,0.451c-0.214,0.3-0.32,0.675-0.32,1.124v1.023
		c0.713-0.138,1.448-0.216,2.201-0.216c0.006,0,0.011,0.001,0.016,0.001v-0.882C36.201,22.488,35.844,21.987,35.132,21.987z"/>
	<path class="st12" d="M30.872,21.987c-0.352,0-0.635,0.144-0.845,0.431c-0.212,0.287-0.316,0.678-0.316,1.172v2.77
		c0.687-0.467,1.43-0.854,2.212-1.166v-1.746C31.922,22.475,31.572,21.987,30.872,21.987z"/>
	<path class="st11" d="M39.167,14.633H8.865c-2.679,0-4.852,2.172-4.852,4.852v8.468c0,2.679,2.172,4.851,4.852,4.851h16.22
		c0.11-0.395,0.238-0.782,0.388-1.158c0.153-0.384,0.322-0.758,0.513-1.12H9.111c-1.623,0-2.938-1.315-2.938-2.938v-7.738
		c0-1.622,1.315-2.938,2.938-2.938H38.92c1.622,0,2.938,1.315,2.938,2.938v6.02c0.378,0.214,0.739,0.452,1.089,0.706
		c0.375,0.272,0.732,0.566,1.071,0.881v-7.971C44.018,16.805,41.846,14.633,39.167,14.633z"/>
	<circle class="st13" cx="36.201" cy="35.986" r="9.626"/>
	<path class="st6" d="M35.234,28.771h1.512v6.378h6.142v1.417h-6.142v6.425h-1.512v-6.425h-6.142v-1.417h6.142V28.771z"/>
	<polygon class="st6" points="37.746,43.991 34.234,43.991 34.234,37.566 28.093,37.566 28.093,34.149 34.234,34.149 34.234,27.771 
		37.746,27.771 37.746,34.149 43.888,34.149 43.888,37.566 37.746,37.566 	"/>
	<path class="st5" d="M10.399,25.368c-0.348,0-0.638,0.104-0.87,0.31c-0.233,0.207-0.349,0.472-0.349,0.795
		c0,0.315,0.113,0.58,0.339,0.795c0.226,0.216,0.509,0.324,0.848,0.324c0.366,0,0.663-0.105,0.891-0.314
		c0.229-0.208,0.342-0.476,0.342-0.805c0-0.319-0.113-0.582-0.337-0.791C11.039,25.473,10.751,25.368,10.399,25.368z"/>
	<path class="st5" d="M13.691,21.37c-0.681,0.676-1.021,1.6-1.021,2.772c0,1.014,0.317,1.842,0.952,2.485
		c0.635,0.642,1.465,0.963,2.492,0.963c0.879,0,1.551-0.14,2.016-0.418v-1.711c-0.492,0.332-0.994,0.498-1.507,0.498
		c-0.579,0-1.033-0.173-1.363-0.521c-0.331-0.348-0.496-0.827-0.496-1.438c0-0.628,0.173-1.121,0.519-1.478
		c0.346-0.357,0.815-0.536,1.406-0.536c0.531,0,1.012,0.167,1.442,0.499V20.68c-0.352-0.215-0.922-0.323-1.709-0.323
		C15.281,20.357,14.371,20.695,13.691,21.37z"/>
	<path class="st5" d="M22.756,20.357c-1.127,0-2.02,0.322-2.681,0.967c-0.662,0.644-0.992,1.536-0.992,2.677
		c0,1.105,0.318,1.98,0.956,2.624c0.637,0.644,1.513,0.967,2.626,0.967c1.131,0,2.022-0.333,2.671-0.997
		c0.651-0.664,0.976-1.569,0.976-2.715c0-1.059-0.315-1.911-0.945-2.555C24.734,20.679,23.864,20.357,22.756,20.357z M22.73,25.96
		c-1.035,0-1.553-0.662-1.553-1.987c0-0.633,0.135-1.122,0.405-1.468c0.269-0.346,0.647-0.519,1.135-0.519
		c0.996,0,1.495,0.644,1.495,1.932C24.211,25.28,23.717,25.96,22.73,25.96z"/>
	<path class="st5" d="M29.71,23.59c0-0.494,0.105-0.885,0.316-1.172c0.21-0.287,0.493-0.431,0.845-0.431
		c0.7,0,1.05,0.487,1.05,1.461v1.746c0.66-0.263,1.348-0.47,2.062-0.608v-1.023c0-0.449,0.106-0.824,0.32-1.124
		c0.213-0.301,0.489-0.451,0.829-0.451c0.712,0,1.069,0.501,1.069,1.501v0.882c0.703,0.001,1.387,0.074,2.055,0.195v-1.434
		c0-1.849-0.726-2.774-2.179-2.774c-0.987,0-1.736,0.429-2.244,1.286c-0.348-0.858-0.994-1.286-1.937-1.286
		c-0.457,0-0.878,0.116-1.263,0.347c-0.385,0.232-0.684,0.531-0.897,0.899H29.71v-1.078h-2.062v6.897h0.74
		c0.416-0.383,0.853-0.744,1.322-1.063V23.59z"/>
</g>
<g id="mysql_x5F_database_x5F_wizard">
</g>
<g id="multiphp_x5F_ini_x5F_editor">
</g>
</svg>
