<?xml version="1.0" encoding="utf-8"?>
<!-- Generator: Adobe Illustrator 21.1.0, SVG Export Plug-In . SVG Version: 6.00 Build 0)  -->
<svg version="1.1" xmlns="http://www.w3.org/2000/svg" xmlns:xlink="http://www.w3.org/1999/xlink" x="0px" y="0px"
	 viewBox="0 0 48 48" style="enable-background:new 0 0 48 48;" xml:space="preserve">
<style type="text/css">
	.st0{fill:#E0E0E0;}
	.st1{fill:#262626;}
	.st2{fill:#4F5B94;}
	.st3{fill:#15587C;}
	.st4{fill:none;}
	.st5{fill:#BCBCBC;}
	.st6{fill:#FFFFFF;}
	.st7{fill:#D34231;}
	.st8{fill:#666666;}
	.st9{fill:#EDA72B;}
	.st10{fill:#25323C;}
	.st11{fill:#336792;}
	.st12{fill:#32415B;}
	.st13{fill:#84B556;}
	.st14{fill:#6A9638;}
	.st15{fill:#189BD8;}
	.st16{fill:#BA342A;}
	.st17{fill:#FF6C2C;}
	.st18{fill:#8892BF;}
	.st19{fill:#FFFFFF;stroke:#FFFFFF;stroke-width:0.25;stroke-miterlimit:10;}
	.st20{fill:#FFFFFF;stroke:#FFFFFF;stroke-miterlimit:10;}
	.st21{fill:#FF6A1A;}
	.st22{fill:#00AA17;}
	.st23{fill:#FA741D;}
	.st24{fill:none;stroke:#15587C;stroke-miterlimit:10;}
	.st25{fill:none;stroke:#15587C;stroke-width:1.5;stroke-miterlimit:10;}
	.st26{fill:none;stroke:#BA342A;stroke-width:5;stroke-miterlimit:10;}
	.st27{fill:#000004;}
	.st28{fill:#000004;stroke:#FFFFFF;stroke-width:0.5;stroke-miterlimit:10;}
	.st29{fill:#017F00;}
	.st30{fill:none;stroke:#BCBCBC;stroke-miterlimit:10;}
	.st31{fill:#39FF2A;}
	.st32{fill:#FF00B3;}
	.st33{fill:#4DFF00;}
	.st34{fill:#FFFFFF;stroke:#FFFFFF;stroke-width:1.5;stroke-miterlimit:10;}
	.st35{fill:#FFFFFF;stroke:#FFFFFF;stroke-width:0.5;stroke-miterlimit:10;}
	.st36{fill:#FFFFFF;stroke:#BCBCBC;stroke-miterlimit:10;}
</style>
<g id="Layer_1">
	<polygon class="st4" points="7.451,46.825 23.463,46.825 23.515,46.786 	"/>
	<path class="st5" d="M28.374,1.312c0,0-4.117-2.951-8.477,0L0.529,16.193l-0.395,0.303c0,0.429,0,27.901,0,27.901
		s0.088,0.491,0.395,1.023c0.361,0.625,1.027,1.309,2.27,1.338c0.43,0.01,2.17,0.016,4.714,0.02l16.648-12.493
		C17.143,28.824,5.183,19.514,4.912,19.286L21.635,5.765c2.779-2.361,5.367,0,5.367,0l17.249,13.444l3.581-2.687l0-0.026
		L28.374,1.312z"/>
	<path class="st6" d="M27.002,5.765c0,0-2.588-2.361-5.367,0L4.912,19.286c0.271,0.227,12.231,9.537,19.249,14.999l20.09-15.076
		L27.002,5.765z"/>
	<path class="st0" d="M23.525,46.779l-0.01,0.007l4.254-0.01C26.369,46.777,24.948,46.778,23.525,46.779L23.525,46.779z"/>
	<path class="st0" d="M23.525,46.779c-6.022,0.004-12.012,0.005-16.012-0.001l-0.062,0.047l16.064-0.038L23.525,46.779
		L23.525,46.779z"/>
	<path class="st0" d="M47.832,16.522l-3.581,2.687l-20.09,15.076L7.513,46.778l38.146,0.047c0,0,0.588,0.005,1.148-0.401
		c0.038-0.026,0.062-0.044,0.09-0.066c0.01-0.008,0.021-0.016,0.031-0.025c0.065-0.054,0.109-0.096,0.109-0.096
		c0.017-0.014,0.028-0.035,0.044-0.05c0.031-0.032,0.06-0.067,0.09-0.102c0.094-0.107,0.176-0.225,0.245-0.357
		c0.022-0.04,0.044-0.081,0.065-0.124c0.021-0.046,0.041-0.091,0.059-0.138c0.09-0.216,0.161-0.469,0.206-0.76
		c0.002-0.013,0.004-0.025,0.006-0.038c0.01-0.07,0.021-0.138,0.028-0.212c0.054-0.436,0.049-0.774,0.049-0.774l0.015-10.674
		l0.005-3.893l0.017-12.62L47.832,16.522z"/>
	<g>
		<path class="st17" d="M18.012,20.938h-0.039c-0.298,0.841-0.84,1.261-1.625,1.261c-0.588,0-1.063-0.22-1.423-0.66
			c-0.36-0.44-0.541-1.05-0.541-1.829c0-1.008,0.25-1.828,0.748-2.46c0.499-0.631,1.1-0.947,1.804-0.947
			c0.635,0,1.034,0.258,1.196,0.772h0.025l0.064-0.653h1.439c-0.192,1.875-0.288,3.101-0.288,3.678c0,0.616,0.162,0.924,0.486,0.924
			c0.341,0,0.623-0.232,0.844-0.699s0.333-1.076,0.333-1.829c0-1.03-0.317-1.874-0.953-2.532c-0.636-0.658-1.522-0.987-2.661-0.987
			c-1.22,0-2.233,0.439-3.042,1.317s-1.212,1.949-1.212,3.212c0,1.225,0.357,2.188,1.071,2.893s1.7,1.057,2.958,1.057
			c0.959,0,1.838-0.189,2.635-0.568v1.262c-0.729,0.321-1.667,0.481-2.814,0.481c-1.573,0-2.854-0.466-3.84-1.396
			c-0.987-0.931-1.481-2.182-1.481-3.754c0-1.602,0.527-2.949,1.58-4.04c1.053-1.092,2.409-1.638,4.067-1.638
			c1.535,0,2.777,0.424,3.726,1.271c0.949,0.848,1.423,1.965,1.423,3.352c0,1.14-0.29,2.054-0.87,2.743
			c-0.58,0.688-1.299,1.033-2.156,1.033c-0.422,0-0.765-0.116-1.03-0.35C18.176,21.616,18.033,21.312,18.012,20.938z M17.162,17.452
			c-0.384,0-0.696,0.226-0.937,0.677c-0.241,0.451-0.361,0.974-0.361,1.568c0,0.422,0.082,0.751,0.246,0.986
			s0.376,0.354,0.636,0.354c0.401,0,0.716-0.223,0.947-0.667c0.23-0.444,0.345-1.039,0.345-1.782c0-0.353-0.08-0.63-0.24-0.832
			C17.638,17.553,17.426,17.452,17.162,17.452z"/>
	</g>
	<polygon class="st23" points="39.278,19.06 33.188,14.399 33.19,16.472 24.582,16.472 24.582,21.655 33.193,21.655 33.195,23.728 	
		"/>
</g>
<g id="remote_x5F_mysql">
</g>
<g id="addon_x5F_domains">
</g>
<g id="mysql_x5F_database_x5F_wizard">
</g>
<g id="multiphp_x5F_ini_x5F_editor">
</g>
</svg>
