<?xml version="1.0" encoding="utf-8"?>
<!-- Generator: Adobe Illustrator 21.1.0, SVG Export Plug-In . SVG Version: 6.00 Build 0)  -->
<svg version="1.1" xmlns="http://www.w3.org/2000/svg" xmlns:xlink="http://www.w3.org/1999/xlink" x="0px" y="0px"
	 viewBox="0 0 48 48" style="enable-background:new 0 0 48 48;" xml:space="preserve">
<style type="text/css">
	.st0{fill:#E0E0E0;}
	.st1{fill:#262626;}
	.st2{fill:#4F5B94;}
	.st3{fill:#15587C;}
	.st4{fill:none;}
	.st5{fill:#BCBCBC;}
	.st6{fill:#FFFFFF;}
	.st7{fill:#D34231;}
	.st8{fill:#666666;}
	.st9{fill:#EDA72B;}
	.st10{fill:#25323C;}
	.st11{fill:#336792;}
	.st12{fill:#32415B;}
	.st13{fill:#84B556;}
	.st14{fill:#6A9638;}
	.st15{fill:#189BD8;}
	.st16{fill:#BA342A;}
	.st17{fill:#FF6C2C;}
	.st18{fill:#8892BF;}
	.st19{fill:#FFFFFF;stroke:#FFFFFF;stroke-width:0.25;stroke-miterlimit:10;}
	.st20{fill:#FFFFFF;stroke:#FFFFFF;stroke-miterlimit:10;}
	.st21{fill:#FF6A1A;}
	.st22{fill:#00AA17;}
	.st23{fill:#FA741D;}
	.st24{fill:none;stroke:#15587C;stroke-miterlimit:10;}
	.st25{fill:none;stroke:#15587C;stroke-width:1.5;stroke-miterlimit:10;}
	.st26{fill:none;stroke:#BA342A;stroke-width:5;stroke-miterlimit:10;}
	.st27{fill:#000004;}
	.st28{fill:#000004;stroke:#FFFFFF;stroke-width:0.5;stroke-miterlimit:10;}
	.st29{fill:#017F00;}
	.st30{fill:none;stroke:#BCBCBC;stroke-miterlimit:10;}
	.st31{fill:#39FF2A;}
	.st32{fill:#FF00B3;}
	.st33{fill:#4DFF00;}
	.st34{fill:#FFFFFF;stroke:#FFFFFF;stroke-width:1.5;stroke-miterlimit:10;}
	.st35{fill:#FFFFFF;stroke:#FFFFFF;stroke-width:0.5;stroke-miterlimit:10;}
	.st36{fill:#FFFFFF;stroke:#BCBCBC;stroke-miterlimit:10;}
</style>
<g id="Layer_1">
	<path class="st10" d="M24.737,36.493c0-1.085,0.16-2.13,0.437-3.126H8.815c-2.702,0-4.893-2.191-4.893-4.893v-8.54
		c0-2.702,2.191-4.893,4.893-4.893h30.56c2.702,0,4.893,2.191,4.893,4.893v8.039c1.074,0.996,1.957,2.191,2.594,3.529
		C47.599,29.2,48,26.75,48,24.204C48,10.993,37.29,0.283,24.079,0.283S0.158,10.993,0.158,24.204s10.71,23.921,23.921,23.921
		c2.546,0,4.996-0.401,7.297-1.138C27.454,45.118,24.737,41.128,24.737,36.493z"/>
	<path class="st12" d="M22.785,22.458c-0.492,0-0.873,0.175-1.144,0.523c-0.273,0.348-0.409,0.842-0.409,1.48
		c0,1.336,0.522,2.004,1.566,2.004c0.996,0,1.494-0.686,1.494-2.058C24.292,23.107,23.789,22.458,22.785,22.458z"/>
	<path class="st12" d="M39.127,17.339H9.064c-1.636,0-2.963,1.327-2.963,2.963v7.804c0,1.636,1.327,2.963,2.963,2.963h17.019
		c0.624-1.18,1.449-2.234,2.423-3.129h-0.746v-6.956h2.079v1.087h0.026c0.214-0.371,0.516-0.673,0.905-0.907
		c0.388-0.233,0.813-0.35,1.274-0.35c0.951,0,1.603,0.432,1.954,1.297c0.513-0.865,1.268-1.297,2.263-1.297
		c1.465,0,2.198,0.933,2.198,2.798v1.446c1.299,0.236,2.522,0.685,3.632,1.314v-6.071C42.09,18.666,40.763,17.339,39.127,17.339z
		 M11.228,27.793c-0.23,0.211-0.53,0.317-0.899,0.317c-0.342,0-0.627-0.109-0.855-0.327c-0.228-0.217-0.342-0.484-0.342-0.801
		c0-0.326,0.117-0.593,0.352-0.801c0.234-0.208,0.527-0.312,0.877-0.312c0.355,0,0.646,0.106,0.872,0.316
		c0.226,0.211,0.34,0.477,0.34,0.798C11.573,27.313,11.458,27.583,11.228,27.793z M18.159,22.961
		c-0.434-0.335-0.918-0.503-1.454-0.503c-0.596,0-1.069,0.18-1.418,0.54c-0.348,0.36-0.523,0.857-0.523,1.49
		c0,0.616,0.167,1.1,0.501,1.451c0.333,0.351,0.791,0.526,1.375,0.526c0.518,0,1.024-0.167,1.52-0.502v1.725
		c-0.469,0.28-1.147,0.421-2.033,0.421c-1.035,0-1.873-0.325-2.513-0.972c-0.64-0.648-0.96-1.484-0.96-2.506
		c0-1.182,0.343-2.114,1.03-2.796c0.686-0.681,1.604-1.022,2.754-1.022c0.793,0,1.368,0.109,1.723,0.326V22.961z M25.426,27.104
		c-0.655,0.67-1.553,1.006-2.694,1.006c-1.123,0-2.006-0.326-2.648-0.975c-0.643-0.649-0.964-1.531-0.964-2.646
		c0-1.15,0.333-2.05,1-2.699c0.666-0.65,1.568-0.975,2.704-0.975c1.118,0,1.996,0.325,2.632,0.975
		c0.636,0.649,0.954,1.509,0.954,2.577C26.41,25.522,26.082,26.434,25.426,27.104z"/>
	<path class="st12" d="M35.306,22.458c-0.343,0-0.621,0.152-0.836,0.455c-0.216,0.303-0.322,0.681-0.322,1.134v1.032
		c0.719-0.139,1.46-0.217,2.22-0.217c0.006,0,0.011,0.001,0.016,0.001v-0.89C36.385,22.963,36.025,22.458,35.306,22.458z"/>
	<path class="st12" d="M31.01,22.458c-0.355,0-0.64,0.145-0.852,0.435c-0.213,0.29-0.319,0.683-0.319,1.182v2.793
		c0.693-0.471,1.442-0.862,2.231-1.176v-1.761C32.069,22.95,31.716,22.458,31.01,22.458z"/>
	<path class="st5" d="M10.362,25.868c-0.351,0-0.644,0.104-0.877,0.312c-0.235,0.209-0.352,0.476-0.352,0.801
		c0,0.318,0.114,0.585,0.342,0.801c0.228,0.218,0.513,0.327,0.855,0.327c0.369,0,0.669-0.106,0.899-0.317
		c0.231-0.21,0.345-0.48,0.345-0.812c0-0.321-0.114-0.587-0.34-0.798C11.008,25.974,10.717,25.868,10.362,25.868z"/>
	<path class="st5" d="M13.682,21.836c-0.687,0.682-1.03,1.614-1.03,2.796c0,1.023,0.32,1.858,0.96,2.506
		c0.64,0.647,1.478,0.972,2.513,0.972c0.887,0,1.564-0.141,2.033-0.421v-1.725c-0.496,0.335-1.002,0.502-1.52,0.502
		c-0.583,0-1.042-0.175-1.375-0.526c-0.334-0.351-0.501-0.834-0.501-1.451c0-0.633,0.175-1.131,0.523-1.49
		c0.348-0.36,0.822-0.54,1.418-0.54c0.536,0,1.02,0.168,1.454,0.503V21.14c-0.355-0.217-0.93-0.326-1.723-0.326
		C15.286,20.814,14.368,21.155,13.682,21.836z"/>
	<path class="st5" d="M22.824,20.814c-1.136,0-2.037,0.325-2.704,0.975c-0.667,0.649-1,1.549-1,2.699
		c0,1.115,0.321,1.997,0.964,2.646c0.642,0.649,1.526,0.975,2.648,0.975c1.141,0,2.039-0.336,2.694-1.006
		c0.656-0.67,0.984-1.582,0.984-2.738c0-1.068-0.318-1.927-0.954-2.577C24.82,21.139,23.942,20.814,22.824,20.814z M22.798,26.465
		c-1.044,0-1.566-0.667-1.566-2.004c0-0.638,0.136-1.132,0.409-1.48c0.271-0.349,0.653-0.523,1.144-0.523
		c1.005,0,1.507,0.649,1.507,1.949C24.292,25.78,23.794,26.465,22.798,26.465z"/>
	<path class="st5" d="M29.838,24.075c0-0.498,0.106-0.892,0.319-1.182c0.212-0.289,0.497-0.435,0.852-0.435
		c0.706,0,1.059,0.492,1.059,1.473v1.761c0.666-0.265,1.36-0.474,2.079-0.613v-1.032c0-0.453,0.107-0.831,0.322-1.134
		c0.215-0.303,0.493-0.455,0.836-0.455c0.719,0,1.078,0.505,1.078,1.514v0.89c0.709,0.001,1.399,0.074,2.073,0.197v-1.446
		c0-1.865-0.732-2.798-2.198-2.798c-0.996,0-1.75,0.432-2.263,1.297c-0.351-0.865-1.002-1.297-1.954-1.297
		c-0.461,0-0.885,0.117-1.274,0.35c-0.388,0.234-0.69,0.536-0.905,0.907h-0.026v-1.087h-2.079v6.956h0.746
		c0.42-0.386,0.86-0.75,1.333-1.072V24.075z"/>
	<path class="st11" d="M39.376,15.041H8.822c-2.702,0-4.892,2.19-4.892,4.892v8.538c0,2.702,2.19,4.892,4.892,4.892h16.356
		c0.111-0.398,0.24-0.788,0.391-1.168c0.154-0.387,0.324-0.765,0.517-1.13H9.07c-1.636,0-2.962-1.326-2.962-2.962v-7.803
		c0-1.636,1.326-2.962,2.962-2.962h30.057c1.636,0,2.962,1.326,2.962,2.962v6.07c0.381,0.216,0.745,0.455,1.098,0.712
		c0.378,0.275,0.738,0.571,1.08,0.888v-8.037C44.268,17.232,42.078,15.041,39.376,15.041z"/>
	<circle class="st18" cx="36.385" cy="36.577" r="9.708"/>
	<g>
		<g>
			<path class="st34" d="M42.768,34.369H29.353v-1.381h13.415V34.369z M42.768,39.408H29.353v-1.381h13.415V39.408z"/>
		</g>
	</g>
</g>
<g id="remote_x5F_mysql">
</g>
<g id="addon_x5F_domains">
</g>
<g id="mysql_x5F_database_x5F_wizard">
</g>
<g id="multiphp_x5F_ini_x5F_editor">
</g>
</svg>
