<?xml version="1.0" encoding="utf-8"?>
<!-- Generator: Adobe Illustrator 21.1.0, SVG Export Plug-In . SVG Version: 6.00 Build 0)  -->
<svg version="1.1" xmlns="http://www.w3.org/2000/svg" xmlns:xlink="http://www.w3.org/1999/xlink" x="0px" y="0px"
	 viewBox="0 0 48 48" style="enable-background:new 0 0 48 48;" xml:space="preserve">
<style type="text/css">
	.st0{fill:#E0E0E0;}
	.st1{fill:#262626;}
	.st2{fill:#4F5B94;}
	.st3{fill:#15587C;}
	.st4{fill:none;}
	.st5{fill:#BCBCBC;}
	.st6{fill:#FFFFFF;}
	.st7{fill:#D34231;}
	.st8{fill:#666666;}
	.st9{fill:#EDA72B;}
	.st10{fill:#25323C;}
	.st11{fill:#336792;}
	.st12{fill:#32415B;}
	.st13{fill:#84B556;}
	.st14{fill:#6A9638;}
	.st15{fill:#189BD8;}
	.st16{fill:#BA342A;}
	.st17{fill:#FF6C2C;}
	.st18{fill:#8892BF;}
	.st19{fill:#FFFFFF;stroke:#FFFFFF;stroke-width:0.25;stroke-miterlimit:10;}
	.st20{fill:#FFFFFF;stroke:#FFFFFF;stroke-miterlimit:10;}
	.st21{fill:#FF6A1A;}
	.st22{fill:#00AA17;}
	.st23{fill:#FA741D;}
	.st24{fill:none;stroke:#15587C;stroke-miterlimit:10;}
	.st25{fill:none;stroke:#15587C;stroke-width:1.5;stroke-miterlimit:10;}
	.st26{fill:none;stroke:#BA342A;stroke-width:5;stroke-miterlimit:10;}
	.st27{fill:#000004;}
	.st28{fill:#000004;stroke:#FFFFFF;stroke-width:0.5;stroke-miterlimit:10;}
	.st29{fill:#017F00;}
	.st30{fill:none;stroke:#BCBCBC;stroke-miterlimit:10;}
	.st31{fill:#39FF2A;}
	.st32{fill:#FF00B3;}
	.st33{fill:#4DFF00;}
	.st34{fill:#FFFFFF;stroke:#FFFFFF;stroke-width:1.5;stroke-miterlimit:10;}
	.st35{fill:#FFFFFF;stroke:#FFFFFF;stroke-width:0.5;stroke-miterlimit:10;}
	.st36{fill:#FFFFFF;stroke:#BCBCBC;stroke-miterlimit:10;}
</style>
<g id="Layer_1">
	<g>
		<rect x="1.209" y="4.98" class="st6" width="17.553" height="5.08"/>
		<g>
			<path class="st5" d="M49.949,38.397l-1.714-1.709l-2.163-2.157l-0.245-0.245l-0.435-0.434c0,0,0.221-0.767,0.277-1.87
				c0.076-1.494-0.152-3.607-1.654-5.301c-1.011-1.139-2.093-1.82-3.199-2.22c-0.629-0.227-1.265-0.363-1.901-0.438
				c-0.029-0.003-0.058-0.008-0.087-0.011c-0.901-0.098-1.8-0.079-2.672-0.028c-0.199,0.012-0.398,0.024-0.594,0.038l0.616,0.604
				l2.506,2.454l1.484,1.454l-0.093,0.367l-1.047,4.144l-1.76,0.445l-2.562,0.648l-0.107-0.109l-0.953-0.972L32.615,32l-1.232-1.258
				l-1.234-1.259c0,0-0.208,0.836-0.209,2.034c0,0.561,0.044,1.2,0.178,1.873c0.138,0.691,0.37,1.415,0.742,2.121
				c0.348,0.662,0.831,1.305,1.463,1.893c0.179,0.167,0.377,0.326,0.583,0.482c0.126,0.096,0.24,0.196,0.377,0.287
				c0,0,0.523,0.423,1.47,0.811c1.227,0.503,3.166,0.945,5.606,0.329l0.59,0.587l1.672,1.663l2.21,2.199l0.066,0.066
				c2.187-1.251,3.965-3.124,5.103-5.38L49.949,38.397z"/>
		</g>
		<path class="st6" d="M8.868,9.103h0.253c0.728,0,1.323-0.595,1.323-1.323V7.527c0-0.728-0.595-1.323-1.323-1.323H8.868
			c-0.728,0-1.323,0.595-1.323,1.323V7.78C7.545,8.507,8.14,9.103,8.868,9.103z"/>
		<path class="st6" d="M14.04,9.103h0.253c0.728,0,1.323-0.595,1.323-1.323V7.527c0-0.728-0.595-1.323-1.323-1.323H14.04
			c-0.728,0-1.323,0.595-1.323,1.323V7.78C12.717,8.507,13.313,9.103,14.04,9.103z"/>
		<path class="st4" d="M8.868,9.103h0.253c0.728,0,1.323-0.595,1.323-1.323V7.527c0-0.728-0.595-1.323-1.323-1.323H8.868
			c-0.728,0-1.323,0.595-1.323,1.323V7.78C7.545,8.507,8.14,9.103,8.868,9.103z"/>
		<path class="st4" d="M14.04,9.103h0.253c0.728,0,1.323-0.595,1.323-1.323V7.527c0-0.728-0.595-1.323-1.323-1.323H14.04
			c-0.728,0-1.323,0.595-1.323,1.323V7.78C12.717,8.507,13.313,9.103,14.04,9.103z"/>
		<path class="st4" d="M3.695,9.103h0.253c0.728,0,1.323-0.595,1.323-1.323V7.527c0-0.728-0.595-1.323-1.323-1.323H3.695
			c-0.728,0-1.323,0.595-1.323,1.323V7.78C2.372,8.507,2.968,9.103,3.695,9.103z"/>
		<path class="st12" d="M27.689,38.806H3.809c-0.79,0-1.436-0.646-1.436-1.436V12.902c0-0.79,0.646-1.436,1.436-1.436h40.184
			c0.79,0,1.436,0.646,1.436,1.436v9.808c1.072,0.88,1.979,1.947,2.697,3.142V4.554c0-0.75-0.614-1.364-1.364-1.364H1.226
			c-0.75,0-1.364,0.614-1.364,1.364v35.399c0,0.751,0.614,1.364,1.364,1.364H29.94C29.079,40.589,28.318,39.746,27.689,38.806z
			 M12.717,7.527c0-0.728,0.595-1.323,1.323-1.323h0.253c0.728,0,1.323,0.595,1.323,1.323V7.78c0,0.728-0.595,1.323-1.323,1.323
			H14.04c-0.728,0-1.323-0.595-1.323-1.323V7.527z M7.545,7.527c0-0.728,0.595-1.323,1.323-1.323h0.253
			c0.728,0,1.323,0.595,1.323,1.323V7.78c0,0.728-0.595,1.323-1.323,1.323H8.868c-0.728,0-1.323-0.595-1.323-1.323V7.527z
			 M2.372,7.527c0-0.728,0.595-1.323,1.323-1.323h0.253c0.728,0,1.323,0.595,1.323,1.323V7.78c0,0.728-0.595,1.323-1.323,1.323
			H3.695c-0.728,0-1.323-0.595-1.323-1.323V7.527z"/>
		<path class="st10" d="M43.993,11.466H3.809c-0.79,0-1.436,0.646-1.436,1.436V37.37c0,0.79,0.646,1.436,1.436,1.436h23.88
			c-1.291-1.926-2.046-4.241-2.046-6.734c0-6.687,5.421-12.109,12.109-12.109c2.915,0,5.588,1.031,7.678,2.747v-9.808
			C45.429,12.112,44.783,11.466,43.993,11.466z"/>
		<g>
			<g>
				<path class="st4" d="M23.32,20.154l0.194,0.085c0.938-1.276,1.931-2.492,2.956-3.558l-0.194,0.016
					C25.492,17.483,24.495,18.599,23.32,20.154z"/>
				<path class="st4" d="M17.478,29.496l0.298,0.151c1.121-2.161,2.778-5.141,4.734-7.994l-0.14-0.199
					C20.937,23.483,19.289,26.112,17.478,29.496z"/>
				<path class="st2" d="M16.222,32.808l0.163,0.093c3.616,0.302,4.203-1.021,4.203-1.021c-0.326,0.186-1.043-0.046-1.043-0.046
					c1.629-0.279,2.671-1.997,2.671-1.997c-2.345,1.243-3.48,0.926-3.788,0.789h-1.152C16.603,31.966,16.222,32.808,16.222,32.808z"
					/>
				<path class="st9" d="M28.863,13.354c-0.749-0.371-2.183,0.789-2.183,0.789s-0.358,0.224-1.049,0.804
					c-0.113,0.095-0.234,0.199-0.365,0.313l1.011,1.437c0.58-0.581,1.043-0.982,1.373-1.244c0.388-0.308,0.594-0.427,0.594-0.427
					c-0.174,0.143-0.348,0.292-0.52,0.446c-0.422,0.375-0.84,0.78-1.253,1.21l3.873-0.321c0.006-0.019,0.012-0.039,0.018-0.058
					c0.016-0.054,0.03-0.108,0.043-0.16C30.943,13.974,28.863,13.354,28.863,13.354z"/>
				<path class="st17" d="M25.265,15.26c-0.906,0.792-2.234,2.067-3.951,4.015c-0.088,0.099-0.176,0.2-0.266,0.303l1.322,1.875
					c0.328-0.464,0.644-0.897,0.949-1.3c1.175-1.555,2.172-2.671,2.956-3.457L25.265,15.26z"/>
				<path class="st17" d="M26.47,16.681c-1.025,1.066-2.017,2.282-2.956,3.558c-0.342,0.465-0.677,0.938-1.003,1.414l0,0
					l3.518-0.313c1.205-0.348,1.89-1.068,1.89-1.068s1.729-1.643,2.426-3.912L26.47,16.681z"/>
				<path class="st16" d="M21.048,19.579c-0.405,0.465-0.83,0.966-1.275,1.505c-2.565,3.109-3.667,5.773-4.14,7.476
					c-0.027,0.097-0.052,0.192-0.075,0.283l1.395,1.646c0.176-0.338,0.351-0.669,0.525-0.994c1.81-3.384,3.459-6.013,4.892-8.042
					L21.048,19.579z"/>
				<path class="st16" d="M26.354,23.104c1.205-0.998,1.433-2.205,1.433-2.205c-0.88,0.464-1.759,0.441-1.759,0.441l-3.518,0.313
					l0,0c-1.956,2.854-3.613,5.833-4.734,7.994c-0.181,0.349-0.348,0.677-0.5,0.979h1.152c-0.06-0.027-0.089-0.046-0.089-0.046
					c0.344-0.032,0.673-0.081,0.987-0.147c4.763-0.993,6.082-5.611,6.082-5.611c-1.043,0.371-1.368,0.279-1.368,0.279
					c1.857-0.488,2.509-1.741,2.509-1.741c-0.717,0.418-1.792,0.511-1.792,0.511C25.931,23.499,26.354,23.104,26.354,23.104z"/>
				<path class="st2" d="M16.954,30.49l-1.395-1.646c-0.276,1.087-0.281,1.713-0.281,1.713c-0.782-0.743-1.694-0.905-1.694-0.905
					c1.531,1.346,1.531,2.461,1.531,2.461c-1.596,0.255-2.183,1.138-2.183,1.138c2.215-0.557,2.346-0.302,2.346-0.302
					c-0.304,0.46-0.789,1.476-1.269,2.548c0.012,0.046,0.038,0.077,0.087,0.073c0.106-0.008,0.328-0.138,0.479-0.235
					c0.618-1.327,1.146-2.408,1.146-2.408C16.139,32.076,16.55,31.264,16.954,30.49z"/>
				<path class="st2" d="M14.095,35.569c-0.049,0.004-0.075-0.027-0.087-0.073c-0.165,0.368-0.329,0.743-0.486,1.104
					c0.015,0.043,0.046,0.071,0.104,0.064c0.079-0.011,0.232-0.057,0.387-0.109c0.188-0.414,0.378-0.827,0.561-1.22
					C14.423,35.43,14.201,35.561,14.095,35.569z"/>
			</g>
			<g>
				<g>
					<path class="st6" d="M30.61,18.66h-0.265v0.784h-0.211V18.66h-0.264v-0.176h0.739V18.66z"/>
					<path class="st6" d="M31.795,19.444h-0.207V18.87c0-0.062,0.002-0.131,0.008-0.205H31.59c-0.01,0.059-0.02,0.101-0.029,0.127
						l-0.217,0.652h-0.172l-0.221-0.646c-0.007-0.018-0.017-0.062-0.029-0.134h-0.006c0.005,0.094,0.008,0.177,0.008,0.249v0.53
						h-0.188v-0.96h0.307l0.19,0.569c0.015,0.045,0.025,0.091,0.033,0.137h0.004c0.011-0.053,0.023-0.099,0.036-0.139l0.19-0.567
						h0.299V19.444z"/>
				</g>
			</g>
		</g>
	</g>
</g>
<g id="remote_x5F_mysql">
</g>
<g id="addon_x5F_domains">
</g>
<g id="mysql_x5F_database_x5F_wizard">
</g>
<g id="multiphp_x5F_ini_x5F_editor">
</g>
</svg>
