<svg xmlns="http://www.w3.org/2000/svg" viewBox="0 0 48 48"><title>api_tokens</title><path d="M12.27,14.85H37.05L47.71,21A23.91,23.91,0,1,0,17.86,47.12L7.36,28.72Z" fill="#8892bf"/><path d="M31.28,46.78A11.62,11.62,0,1,1,46.76,31.3,23.78,23.78,0,0,0,47.9,24a24.42,24.42,0,0,0-.19-3L37.05,14.85H12.27L7.36,28.72l10.5,18.4a23.88,23.88,0,0,0,13.42-.34Z" fill="#4f5b94"/><path d="M10.9,24.47,9.56,28.65H7.84l4.37-13.29h2l4.4,13.29H16.84l-1.38-4.18Zm4.22-1.34L13.86,19.3c-.29-.87-.48-1.65-.67-2.42h0c-.19.79-.4,1.59-.65,2.4l-1.26,3.85Z" fill="#fff"/><path d="M20.51,15.51a19.59,19.59,0,0,1,3.19-.25,5.2,5.2,0,0,1,3.62,1.1,3.65,3.65,0,0,1,1.12,2.78,4,4,0,0,1-1,2.85,5.27,5.27,0,0,1-3.94,1.46,5.57,5.57,0,0,1-1.34-.12v5.32H20.51Zm1.66,6.42a5.48,5.48,0,0,0,1.38.13c2,0,3.23-1,3.23-2.84s-1.2-2.6-3-2.6a6.77,6.77,0,0,0-1.57.14Z" fill="#fff"/><path d="M32.34,15.36V28.65H30.68V15.36Z" fill="#fff"/><circle cx="36.43" cy="36.32" r="9.66" fill="#666"/><circle cx="36.42" cy="32.56" r="3.37" fill="#25323c"/><rect x="34.68" y="29.57" width="3.34" height="14.12" rx="1.6" ry="1.6" fill="#25323c"/></svg>