<?xml version="1.0" encoding="utf-8"?>
<!-- Generator: Adobe Illustrator 21.1.0, SVG Export Plug-In . SVG Version: 6.00 Build 0)  -->
<svg version="1.1" xmlns="http://www.w3.org/2000/svg" xmlns:xlink="http://www.w3.org/1999/xlink" x="0px" y="0px"
	 viewBox="0 0 48 48" style="enable-background:new 0 0 48 48;" xml:space="preserve">
<style type="text/css">
	.st0{fill:#E0E0E0;}
	.st1{fill:#262626;}
	.st2{fill:#4F5B94;}
	.st3{fill:#15587C;}
	.st4{fill:none;}
	.st5{fill:#BCBCBC;}
	.st6{fill:#FFFFFF;}
	.st7{fill:#D34231;}
	.st8{fill:#666666;}
	.st9{fill:#EDA72B;}
	.st10{fill:#25323C;}
	.st11{fill:#336792;}
	.st12{fill:#32415B;}
	.st13{fill:#84B556;}
	.st14{fill:#6A9638;}
	.st15{fill:#189BD8;}
	.st16{fill:#BA342A;}
	.st17{fill:#FF6C2C;}
	.st18{fill:#8892BF;}
	.st19{fill:#FFFFFF;stroke:#FFFFFF;stroke-width:0.25;stroke-miterlimit:10;}
	.st20{fill:#FFFFFF;stroke:#FFFFFF;stroke-miterlimit:10;}
	.st21{fill:#FF6A1A;}
	.st22{fill:#00AA17;}
	.st23{fill:#FA741D;}
	.st24{fill:none;stroke:#15587C;stroke-miterlimit:10;}
	.st25{fill:none;stroke:#15587C;stroke-width:1.5;stroke-miterlimit:10;}
	.st26{fill:none;stroke:#BA342A;stroke-width:5;stroke-miterlimit:10;}
	.st27{fill:#000004;}
	.st28{fill:#000004;stroke:#FFFFFF;stroke-width:0.5;stroke-miterlimit:10;}
	.st29{fill:#017F00;}
	.st30{fill:none;stroke:#BCBCBC;stroke-miterlimit:10;}
	.st31{fill:#39FF2A;}
	.st32{fill:#FF00B3;}
	.st33{fill:#4DFF00;}
	.st34{fill:#FFFFFF;stroke:#FFFFFF;stroke-width:1.5;stroke-miterlimit:10;}
	.st35{fill:#FFFFFF;stroke:#FFFFFF;stroke-width:0.5;stroke-miterlimit:10;}
	.st36{fill:#FFFFFF;stroke:#BCBCBC;stroke-miterlimit:10;}
</style>
<g id="Layer_1">
	<g>
		<circle class="st0" cx="24.062" cy="23.938" r="23.938"/>
		<polygon class="st7" points="24.568,24.329 32.55,19.592 32.55,28.426 24.568,33.376 		"/>
		<polygon class="st9" points="15.68,19.592 23.556,24.382 23.556,33.376 15.68,28.32 		"/>
		<polygon class="st11" points="15.68,18.315 24.089,13.153 32.55,18.315 24.089,23.53 		"/>
		<polygon class="st13" points="15.68,16.665 15.68,7.937 24.089,2.775 32.55,8.044 32.55,16.665 24.089,11.609 		"/>
		<polygon class="st17" points="33.562,20.55 33.562,29.171 26.164,33.908 35.265,39.07 42.29,34.493 42.29,25.765 		"/>
		<polygon class="st18" points="14.669,20.55 14.669,28.959 22.386,34.174 13.072,39.07 5.835,34.6 5.835,25.712 		"/>
	</g>
</g>
<g id="remote_x5F_mysql">
</g>
<g id="addon_x5F_domains">
</g>
<g id="mysql_x5F_database_x5F_wizard">
</g>
<g id="multiphp_x5F_ini_x5F_editor">
</g>
</svg>
