<?xml version="1.0" encoding="utf-8"?>
<!-- Generator: Adobe Illustrator 21.1.0, SVG Export Plug-In . SVG Version: 6.00 Build 0)  -->
<svg version="1.1" xmlns="http://www.w3.org/2000/svg" xmlns:xlink="http://www.w3.org/1999/xlink" x="0px" y="0px"
	 viewBox="0 0 48 48" style="enable-background:new 0 0 48 48;" xml:space="preserve">
<style type="text/css">
	.st0{fill:#E0E0E0;}
	.st1{fill:#262626;}
	.st2{fill:#4F5B94;}
	.st3{fill:#15587C;}
	.st4{fill:none;}
	.st5{fill:#BCBCBC;}
	.st6{fill:#FFFFFF;}
	.st7{fill:#D34231;}
	.st8{fill:#666666;}
	.st9{fill:#EDA72B;}
	.st10{fill:#25323C;}
	.st11{fill:#336792;}
	.st12{fill:#32415B;}
	.st13{fill:#84B556;}
	.st14{fill:#6A9638;}
	.st15{fill:#189BD8;}
	.st16{fill:#BA342A;}
	.st17{fill:#FF6C2C;}
	.st18{fill:#8892BF;}
	.st19{fill:#FFFFFF;stroke:#FFFFFF;stroke-width:0.25;stroke-miterlimit:10;}
	.st20{fill:#FFFFFF;stroke:#FFFFFF;stroke-miterlimit:10;}
	.st21{fill:#FF6A1A;}
	.st22{fill:#00AA17;}
	.st23{fill:#FA741D;}
	.st24{fill:none;stroke:#15587C;stroke-miterlimit:10;}
	.st25{fill:none;stroke:#15587C;stroke-width:1.5;stroke-miterlimit:10;}
	.st26{fill:none;stroke:#BA342A;stroke-width:5;stroke-miterlimit:10;}
	.st27{fill:#000004;}
	.st28{fill:#000004;stroke:#FFFFFF;stroke-width:0.5;stroke-miterlimit:10;}
	.st29{fill:#017F00;}
	.st30{fill:none;stroke:#BCBCBC;stroke-miterlimit:10;}
	.st31{fill:#39FF2A;}
	.st32{fill:#FF00B3;}
	.st33{fill:#4DFF00;}
	.st34{fill:#FFFFFF;stroke:#FFFFFF;stroke-width:1.5;stroke-miterlimit:10;}
	.st35{fill:#FFFFFF;stroke:#FFFFFF;stroke-width:0.5;stroke-miterlimit:10;}
	.st36{fill:#FFFFFF;stroke:#BCBCBC;stroke-miterlimit:10;}
</style>
<g id="Layer_1">
	<g>
		<g>
			<polygon class="st4" points="7.358,47.174 23.46,47.174 23.513,47.136 			"/>
			<path class="st5" d="M28.398,1.405c0,0-4.14-2.968-8.525,0L0.397,16.37L0,16.675c0,0.432,0,28.058,0,28.058
				s0.088,0.493,0.397,1.029c0.363,0.629,1.033,1.316,2.282,1.346c0.432,0.01,2.182,0.016,4.741,0.02l16.742-12.564
				C17.105,29.072,5.077,19.71,4.805,19.481L21.622,5.884c2.795-2.374,5.397,0,5.397,0l17.346,13.519l3.601-2.702l0-0.026
				L28.398,1.405z"/>
			<path class="st6" d="M27.019,5.884c0,0-2.602-2.374-5.397,0L4.805,19.481c0.272,0.228,12.3,9.591,19.357,15.083l20.203-15.161
				L27.019,5.884z"/>
			<path class="st0" d="M23.522,47.129l-0.01,0.007l4.278-0.01C26.382,47.126,24.953,47.128,23.522,47.129L23.522,47.129z"/>
			<path class="st0" d="M23.523,47.128c-6.056,0.004-12.079,0.005-16.102-0.001l-0.062,0.047l16.155-0.039L23.523,47.128
				L23.523,47.128z"/>
			<polygon class="st0" points="47.966,16.701 47.938,29.518 47.969,29.496 47.983,29.366 48,16.675 			"/>
			<path class="st0" d="M47.983,29.366l-0.014,0.13l-0.03,0.022l0.027-12.816l-3.601,2.702L24.162,34.564L7.42,47.127l38.36,0.047
				c0,0,0.591,0.005,1.155-0.404c0.038-0.026,0.062-0.044,0.09-0.067c0.01-0.009,0.021-0.016,0.031-0.025
				c0.066-0.054,0.109-0.096,0.109-0.096c0.017-0.014,0.028-0.035,0.044-0.051c0.031-0.032,0.06-0.068,0.09-0.103
				c0.095-0.108,0.177-0.226,0.246-0.359c0.022-0.04,0.045-0.081,0.066-0.124c0.021-0.046,0.041-0.091,0.059-0.139
				c0.091-0.218,0.161-0.471,0.207-0.764c0.002-0.013,0.004-0.025,0.006-0.038c0.01-0.07,0.021-0.139,0.028-0.213
				c0.054-0.438,0.049-0.778,0.049-0.778l0.015-10.733L47.983,29.366z"/>
		</g>
		<g>
			<path class="st23" d="M18.143,22.226h-1.607l-0.466-1.505h-2.33l-0.461,1.505h-1.599l2.384-6.763h1.75L18.143,22.226z
				 M15.731,19.552l-0.704-2.273c-0.052-0.17-0.088-0.372-0.109-0.608h-0.037c-0.015,0.198-0.053,0.395-0.114,0.59l-0.712,2.292
				H15.731z"/>
			<path class="st23" d="M24.179,19.297c0,2.031-0.917,3.047-2.75,3.047c-1.779,0-2.668-0.992-2.668-2.977v-3.904h1.479v3.924
				c0,1.094,0.414,1.641,1.243,1.641c0.812,0,1.22-0.528,1.22-1.584v-3.98h1.476V19.297z"/>
			<path class="st23" d="M30.204,16.703h-1.868v5.522h-1.48v-5.522h-1.859v-1.24h5.208V16.703z"/>
			<path class="st23" d="M33.434,22.344c-0.938,0-1.702-0.315-2.293-0.946c-0.591-0.63-0.887-1.451-0.887-2.464
				c0-1.068,0.3-1.934,0.9-2.594c0.6-0.66,1.395-0.99,2.385-0.99c0.935,0,1.69,0.315,2.268,0.948
				c0.577,0.632,0.866,1.465,0.866,2.499c0,1.062-0.3,1.92-0.897,2.57C35.177,22.019,34.396,22.344,33.434,22.344z M33.498,16.66
				c-0.519,0-0.93,0.201-1.234,0.602c-0.304,0.401-0.456,0.932-0.456,1.592c0,0.67,0.152,1.199,0.456,1.59
				c0.305,0.39,0.704,0.584,1.197,0.584c0.509,0,0.912-0.189,1.211-0.568c0.298-0.378,0.447-0.904,0.447-1.577
				c0-0.701-0.145-1.246-0.434-1.637C34.396,16.855,34,16.66,33.498,16.66z"/>
		</g>
	</g>
</g>
<g id="remote_x5F_mysql">
</g>
<g id="addon_x5F_domains">
</g>
<g id="mysql_x5F_database_x5F_wizard">
</g>
<g id="multiphp_x5F_ini_x5F_editor">
</g>
</svg>
