<?xml version="1.0" encoding="utf-8"?>
<!-- Generator: Adobe Illustrator 21.1.0, SVG Export Plug-In . SVG Version: 6.00 Build 0)  -->
<svg version="1.1" xmlns="http://www.w3.org/2000/svg" xmlns:xlink="http://www.w3.org/1999/xlink" x="0px" y="0px"
	 viewBox="0 0 48 48" style="enable-background:new 0 0 48 48;" xml:space="preserve">
<style type="text/css">
	.st0{fill:#E0E0E0;}
	.st1{fill:#262626;}
	.st2{fill:#4F5B94;}
	.st3{fill:#15587C;}
	.st4{fill:none;}
	.st5{fill:#BCBCBC;}
	.st6{fill:#FFFFFF;}
	.st7{fill:#D34231;}
	.st8{fill:#666666;}
	.st9{fill:#EDA72B;}
	.st10{fill:#25323C;}
	.st11{fill:#336792;}
	.st12{fill:#32415B;}
	.st13{fill:#84B556;}
	.st14{fill:#6A9638;}
	.st15{fill:#189BD8;}
	.st16{fill:#BA342A;}
	.st17{fill:#FF6C2C;}
	.st18{fill:#8892BF;}
	.st19{fill:#FFFFFF;stroke:#FFFFFF;stroke-width:0.25;stroke-miterlimit:10;}
	.st20{fill:#FFFFFF;stroke:#FFFFFF;stroke-miterlimit:10;}
	.st21{fill:#FF6A1A;}
	.st22{fill:#00AA17;}
	.st23{fill:#FA741D;}
	.st24{fill:none;stroke:#15587C;stroke-miterlimit:10;}
	.st25{fill:none;stroke:#15587C;stroke-width:1.5;stroke-miterlimit:10;}
	.st26{fill:none;stroke:#BA342A;stroke-width:5;stroke-miterlimit:10;}
	.st27{fill:#000004;}
	.st28{fill:#000004;stroke:#FFFFFF;stroke-width:0.5;stroke-miterlimit:10;}
	.st29{fill:#017F00;}
	.st30{fill:none;stroke:#BCBCBC;stroke-miterlimit:10;}
	.st31{fill:#39FF2A;}
	.st32{fill:#FF00B3;}
	.st33{fill:#4DFF00;}
	.st34{fill:#FFFFFF;stroke:#FFFFFF;stroke-width:1.5;stroke-miterlimit:10;}
	.st35{fill:#FFFFFF;stroke:#FFFFFF;stroke-width:0.5;stroke-miterlimit:10;}
	.st36{fill:#FFFFFF;stroke:#BCBCBC;stroke-miterlimit:10;}
</style>
<g id="Layer_1">
	<g>
		<path class="st0" d="M27.028,41.633h-6.342v-6.628h5.265c0.135-1.059,0.403-2.077,0.8-3.029h-6.065v-6.628h6.628v5.468
			c0.576-1.041,1.308-1.981,2.16-2.799v-2.669h4.401c1.181-0.397,2.44-0.621,3.755-0.621s2.574,0.224,3.755,0.621h3.505v1.893
			c1.271,0.996,2.337,2.241,3.111,3.67V12.229H0v28.429c0,2.622,2.145,4.768,4.768,4.768h25.168
			C28.724,44.379,27.733,43.089,27.028,41.633z M38.261,15.691h6.628v6.628h-6.628V15.691z M29.473,15.691h6.628v6.628h-6.628
			V15.691z M20.686,15.691h6.628v6.628h-6.628V15.691z M9.739,41.633H3.111v-6.628h6.628V41.633z M9.739,31.976H3.111v-6.628h6.628
			V31.976z M9.739,22.319H3.111v-6.628h6.628V22.319z M18.526,41.633h-6.628v-6.628h6.628V41.633z M18.526,31.976h-6.628v-6.628
			h6.628V31.976z M18.526,22.319h-6.628v-6.628h6.628V22.319z"/>
		<path class="st11" d="M48,5.431c0-2.622-2.145-4.768-4.768-4.768H4.768C2.145,0.664,0,2.809,0,5.431v6.798h48V5.431z"/>
		<rect x="3.111" y="15.691" class="st5" width="6.628" height="6.628"/>
		<rect x="11.898" y="15.691" class="st5" width="6.628" height="6.628"/>
		<rect x="20.686" y="15.691" class="st5" width="6.628" height="6.628"/>
		<rect x="29.473" y="15.691" class="st5" width="6.628" height="6.628"/>
		<rect x="38.261" y="15.691" class="st7" width="6.628" height="6.628"/>
		<rect x="3.111" y="25.348" class="st5" width="6.628" height="6.628"/>
		<rect x="11.898" y="25.348" class="st5" width="6.628" height="6.628"/>
		<path class="st5" d="M20.686,25.348v6.628h6.065c0.166-0.399,0.355-0.785,0.563-1.16v-5.468H20.686z"/>
		<path class="st5" d="M29.473,28.017c1.239-1.19,2.736-2.109,4.401-2.669h-4.401V28.017z"/>
		<path class="st7" d="M41.384,25.348c1.282,0.431,2.463,1.076,3.505,1.893v-1.893H41.384z"/>
		<rect x="3.111" y="35.005" class="st5" width="6.628" height="6.628"/>
		<rect x="11.898" y="35.005" class="st5" width="6.628" height="6.628"/>
		<path class="st5" d="M20.686,41.633h6.342c-0.751-1.551-1.184-3.283-1.184-5.122c0-0.512,0.044-1.012,0.107-1.506h-5.265V41.633z"
			/>
		<path class="st6" d="M6.531,8.615H6.319c-0.98,0-1.781-0.802-1.781-1.781V6.622c0-0.98,0.802-1.781,1.781-1.781h0.212
			c0.98,0,1.781,0.802,1.781,1.781v0.212C8.312,7.813,7.51,8.615,6.531,8.615z"/>
		<path class="st6" d="M41.681,8.615h-0.212c-0.98,0-1.781-0.802-1.781-1.781V6.622c0-0.98,0.802-1.781,1.781-1.781h0.212
			c0.98,0,1.781,0.802,1.781,1.781v0.212C43.462,7.813,42.661,8.615,41.681,8.615z"/>
		<circle class="st11" cx="37.759" cy="36.403" r="9.831"/>
		<g>
			<path class="st0" d="M38.866,38.425h-0.05c-0.391,1.101-1.1,1.651-2.127,1.651c-0.771,0-1.391-0.288-1.862-0.864
				s-0.708-1.374-0.708-2.395c0-1.319,0.327-2.393,0.979-3.22c0.653-0.826,1.44-1.24,2.361-1.24c0.831,0,1.354,0.337,1.565,1.012
				h0.033l0.084-0.855h1.884c-0.251,2.454-0.377,4.06-0.377,4.813c0,0.808,0.212,1.21,0.637,1.21c0.446,0,0.814-0.305,1.105-0.916
				c0.29-0.61,0.435-1.408,0.435-2.394c0-1.349-0.415-2.453-1.247-3.314s-1.992-1.293-3.483-1.293c-1.596,0-2.923,0.575-3.98,1.725
				s-1.587,2.551-1.587,4.205c0,1.602,0.468,2.863,1.402,3.785c0.936,0.923,2.226,1.384,3.872,1.384c1.256,0,2.406-0.248,3.45-0.744
				v1.651c-0.955,0.42-2.183,0.631-3.685,0.631c-2.06,0-3.735-0.609-5.027-1.828s-1.938-2.856-1.938-4.914
				c0-2.097,0.689-3.86,2.068-5.289s3.153-2.144,5.325-2.144c2.009,0,3.635,0.555,4.877,1.664c1.241,1.109,1.862,2.571,1.862,4.386
				c0,1.493-0.38,2.689-1.139,3.592c-0.759,0.901-1.699,1.353-2.821,1.353c-0.553,0-1.002-0.152-1.348-0.458
				C39.081,39.312,38.895,38.915,38.866,38.425z M37.753,33.861c-0.502,0-0.911,0.296-1.227,0.887
				c-0.315,0.59-0.473,1.274-0.473,2.053c0,0.553,0.107,0.983,0.322,1.292c0.215,0.308,0.492,0.462,0.833,0.462
				c0.524,0,0.938-0.291,1.239-0.873c0.301-0.582,0.452-1.359,0.452-2.333c0-0.461-0.105-0.824-0.314-1.09
				C38.377,33.994,38.099,33.861,37.753,33.861z"/>
		</g>
	</g>
</g>
<g id="remote_x5F_mysql">
</g>
<g id="addon_x5F_domains">
</g>
<g id="mysql_x5F_database_x5F_wizard">
</g>
<g id="multiphp_x5F_ini_x5F_editor">
</g>
</svg>
