<?xml version="1.0" encoding="utf-8"?>
<!-- Generator: Adobe Illustrator 21.1.0, SVG Export Plug-In . SVG Version: 6.00 Build 0)  -->
<svg version="1.1" xmlns="http://www.w3.org/2000/svg" xmlns:xlink="http://www.w3.org/1999/xlink" x="0px" y="0px"
	 viewBox="0 0 48 48" style="enable-background:new 0 0 48 48;" xml:space="preserve">
<style type="text/css">
	.st0{fill:#E0E0E0;}
	.st1{fill:#262626;}
	.st2{fill:#4F5B94;}
	.st3{fill:#15587C;}
	.st4{fill:none;}
	.st5{fill:#BCBCBC;}
	.st6{fill:#FFFFFF;}
	.st7{fill:#D34231;}
	.st8{fill:#666666;}
	.st9{fill:#EDA72B;}
	.st10{fill:#25323C;}
	.st11{fill:#336792;}
	.st12{fill:#32415B;}
	.st13{fill:#84B556;}
	.st14{fill:#6A9638;}
	.st15{fill:#189BD8;}
	.st16{fill:#BA342A;}
	.st17{fill:#FF6C2C;}
	.st18{fill:#8892BF;}
	.st19{fill:#FFFFFF;stroke:#FFFFFF;stroke-width:0.25;stroke-miterlimit:10;}
	.st20{fill:#FFFFFF;stroke:#FFFFFF;stroke-miterlimit:10;}
	.st21{fill:#FF6A1A;}
	.st22{fill:#00AA17;}
	.st23{fill:#FA741D;}
	.st24{fill:none;stroke:#15587C;stroke-miterlimit:10;}
	.st25{fill:none;stroke:#15587C;stroke-width:1.5;stroke-miterlimit:10;}
	.st26{fill:none;stroke:#BA342A;stroke-width:5;stroke-miterlimit:10;}
	.st27{fill:#000004;}
	.st28{fill:#000004;stroke:#FFFFFF;stroke-width:0.5;stroke-miterlimit:10;}
	.st29{fill:#017F00;}
	.st30{fill:none;stroke:#BCBCBC;stroke-miterlimit:10;}
	.st31{fill:#39FF2A;}
	.st32{fill:#FF00B3;}
	.st33{fill:#4DFF00;}
	.st34{fill:#FFFFFF;stroke:#FFFFFF;stroke-width:1.5;stroke-miterlimit:10;}
	.st35{fill:#FFFFFF;stroke:#FFFFFF;stroke-width:0.5;stroke-miterlimit:10;}
	.st36{fill:#FFFFFF;stroke:#BCBCBC;stroke-miterlimit:10;}
</style>
<g id="Layer_1">
	<path class="st7" d="M43.424,21.592H32.878v2.894c0,2.693-2.054,4.897-4.565,4.897h-6.091h-3.223v8.991
		c0,2.693,2.054,4.897,4.565,4.897h1.202h0.419c0.382,0.402,0.801,0.844,1.233,1.296c1.477,1.547,3.038,3.163,3.276,3.328
		c0.467,0.324,0.613-0.205,0.613-0.205l0.293-3.124l0.121-1.296h12.702c2.511,0,4.565-2.204,4.565-4.897v-3.981v-7.904
		C47.989,23.796,45.935,21.592,43.424,21.592z"/>
	<path class="st16" d="M28.312,29.383c2.511,0,4.565-2.204,4.565-4.897v-2.894h-3.223h-6.091c-2.511,0-4.565,2.204-4.565,4.897
		v2.894h3.223H28.312z"/>
	<path class="st9" d="M24.588,4.729h-1.202h-0.419c-0.382-0.402-0.801-0.844-1.232-1.296c-1.477-1.547-3.038-3.163-3.276-3.328
		c-0.467-0.324-0.613,0.205-0.613,0.205l-0.293,3.124l-0.121,1.296H4.728c-2.511,0-4.565,2.204-4.565,4.897v3.981v7.904
		c0,2.693,2.054,4.897,4.565,4.897h13.769h6.091c2.511,0,4.565-2.204,4.565-4.897V9.626C29.153,6.933,27.099,4.729,24.588,4.729z"/>
	<g>
		<path class="st19" d="M20.118,11.025c-2.146,0.545-5.135,0.892-7.099,0.958c-0.215,2.063-0.512,3.764-0.776,4.375
			c1.288-1.04,3.286-1.75,4.689-1.75c2.46,0,3.962,1.32,3.962,3.55c0,3.285-3.318,4.392-8.684,4.523
			c-0.066-0.313-0.182-0.809-0.331-1.09c4.739-0.099,7.81-0.908,7.81-3.4c0-1.486-0.991-2.51-2.906-2.51
			c-1.469,0-3.996,0.892-5.085,2.525l-1.156-0.545c0.528-0.594,1.073-2.955,1.321-5.662H8v-1.156
			c0.693,0.017,2.724,0.017,3.962,0.017c0.066-0.941,0.099-1.998,0.099-2.988l1.75,0.165c-0.033,0.281-0.231,0.33-0.528,0.363
			c-0.033,0.825-0.083,1.668-0.149,2.443c1.75-0.049,4.788-0.429,6.769-1.007L20.118,11.025z"/>
	</g>
	<g>
		<g>
			<path class="st19" d="M39.555,37.831h-1.453l-1.354-4.078h-4.375l-1.321,4.078h-1.403l4.16-12.581h1.586L39.555,37.831z
				 M36.467,32.663l-1.238-3.73c-0.264-0.859-0.479-1.651-0.644-2.395h-0.05c-0.164,0.76-0.396,1.552-0.627,2.345l-1.255,3.78
				H36.467z"/>
		</g>
	</g>
	<path class="st8" d="M45.434,13.575V7.431c0-1.492-1.21-2.702-2.702-2.702h-6.546h-2.184h-1.015c-0.496,0-0.899,0.402-0.899,0.899
		v0.67c0,0.496,0.402,0.899,0.899,0.899h0.985h2.215h5.043c0.883,0,1.599,0.716,1.599,1.599v4.779h-2.889l2.013,2.505l0.876,1.09
		l1.137,1.414l1.393-1.734l0.619-0.771l2.013-2.505H45.434z"/>
	<path class="st8" d="M15.621,40.803h-1.441h-1.759H6.923c-0.883,0-1.599-0.716-1.599-1.599v-4.779h2.889l-2.013-2.505l-0.876-1.09
		l-1.137-1.414L2.795,31.15l-0.619,0.771l-2.013,2.505h2.555v6.143c0,1.492,1.21,2.702,2.702,2.702h7.002h1.729h1.471
		c0.496,0,0.899-0.402,0.899-0.899v-0.67C16.52,41.205,16.118,40.803,15.621,40.803z"/>
</g>
<g id="remote_x5F_mysql">
</g>
<g id="addon_x5F_domains">
</g>
<g id="mysql_x5F_database_x5F_wizard">
</g>
<g id="multiphp_x5F_ini_x5F_editor">
</g>
</svg>
