<?xml version="1.0" encoding="utf-8"?>
<!-- Generator: Adobe Illustrator 21.1.0, SVG Export Plug-In . SVG Version: 6.00 Build 0)  -->
<svg version="1.1" xmlns="http://www.w3.org/2000/svg" xmlns:xlink="http://www.w3.org/1999/xlink" x="0px" y="0px"
	 viewBox="0 0 48 48" style="enable-background:new 0 0 48 48;" xml:space="preserve">
<style type="text/css">
	.st0{fill:#E0E0E0;}
	.st1{fill:#262626;}
	.st2{fill:#4F5B94;}
	.st3{fill:#15587C;}
	.st4{fill:none;}
	.st5{fill:#BCBCBC;}
	.st6{fill:#FFFFFF;}
	.st7{fill:#D34231;}
	.st8{fill:#666666;}
	.st9{fill:#EDA72B;}
	.st10{fill:#25323C;}
	.st11{fill:#336792;}
	.st12{fill:#32415B;}
	.st13{fill:#84B556;}
	.st14{fill:#6A9638;}
	.st15{fill:#189BD8;}
	.st16{fill:#BA342A;}
	.st17{fill:#FF6C2C;}
	.st18{fill:#8892BF;}
	.st19{fill:#FFFFFF;stroke:#FFFFFF;stroke-width:0.25;stroke-miterlimit:10;}
	.st20{fill:#FFFFFF;stroke:#FFFFFF;stroke-miterlimit:10;}
	.st21{fill:#FF6A1A;}
	.st22{fill:#00AA17;}
	.st23{fill:#FA741D;}
	.st24{fill:none;stroke:#15587C;stroke-miterlimit:10;}
	.st25{fill:none;stroke:#15587C;stroke-width:1.5;stroke-miterlimit:10;}
	.st26{fill:none;stroke:#BA342A;stroke-width:5;stroke-miterlimit:10;}
	.st27{fill:#000004;}
	.st28{fill:#000004;stroke:#FFFFFF;stroke-width:0.5;stroke-miterlimit:10;}
	.st29{fill:#017F00;}
	.st30{fill:none;stroke:#BCBCBC;stroke-miterlimit:10;}
	.st31{fill:#39FF2A;}
	.st32{fill:#FF00B3;}
	.st33{fill:#4DFF00;}
	.st34{fill:#FFFFFF;stroke:#FFFFFF;stroke-width:1.5;stroke-miterlimit:10;}
	.st35{fill:#FFFFFF;stroke:#FFFFFF;stroke-width:0.5;stroke-miterlimit:10;}
	.st36{fill:#FFFFFF;stroke:#BCBCBC;stroke-miterlimit:10;}
</style>
<g id="Layer_1">
	<g>
		<g>
			<polygon class="st4" points="7.358,46.843 23.46,46.843 23.513,46.804 			"/>
			<path class="st5" d="M28.398,1.312c0,0-4.14-2.952-8.525,0L0.397,16.199L0,16.503c0,0.429,0,27.912,0,27.912
				s0.088,0.491,0.397,1.023c0.363,0.626,1.033,1.31,2.282,1.339c0.432,0.01,2.182,0.016,4.741,0.02l16.742-12.498
				C17.105,28.835,5.077,19.521,4.805,19.294L21.622,5.767c2.795-2.362,5.397,0,5.397,0l17.346,13.449l3.601-2.688l0-0.026
				L28.398,1.312z"/>
			<path class="st6" d="M27.019,5.767c0,0-2.602-2.362-5.397,0L4.805,19.294c0.272,0.227,12.3,9.541,19.357,15.004l20.203-15.082
				L27.019,5.767z"/>
			<path class="st0" d="M23.522,46.797l-0.01,0.007l4.278-0.01C26.382,46.795,24.953,46.796,23.522,46.797L23.522,46.797z"/>
			<path class="st0" d="M23.523,46.797c-6.056,0.004-12.079,0.005-16.102-0.001l-0.062,0.047l16.155-0.038L23.523,46.797
				L23.523,46.797z"/>
			<polygon class="st0" points="47.966,16.528 47.938,29.278 47.969,29.256 47.983,29.127 48,16.503 			"/>
			<path class="st0" d="M47.983,29.127l-0.014,0.129l-0.03,0.022l0.027-12.75l-3.601,2.688L24.162,34.298L7.42,46.796l38.36,0.047
				c0,0,0.591,0.005,1.155-0.401c0.038-0.026,0.062-0.044,0.09-0.066c0.01-0.008,0.021-0.016,0.031-0.025
				c0.066-0.054,0.109-0.096,0.109-0.096c0.017-0.014,0.028-0.035,0.044-0.05c0.031-0.032,0.06-0.067,0.09-0.102
				c0.095-0.107,0.177-0.225,0.246-0.357c0.022-0.04,0.045-0.081,0.066-0.124c0.021-0.046,0.041-0.091,0.059-0.138
				c0.091-0.217,0.161-0.469,0.207-0.76c0.002-0.013,0.004-0.025,0.006-0.038c0.01-0.07,0.021-0.138,0.028-0.212
				c0.054-0.436,0.049-0.774,0.049-0.774l0.015-10.678L47.983,29.127z"/>
		</g>
		<g>
			<path class="st11" d="M26.203,21.906h-0.058c-0.454,1.272-1.277,1.907-2.47,1.907c-0.895,0-1.616-0.332-2.164-0.998
				c-0.548-0.666-0.822-1.588-0.822-2.767c0-1.523,0.379-2.764,1.138-3.719c0.758-0.956,1.672-1.434,2.742-1.434
				c0.966,0,1.572,0.39,1.818,1.169h0.039l0.097-0.989h2.188c-0.292,2.836-0.438,4.69-0.438,5.562c0,0.932,0.246,1.397,0.739,1.397
				c0.519,0,0.946-0.353,1.284-1.059c0.337-0.705,0.505-1.627,0.505-2.766c0-1.558-0.483-2.834-1.449-3.829
				s-2.314-1.493-4.045-1.493c-1.854,0-3.395,0.664-4.624,1.992s-1.843,2.947-1.843,4.858c0,1.851,0.543,3.309,1.629,4.373
				c1.085,1.065,2.585,1.598,4.497,1.598c1.458,0,2.794-0.286,4.006-0.858v1.907c-1.108,0.485-2.534,0.729-4.278,0.729
				c-2.392,0-4.338-0.704-5.839-2.111c-1.5-1.408-2.251-3.301-2.251-5.677c0-2.424,0.801-4.461,2.402-6.111
				c1.601-1.651,3.663-2.477,6.184-2.477c2.333,0,4.222,0.641,5.664,1.922c1.442,1.282,2.164,2.971,2.164,5.068
				c0,1.724-0.441,3.106-1.323,4.148c-0.881,1.042-1.974,1.562-3.277,1.562c-0.642,0-1.164-0.176-1.565-0.529
				C26.453,22.932,26.235,22.473,26.203,21.906z M24.91,16.634c-0.583,0-1.059,0.342-1.425,1.024
				c-0.366,0.682-0.549,1.473-0.549,2.371c0,0.639,0.125,1.137,0.375,1.493c0.25,0.355,0.572,0.534,0.967,0.534
				c0.609,0,1.089-0.336,1.439-1.009c0.35-0.672,0.525-1.571,0.525-2.696c0-0.532-0.122-0.952-0.365-1.258
				C25.634,16.787,25.312,16.634,24.91,16.634z"/>
		</g>
	</g>
</g>
<g id="remote_x5F_mysql">
</g>
<g id="addon_x5F_domains">
</g>
<g id="mysql_x5F_database_x5F_wizard">
</g>
<g id="multiphp_x5F_ini_x5F_editor">
</g>
</svg>
