<svg id="Layer_1" data-name="Layer 1" xmlns="http://www.w3.org/2000/svg" viewBox="0 0 48 48"><defs><style>.cls-1{fill:#25323c;}.cls-2{fill:#32415b;}.cls-3{fill:#bcbcbc;}.cls-4{fill:#336792;}</style></defs><title>domains</title><circle class="cls-1" cx="24" cy="24" r="24"/><rect class="cls-2" x="4.89" y="15.76" width="38.31" height="16.26" rx="3.81" ry="3.81"/><path class="cls-3" d="M10.36,25.87a1.28,1.28,0,0,0-.88.31,1,1,0,0,0-.35.8,1.07,1.07,0,0,0,.34.8,1.2,1.2,0,0,0,.86.33,1.29,1.29,0,0,0,.9-.32,1.12,1.12,0,0,0,0-1.61A1.2,1.2,0,0,0,10.36,25.87Z"/><path class="cls-3" d="M13.68,21.84a3.78,3.78,0,0,0-1,2.79,3.43,3.43,0,0,0,1,2.51,3.38,3.38,0,0,0,2.52,1,4,4,0,0,0,2-.42V26a2.66,2.66,0,0,1-1.52.51,1.84,1.84,0,0,1-1.38-.53,2,2,0,0,1-.5-1.45A2.05,2.05,0,0,1,15.29,23a1.88,1.88,0,0,1,1.41-.54,2.35,2.35,0,0,1,1.46.5V21.14a3.41,3.41,0,0,0-1.72-.33A3.77,3.77,0,0,0,13.68,21.84Z"/><path class="cls-3" d="M22.82,20.81a3.72,3.72,0,0,0-2.7,1,3.58,3.58,0,0,0-1,2.7,3.35,3.35,0,0,0,3.61,3.62,3.62,3.62,0,0,0,2.7-1,3.76,3.76,0,0,0,1-2.73,3.33,3.33,0,0,0-3.59-3.56Zm0,5.66c-1.05,0-1.57-.67-1.57-2A2.37,2.37,0,0,1,21.64,23a1.35,1.35,0,0,1,1.14-.52c1,0,1.51.65,1.51,1.95S23.79,26.47,22.8,26.47Z"/><path class="cls-3" d="M32.07,23.93v4h2.08v-3.9a2,2,0,0,1,.32-1.14,1,1,0,0,1,.84-.45c.71,0,1.07.5,1.07,1.51v4h2.08V23.61c0-1.86-.73-2.8-2.2-2.8A2.47,2.47,0,0,0,34,22.11a2,2,0,0,0-2-1.3,2.45,2.45,0,0,0-1.27.35,2.64,2.64,0,0,0-.91.91h0V21H27.76v7h.75c1.06,0,0,0,1.33,0V24.07a1.92,1.92,0,0,1,.32-1.18,1,1,0,0,1,.85-.43C31.72,22.46,32.07,23,32.07,23.93Z"/><path class="cls-4" d="M39.37,14.81H8.71A4.91,4.91,0,0,0,3.8,19.72v8.56a4.91,4.91,0,0,0,4.91,4.91H39.37a4.9,4.9,0,0,0,4.91-4.91V19.72A4.9,4.9,0,0,0,39.37,14.81ZM42.1,27.92a3,3,0,0,1-3,3H9a3,3,0,0,1-3-3V20.08a3,3,0,0,1,3-3H39.13a3,3,0,0,1,3,3Z"/></svg>