<?xml version="1.0" encoding="utf-8"?>
<!-- Generator: Adobe Illustrator 21.1.0, SVG Export Plug-In . SVG Version: 6.00 Build 0)  -->
<svg version="1.1" xmlns="http://www.w3.org/2000/svg" xmlns:xlink="http://www.w3.org/1999/xlink" x="0px" y="0px"
	 viewBox="0 0 48 48" style="enable-background:new 0 0 48 48;" xml:space="preserve">
<style type="text/css">
	.st0{fill:#E0E0E0;}
	.st1{fill:#262626;}
	.st2{fill:#4F5B94;}
	.st3{fill:#15587C;}
	.st4{fill:none;}
	.st5{fill:#BCBCBC;}
	.st6{fill:#FFFFFF;}
	.st7{fill:#D34231;}
	.st8{fill:#666666;}
	.st9{fill:#EDA72B;}
	.st10{fill:#25323C;}
	.st11{fill:#336792;}
	.st12{fill:#32415B;}
	.st13{fill:#84B556;}
	.st14{fill:#6A9638;}
	.st15{fill:#189BD8;}
	.st16{fill:#BA342A;}
	.st17{fill:#FF6C2C;}
	.st18{fill:#8892BF;}
	.st19{fill:#FFFFFF;stroke:#FFFFFF;stroke-width:0.25;stroke-miterlimit:10;}
	.st20{fill:#FFFFFF;stroke:#FFFFFF;stroke-miterlimit:10;}
	.st21{fill:#FF6A1A;}
	.st22{fill:#00AA17;}
	.st23{fill:#FA741D;}
	.st24{fill:none;stroke:#15587C;stroke-miterlimit:10;}
	.st25{fill:none;stroke:#15587C;stroke-width:1.5;stroke-miterlimit:10;}
	.st26{fill:none;stroke:#BA342A;stroke-width:5;stroke-miterlimit:10;}
	.st27{fill:#000004;}
	.st28{fill:#000004;stroke:#FFFFFF;stroke-width:0.5;stroke-miterlimit:10;}
	.st29{fill:#017F00;}
	.st30{fill:none;stroke:#BCBCBC;stroke-miterlimit:10;}
	.st31{fill:#39FF2A;}
	.st32{fill:#FF00B3;}
	.st33{fill:#4DFF00;}
	.st34{fill:#FFFFFF;stroke:#FFFFFF;stroke-width:1.5;stroke-miterlimit:10;}
	.st35{fill:#FFFFFF;stroke:#FFFFFF;stroke-width:0.5;stroke-miterlimit:10;}
	.st36{fill:#FFFFFF;stroke:#BCBCBC;stroke-miterlimit:10;}
</style>
<g id="Layer_1">
	<polygon class="st4" points="7.421,47.124 23.519,47.124 23.572,47.086 	"/>
	<path class="st5" d="M28.457,1.365c0,0-4.139-2.967-8.523,0L0.461,16.326l-0.397,0.305c0,0.432,0,28.052,0,28.052
		s0.088,0.493,0.397,1.028c0.362,0.629,1.033,1.316,2.282,1.345c0.432,0.01,2.182,0.016,4.74,0.02l16.738-12.561
		C17.166,29.025,5.14,19.665,4.868,19.437L21.682,5.842c2.794-2.374,5.396,0,5.396,0L44.42,19.359l3.6-2.701l0-0.026L28.457,1.365z"
		/>
	<path class="st6" d="M27.078,5.842c0,0-2.602-2.374-5.396,0L4.868,19.437c0.272,0.228,12.297,9.589,19.353,15.08L44.42,19.359
		L27.078,5.842z"/>
	<path class="st0" d="M23.582,47.078l-0.01,0.007l4.277-0.01C26.441,47.076,25.012,47.077,23.582,47.078L23.582,47.078z"/>
	<path class="st0" d="M23.582,47.078c-6.054,0.004-12.077,0.005-16.099-0.001l-0.062,0.047l16.151-0.039L23.582,47.078
		L23.582,47.078z"/>
	<path class="st0" d="M48.02,16.657l-3.6,2.701L24.222,34.516L7.483,47.077l38.352,0.047c0,0,0.591,0.005,1.155-0.403
		c0.038-0.026,0.062-0.044,0.09-0.067c0.01-0.009,0.021-0.016,0.031-0.025c0.065-0.054,0.109-0.096,0.109-0.096
		c0.017-0.014,0.028-0.035,0.044-0.051c0.031-0.032,0.06-0.067,0.09-0.103c0.095-0.108,0.177-0.226,0.246-0.359
		c0.022-0.04,0.045-0.081,0.066-0.124c0.021-0.046,0.041-0.091,0.059-0.139c0.091-0.218,0.161-0.471,0.207-0.764
		c0.002-0.013,0.004-0.025,0.006-0.038c0.01-0.07,0.021-0.139,0.028-0.213c0.054-0.438,0.049-0.778,0.049-0.778L48.02,16.657z"/>
	<g>
		<path class="st17" d="M30.393,22.355l-2.806-1.158c0,0-1.444-0.476-0.165-1.837c1.279-1.362,1.32-4.078,1.32-4.078
			c-0.33-4.828-4.085-4.478-4.085-4.478c-4.168,0.206-4.085,4.519-4.085,4.519s0.248,2.488,1.568,3.891s-0.701,2.01-0.701,2.01
			l-3.095,1.463c-1.816,0.825-1.733,3.425-1.733,3.425h16.052C33.158,22.843,30.393,22.355,30.393,22.355z"/>
		<polyline class="st17" points="16.611,25.764 24.042,31.665 32.663,25.764 27.237,22.586 21.88,23.051 16.611,25.764 		"/>
	</g>
</g>
<g id="remote_x5F_mysql">
</g>
<g id="addon_x5F_domains">
</g>
<g id="mysql_x5F_database_x5F_wizard">
</g>
<g id="multiphp_x5F_ini_x5F_editor">
</g>
</svg>
