<?xml version="1.0" encoding="utf-8"?>
<!-- Generator: Adobe Illustrator 21.1.0, SVG Export Plug-In . SVG Version: 6.00 Build 0)  -->
<svg version="1.1" xmlns="http://www.w3.org/2000/svg" xmlns:xlink="http://www.w3.org/1999/xlink" x="0px" y="0px"
	 viewBox="0 0 48 48" style="enable-background:new 0 0 48 48;" xml:space="preserve">
<style type="text/css">
	.st0{fill:#E0E0E0;}
	.st1{fill:#262626;}
	.st2{fill:#4F5B94;}
	.st3{fill:#15587C;}
	.st4{fill:none;}
	.st5{fill:#BCBCBC;}
	.st6{fill:#FFFFFF;}
	.st7{fill:#D34231;}
	.st8{fill:#666666;}
	.st9{fill:#EDA72B;}
	.st10{fill:#25323C;}
	.st11{fill:#336792;}
	.st12{fill:#32415B;}
	.st13{fill:#84B556;}
	.st14{fill:#6A9638;}
	.st15{fill:#189BD8;}
	.st16{fill:#BA342A;}
	.st17{fill:#FF6C2C;}
	.st18{fill:#8892BF;}
	.st19{fill:#FFFFFF;stroke:#FFFFFF;stroke-width:0.25;stroke-miterlimit:10;}
	.st20{fill:#FFFFFF;stroke:#FFFFFF;stroke-miterlimit:10;}
	.st21{fill:#FF6A1A;}
	.st22{fill:#00AA17;}
	.st23{fill:#FA741D;}
	.st24{fill:none;stroke:#15587C;stroke-miterlimit:10;}
	.st25{fill:none;stroke:#15587C;stroke-width:1.5;stroke-miterlimit:10;}
	.st26{fill:none;stroke:#BA342A;stroke-width:5;stroke-miterlimit:10;}
	.st27{fill:#000004;}
	.st28{fill:#000004;stroke:#FFFFFF;stroke-width:0.5;stroke-miterlimit:10;}
	.st29{fill:#017F00;}
	.st30{fill:none;stroke:#BCBCBC;stroke-miterlimit:10;}
	.st31{fill:#39FF2A;}
	.st32{fill:#FF00B3;}
	.st33{fill:#4DFF00;}
	.st34{fill:#FFFFFF;stroke:#FFFFFF;stroke-width:1.5;stroke-miterlimit:10;}
	.st35{fill:#FFFFFF;stroke:#FFFFFF;stroke-width:0.5;stroke-miterlimit:10;}
	.st36{fill:#FFFFFF;stroke:#BCBCBC;stroke-miterlimit:10;}
</style>
<g id="Layer_1">
	<polygon class="st4" points="7.408,46.946 23.462,46.946 23.514,46.907 	"/>
	<path class="st5" d="M28.385,1.315c0,0-4.128-2.959-8.499,0L0.468,16.235l-0.396,0.304c0,0.43,0,27.973,0,27.973
		s0.088,0.492,0.396,1.025c0.361,0.627,1.03,1.313,2.276,1.342c0.431,0.01,2.176,0.016,4.727,0.02l16.691-12.526
		C17.126,28.898,5.134,19.564,4.863,19.336L21.629,5.78c2.786-2.367,5.381,0,5.381,0l17.293,13.479l3.59-2.694l0-0.026L28.385,1.315
		z"/>
	<path class="st6" d="M27.01,5.78c0,0-2.594-2.367-5.381,0L4.863,19.336c0.271,0.228,12.263,9.562,19.299,15.037l20.142-15.115
		L27.01,5.78z"/>
	<path class="st0" d="M23.524,46.9l-0.01,0.007l4.265-0.01C26.375,46.898,24.95,46.899,23.524,46.9L23.524,46.9z"/>
	<path class="st0" d="M23.524,46.9c-6.037,0.004-12.043,0.005-16.054-0.001l-0.062,0.047l16.106-0.038L23.524,46.9L23.524,46.9z"/>
	<polygon class="st0" points="47.893,16.565 47.866,29.342 47.896,29.321 47.91,29.191 47.928,16.539 	"/>
	<path class="st0" d="M47.91,29.191l-0.014,0.129l-0.03,0.022l0.027-12.778l-3.59,2.694L24.162,34.373L7.47,46.899l38.244,0.047
		c0,0,0.589,0.005,1.151-0.402c0.038-0.026,0.062-0.044,0.09-0.066c0.01-0.008,0.021-0.016,0.031-0.025
		c0.065-0.054,0.109-0.096,0.109-0.096c0.017-0.014,0.028-0.035,0.044-0.05c0.031-0.032,0.06-0.067,0.09-0.103
		c0.094-0.107,0.176-0.226,0.245-0.358c0.022-0.04,0.044-0.081,0.065-0.124c0.021-0.046,0.041-0.091,0.059-0.138
		c0.091-0.217,0.161-0.47,0.207-0.762c0.002-0.013,0.004-0.025,0.006-0.038c0.01-0.07,0.021-0.138,0.028-0.213
		c0.054-0.437,0.049-0.776,0.049-0.776l0.015-10.701L47.91,29.191z"/>
	<path class="st5" d="M24.461,26.784c0,0.236,0.192,0.427,0.428,0.427l0.118,0c0.236,0,0.427-0.192,0.427-0.428L25.421,18.7
		c-0.311,0.097-0.637,0.161-0.973,0.189L24.461,26.784z"/>
	<path class="st8" d="M26.313,18.31c-0.28,0.16-0.578,0.292-0.892,0.39l0.012,8.082c0,0.236-0.191,0.428-0.427,0.428l-0.118,0
		c-0.236,0-0.428-0.191-0.428-0.427l-0.012-7.894c-0.109,0.009-0.218,0.015-0.328,0.016c-0.018,0-0.035,0.001-0.053,0.001
		c-0.837,0.001-1.621-0.224-2.295-0.617l-0.052,1.703l-0.007,0.231l1.476,1.471l-1.099,1.112l1.073,1.08l-1.07,1.131l1.092,1.099
		l-1.089,1.112c0,0,1.677,1.701,2.003,1.958c0.326,0.258,0.583-0.001,0.583-0.001l1.643-1.581L26.313,18.31z"/>
	<path class="st10" d="M24.107,9.803c-0.018,0-0.035-0.001-0.053-0.001c-2.514,0.004-4.55,2.045-4.546,4.56
		c0.003,1.678,0.913,3.141,2.265,3.929c0.674,0.393,1.458,0.619,2.295,0.617c0.018,0,0.035-0.001,0.053-0.001
		c0.111-0.001,0.22-0.007,0.328-0.016c0.336-0.028,0.661-0.092,0.972-0.189c0.313-0.098,0.612-0.23,0.892-0.39
		c1.376-0.785,2.303-2.266,2.301-3.963C28.61,11.85,26.597,9.827,24.107,9.803z M24.112,13.57c-0.665,0.001-1.206-0.538-1.207-1.203
		s0.538-1.206,1.203-1.207c0.665-0.001,1.206,0.538,1.207,1.203C25.316,13.029,24.778,13.569,24.112,13.57z"/>
</g>
<g id="remote_x5F_mysql">
</g>
<g id="addon_x5F_domains">
</g>
<g id="mysql_x5F_database_x5F_wizard">
</g>
<g id="multiphp_x5F_ini_x5F_editor">
</g>
</svg>
