<?xml version="1.0" encoding="utf-8"?>
<!-- Generator: Adobe Illustrator 21.1.0, SVG Export Plug-In . SVG Version: 6.00 Build 0)  -->
<svg version="1.1" xmlns="http://www.w3.org/2000/svg" xmlns:xlink="http://www.w3.org/1999/xlink" x="0px" y="0px"
	 viewBox="0 0 48 48" style="enable-background:new 0 0 48 48;" xml:space="preserve">
<style type="text/css">
	.st0{fill:#E0E0E0;}
	.st1{fill:#262626;}
	.st2{fill:#4F5B94;}
	.st3{fill:#15587C;}
	.st4{fill:none;}
	.st5{fill:#BCBCBC;}
	.st6{fill:#FFFFFF;}
	.st7{fill:#D34231;}
	.st8{fill:#666666;}
	.st9{fill:#EDA72B;}
	.st10{fill:#25323C;}
	.st11{fill:#336792;}
	.st12{fill:#32415B;}
	.st13{fill:#84B556;}
	.st14{fill:#6A9638;}
	.st15{fill:#189BD8;}
	.st16{fill:#BA342A;}
	.st17{fill:#FF6C2C;}
	.st18{fill:#8892BF;}
	.st19{fill:#FFFFFF;stroke:#FFFFFF;stroke-width:0.25;stroke-miterlimit:10;}
	.st20{fill:#FFFFFF;stroke:#FFFFFF;stroke-miterlimit:10;}
	.st21{fill:#FF6A1A;}
	.st22{fill:#00AA17;}
	.st23{fill:#FA741D;}
	.st24{fill:none;stroke:#15587C;stroke-miterlimit:10;}
	.st25{fill:none;stroke:#15587C;stroke-width:1.5;stroke-miterlimit:10;}
	.st26{fill:none;stroke:#BA342A;stroke-width:5;stroke-miterlimit:10;}
	.st27{fill:#000004;}
	.st28{fill:#000004;stroke:#FFFFFF;stroke-width:0.5;stroke-miterlimit:10;}
	.st29{fill:#017F00;}
	.st30{fill:none;stroke:#BCBCBC;stroke-miterlimit:10;}
	.st31{fill:#39FF2A;}
	.st32{fill:#FF00B3;}
	.st33{fill:#4DFF00;}
	.st34{fill:#FFFFFF;stroke:#FFFFFF;stroke-width:1.5;stroke-miterlimit:10;}
	.st35{fill:#FFFFFF;stroke:#FFFFFF;stroke-width:0.5;stroke-miterlimit:10;}
	.st36{fill:#FFFFFF;stroke:#BCBCBC;stroke-miterlimit:10;}
</style>
<g id="Layer_1">
	<path class="st0" d="M23.887,46.213h0.091c-0.03-0.034-0.062-0.066-0.091-0.101V46.213z"/>
	<path class="st5" d="M21.809,32.939h-0.684c0.229,0,0.429,0.088,0.607,0.21C21.759,33.08,21.78,33.007,21.809,32.939z"/>
	<path class="st5" d="M21.125,40.72h0.029l-0.001-0.004C21.143,40.715,21.135,40.72,21.125,40.72z"/>
	<circle class="st7" cx="33.644" cy="37.72" r="10.265"/>
	<path class="st0" d="M24.553,46.213h0.091c-0.03-0.034-0.062-0.066-0.091-0.101V46.213z"/>
	<path class="st0" d="M40.71,0H28.474H17.569h-1.848v0.514v11.714c0,0,0.036,0.75-0.734,0.75H3.08V46.2c0,0.99,0.792,1.8,1.761,1.8
		h21.266c-0.706-0.528-1.355-1.125-1.936-1.787H24.08v-0.101c-1.313-1.525-2.264-3.365-2.733-5.392h-0.029H10.125h-0.017
		c-0.613,0-1.115-0.513-1.115-1.14s0.502-1.14,1.115-1.14h0.017h10.915c-0.009-0.195-0.029-0.386-0.029-0.583
		c0-0.906,0.099-1.789,0.28-2.641H10.125c-0.307,0-0.585-0.128-0.787-0.335c-0.202-0.206-0.328-0.491-0.328-0.805
		c0-0.313,0.125-0.598,0.328-0.805c0.202-0.206,0.481-0.335,0.787-0.335h11.193h0.684c0.496-1.177,1.168-2.26,1.978-3.224H10.125
		c-0.613,0-1.115-0.513-1.115-1.139c0-0.313,0.125-0.598,0.328-0.805c0.202-0.206,0.481-0.335,0.787-0.335h11.193h2.762h2.404
		c0.272-0.188,0.554-0.36,0.841-0.527c1.87-1.089,4.038-1.722,6.358-1.722c2.32,0,4.487,0.634,6.358,1.722
		c0.296,0.172,0.586,0.351,0.866,0.546c0.657,0.457,1.268,0.972,1.826,1.542V2.067C42.732,0.93,41.822,0,40.71,0z"/>
	<path class="st5" d="M15.41,0.614c0.033-0.011,0.067-0.023,0.1-0.034c-0.034,0.011-0.068,0.02-0.102,0.032L15.41,0.614z"/>
	<path class="st5" d="M15.212,0.681c0.066-0.023,0.132-0.045,0.198-0.067l-0.002-0.002C15.343,0.634,15.278,0.658,15.212,0.681z"/>
	<path class="st0" d="M18.121,12.067c0-0.627,0.502-1.139,1.115-1.139H35.72c0.613,0,1.115,0.513,1.115,1.139v0
		c0,0.627-0.502,1.139-1.115,1.139H19.236C18.623,13.206,18.121,12.694,18.121,12.067L18.121,12.067z"/>
	<path class="st0" d="M17.128,13.977l0.184-0.199c0.365-0.395,0.979-0.422,1.378-0.064l-1.518,1.642
		C16.784,14.986,16.762,14.372,17.128,13.977z"/>
	<path class="st0" d="M10.124,16.43H35.72c0.613,0,1.115,0.513,1.115,1.139c0,0.627-0.502,1.139-1.115,1.139H10.124
		c-0.613,0-1.115-0.513-1.115-1.139C9.01,16.943,9.511,16.43,10.124,16.43z"/>
	<path class="st0" d="M10.124,21.933H35.72c0.613,0,1.115,0.513,1.115,1.14c0,0.627-0.502,1.139-1.115,1.139H10.124
		c-0.613,0-1.115-0.513-1.115-1.139C9.01,22.446,9.511,21.933,10.124,21.933z"/>
	<path class="st5" d="M19.236,13.206H35.72c0.613,0,1.115-0.513,1.115-1.139v0c0-0.627-0.502-1.139-1.115-1.139H19.236
		c-0.613,0-1.115,0.513-1.115,1.139v0C18.121,12.694,18.623,13.206,19.236,13.206z"/>
	<path class="st5" d="M10.124,18.709H35.72c0.613,0,1.115-0.513,1.115-1.139c0-0.627-0.502-1.139-1.115-1.139H10.124
		c-0.613,0-1.115,0.513-1.115,1.139C9.01,18.196,9.511,18.709,10.124,18.709z"/>
	<path class="st5" d="M10.124,24.212H35.72c0.613,0,1.115-0.513,1.115-1.139c0-0.627-0.502-1.14-1.115-1.14H10.124
		c-0.613,0-1.115,0.513-1.115,1.14C9.01,23.699,9.511,24.212,10.124,24.212z"/>
	<path class="st5" d="M15.721,12.228V0.514c-0.07,0.023-0.141,0.043-0.211,0.066c-0.033,0.011-0.067,0.023-0.1,0.034
		c-0.066,0.022-0.132,0.044-0.198,0.067c0.066-0.023,0.13-0.047,0.196-0.069c0.034-0.011,0.068-0.021,0.102-0.032
		c0.07-0.023,0.141-0.044,0.211-0.066V0L3.08,12.978h11.908C15.393,12.978,15.721,12.642,15.721,12.228z"/>
	<path class="st5" d="M14.987,12.978c0.77,0,0.734-0.75,0.734-0.75C15.721,12.642,15.393,12.978,14.987,12.978z"/>
	<path class="st5" d="M24.08,27.436h-2.762H10.125c-0.307,0-0.585,0.128-0.787,0.335c-0.202,0.207-0.328,0.491-0.328,0.805
		c0,0.627,0.502,1.139,1.115,1.139h13.855c0.032-0.038,0.068-0.073,0.1-0.11c0.706-0.82,1.512-1.551,2.404-2.169H24.08z"/>
	<path class="st5" d="M21.318,32.939H10.124c-0.307,0-0.585,0.128-0.787,0.335C9.135,33.48,9.01,33.765,9.01,34.078
		s0.125,0.598,0.327,0.805c0.202,0.207,0.481,0.335,0.787,0.335H21.29c0.152-0.715,0.368-1.404,0.634-2.069
		C21.747,33.027,21.546,32.939,21.318,32.939z"/>
	<path class="st5" d="M9.337,33.273C9.135,33.48,9.01,33.765,9.01,34.078c0,0.313,0.125,0.598,0.327,0.805
		c-0.202-0.207-0.327-0.491-0.327-0.805S9.135,33.48,9.337,33.273z"/>
	<path class="st5" d="M22.001,32.939h-0.684c0.229,0,0.429,0.088,0.607,0.21C21.952,33.08,21.972,33.007,22.001,32.939z"/>
	<path class="st5" d="M21.039,38.441H10.124c-0.613,0-1.115,0.513-1.115,1.139c0,0.627,0.502,1.14,1.115,1.14h11.193
		c0.01,0,0.018-0.005,0.028-0.006C21.175,39.979,21.075,39.219,21.039,38.441z"/>
	<path class="st5" d="M9.01,39.581c0-0.627,0.502-1.139,1.115-1.139h-0.017c-0.613,0-1.115,0.513-1.115,1.14
		c0,0.627,0.502,1.139,1.115,1.139h0.017C9.511,40.72,9.01,40.208,9.01,39.581z"/>
	<path class="st5" d="M21.318,40.72h0.029c0-0.002-0.001-0.004-0.001-0.004C21.335,40.715,21.327,40.72,21.318,40.72z"/>
	<path class="st0" d="M18.69,13.713c-0.399-0.358-1.013-0.331-1.378,0.064l-0.184,0.199c-0.365,0.395-0.344,1.009,0.044,1.379
		L18.69,13.713z"/>
	<g>
		<g>
			<path class="st6" d="M33.778,45.868c-0.569,0-1.04-0.179-1.41-0.535c-0.37-0.356-0.555-0.788-0.555-1.296
				c0-0.529,0.187-0.964,0.561-1.302c0.374-0.338,0.842-0.507,1.405-0.507c0.57,0,1.037,0.171,1.4,0.513
				c0.364,0.342,0.545,0.774,0.545,1.296c0,0.529-0.18,0.967-0.539,1.312C34.824,45.695,34.356,45.868,33.778,45.868z
				 M35.531,29.797l-0.418,10.898h-2.735l-0.395-10.898H35.531z"/>
		</g>
	</g>
</g>
<g id="remote_x5F_mysql">
</g>
<g id="addon_x5F_domains">
</g>
<g id="mysql_x5F_database_x5F_wizard">
</g>
<g id="multiphp_x5F_ini_x5F_editor">
</g>
</svg>
