<?xml version="1.0" encoding="utf-8"?>
<!-- Generator: Adobe Illustrator 21.1.0, SVG Export Plug-In . SVG Version: 6.00 Build 0)  -->
<svg version="1.1" xmlns="http://www.w3.org/2000/svg" xmlns:xlink="http://www.w3.org/1999/xlink" x="0px" y="0px"
	 viewBox="0 0 48 48" style="enable-background:new 0 0 48 48;" xml:space="preserve">
<style type="text/css">
	.st0{fill:#E0E0E0;}
	.st1{fill:#262626;}
	.st2{fill:#4F5B94;}
	.st3{fill:#15587C;}
	.st4{fill:none;}
	.st5{fill:#BCBCBC;}
	.st6{fill:#FFFFFF;}
	.st7{fill:#D34231;}
	.st8{fill:#666666;}
	.st9{fill:#EDA72B;}
	.st10{fill:#25323C;}
	.st11{fill:#336792;}
	.st12{fill:#32415B;}
	.st13{fill:#84B556;}
	.st14{fill:#6A9638;}
	.st15{fill:#189BD8;}
	.st16{fill:#BA342A;}
	.st17{fill:#FF6C2C;}
	.st18{fill:#8892BF;}
	.st19{fill:#FFFFFF;stroke:#FFFFFF;stroke-width:0.25;stroke-miterlimit:10;}
	.st20{fill:#FFFFFF;stroke:#FFFFFF;stroke-miterlimit:10;}
	.st21{fill:#FF6A1A;}
	.st22{fill:#00AA17;}
	.st23{fill:#FA741D;}
	.st24{fill:none;stroke:#15587C;stroke-miterlimit:10;}
	.st25{fill:none;stroke:#15587C;stroke-width:1.5;stroke-miterlimit:10;}
	.st26{fill:none;stroke:#BA342A;stroke-width:5;stroke-miterlimit:10;}
	.st27{fill:#000004;}
	.st28{fill:#000004;stroke:#FFFFFF;stroke-width:0.5;stroke-miterlimit:10;}
	.st29{fill:#017F00;}
	.st30{fill:none;stroke:#BCBCBC;stroke-miterlimit:10;}
	.st31{fill:#39FF2A;}
	.st32{fill:#FF00B3;}
	.st33{fill:#4DFF00;}
	.st34{fill:#FFFFFF;stroke:#FFFFFF;stroke-width:1.5;stroke-miterlimit:10;}
	.st35{fill:#FFFFFF;stroke:#FFFFFF;stroke-width:0.5;stroke-miterlimit:10;}
	.st36{fill:#FFFFFF;stroke:#BCBCBC;stroke-miterlimit:10;}
</style>
<g id="Layer_1">
	<polygon class="st4" points="7.392,47.049 23.471,47.049 23.524,47.011 	"/>
	<path class="st5" d="M28.402,1.346c0,0-4.134-2.963-8.513,0L0.441,16.29l-0.396,0.305c0,0.431,0,28.018,0,28.018
		s0.088,0.493,0.396,1.027c0.362,0.628,1.032,1.315,2.279,1.344c0.431,0.01,2.179,0.016,4.734,0.02l16.718-12.546
		c-7.047-5.484-19.058-14.833-19.33-15.061L21.636,5.818c2.791-2.371,5.389,0,5.389,0l17.321,13.5l3.595-2.698l0-0.026L28.402,1.346
		z"/>
	<path class="st6" d="M27.025,5.818c0,0-2.598-2.371-5.389,0L4.843,19.396c0.272,0.228,12.282,9.577,19.33,15.061l20.174-15.139
		L27.025,5.818z"/>
	<path class="st0" d="M23.533,47.004l-0.01,0.007l4.272-0.01C26.389,47.002,24.962,47.003,23.533,47.004L23.533,47.004z"/>
	<path class="st0" d="M23.534,47.004c-6.047,0.004-12.062,0.005-16.079-0.001l-0.062,0.047l16.131-0.038L23.534,47.004
		L23.534,47.004z"/>
	<path class="st0" d="M47.942,16.62l-3.595,2.698L24.172,34.457L7.455,47.003l38.305,0.047c0,0,0.59,0.005,1.153-0.403
		c0.038-0.026,0.062-0.044,0.09-0.066c0.01-0.009,0.021-0.016,0.031-0.025c0.065-0.054,0.109-0.096,0.109-0.096
		c0.017-0.014,0.028-0.035,0.044-0.05c0.031-0.032,0.06-0.067,0.09-0.103c0.094-0.108,0.177-0.226,0.246-0.358
		c0.022-0.04,0.045-0.081,0.066-0.124c0.021-0.046,0.041-0.091,0.059-0.138c0.091-0.217,0.161-0.471,0.207-0.763
		c0.002-0.013,0.004-0.025,0.006-0.038c0.01-0.07,0.021-0.139,0.028-0.213c0.054-0.438,0.049-0.777,0.049-0.777l0.015-10.718
		l0.005-3.909l0.017-12.672L47.942,16.62z"/>
	<polygon class="st17" points="36.374,19.605 27.589,12.881 27.591,15.871 15.171,15.871 15.171,23.35 27.596,23.35 27.598,26.34 	
		"/>
</g>
<g id="remote_x5F_mysql">
</g>
<g id="addon_x5F_domains">
</g>
<g id="mysql_x5F_database_x5F_wizard">
</g>
<g id="multiphp_x5F_ini_x5F_editor">
</g>
</svg>
