<?xml version="1.0" encoding="utf-8"?>
<!-- Generator: Adobe Illustrator 21.1.0, SVG Export Plug-In . SVG Version: 6.00 Build 0)  -->
<svg version="1.1" xmlns="http://www.w3.org/2000/svg" xmlns:xlink="http://www.w3.org/1999/xlink" x="0px" y="0px"
	 viewBox="0 0 48 48" style="enable-background:new 0 0 48 48;" xml:space="preserve">
<style type="text/css">
	.st0{fill:#E0E0E0;}
	.st1{fill:#262626;}
	.st2{fill:#4F5B94;}
	.st3{fill:#15587C;}
	.st4{fill:none;}
	.st5{fill:#BCBCBC;}
	.st6{fill:#FFFFFF;}
	.st7{fill:#D34231;}
	.st8{fill:#666666;}
	.st9{fill:#EDA72B;}
	.st10{fill:#25323C;}
	.st11{fill:#336792;}
	.st12{fill:#32415B;}
	.st13{fill:#84B556;}
	.st14{fill:#6A9638;}
	.st15{fill:#189BD8;}
	.st16{fill:#BA342A;}
	.st17{fill:#FF6C2C;}
	.st18{fill:#8892BF;}
	.st19{fill:#FFFFFF;stroke:#FFFFFF;stroke-width:0.25;stroke-miterlimit:10;}
	.st20{fill:#FFFFFF;stroke:#FFFFFF;stroke-miterlimit:10;}
	.st21{fill:#FF6A1A;}
	.st22{fill:#00AA17;}
	.st23{fill:#FA741D;}
	.st24{fill:none;stroke:#15587C;stroke-miterlimit:10;}
	.st25{fill:none;stroke:#15587C;stroke-width:1.5;stroke-miterlimit:10;}
	.st26{fill:none;stroke:#BA342A;stroke-width:5;stroke-miterlimit:10;}
	.st27{fill:#000004;}
	.st28{fill:#000004;stroke:#FFFFFF;stroke-width:0.5;stroke-miterlimit:10;}
	.st29{fill:#017F00;}
	.st30{fill:none;stroke:#BCBCBC;stroke-miterlimit:10;}
	.st31{fill:#39FF2A;}
	.st32{fill:#FF00B3;}
	.st33{fill:#4DFF00;}
	.st34{fill:#FFFFFF;stroke:#FFFFFF;stroke-width:1.5;stroke-miterlimit:10;}
	.st35{fill:#FFFFFF;stroke:#FFFFFF;stroke-width:0.5;stroke-miterlimit:10;}
	.st36{fill:#FFFFFF;stroke:#BCBCBC;stroke-miterlimit:10;}
</style>
<g id="Layer_1">
	<g>
		<g>
			<path class="st5" d="M31.912,15.914v-3.78v-2.088c0-1.032-0.836-1.868-1.868-1.868H1.868C0.836,8.178,0,9.015,0,10.046v2.088
				v15.714v5.824h2.297c0.577-3.027,3.236-5.316,6.432-5.316c3.195,0,5.855,2.289,6.432,5.316h16.751v-5.824V15.914z"/>
			<path class="st8" d="M48,24.046c0,0-2.462-5.099-3.341-6.683s-2.286-1.449-2.286-1.449H31.912v11.934v5.824h0.469
				c0.577-3.027,3.236-5.316,6.432-5.316s5.855,2.289,6.432,5.316H48V24.046z"/>
			<circle class="st8" cx="38.911" cy="35.271" r="5.109"/>
			<circle class="st8" cx="8.729" cy="35.271" r="5.109"/>
			<circle class="st0" cx="8.781" cy="35.219" r="2.408"/>
			<circle class="st0" cx="38.911" cy="35.219" r="2.408"/>
			<path class="st6" d="M35.824,18.222h5.846c0,0,0.615-0.088,1.143,0.967c0.527,1.055,1.934,3.868,1.934,3.868v2.352l-4.462-0.022
				l-1.78-2.066h-3.341V18.22L35.824,18.222z"/>
		</g>
		<path class="st11" d="M21.432,23.373l-2.545-1.224c0,0-1.31-0.518-0.15-1.753c1.16-1.235,1.197-3.741,1.197-3.741
			c-0.299-4.378-3.705-4.083-3.705-4.083c-3.78,0.187-3.705,4.087-3.705,4.087s0.225,2.251,1.422,3.523
			c1.197,1.272-0.636,1.821-0.636,1.821l-2.807,1.673c-1.647,0.748-1.572,3.452-1.572,3.452H23.49
			C23.939,23.999,21.432,23.373,21.432,23.373z"/>
	</g>
</g>
<g id="remote_x5F_mysql">
</g>
<g id="addon_x5F_domains">
</g>
<g id="mysql_x5F_database_x5F_wizard">
</g>
<g id="multiphp_x5F_ini_x5F_editor">
</g>
</svg>
