<?xml version="1.0" encoding="utf-8"?>
<!-- Generator: Adobe Illustrator 21.1.0, SVG Export Plug-In . SVG Version: 6.00 Build 0)  -->
<svg version="1.1" xmlns="http://www.w3.org/2000/svg" xmlns:xlink="http://www.w3.org/1999/xlink" x="0px" y="0px"
	 viewBox="0 0 48 48" style="enable-background:new 0 0 48 48;" xml:space="preserve">
<style type="text/css">
	.st0{fill:#E0E0E0;}
	.st1{fill:#262626;}
	.st2{fill:#4F5B94;}
	.st3{fill:#15587C;}
	.st4{fill:none;}
	.st5{fill:#BCBCBC;}
	.st6{fill:#FFFFFF;}
	.st7{fill:#D34231;}
	.st8{fill:#666666;}
	.st9{fill:#EDA72B;}
	.st10{fill:#25323C;}
	.st11{fill:#336792;}
	.st12{fill:#32415B;}
	.st13{fill:#84B556;}
	.st14{fill:#6A9638;}
	.st15{fill:#189BD8;}
	.st16{fill:#BA342A;}
	.st17{fill:#FF6C2C;}
	.st18{fill:#8892BF;}
	.st19{fill:#FFFFFF;stroke:#FFFFFF;stroke-width:0.25;stroke-miterlimit:10;}
	.st20{fill:#FFFFFF;stroke:#FFFFFF;stroke-miterlimit:10;}
	.st21{fill:#FF6A1A;}
	.st22{fill:#00AA17;}
	.st23{fill:#FA741D;}
	.st24{fill:none;stroke:#15587C;stroke-miterlimit:10;}
	.st25{fill:none;stroke:#15587C;stroke-width:1.5;stroke-miterlimit:10;}
	.st26{fill:none;stroke:#BA342A;stroke-width:5;stroke-miterlimit:10;}
	.st27{fill:#000004;}
	.st28{fill:#000004;stroke:#FFFFFF;stroke-width:0.5;stroke-miterlimit:10;}
	.st29{fill:#017F00;}
	.st30{fill:none;stroke:#BCBCBC;stroke-miterlimit:10;}
	.st31{fill:#39FF2A;}
	.st32{fill:#FF00B3;}
	.st33{fill:#4DFF00;}
	.st34{fill:#FFFFFF;stroke:#FFFFFF;stroke-width:1.5;stroke-miterlimit:10;}
	.st35{fill:#FFFFFF;stroke:#FFFFFF;stroke-width:0.5;stroke-miterlimit:10;}
	.st36{fill:#FFFFFF;stroke:#BCBCBC;stroke-miterlimit:10;}
</style>
<g id="Layer_1">
	<path class="st8" d="M15.487,9.893c0-2.794,2.265-5.059,5.059-5.059h6.66c2.794,0,5.059,2.265,5.059,5.059v8.493h5.341V9.468
		C37.606,4.239,33.367,0,28.138,0h-8.524c-5.229,0-9.468,4.239-9.468,9.468v8.917h5.341V9.893z"/>
	<path class="st9" d="M37.606,18.385h-5.341H15.487h-5.341H2.531v4.53v9.428V44.9c0,1.705,1.395,3.1,3.1,3.1H42.12
		c1.705,0,3.1-1.395,3.1-3.1V32.344v-9.428v-4.53H37.606z"/>
	<g>
		<path class="st10" d="M22.316,28.778l4.5-4.481c0,0,3.209-2.932,6.768,0.258c0,0,3.043,2.692,0.479,6.362l-5.495,5.698
			c0,0-3.061,2.785-6.491,0.166c0,0-0.811-0.756,0-1.807c0.811-1.051,1.678-0.627,1.678-0.627l0.479,0.24
			c0,0,1.051,0.553,2.158-0.184l4.924-4.924c0,0,1.254-1.162,0.35-2.453c0,0-1.325-1.936-3.263,0l-2.251,2.268
			C26.152,29.295,24.252,28.299,22.316,28.778z"/>
		<path class="st10" d="M20.066,31.01l-5.071,5.071c0,0-2.895,3.356,0.074,6.602c2.969,3.246,6.417,0.848,6.417,0.848l4.647-4.518
			c0,0-2.176,0.387-3.707-0.627l-2.36,2.379c0,0-1.254,1.236-2.785-0.166c0,0-1.162-1.222,0.203-2.695l4.389-4.405
			c0,0,1.033-1.07,2.508-0.295c1.475,0.775,2.231-0.645,2.231-0.645s0.682-1.254-0.516-1.936
			C26.096,30.622,22.869,28.594,20.066,31.01z"/>
	</g>
</g>
<g id="remote_x5F_mysql">
</g>
<g id="addon_x5F_domains">
</g>
<g id="mysql_x5F_database_x5F_wizard">
</g>
<g id="multiphp_x5F_ini_x5F_editor">
</g>
</svg>
