<?xml version="1.0" encoding="utf-8"?>
<!-- Generator: Adobe Illustrator 21.1.0, SVG Export Plug-In . SVG Version: 6.00 Build 0)  -->
<svg version="1.1" xmlns="http://www.w3.org/2000/svg" xmlns:xlink="http://www.w3.org/1999/xlink" x="0px" y="0px"
	 viewBox="0 0 48 48" style="enable-background:new 0 0 48 48;" xml:space="preserve">
<style type="text/css">
	.st0{fill:#E0E0E0;}
	.st1{fill:#262626;}
	.st2{fill:#4F5B94;}
	.st3{fill:#15587C;}
	.st4{fill:none;}
	.st5{fill:#BCBCBC;}
	.st6{fill:#FFFFFF;}
	.st7{fill:#D34231;}
	.st8{fill:#666666;}
	.st9{fill:#EDA72B;}
	.st10{fill:#25323C;}
	.st11{fill:#336792;}
	.st12{fill:#32415B;}
	.st13{fill:#84B556;}
	.st14{fill:#6A9638;}
	.st15{fill:#189BD8;}
	.st16{fill:#BA342A;}
	.st17{fill:#FF6C2C;}
	.st18{fill:#8892BF;}
	.st19{fill:#FFFFFF;stroke:#FFFFFF;stroke-width:0.25;stroke-miterlimit:10;}
	.st20{fill:#FFFFFF;stroke:#FFFFFF;stroke-miterlimit:10;}
	.st21{fill:#FF6A1A;}
	.st22{fill:#00AA17;}
	.st23{fill:#FA741D;}
	.st24{fill:none;stroke:#15587C;stroke-miterlimit:10;}
	.st25{fill:none;stroke:#15587C;stroke-width:1.5;stroke-miterlimit:10;}
	.st26{fill:none;stroke:#BA342A;stroke-width:5;stroke-miterlimit:10;}
	.st27{fill:#000004;}
	.st28{fill:#000004;stroke:#FFFFFF;stroke-width:0.5;stroke-miterlimit:10;}
	.st29{fill:#017F00;}
	.st30{fill:none;stroke:#BCBCBC;stroke-miterlimit:10;}
	.st31{fill:#39FF2A;}
	.st32{fill:#FF00B3;}
	.st33{fill:#4DFF00;}
	.st34{fill:#FFFFFF;stroke:#FFFFFF;stroke-width:1.5;stroke-miterlimit:10;}
	.st35{fill:#FFFFFF;stroke:#FFFFFF;stroke-width:0.5;stroke-miterlimit:10;}
	.st36{fill:#FFFFFF;stroke:#BCBCBC;stroke-miterlimit:10;}
</style>
<g id="Layer_1">
	<g>
		<g>
			<polygon class="st4" points="7.434,47 23.506,47 23.558,46.962 			"/>
			<path class="st5" d="M28.435,1.317c0,0-4.132-2.962-8.509,0L0.486,16.254L0.09,16.558c0,0.431,0,28.006,0,28.006
				s0.088,0.492,0.396,1.027c0.362,0.628,1.031,1.314,2.278,1.343c0.431,0.01,2.178,0.016,4.732,0.02l16.711-12.54
				c-7.044-5.482-19.05-14.827-19.321-15.055L21.671,5.787c2.79-2.37,5.387,0,5.387,0l17.313,13.494l3.594-2.697l0-0.026
				L28.435,1.317z"/>
			<path class="st6" d="M27.058,5.787c0,0-2.597-2.37-5.387,0L4.885,19.359c0.272,0.228,12.277,9.573,19.321,15.055l20.165-15.132
				L27.058,5.787z"/>
			<path class="st0" d="M23.568,46.954l-0.01,0.007l4.27-0.01C26.422,46.952,24.996,46.953,23.568,46.954L23.568,46.954z"/>
			<path class="st0" d="M23.568,46.954c-6.044,0.004-12.057,0.005-16.072-0.001L7.434,47l16.124-0.038L23.568,46.954L23.568,46.954z
				"/>
			<polygon class="st0" points="47.966,16.584 47.939,29.376 47.969,29.355 47.983,29.225 48,16.558 			"/>
			<path class="st0" d="M47.983,29.225l-0.014,0.13l-0.03,0.022l0.027-12.792l-3.594,2.697L24.207,34.413L7.496,46.953L45.784,47
				c0,0,0.59,0.005,1.153-0.403c0.038-0.026,0.062-0.044,0.09-0.066c0.01-0.008,0.021-0.016,0.031-0.025
				c0.065-0.054,0.109-0.096,0.109-0.096c0.017-0.014,0.028-0.035,0.044-0.05c0.031-0.032,0.06-0.067,0.09-0.103
				c0.094-0.107,0.177-0.226,0.246-0.358c0.022-0.04,0.045-0.081,0.066-0.124c0.021-0.046,0.041-0.091,0.059-0.138
				c0.091-0.217,0.161-0.47,0.207-0.763c0.002-0.013,0.004-0.025,0.006-0.038c0.01-0.07,0.021-0.139,0.028-0.213
				c0.054-0.438,0.049-0.776,0.049-0.776l0.015-10.713L47.983,29.225z"/>
		</g>
		<polygon class="st0" points="24.207,34.611 25.849,33.379 22.625,33.379 		"/>
		<path class="st0" d="M13.544,25.627v0.676l6.644,5.177h8.191l4.645-3.486H17.065c-0.524,0-0.949-0.425-0.949-0.949
			c0-0.524,0.425-0.949,0.949-0.949h18.489l5.756-4.32V6.783c0-1.241-1.006-2.247-2.247-2.247H10.194
			c-1.241,0-2.247,1.006-2.247,2.247v15.159l4.729,3.685H13.544z M17.065,9.942h20.228c0.524,0,0.949,0.425,0.949,0.949
			c0,0.524-0.425,0.949-0.949,0.949H17.065c-0.524,0-0.949-0.425-0.949-0.949C16.116,10.367,16.541,9.942,17.065,9.942z
			 M17.065,15.326h20.228c0.524,0,0.949,0.425,0.949,0.949c0,0.524-0.425,0.949-0.949,0.949H17.065
			c-0.524,0-0.949-0.425-0.949-0.949C16.116,15.751,16.541,15.326,17.065,15.326z M17.065,20.711h20.228
			c0.524,0,0.949,0.425,0.949,0.949c0,0.524-0.425,0.949-0.949,0.949H17.065c-0.524,0-0.949-0.425-0.949-0.949
			C16.116,21.136,16.541,20.711,17.065,20.711z M10.501,9.533h3.043v3.043h-3.043V9.533z M10.501,14.898h3.043v3.043h-3.043V14.898z
			 M10.501,20.262h3.043v3.043h-3.043V20.262z"/>
		<polygon class="st5" points="22.625,33.379 25.849,33.379 28.379,31.48 20.188,31.48 		"/>
		<path class="st5" d="M16.116,27.045c0,0.524,0.425,0.949,0.949,0.949h15.959l2.53-1.899H17.065
			C16.541,26.096,16.116,26.521,16.116,27.045z"/>
		<path class="st5" d="M17.065,22.61h20.228c0.524,0,0.949-0.425,0.949-0.949c0-0.524-0.425-0.949-0.949-0.949H17.065
			c-0.524,0-0.949,0.425-0.949,0.949C16.116,22.185,16.541,22.61,17.065,22.61z"/>
		<path class="st5" d="M17.065,17.225h20.228c0.524,0,0.949-0.425,0.949-0.949c0-0.524-0.425-0.949-0.949-0.949H17.065
			c-0.524,0-0.949,0.425-0.949,0.949C16.116,16.8,16.541,17.225,17.065,17.225z"/>
		<path class="st5" d="M17.065,11.841h20.228c0.524,0,0.949-0.425,0.949-0.949c0-0.524-0.425-0.949-0.949-0.949H17.065
			c-0.524,0-0.949,0.425-0.949,0.949C16.116,11.416,16.541,11.841,17.065,11.841z"/>
		<polygon class="st17" points="12.676,25.627 13.544,26.303 13.544,25.627 		"/>
		<rect x="10.501" y="20.262" class="st12" width="3.043" height="3.043"/>
		<rect x="10.501" y="14.898" class="st17" width="3.043" height="3.043"/>
		<rect x="10.501" y="9.533" class="st12" width="3.043" height="3.043"/>
	</g>
</g>
<g id="remote_x5F_mysql">
</g>
<g id="addon_x5F_domains">
</g>
<g id="mysql_x5F_database_x5F_wizard">
</g>
<g id="multiphp_x5F_ini_x5F_editor">
</g>
</svg>
