<?xml version="1.0" encoding="utf-8"?>
<!-- Generator: Adobe Illustrator 21.1.0, SVG Export Plug-In . SVG Version: 6.00 Build 0)  -->
<svg version="1.1" xmlns="http://www.w3.org/2000/svg" xmlns:xlink="http://www.w3.org/1999/xlink" x="0px" y="0px"
	 viewBox="0 0 48 48" style="enable-background:new 0 0 48 48;" xml:space="preserve">
<style type="text/css">
	.st0{fill:#E0E0E0;}
	.st1{fill:#262626;}
	.st2{fill:#4F5B94;}
	.st3{fill:#15587C;}
	.st4{fill:none;}
	.st5{fill:#BCBCBC;}
	.st6{fill:#FFFFFF;}
	.st7{fill:#D34231;}
	.st8{fill:#666666;}
	.st9{fill:#EDA72B;}
	.st10{fill:#25323C;}
	.st11{fill:#336792;}
	.st12{fill:#32415B;}
	.st13{fill:#84B556;}
	.st14{fill:#6A9638;}
	.st15{fill:#189BD8;}
	.st16{fill:#BA342A;}
	.st17{fill:#FF6C2C;}
	.st18{fill:#8892BF;}
	.st19{fill:#FFFFFF;stroke:#FFFFFF;stroke-width:0.25;stroke-miterlimit:10;}
	.st20{fill:#FFFFFF;stroke:#FFFFFF;stroke-miterlimit:10;}
	.st21{fill:#FF6A1A;}
	.st22{fill:#00AA17;}
	.st23{fill:#FA741D;}
	.st24{fill:none;stroke:#15587C;stroke-miterlimit:10;}
	.st25{fill:none;stroke:#15587C;stroke-width:1.5;stroke-miterlimit:10;}
	.st26{fill:none;stroke:#BA342A;stroke-width:5;stroke-miterlimit:10;}
	.st27{fill:#000004;}
	.st28{fill:#000004;stroke:#FFFFFF;stroke-width:0.5;stroke-miterlimit:10;}
	.st29{fill:#017F00;}
	.st30{fill:none;stroke:#BCBCBC;stroke-miterlimit:10;}
	.st31{fill:#39FF2A;}
	.st32{fill:#FF00B3;}
	.st33{fill:#4DFF00;}
	.st34{fill:#FFFFFF;stroke:#FFFFFF;stroke-width:1.5;stroke-miterlimit:10;}
	.st35{fill:#FFFFFF;stroke:#FFFFFF;stroke-width:0.5;stroke-miterlimit:10;}
	.st36{fill:#FFFFFF;stroke:#BCBCBC;stroke-miterlimit:10;}
</style>
<g id="Layer_1">
	<polygon class="st14" points="18.954,24.432 20.625,24.01 18.546,24.016 18.79,24.265 	"/>
	<polygon class="st14" points="27.181,16.408 27.323,15.845 25.048,13.617 24.218,12.804 24.218,23.102 25.577,22.759 	"/>
	<g>
		<path class="st4" d="M24.218,1.597C11.399,8.758,4.4,7.644,4.4,7.644l3.316,16.402c2.725,16.961,16.503,22.289,16.503,22.289
			c1.424-0.66,2.727-1.404,3.926-2.206c2.385-1.598,4.328-3.437,5.931-5.337c3.029-3.593,4.798-7.401,5.797-10.266
			c0.412-1.181,0.701-2.209,0.888-2.982c0.241-0.998,0.326-1.592,0.326-1.592c1.771-7.674,2.867-16.304,2.867-16.304
			C34.254,7.705,24.218,1.597,24.218,1.597z"/>
		<path class="st5" d="M24.263,0C10.51,7.683,3,6.488,3,6.488l3.558,17.598C9.482,42.283,24.263,48,24.263,48
			c1.835-0.85,3.482-1.832,4.971-2.897c2.865-2.05,5.11-4.42,6.883-6.816c2.297-3.105,3.784-6.243,4.725-8.792
			c0.484-1.313,0.833-2.476,1.066-3.384c0.34-1.325,0.453-2.124,0.453-2.124c1.9-8.234,3.076-17.493,3.076-17.493
			C35.031,6.554,24.263,0,24.263,0z M41.085,23.953c0,0-0.085,0.594-0.326,1.592c-0.187,0.773-0.476,1.801-0.888,2.982
			c-0.999,2.865-2.767,6.673-5.797,10.266c-1.602,1.9-3.546,3.739-5.931,5.337c-1.198,0.803-2.502,1.547-3.926,2.206
			c0,0-13.777-5.328-16.503-22.289L4.4,7.644c0,0,7,1.114,19.819-6.047c0,0,10.036,6.109,19.734,6.052
			C43.953,7.649,42.856,16.278,41.085,23.953z"/>
	</g>
	<path class="st13" d="M38.58,23.96V7.281H24.218V1.597C11.399,8.758,4.399,7.644,4.399,7.644l3.316,16.402l2.047-0.006v7.093h7.786
		c0.37,0.218,0.86,0.476,1.475,0.728c1.266,0.519,3.038,0.983,5.195,0.951v13.523c1.424-0.66,2.727-1.404,3.926-2.206
		c2.385-1.598,4.328-3.437,5.931-5.337c3.029-3.593,4.798-7.401,5.797-10.266c0.412-1.181,0.701-2.209,0.888-2.982
		c0.241-0.998,0.326-1.592,0.326-1.592L38.58,23.96z"/>
	<path class="st14" d="M24.218,1.597v7.238h0v15.118H35.34c-0.001,0.004-0.003,0.013-0.004,0.016l5.749-0.016
		c1.771-7.674,2.867-16.304,2.867-16.304C34.254,7.705,24.218,1.597,24.218,1.597z"/>
	<path class="st14" d="M12.098,24.046c-0.001-0.004-0.003-0.008-0.004-0.012l-4.379,0.012c2.725,16.961,16.503,22.289,16.503,22.289
		V33.061v-0.249v-8.766H12.098z"/>
	<g>
		<g>
			<ellipse class="st36" cx="24.542" cy="24.089" rx="11.213" ry="6.755"/>
		</g>
		<g>
			<path class="st8" d="M22.032,26.902h-1.179v-3.272c0-0.354,0.016-0.744,0.045-1.171h-0.029c-0.062,0.336-0.117,0.577-0.167,0.725
				l-1.241,3.719h-0.975l-1.264-3.681c-0.035-0.099-0.09-0.354-0.167-0.763h-0.033c0.032,0.539,0.048,1.012,0.048,1.419v3.024
				h-1.074v-5.47h1.747l1.083,3.242c0.086,0.26,0.148,0.521,0.188,0.782h0.022c0.066-0.303,0.137-0.566,0.21-0.79l1.083-3.234h1.703
				V26.902z"/>
			<path class="st8" d="M25.476,26.998c-0.759,0-1.377-0.255-1.854-0.765c-0.479-0.51-0.717-1.175-0.717-1.993
				c0-0.864,0.242-1.563,0.728-2.098s1.128-0.801,1.929-0.801c0.756,0,1.367,0.255,1.834,0.767c0.467,0.511,0.701,1.185,0.701,2.021
				c0,0.859-0.242,1.552-0.727,2.078S26.254,26.998,25.476,26.998z M25.527,22.401c-0.419,0-0.752,0.162-0.998,0.486
				s-0.369,0.754-0.369,1.288c0,0.541,0.123,0.97,0.369,1.285s0.569,0.473,0.969,0.473c0.411,0,0.737-0.153,0.979-0.46
				c0.242-0.306,0.362-0.731,0.362-1.275c0-0.567-0.117-1.008-0.351-1.323C26.254,22.559,25.934,22.401,25.527,22.401z"/>
			<path class="st8" d="M28.975,26.902v-5.47h1.877c1.881,0,2.822,0.889,2.822,2.666c0,0.853-0.257,1.532-0.77,2.041
				c-0.514,0.509-1.198,0.763-2.053,0.763H28.975z M30.168,22.436v3.467h0.591c0.518,0,0.923-0.16,1.218-0.48
				c0.294-0.32,0.441-0.757,0.441-1.309c0-0.521-0.146-0.932-0.438-1.23c-0.293-0.298-0.701-0.447-1.229-0.447H30.168z"/>
		</g>
	</g>
</g>
<g id="remote_x5F_mysql">
</g>
<g id="addon_x5F_domains">
</g>
<g id="mysql_x5F_database_x5F_wizard">
</g>
<g id="multiphp_x5F_ini_x5F_editor">
</g>
</svg>
