<?xml version="1.0" encoding="utf-8"?>
<!-- Generator: Adobe Illustrator 21.1.0, SVG Export Plug-In . SVG Version: 6.00 Build 0)  -->
<svg version="1.1" xmlns="http://www.w3.org/2000/svg" xmlns:xlink="http://www.w3.org/1999/xlink" x="0px" y="0px"
	 viewBox="0 0 48 48" style="enable-background:new 0 0 48 48;" xml:space="preserve">
<style type="text/css">
	.st0{fill:#262626;}
	.st1{fill:#E0E0E0;}
	.st2{fill:#4F5B94;}
	.st3{fill:#15587C;}
	.st4{fill:none;}
	.st5{fill:#BCBCBC;}
	.st6{fill:#FFFFFF;}
	.st7{fill:#D34231;}
	.st8{fill:#666666;}
	.st9{fill:#EDA72B;}
	.st10{fill:#25323C;}
	.st11{fill:#336792;}
	.st12{fill:#32415B;}
	.st13{fill:#84B556;}
	.st14{fill:#6A9638;}
	.st15{fill:#189BD8;}
	.st16{fill:#BA342A;}
	.st17{fill:#FF6C2C;}
	.st18{fill:#8892BF;}
	.st19{fill:#FFFFFF;stroke:#FFFFFF;stroke-width:0.25;stroke-miterlimit:10;}
	.st20{fill:#FFFFFF;stroke:#FFFFFF;stroke-miterlimit:10;}
	.st21{fill:#FF6A1A;}
	.st22{fill:#00AA17;}
	.st23{fill:#FA741D;}
	.st24{fill:none;stroke:#15587C;stroke-miterlimit:10;}
	.st25{fill:none;stroke:#15587C;stroke-width:1.5;stroke-miterlimit:10;}
	.st26{fill:none;stroke:#BA342A;stroke-width:5;stroke-miterlimit:10;}
	.st27{fill:#000004;}
	.st28{fill:#000004;stroke:#FFFFFF;stroke-width:0.5;stroke-miterlimit:10;}
	.st29{fill:#017F00;}
	.st30{fill:none;stroke:#BCBCBC;stroke-miterlimit:10;}
	.st31{fill:#39FF2A;}
	.st32{fill:#FF00B3;}
	.st33{fill:#4DFF00;}
	.st34{fill:#FFFFFF;stroke:#FFFFFF;stroke-width:1.5;stroke-miterlimit:10;}
	.st35{fill:#FFFFFF;stroke:#FFFFFF;stroke-width:0.5;stroke-miterlimit:10;}
	.st36{fill:#FFFFFF;stroke:#BCBCBC;stroke-miterlimit:10;}
</style>
<g id="Layer_1">
</g>
<g id="remote_x5F_mysql">
</g>
<g id="addon_x5F_domains">
</g>
<g id="mysql_x5F_database_x5F_wizard">
	<path class="st10" d="M23.917,0.022c-13.208,0-23.915,10.707-23.915,23.915c0,13.208,10.707,23.915,23.915,23.915
		c2.442,0,4.798-0.368,7.017-1.048c-2.646-1.361-4.693-3.698-5.666-6.535c-0.042-0.123-0.089-0.244-0.127-0.368
		c-0.06-0.201-0.109-0.406-0.158-0.612c-0.07-0.287-0.129-0.577-0.178-0.872c-0.021-0.13-0.044-0.259-0.06-0.39
		c-0.063-0.487-0.107-0.98-0.107-1.484c0-0.394,0.021-0.782,0.059-1.166c0.057-0.568,0.169-1.12,0.306-1.661
		c0.938-3.699,3.663-6.682,7.217-7.996c0.107-0.04,0.215-0.081,0.323-0.118c0.188-0.063,0.377-0.121,0.569-0.174
		c0.173-0.049,0.348-0.093,0.524-0.134c0.155-0.036,0.309-0.071,0.466-0.101c0.241-0.046,0.486-0.08,0.733-0.111
		c0.106-0.013,0.211-0.031,0.318-0.041c0.368-0.035,0.741-0.056,1.118-0.056c0.064,0,0.127,0.006,0.192,0.007
		c0.277,0.006,0.552,0.018,0.824,0.042c4.107,0.354,7.597,2.829,9.368,6.318c0.761-2.334,1.177-4.824,1.177-7.413
		C47.832,10.729,37.125,0.022,23.917,0.022z M12.768,10.961h-0.019c0.007-0.004,0.013-0.008,0.02-0.012
		C12.768,10.953,12.769,10.957,12.768,10.961z M23.984,23.812v-0.03c0.005,0.005,0.011,0.01,0.017,0.015
		C23.995,23.802,23.989,23.807,23.984,23.812z"/>
	<path class="st10" d="M33.612,25.382c-0.176,0.041-0.351,0.085-0.524,0.134C33.261,25.467,33.436,25.423,33.612,25.382z"/>
	<path class="st10" d="M24.731,38.099c0.016,0.131,0.039,0.26,0.06,0.39C24.77,38.359,24.748,38.23,24.731,38.099z"/>
	<path class="st10" d="M32.52,25.69c-0.109,0.037-0.216,0.077-0.323,0.118C32.305,25.768,32.411,25.726,32.52,25.69z"/>
	<path class="st10" d="M34.809,25.17c-0.246,0.031-0.491,0.065-0.732,0.111C34.318,25.236,34.563,25.201,34.809,25.17z"/>
	<path class="st10" d="M24.969,39.36c0.049,0.206,0.098,0.41,0.158,0.612C25.066,39.771,25.019,39.565,24.969,39.36z"/>
	<polygon class="st10" points="35.207,11.068 35.209,11.068 37.306,11.068 35.208,11.068 	"/>
	
		<ellipse transform="matrix(0.5039 -0.8638 0.8638 0.5039 7.9073 35.9022)" class="st10" cx="35.207" cy="11.068" rx="0" ry="0.001"/>
	<path class="st2" d="M23.971,23.904c0.005-0.005,0.011-0.01,0.017-0.015c-0.005-0.005-0.011-0.01-0.017-0.015V23.904z"/>
	<path class="st2" d="M37.306,21.13v-0.056c-0.01,0.01-0.021,0.019-0.031,0.028C37.286,21.111,37.297,21.121,37.306,21.13z"/>
	<polygon class="st2" points="35.207,11.068 35.209,11.068 35.207,11.068 	"/>
	<path class="st2" d="M12.75,11.068h0.019c0.001-0.004,0-0.008,0.001-0.012C12.764,11.06,12.757,11.064,12.75,11.068z"/>
	<path class="st5" d="M29.934,7.328c-1.728-0.473-3.761-0.75-5.946-0.75c-2.163,0-4.176,0.272-5.891,0.736
		c-2.936,0.793-4.985,2.157-5.326,3.743c-0.001,0.004-0.001,0.008-0.001,0.012c-0.032,0.151-0.053,0.304-0.053,0.459
		c0,2.734,5.047,4.95,11.272,4.95c6.225,0,11.272-2.216,11.272-4.95c0-0.155-0.021-0.308-0.053-0.459l0-0.001
		C34.875,9.487,32.848,8.125,29.934,7.328z"/>
	<path class="st2" d="M22.784,16.898c0.397,0.016,0.797,0.027,1.204,0.027c0.403,0,0.8-0.011,1.194-0.027
		c-0.398-0.017-0.797-0.033-1.203-0.033C23.576,16.865,23.18,16.882,22.784,16.898z"/>
	<path class="st11" d="M23.988,5.212c-7.248,0-13.132,2.541-13.318,5.704c-0.003,0.051-0.017,0.101-0.017,0.152
		c0,0.051,0.014,0.101,0.017,0.152v1.395v6.774c0.314,0.3,0.663,0.587,1.039,0.862c0.391,0.286,0.806,0.561,1.258,0.817
		c2.793,1.583,6.692,2.57,11.012,2.57s8.219-0.986,11.012-2.57c0.452-0.256,0.867-0.531,1.258-0.817
		c0.383-0.28,0.738-0.572,1.057-0.878v-6.742v-1.411c0.003-0.051,0.017-0.101,0.017-0.152c0-0.046-0.013-0.089-0.016-0.135
		C37.144,7.762,31.25,5.212,23.988,5.212z M23.988,16.925c-0.406,0-0.807-0.011-1.204-0.027c0.396-0.017,0.792-0.033,1.195-0.033
		c0.406,0,0.805,0.016,1.203,0.033C24.788,16.914,24.391,16.925,23.988,16.925z M35.209,11.068h-0.001
		c0.032,0.151,0.053,0.304,0.053,0.459c0,2.734-5.047,4.95-11.272,4.95c-6.225,0-11.272-2.216-11.272-4.95
		c0-0.155,0.021-0.308,0.053-0.459H12.75c0.007-0.004,0.013-0.008,0.02-0.012c0.341-1.586,2.39-2.95,5.326-3.743
		c1.716-0.464,3.729-0.736,5.891-0.736c2.185,0,4.218,0.278,5.946,0.75c2.914,0.798,4.941,2.159,5.273,3.74L35.209,11.068h2.098
		H35.209z"/>
	<path class="st11" d="M37.306,25.124v-2.36V21.13c-0.01-0.009-0.021-0.019-0.031-0.028c-0.298,0.284-0.627,0.555-0.981,0.817
		c-0.889,0.657-1.962,1.231-3.151,1.723c-3.596,1.378-7.117,1.616-7.117,1.616c-0.67,0.05-1.351,0.08-2.047,0.08
		c-5.046,0-9.511-1.348-12.315-3.42c-0.354-0.262-0.683-0.533-0.981-0.817c-0.004,0.004-0.009,0.008-0.013,0.012v1.634v6.84
		c1.131,1.08,2.674,2.009,4.52,2.72c1.835,0.707,3.961,1.199,6.259,1.411l1.607,0.098c0.306,0.01,0.613,0.02,0.924,0.02
		c0.344,0,0.672-0.03,1.01-0.044c0.937-3.694,3.659-6.674,7.208-7.986c0.107-0.04,0.214-0.08,0.323-0.118
		c0.187-0.063,0.376-0.121,0.568-0.174c0.173-0.049,0.348-0.093,0.524-0.134c0.155-0.036,0.309-0.071,0.466-0.101
		c0.241-0.046,0.486-0.08,0.732-0.111c0.106-0.013,0.211-0.031,0.318-0.041c0.371-0.036,0.745-0.058,1.125-0.058
		C36.608,25.071,36.959,25.093,37.306,25.124z"/>
	<path class="st11" d="M23.215,35.45l-1.551-0.088l-0.092-0.005c-3.134-0.274-5.955-1.065-8.158-2.217
		c-1.074-0.562-1.999-1.206-2.744-1.918v5.183c-0.012,0.101-0.035,0.201-0.035,0.304c0,3.235,5.971,5.857,13.336,5.857
		c0.728,0,1.437-0.033,2.133-0.083l0.003,0.001l0.021-0.003c0.021-0.002,0.043-0.002,0.064-0.004
		c-0.387-0.671-0.688-1.393-0.938-2.138c-0.042-0.123-0.089-0.243-0.127-0.368c-0.06-0.201-0.109-0.406-0.158-0.612
		c-0.07-0.287-0.129-0.577-0.178-0.871c-0.021-0.13-0.044-0.258-0.06-0.39c-0.063-0.486-0.106-0.979-0.106-1.482
		c0-0.393,0.021-0.782,0.059-1.165c-0.235,0.006-0.467,0.019-0.704,0.019C23.721,35.471,23.47,35.457,23.215,35.45z"/>
	<circle class="st8" cx="36.286" cy="36.425" r="9.646"/>
	<path class="st9" d="M42.672,36.394c0.264-0.963,0.359-2.133,0.359-2.133c0.038-1.755-0.849-3.322-0.849-3.322
		c-1.132-2.189-4.077-2.623-4.077-2.623s-5.077-0.887-7.417,1.642s-1.151,6.172-1.151,6.172s0.075,0.321,0.359,0.264
		s0.283-0.359,0.283-0.359c-0.17-0.642-0.264-1.283-0.264-1.283c-0.283-2.661,0.717-3.794,0.717-3.794
		c1.095-1.755,4.039-2.076,4.039-2.076s1.151-0.264,3.095,0.038c1.944,0.302,3.039,1.359,3.039,1.359s0.736,0.642,1.208,1.982
		c0.472,1.34,0.283,4.058,0.057,4.133c-0.226,0.075-0.415,0.679-0.415,0.679l-0.396,1.963l-0.736,0.736
		c-0.981,0.812-1.585,1.038-2.057,1.227c-0.398,0.159-1.184,0.305-1.422,0.347c-0.124-0.398-0.495-0.686-0.933-0.686
		c-0.539,0-0.977,0.437-0.977,0.977c0,0.539,0.437,0.977,0.977,0.977c0.446,0,0.822-0.299,0.939-0.708h0.076
		c0,0,1.265-0.151,2.303-0.679c1.038-0.528,1.812-1.302,1.812-1.302c0.057,0.283,0.453,0.34,0.453,0.34
		c0.698-0.113,1.038-0.566,1.038-0.566s0.528-0.491,0.604-1.661C43.408,36.866,42.672,36.394,42.672,36.394z"/>
	<path class="st1" d="M36.11,43.121c-0.808,0-1.463-0.655-1.463-1.463c0-0.202,0.041-0.395,0.115-0.57
		c0.222-0.525,0.742-0.893,1.347-0.893c0.383,0,0.732,0.147,0.992,0.388l0.079-0.016c2.34-0.377,3.548-1.793,3.548-1.793
		s0.208-1.434,0.396-2.133c0.142-0.526,0.466-0.634,0.617-0.656c0.008-0.001,0.016-0.002,0.023-0.003
		c0.01-0.152,0.017-0.306,0.022-0.462c0.005-0.144-0.002-0.278-0.02-0.403c-0.125-3.141-2.596-5.648-5.626-5.648
		c-3.11,0-5.631,2.641-5.631,5.898c0,0.157,0.006,0.313,0.018,0.467c-0.002,0.001-0.003,0.001-0.003,0.001s-0.375,2.742,2.622,6.818
		c0,0,2.988,4.568,6.407,0c0,0,0.338-0.423,0.752-1.224c-0.901,0.536-2.252,0.82-2.916,0.935
		C37.141,42.816,36.661,43.121,36.11,43.121z"/>
</g>
<g id="multiphp_x5F_ini_x5F_editor">
</g>
</svg>
