<?xml version="1.0" encoding="utf-8"?>
<!-- Generator: Adobe Illustrator 21.1.0, SVG Export Plug-In . SVG Version: 6.00 Build 0)  -->
<svg version="1.1" xmlns="http://www.w3.org/2000/svg" xmlns:xlink="http://www.w3.org/1999/xlink" x="0px" y="0px"
	 viewBox="0 0 48 48" style="enable-background:new 0 0 48 48;" xml:space="preserve">
<style type="text/css">
	.st0{fill:#E0E0E0;}
	.st1{fill:#262626;}
	.st2{fill:#4F5B94;}
	.st3{fill:#15587C;}
	.st4{fill:none;}
	.st5{fill:#BCBCBC;}
	.st6{fill:#FFFFFF;}
	.st7{fill:#D34231;}
	.st8{fill:#666666;}
	.st9{fill:#EDA72B;}
	.st10{fill:#25323C;}
	.st11{fill:#336792;}
	.st12{fill:#32415B;}
	.st13{fill:#84B556;}
	.st14{fill:#6A9638;}
	.st15{fill:#189BD8;}
	.st16{fill:#BA342A;}
	.st17{fill:#FF6C2C;}
	.st18{fill:#8892BF;}
	.st19{fill:#FFFFFF;stroke:#FFFFFF;stroke-width:0.25;stroke-miterlimit:10;}
	.st20{fill:#FFFFFF;stroke:#FFFFFF;stroke-miterlimit:10;}
	.st21{fill:#FF6A1A;}
	.st22{fill:#00AA17;}
	.st23{fill:#FA741D;}
	.st24{fill:none;stroke:#15587C;stroke-miterlimit:10;}
	.st25{fill:none;stroke:#15587C;stroke-width:1.5;stroke-miterlimit:10;}
	.st26{fill:none;stroke:#BA342A;stroke-width:5;stroke-miterlimit:10;}
	.st27{fill:#000004;}
	.st28{fill:#000004;stroke:#FFFFFF;stroke-width:0.5;stroke-miterlimit:10;}
	.st29{fill:#017F00;}
	.st30{fill:none;stroke:#BCBCBC;stroke-miterlimit:10;}
	.st31{fill:#39FF2A;}
	.st32{fill:#FF00B3;}
	.st33{fill:#4DFF00;}
	.st34{fill:#FFFFFF;stroke:#FFFFFF;stroke-width:1.5;stroke-miterlimit:10;}
	.st35{fill:#FFFFFF;stroke:#FFFFFF;stroke-width:0.5;stroke-miterlimit:10;}
	.st36{fill:#FFFFFF;stroke:#BCBCBC;stroke-miterlimit:10;}
</style>
<g id="Layer_1">
	<g>
		<path class="st12" d="M3.805,38.27c-0.761,0-1.385-0.623-1.385-1.385V13.3c0-0.761,0.623-1.385,1.385-1.385H42.54
			c0.761,0,1.385,0.623,1.385,1.385v19.483l2.6,2.46V5.253c0-0.723-0.592-1.315-1.315-1.315H1.315C0.592,3.937,0,4.529,0,5.253
			v34.122c0,0.723,0.592,1.315,1.315,1.315h39.681l-2.456-2.42H3.805z"/>
		<path class="st11" d="M42.54,11.915H3.805c-0.761,0-1.385,0.623-1.385,1.385v23.586c0,0.761,0.623,1.385,1.385,1.385H38.54
			l-4.389-4.326l0.007-0.006c-1.308,0.563-2.748,0.878-4.262,0.878c-5.957,0-10.785-4.829-10.785-10.785
			c0-5.957,4.829-10.785,10.785-10.785s10.785,4.829,10.785,10.785c0,1.682-0.396,3.267-1.082,4.686l0.015-0.014l4.311,4.08V13.3
			C43.924,12.538,43.301,11.915,42.54,11.915z"/>
		<path class="st12" d="M12.392,8.118c0-0.701,0.574-1.275,1.275-1.275h0.244c0.701,0,1.275,0.574,1.275,1.275v0.244
			c0,0.701-0.574,1.275-1.275,1.275h-0.244c-0.701,0-1.275-0.574-1.275-1.275V8.118z"/>
		<path class="st12" d="M7.406,8.118c0-0.701,0.574-1.275,1.275-1.275h0.244c0.701,0,1.275,0.574,1.275,1.275v0.244
			c0,0.701-0.574,1.275-1.275,1.275H8.681c-0.701,0-1.275-0.574-1.275-1.275V8.118z"/>
		<path class="st12" d="M2.42,8.118c0-0.701,0.574-1.275,1.275-1.275h0.244c0.701,0,1.275,0.574,1.275,1.275v0.244
			c0,0.701-0.574,1.275-1.275,1.275H3.695c-0.701,0-1.275-0.574-1.275-1.275V8.118z"/>
		<path class="st6" d="M3.695,9.637h0.244c0.701,0,1.275-0.574,1.275-1.275V8.118c0-0.701-0.574-1.275-1.275-1.275H3.695
			c-0.701,0-1.275,0.574-1.275,1.275v0.244C2.42,9.063,2.994,9.637,3.695,9.637z"/>
		<path class="st6" d="M8.681,9.637h0.244c0.701,0,1.275-0.574,1.275-1.275V8.118c0-0.701-0.574-1.275-1.275-1.275H8.681
			c-0.701,0-1.275,0.574-1.275,1.275v0.244C7.406,9.063,7.98,9.637,8.681,9.637z"/>
		<path class="st6" d="M13.667,9.637h0.244c0.701,0,1.275-0.574,1.275-1.275V8.118c0-0.701-0.574-1.275-1.275-1.275h-0.244
			c-0.701,0-1.275,0.574-1.275,1.275v0.244C12.392,9.063,12.966,9.637,13.667,9.637z"/>
		<ellipse transform="matrix(1 -0.008 0.008 1 -0.1904 0.2377)" class="st0" cx="29.735" cy="24.014" rx="7.119" ry="7.119"/>
		<path class="st8" d="M36.896,29.312c1.104-1.495,1.75-3.347,1.735-5.349c-0.039-4.913-4.053-8.863-8.966-8.824
			s-8.863,4.053-8.824,8.966c0.039,4.913,4.053,8.863,8.966,8.824c1.988-0.016,3.819-0.683,5.291-1.798l0,0.001l1.719,1.709
			l1.837-1.866L36.896,29.312L36.896,29.312z M29.792,31.133c-3.932,0.031-7.144-3.13-7.176-7.062
			c-0.031-3.932,3.13-7.144,7.062-7.176s7.144,3.13,7.176,7.062S33.723,31.101,29.792,31.133z"/>
		<path class="st17" d="M47.671,38.164l-7.383-7.27c-0.434-0.427-1.139-0.422-1.567,0.012l-0.068,0.069l-1.837,1.866l-0.067,0.068
			c-0.427,0.434-0.422,1.139,0.012,1.567l7.383,7.27c0.434,0.427,1.139,0.422,1.567-0.012l1.973-2.003
			C48.11,39.296,48.105,38.591,47.671,38.164z"/>
		<path class="st17" d="M35.536,25.035v-2.024l-1.383-0.235c-0.103-0.364-0.251-0.709-0.436-1.029l0.875-1.122L33.108,19.2
			l-1.116,0.848c-0.319-0.178-0.662-0.319-1.022-0.417l-0.138-1.257c0,0-1.99,0-2.04,0l-0.223,1.259
			c-0.009,0.003-0.018,0.007-0.027,0.009c-0.346,0.097-0.676,0.233-0.984,0.404L26.413,19.2l-1.501,1.425l0.864,1.217
			c-0.159,0.291-0.287,0.6-0.38,0.925l-1.462,0.21v1.956l1.434,0.246c0.1,0.381,0.247,0.743,0.436,1.078l-0.538,0.757l-0.304,0.428
			l1.501,1.425l1.137-0.841c0.318,0.173,0.659,0.309,1.017,0.403l0.224,1.264c0.051,0,2.04,0,2.04,0l0.142-1.29
			c0.346-0.099,0.676-0.237,0.983-0.411l1.151,0.875l1.484-1.425l-0.91-1.167c0.171-0.3,0.309-0.621,0.408-0.959L35.536,25.035z
			 M32.529,23.974c0,0.205-0.026,0.403-0.068,0.595c-0.273,1.243-1.377,2.174-2.701,2.174c-1.529,0-2.769-1.24-2.769-2.769
			c0-1.529,1.24-2.769,2.769-2.769c0.513,0,0.988,0.149,1.4,0.393C31.976,22.079,32.529,22.958,32.529,23.974z"/>
	</g>
</g>
<g id="remote_x5F_mysql">
</g>
<g id="addon_x5F_domains">
</g>
<g id="mysql_x5F_database_x5F_wizard">
</g>
<g id="multiphp_x5F_ini_x5F_editor">
</g>
</svg>
