<?xml version="1.0" encoding="utf-8"?>
<!-- Generator: Adobe Illustrator 21.1.0, SVG Export Plug-In . SVG Version: 6.00 Build 0)  -->
<svg version="1.1" xmlns="http://www.w3.org/2000/svg" xmlns:xlink="http://www.w3.org/1999/xlink" x="0px" y="0px"
	 viewBox="0 0 48 48" style="enable-background:new 0 0 48 48;" xml:space="preserve">
<style type="text/css">
	.st0{fill:#E0E0E0;}
	.st1{fill:#262626;}
	.st2{fill:#4F5B94;}
	.st3{fill:#15587C;}
	.st4{fill:none;}
	.st5{fill:#BCBCBC;}
	.st6{fill:#FFFFFF;}
	.st7{fill:#D34231;}
	.st8{fill:#666666;}
	.st9{fill:#EDA72B;}
	.st10{fill:#25323C;}
	.st11{fill:#336792;}
	.st12{fill:#32415B;}
	.st13{fill:#84B556;}
	.st14{fill:#6A9638;}
	.st15{fill:#189BD8;}
	.st16{fill:#BA342A;}
	.st17{fill:#FF6C2C;}
	.st18{fill:#8892BF;}
	.st19{fill:#FFFFFF;stroke:#FFFFFF;stroke-width:0.25;stroke-miterlimit:10;}
	.st20{fill:#FFFFFF;stroke:#FFFFFF;stroke-miterlimit:10;}
	.st21{fill:#FF6A1A;}
	.st22{fill:#00AA17;}
	.st23{fill:#FA741D;}
	.st24{fill:none;stroke:#15587C;stroke-miterlimit:10;}
	.st25{fill:none;stroke:#15587C;stroke-width:1.5;stroke-miterlimit:10;}
	.st26{fill:none;stroke:#BA342A;stroke-width:5;stroke-miterlimit:10;}
	.st27{fill:#000004;}
	.st28{fill:#000004;stroke:#FFFFFF;stroke-width:0.5;stroke-miterlimit:10;}
	.st29{fill:#017F00;}
	.st30{fill:none;stroke:#BCBCBC;stroke-miterlimit:10;}
	.st31{fill:#39FF2A;}
	.st32{fill:#FF00B3;}
	.st33{fill:#4DFF00;}
	.st34{fill:#FFFFFF;stroke:#FFFFFF;stroke-width:1.5;stroke-miterlimit:10;}
	.st35{fill:#FFFFFF;stroke:#FFFFFF;stroke-width:0.5;stroke-miterlimit:10;}
	.st36{fill:#FFFFFF;stroke:#BCBCBC;stroke-miterlimit:10;}
</style>
<g id="Layer_1">
	<g>
		<path class="st14" d="M46.643,4.154H1.357C0.611,4.154,0,4.765,0,5.511v35.205c0,0.746,0.611,1.357,1.357,1.357h45.286
			c0.746,0,1.357-0.611,1.357-1.357V5.511C48,4.765,47.389,4.154,46.643,4.154z M12.785,8.467c0-0.724,0.592-1.316,1.316-1.316
			h0.252c0.724,0,1.316,0.592,1.316,1.316v0.252c0,0.724-0.592,1.316-1.316,1.316h-0.252c-0.724,0-1.316-0.592-1.316-1.316V8.467z
			 M7.641,8.467c0-0.724,0.592-1.316,1.316-1.316h0.252c0.724,0,1.315,0.592,1.315,1.316v0.252c0,0.724-0.592,1.316-1.315,1.316
			H8.957c-0.724,0-1.316-0.592-1.316-1.316V8.467z M2.497,8.467c0-0.724,0.592-1.316,1.316-1.316h0.252
			c0.724,0,1.316,0.592,1.316,1.316v0.252c0,0.724-0.592,1.316-1.316,1.316H3.813c-0.724,0-1.316-0.592-1.316-1.316V8.467z
			 M45.318,38.147c0,0.786-0.643,1.428-1.428,1.428H3.925c-0.786,0-1.428-0.643-1.428-1.428V13.814c0-0.786,0.643-1.428,1.428-1.428
			h39.964c0.786,0,1.428,0.643,1.428,1.428V38.147z"/>
		<path class="st13" d="M43.889,12.385H3.925c-0.786,0-1.428,0.643-1.428,1.428v24.334c0,0.786,0.643,1.428,1.428,1.428h39.964
			c0.786,0,1.428-0.643,1.428-1.428V13.814C45.318,13.028,44.675,12.385,43.889,12.385z"/>
		<path class="st6" d="M3.813,10.035h0.252c0.724,0,1.316-0.592,1.316-1.316V8.467c0-0.724-0.592-1.316-1.316-1.316H3.813
			c-0.724,0-1.316,0.592-1.316,1.316v0.252C2.497,9.443,3.089,10.035,3.813,10.035z"/>
		<path class="st6" d="M8.957,10.035h0.252c0.724,0,1.315-0.592,1.315-1.316V8.467c0-0.724-0.592-1.316-1.315-1.316H8.957
			c-0.724,0-1.316,0.592-1.316,1.316v0.252C7.641,9.443,8.233,10.035,8.957,10.035z"/>
		<path class="st6" d="M14.101,10.035h0.252c0.724,0,1.316-0.592,1.316-1.316V8.467c0-0.724-0.592-1.316-1.316-1.316h-0.252
			c-0.724,0-1.316,0.592-1.316,1.316v0.252C12.785,9.443,13.377,10.035,14.101,10.035z"/>
		<path class="st0" d="M17.425,35.402c0,0-4.082-3.549-2.751-8.784c0,0,0.976-3.727,4.17-4.836l1.242-0.488
			c0,0,1.597-0.222,1.996-1.508s1.996-2.44,1.996-2.44s1.153-0.932,3.283-0.621l1.287,0.222c0,0,0.754-2.351,3.549-2.307
			l0.266,1.109c0,0-2.174,0.311-2.218,2.041c0,0,2.307,1.109,2.218,4.392c0,0,0,2.351-1.42,3.594c0,0-0.887,0.577-0.266,2.396
			c0.621,1.819-0.177,3.86-0.177,3.86s-1.553,2.972-3.283,4.037c0,0-2.928,2.13-7.276,0.843C20.042,36.91,18.8,36.378,17.425,35.402
			z"/>
		<path class="st14" d="M22.371,21.182c0,0,0.288-1.841,1.775-2.884c1.486-1.043,3.128-0.821,3.128-0.821s0.643,0.089,1.131,0.333
			c0,0,0.111,0.532-0.288,0.932c0,0-1.686-0.976-3.172,0.2c-1.486,1.176-1.486,2.396-1.486,2.396S22.793,21.937,22.371,21.182z"/>
		<path class="st14" d="M21.173,22.048c0,0-3.66,0.488-5.035,3.305c-1.375,2.817-0.621,5.479-0.621,5.479s0.532,2.773,3.483,4.769
			l0.865,0.532c0,0,0.799-0.067,0.532-0.887c0,0-3.239-1.442-4.015-5.191s1.996-5.79,1.996-5.79s0.71-0.821,3.039-1.287
			C21.417,22.979,21.928,22.513,21.173,22.048z"/>
		<path class="st0" d="M30.94,30.664c0,0-0.615,5.366-5.791,6.351c-5.175,0.985,1.523-6.492,1.523-6.492L30.94,30.664z"/>
	</g>
</g>
<g id="remote_x5F_mysql">
</g>
<g id="addon_x5F_domains">
</g>
<g id="mysql_x5F_database_x5F_wizard">
</g>
<g id="multiphp_x5F_ini_x5F_editor">
</g>
</svg>
