<?xml version="1.0" encoding="utf-8"?>
<!-- Generator: Adobe Illustrator 21.1.0, SVG Export Plug-In . SVG Version: 6.00 Build 0)  -->
<svg version="1.1" xmlns="http://www.w3.org/2000/svg" xmlns:xlink="http://www.w3.org/1999/xlink" x="0px" y="0px"
	 viewBox="0 0 48 48" style="enable-background:new 0 0 48 48;" xml:space="preserve">
<style type="text/css">
	.st0{fill:#E0E0E0;}
	.st1{fill:#262626;}
	.st2{fill:#4F5B94;}
	.st3{fill:#15587C;}
	.st4{fill:none;}
	.st5{fill:#BCBCBC;}
	.st6{fill:#FFFFFF;}
	.st7{fill:#D34231;}
	.st8{fill:#666666;}
	.st9{fill:#EDA72B;}
	.st10{fill:#25323C;}
	.st11{fill:#336792;}
	.st12{fill:#32415B;}
	.st13{fill:#84B556;}
	.st14{fill:#6A9638;}
	.st15{fill:#189BD8;}
	.st16{fill:#BA342A;}
	.st17{fill:#FF6C2C;}
	.st18{fill:#8892BF;}
	.st19{fill:#FFFFFF;stroke:#FFFFFF;stroke-width:0.25;stroke-miterlimit:10;}
	.st20{fill:#FFFFFF;stroke:#FFFFFF;stroke-miterlimit:10;}
	.st21{fill:#FF6A1A;}
	.st22{fill:#00AA17;}
	.st23{fill:#FA741D;}
	.st24{fill:none;stroke:#15587C;stroke-miterlimit:10;}
	.st25{fill:none;stroke:#15587C;stroke-width:1.5;stroke-miterlimit:10;}
	.st26{fill:none;stroke:#BA342A;stroke-width:5;stroke-miterlimit:10;}
	.st27{fill:#000004;}
	.st28{fill:#000004;stroke:#FFFFFF;stroke-width:0.5;stroke-miterlimit:10;}
	.st29{fill:#017F00;}
	.st30{fill:none;stroke:#BCBCBC;stroke-miterlimit:10;}
	.st31{fill:#39FF2A;}
	.st32{fill:#FF00B3;}
	.st33{fill:#4DFF00;}
	.st34{fill:#FFFFFF;stroke:#FFFFFF;stroke-width:1.5;stroke-miterlimit:10;}
	.st35{fill:#FFFFFF;stroke:#FFFFFF;stroke-width:0.5;stroke-miterlimit:10;}
	.st36{fill:#FFFFFF;stroke:#BCBCBC;stroke-miterlimit:10;}
</style>
<g id="Layer_1">
	<rect x="1.536" y="7.207" class="st0" width="17.592" height="4.962"/>
	<path class="st2" d="M46.643,5.647H1.357C0.611,5.647,0,6.258,0,7.004v35.205c0,0.746,0.611,1.357,1.357,1.357h45.286
		c0.746,0,1.357-0.611,1.357-1.357V7.004C48,6.258,47.389,5.647,46.643,5.647z M12.785,9.96c0-0.724,0.592-1.316,1.316-1.316h0.252
		c0.724,0,1.316,0.592,1.316,1.316v0.252c0,0.724-0.592,1.316-1.316,1.316h-0.252c-0.724,0-1.316-0.592-1.316-1.316V9.96z
		 M7.641,9.96c0-0.724,0.592-1.316,1.316-1.316h0.252c0.724,0,1.315,0.592,1.315,1.316v0.252c0,0.724-0.592,1.316-1.315,1.316H8.957
		c-0.724,0-1.316-0.592-1.316-1.316V9.96z M2.497,9.96c0-0.724,0.592-1.316,1.316-1.316h0.252c0.724,0,1.316,0.592,1.316,1.316
		v0.252c0,0.724-0.592,1.316-1.316,1.316H3.813c-0.724,0-1.316-0.592-1.316-1.316V9.96z M45.318,39.641
		c0,0.786-0.643,1.428-1.428,1.428H3.925c-0.786,0-1.428-0.643-1.428-1.428V15.307c0-0.786,0.643-1.428,1.428-1.428h39.964
		c0.786,0,1.428,0.643,1.428,1.428V39.641z"/>
	<path class="st18" d="M43.889,13.878H3.925c-0.786,0-1.428,0.643-1.428,1.428v24.334c0,0.786,0.643,1.428,1.428,1.428h39.964
		c0.786,0,1.428-0.643,1.428-1.428V15.307C45.318,14.521,44.675,13.878,43.889,13.878z"/>
	<path class="st2" d="M17.715,21.737c-0.004,0.002-0.008,0.005-0.012,0.007h0.011C17.715,21.742,17.715,21.739,17.715,21.737z"/>
	<polygon class="st2" points="23.902,27.636 23.902,27.655 23.913,27.646 	"/>
	<path class="st2" d="M32.026,25.931c-0.006,0.006-0.013,0.011-0.019,0.017c0.006,0.006,0.013,0.011,0.019,0.017V25.931z"/>
	<polygon class="st2" points="30.112,19.836 30.111,19.835 30.111,19.836 	"/>
	<path class="st2" d="M16.443,19.828c-0.004,0.002-0.008,0.005-0.012,0.007h0.011C16.443,19.833,16.443,19.831,16.443,19.828z"/>
	<path class="st2" d="M30.747,19.836L30.747,19.836c-0.202-0.964-1.437-1.793-3.212-2.279c-1.052-0.288-2.291-0.457-3.622-0.457
		c-1.317,0-2.544,0.166-3.589,0.448c-1.789,0.483-3.037,1.314-3.245,2.28c-0.001,0.002,0,0.005-0.001,0.007
		c-0.019,0.092-0.032,0.185-0.032,0.28c0,1.665,3.074,3.016,6.867,3.016c3.792,0,6.867-1.35,6.867-3.016
		C30.779,20.021,30.767,19.928,30.747,19.836z"/>
	<path class="st2" d="M23.179,23.387c0.242,0.01,0.486,0.016,0.733,0.016c0.246,0,0.487-0.007,0.727-0.016
		c-0.243-0.01-0.485-0.02-0.733-0.02C23.662,23.367,23.42,23.377,23.179,23.387z"/>
	<g>
		<path class="st0" d="M32.027,19.754c-0.1-1.932-3.691-3.486-8.114-3.486c-4.415,0-8,1.548-8.113,3.475
			c-0.002,0.031-0.011,0.062-0.011,0.093c0,0.031,0.009,0.062,0.011,0.093v0.85v4.127c0.191,0.183,0.404,0.357,0.633,0.525
			c0.238,0.174,0.491,0.342,0.767,0.498c1.702,0.964,4.076,1.565,6.708,1.565c2.632,0,5.007-0.601,6.708-1.565
			c0.275-0.156,0.528-0.323,0.767-0.498c0.233-0.171,0.449-0.349,0.644-0.535v-4.107 M30.748,19.836L30.748,19.836
			c0.018,0.092,0.031,0.185,0.031,0.28c0,1.665-3.074,3.016-6.867,3.016s-6.867-1.35-6.867-3.016c0-0.094,0.013-0.188,0.032-0.28
			h-0.011c0.004-0.003,0.008-0.005,0.012-0.008c0.208-0.966,1.456-1.797,3.245-2.28c1.045-0.282,2.272-0.448,3.589-0.448
			c1.331,0,2.57,0.169,3.622,0.457C29.31,18.043,30.545,18.872,30.748,19.836L30.748,19.836h1.278H30.748z"/>
		<path class="st0" d="M31.409,26.446c-0.542,0.4-1.195,0.75-1.92,1.049c-2.191,0.839-4.335,0.985-4.335,0.985
			c-0.408,0.03-0.823,0.049-1.247,0.049c-3.074,0-5.794-0.821-7.502-2.083c-0.216-0.159-0.416-0.325-0.598-0.498
			c-0.003,0.003-0.006,0.005-0.008,0.007v0.995v4.167c0.689,0.658,1.629,1.224,2.753,1.657c1.118,0.431,2.413,0.73,3.813,0.859
			l0.979,0.06c0.187,0.006,0.373,0.012,0.563,0.012c1.99,0,3.832-0.345,5.349-0.929c1.132-0.436,2.078-1.006,2.769-1.669v-1.454
			c-0.004-0.003-0.008-0.006-0.011-0.009l0.011-1.208v-1.476v-0.995c-0.006-0.006-0.013-0.011-0.019-0.017
			C31.825,26.121,31.625,26.286,31.409,26.446z"/>
		<path class="st0" d="M23.907,34.701c-0.157,0-0.311-0.008-0.466-0.013l-0.945-0.054l-0.056-0.003
			c-1.909-0.167-3.628-0.649-4.97-1.351c-0.654-0.342-1.217-0.735-1.672-1.168v3.157c-0.007,0.062-0.021,0.123-0.021,0.185
			c0,1.97,3.637,3.568,8.124,3.568c0.444,0,0.875-0.02,1.299-0.05l0.002,0.001l0.013-0.002c0.015-0.001,0.031-0.002,0.047-0.003
			c-0.001-0.001-0.002-0.002-0.004-0.003l1.816-0.226c2.91-0.543,4.951-1.809,4.951-3.285v-3.352
			c-0.457,0.439-1.026,0.836-1.688,1.181C28.66,34.161,26.4,34.701,23.907,34.701z"/>
	</g>
</g>
<g id="remote_x5F_mysql">
</g>
<g id="addon_x5F_domains">
</g>
<g id="mysql_x5F_database_x5F_wizard">
</g>
<g id="multiphp_x5F_ini_x5F_editor">
</g>
</svg>
