<?xml version="1.0" encoding="utf-8"?>
<!-- Generator: Adobe Illustrator 21.1.0, SVG Export Plug-In . SVG Version: 6.00 Build 0)  -->
<svg version="1.1" xmlns="http://www.w3.org/2000/svg" xmlns:xlink="http://www.w3.org/1999/xlink" x="0px" y="0px"
	 viewBox="0 0 48 48" style="enable-background:new 0 0 48 48;" xml:space="preserve">
<style type="text/css">
	.st0{fill:#E0E0E0;}
	.st1{fill:#262626;}
	.st2{fill:#4F5B94;}
	.st3{fill:#15587C;}
	.st4{fill:none;}
	.st5{fill:#BCBCBC;}
	.st6{fill:#FFFFFF;}
	.st7{fill:#D34231;}
	.st8{fill:#666666;}
	.st9{fill:#EDA72B;}
	.st10{fill:#25323C;}
	.st11{fill:#336792;}
	.st12{fill:#32415B;}
	.st13{fill:#84B556;}
	.st14{fill:#6A9638;}
	.st15{fill:#189BD8;}
	.st16{fill:#BA342A;}
	.st17{fill:#FF6C2C;}
	.st18{fill:#8892BF;}
	.st19{fill:#FFFFFF;stroke:#FFFFFF;stroke-width:0.25;stroke-miterlimit:10;}
	.st20{fill:#FFFFFF;stroke:#FFFFFF;stroke-miterlimit:10;}
	.st21{fill:#FF6A1A;}
	.st22{fill:#00AA17;}
	.st23{fill:#FA741D;}
	.st24{fill:none;stroke:#15587C;stroke-miterlimit:10;}
	.st25{fill:none;stroke:#15587C;stroke-width:1.5;stroke-miterlimit:10;}
	.st26{fill:none;stroke:#BA342A;stroke-width:5;stroke-miterlimit:10;}
	.st27{fill:#000004;}
	.st28{fill:#000004;stroke:#FFFFFF;stroke-width:0.5;stroke-miterlimit:10;}
	.st29{fill:#017F00;}
	.st30{fill:none;stroke:#BCBCBC;stroke-miterlimit:10;}
	.st31{fill:#39FF2A;}
	.st32{fill:#FF00B3;}
	.st33{fill:#4DFF00;}
	.st34{fill:#FFFFFF;stroke:#FFFFFF;stroke-width:1.5;stroke-miterlimit:10;}
	.st35{fill:#FFFFFF;stroke:#FFFFFF;stroke-width:0.5;stroke-miterlimit:10;}
	.st36{fill:#FFFFFF;stroke:#BCBCBC;stroke-miterlimit:10;}
</style>
<g id="Layer_1">
	<g>
		<circle class="st12" cx="24" cy="24" r="24"/>
		<path class="st2" d="M23.992,23.985v0.03c0.005-0.005,0.011-0.01,0.017-0.015C24.003,23.995,23.997,23.99,23.992,23.985z"/>
		<path class="st2" d="M24.016,21.172c-0.01,0.01-0.021,0.019-0.031,0.028c0.01,0.01,0.021,0.019,0.031,0.028V21.172z"/>
		<polygon class="st2" points="24.001,11.12 23.999,11.119 23.999,11.12 		"/>
		<path class="st2" d="M24.01,11.108c-0.007,0.004-0.013,0.008-0.02,0.012h0.019C24.01,11.116,24.009,11.112,24.01,11.108z"/>
		<path class="st5" d="M35.346,11.165L35.346,11.165c-0.34-1.617-2.411-3.008-5.389-3.823c-1.766-0.483-3.844-0.767-6.077-0.767
			c-2.21,0-4.268,0.278-6.021,0.752c-3.001,0.811-5.095,2.205-5.444,3.826c-0.001,0.004-0.001,0.008-0.001,0.013
			c-0.032,0.155-0.054,0.311-0.054,0.469c0,2.794,5.158,5.06,11.521,5.06c6.363,0,11.52-2.265,11.52-5.06
			C35.4,11.476,35.378,11.32,35.346,11.165z"/>
		<path class="st2" d="M22.796,16.977c0.399,0.016,0.801,0.027,1.209,0.027c0.405,0,0.804-0.011,1.2-0.027
			c-0.4-0.017-0.8-0.034-1.208-0.034C23.591,16.944,23.193,16.96,22.796,16.977z"/>
		<path class="st18" d="M36.372,22.021c-0.894,0.66-1.971,1.237-3.166,1.731c-3.613,1.384-7.15,1.624-7.15,1.624
			c-0.674,0.05-1.358,0.081-2.056,0.081c-5.07,0-9.555-1.354-12.372-3.436c-0.356-0.263-0.686-0.536-0.986-0.821
			c-0.004,0.004-0.009,0.008-0.013,0.012v1.642v6.872c1.136,1.085,2.687,2.018,4.541,2.733c1.843,0.711,3.979,1.205,6.288,1.417
			l1.614,0.098c0.308,0.01,0.616,0.02,0.928,0.02c3.282,0,6.32-0.569,8.822-1.532c1.867-0.719,3.428-1.659,4.567-2.753v-2.398
			c-0.006-0.005-0.013-0.009-0.019-0.015l0.019-1.992V22.87v-1.642c-0.01-0.01-0.021-0.019-0.031-0.028
			C37.058,21.485,36.728,21.758,36.372,22.021z"/>
		<path class="st18" d="M24,35.636c-0.259,0-0.512-0.014-0.768-0.021l-1.558-0.088l-0.092-0.005
			c-3.149-0.276-5.982-1.07-8.196-2.228c-1.079-0.564-2.008-1.212-2.757-1.927v5.207c-0.012,0.102-0.035,0.202-0.035,0.306
			c0,3.25,5.998,5.884,13.398,5.884c0.731,0,1.444-0.033,2.143-0.083l0.003,0.001l0.021-0.003c0.025-0.002,0.052-0.003,0.077-0.005
			c-0.002-0.001-0.004-0.003-0.006-0.004l2.995-0.373c4.799-0.895,8.165-2.984,8.165-5.418v-5.528
			c-0.754,0.723-1.693,1.378-2.784,1.947C31.837,34.744,28.111,35.636,24,35.636z"/>
		<path class="st18" d="M37.391,10.985c-0.165-3.186-6.087-5.749-13.382-5.749c-7.282,0-13.193,2.553-13.38,5.731
			c-0.003,0.051-0.018,0.102-0.018,0.153c0,0.052,0.015,0.102,0.018,0.153v1.402v6.806c0.316,0.301,0.666,0.589,1.044,0.866
			c0.393,0.287,0.81,0.563,1.264,0.821c2.806,1.591,6.723,2.582,11.063,2.582s8.257-0.991,11.063-2.582
			c0.454-0.257,0.871-0.533,1.264-0.821c0.385-0.282,0.741-0.575,1.061-0.882V12.69v-1.418c0.003-0.051,0.018-0.101,0.018-0.153
			C37.407,11.074,37.393,11.03,37.391,10.985z M35.282,11.12H35.28c0.032,0.152,0.053,0.306,0.053,0.461
			c0,2.747-5.07,4.973-11.324,4.973s-11.324-2.227-11.324-4.973c0-0.156,0.021-0.309,0.053-0.461h-0.019
			c0.007-0.004,0.013-0.008,0.02-0.012c0.343-1.593,2.401-2.963,5.351-3.76c1.724-0.466,3.746-0.739,5.919-0.739
			c2.195,0,4.238,0.279,5.974,0.754c2.928,0.801,4.964,2.169,5.298,3.757L35.282,11.12h2.107H35.282z"/>
	</g>
</g>
<g id="remote_x5F_mysql">
</g>
<g id="addon_x5F_domains">
</g>
<g id="mysql_x5F_database_x5F_wizard">
</g>
<g id="multiphp_x5F_ini_x5F_editor">
</g>
</svg>
