<?xml version="1.0" encoding="utf-8"?>
<!-- Generator: Adobe Illustrator 21.1.0, SVG Export Plug-In . SVG Version: 6.00 Build 0)  -->
<svg version="1.1" xmlns="http://www.w3.org/2000/svg" xmlns:xlink="http://www.w3.org/1999/xlink" x="0px" y="0px"
	 viewBox="0 0 48 48" style="enable-background:new 0 0 48 48;" xml:space="preserve">
<style type="text/css">
	.st0{fill:#E0E0E0;}
	.st1{fill:#262626;}
	.st2{fill:#4F5B94;}
	.st3{fill:#15587C;}
	.st4{fill:none;}
	.st5{fill:#BCBCBC;}
	.st6{fill:#FFFFFF;}
	.st7{fill:#D34231;}
	.st8{fill:#666666;}
	.st9{fill:#EDA72B;}
	.st10{fill:#25323C;}
	.st11{fill:#336792;}
	.st12{fill:#32415B;}
	.st13{fill:#84B556;}
	.st14{fill:#6A9638;}
	.st15{fill:#189BD8;}
	.st16{fill:#BA342A;}
	.st17{fill:#FF6C2C;}
	.st18{fill:#8892BF;}
	.st19{fill:#FFFFFF;stroke:#FFFFFF;stroke-width:0.25;stroke-miterlimit:10;}
	.st20{fill:#FFFFFF;stroke:#FFFFFF;stroke-miterlimit:10;}
	.st21{fill:#FF6A1A;}
	.st22{fill:#00AA17;}
	.st23{fill:#FA741D;}
	.st24{fill:none;stroke:#15587C;stroke-miterlimit:10;}
	.st25{fill:none;stroke:#15587C;stroke-width:1.5;stroke-miterlimit:10;}
	.st26{fill:none;stroke:#BA342A;stroke-width:5;stroke-miterlimit:10;}
	.st27{fill:#000004;}
	.st28{fill:#000004;stroke:#FFFFFF;stroke-width:0.5;stroke-miterlimit:10;}
	.st29{fill:#017F00;}
	.st30{fill:none;stroke:#BCBCBC;stroke-miterlimit:10;}
	.st31{fill:#39FF2A;}
	.st32{fill:#FF00B3;}
	.st33{fill:#4DFF00;}
	.st34{fill:#FFFFFF;stroke:#FFFFFF;stroke-width:1.5;stroke-miterlimit:10;}
	.st35{fill:#FFFFFF;stroke:#FFFFFF;stroke-width:0.5;stroke-miterlimit:10;}
	.st36{fill:#FFFFFF;stroke:#BCBCBC;stroke-miterlimit:10;}
</style>
<g id="Layer_1">
	<g>
		<rect x="1.536" y="6.434" class="st0" width="17.592" height="4.962"/>
		<path class="st10" d="M46.643,4.874H1.357C0.611,4.874,0,5.485,0,6.231v35.205c0,0.746,0.611,1.357,1.357,1.357h45.286
			c0.746,0,1.357-0.611,1.357-1.357V6.231C48,5.485,47.389,4.874,46.643,4.874z M12.785,9.187c0-0.724,0.592-1.316,1.316-1.316
			h0.252c0.724,0,1.316,0.592,1.316,1.316v0.252c0,0.724-0.592,1.316-1.316,1.316h-0.252c-0.724,0-1.316-0.592-1.316-1.316V9.187z
			 M7.641,9.187c0-0.724,0.592-1.316,1.316-1.316h0.252c0.724,0,1.315,0.592,1.315,1.316v0.252c0,0.724-0.592,1.316-1.315,1.316
			H8.957c-0.724,0-1.316-0.592-1.316-1.316V9.187z M2.497,9.187c0-0.724,0.592-1.316,1.316-1.316h0.252
			c0.724,0,1.316,0.592,1.316,1.316v0.252c0,0.724-0.592,1.316-1.316,1.316H3.813c-0.724,0-1.316-0.592-1.316-1.316V9.187z
			 M45.318,38.867c0,0.786-0.643,1.428-1.428,1.428H3.925c-0.786,0-1.428-0.643-1.428-1.428V14.534c0-0.786,0.643-1.428,1.428-1.428
			h39.964c0.786,0,1.428,0.643,1.428,1.428V38.867z"/>
		<path class="st12" d="M43.889,13.105H3.925c-0.786,0-1.428,0.643-1.428,1.428v24.334c0,0.786,0.643,1.428,1.428,1.428h39.964
			c0.786,0,1.428-0.643,1.428-1.428V14.534C45.318,13.748,44.675,13.105,43.889,13.105z"/>
		<g>
			<polygon class="st22" points="27.467,32.079 27.473,32.085 27.473,32.079 			"/>
			<polygon class="st22" points="20.522,32.079 20.522,32.091 20.533,32.079 			"/>
			<g>
				<polygon class="st16" points="12.635,23.748 18.211,18.02 29.728,18.02 35.365,23.748 23.921,36.85 				"/>
				<polygon class="st7" points="18.181,23.718 29.637,23.718 24,18.02 				"/>
				<polygon class="st7" points="12.635,23.748 18.181,23.718 23.921,36.85 				"/>
				<polygon class="st7" points="29.637,23.718 35.365,23.748 23.921,36.85 				"/>
			</g>
			<polygon class="st6" points="17.961,17.682 19.352,17.099 18.221,18.098 18.805,19.49 17.806,18.359 16.414,18.942 
				17.545,17.943 16.962,16.551 			"/>
			<polygon class="st6" points="31.523,23.371 32.749,22.492 31.87,23.718 32.749,24.944 31.523,24.065 30.297,24.944 
				31.176,23.718 30.297,22.492 			"/>
		</g>
	</g>
</g>
<g id="remote_x5F_mysql">
</g>
<g id="addon_x5F_domains">
</g>
<g id="mysql_x5F_database_x5F_wizard">
</g>
<g id="multiphp_x5F_ini_x5F_editor">
</g>
</svg>
