<?xml version="1.0" encoding="utf-8"?>
<!-- Generator: Adobe Illustrator 21.1.0, SVG Export Plug-In . SVG Version: 6.00 Build 0)  -->
<svg version="1.1" xmlns="http://www.w3.org/2000/svg" xmlns:xlink="http://www.w3.org/1999/xlink" x="0px" y="0px"
	 viewBox="0 0 48 48" style="enable-background:new 0 0 48 48;" xml:space="preserve">
<style type="text/css">
	.st0{fill:#E0E0E0;}
	.st1{fill:#262626;}
	.st2{fill:#4F5B94;}
	.st3{fill:#15587C;}
	.st4{fill:none;}
	.st5{fill:#BCBCBC;}
	.st6{fill:#FFFFFF;}
	.st7{fill:#D34231;}
	.st8{fill:#666666;}
	.st9{fill:#EDA72B;}
	.st10{fill:#25323C;}
	.st11{fill:#336792;}
	.st12{fill:#32415B;}
	.st13{fill:#84B556;}
	.st14{fill:#6A9638;}
	.st15{fill:#189BD8;}
	.st16{fill:#BA342A;}
	.st17{fill:#FF6C2C;}
	.st18{fill:#8892BF;}
	.st19{fill:#FFFFFF;stroke:#FFFFFF;stroke-width:0.25;stroke-miterlimit:10;}
	.st20{fill:#FFFFFF;stroke:#FFFFFF;stroke-miterlimit:10;}
	.st21{fill:#FF6A1A;}
	.st22{fill:#00AA17;}
	.st23{fill:#FA741D;}
	.st24{fill:none;stroke:#15587C;stroke-miterlimit:10;}
	.st25{fill:none;stroke:#15587C;stroke-width:1.5;stroke-miterlimit:10;}
	.st26{fill:none;stroke:#BA342A;stroke-width:5;stroke-miterlimit:10;}
	.st27{fill:#000004;}
	.st28{fill:#000004;stroke:#FFFFFF;stroke-width:0.5;stroke-miterlimit:10;}
	.st29{fill:#017F00;}
	.st30{fill:none;stroke:#BCBCBC;stroke-miterlimit:10;}
	.st31{fill:#39FF2A;}
	.st32{fill:#FF00B3;}
	.st33{fill:#4DFF00;}
	.st34{fill:#FFFFFF;stroke:#FFFFFF;stroke-width:1.5;stroke-miterlimit:10;}
	.st35{fill:#FFFFFF;stroke:#FFFFFF;stroke-width:0.5;stroke-miterlimit:10;}
	.st36{fill:#FFFFFF;stroke:#BCBCBC;stroke-miterlimit:10;}
</style>
<g id="Layer_1">
	<path class="st5" d="M20.049,13.146h16.374c0.609,0,1.107-0.509,1.107-1.132v0c0-0.623-0.498-1.132-1.107-1.132H20.049
		c-0.609,0-1.107,0.509-1.107,1.132v0C18.941,12.637,19.44,13.146,20.049,13.146z"/>
	<path class="st5" d="M10.998,18.612h25.425c0.609,0,1.107-0.509,1.107-1.132c0-0.623-0.498-1.132-1.107-1.132H10.998
		c-0.609,0-1.107,0.509-1.107,1.132C9.891,18.103,10.389,18.612,10.998,18.612z"/>
	<path class="st5" d="M10.998,24.078h25.425c0.609,0,1.107-0.509,1.107-1.132c0-0.623-0.498-1.132-1.107-1.132H10.998
		c-0.609,0-1.107,0.509-1.107,1.132C9.891,23.569,10.389,24.078,10.998,24.078z"/>
	<path class="st5" d="M16.557,12.174V0.539c-0.07,0.022-0.14,0.043-0.209,0.066c-0.033,0.011-0.066,0.022-0.099,0.034
		c-0.066,0.022-0.131,0.044-0.197,0.067c0.065-0.023,0.13-0.046,0.195-0.069c0.033-0.011,0.068-0.021,0.101-0.032
		c0.069-0.023,0.14-0.043,0.209-0.066V0.028L4,12.919h11.828C16.231,12.919,16.557,12.586,16.557,12.174z"/>
	<path class="st5" d="M15.828,12.919c0.765,0,0.729-0.745,0.729-0.745C16.557,12.586,16.231,12.919,15.828,12.919z"/>
	<path class="st0" d="M24.86,45.933h0.091c-0.03-0.034-0.061-0.066-0.091-0.1V45.933z"/>
	<path class="st5" d="M24.86,27.281h-2.744H10.998c-0.305,0-0.581,0.127-0.782,0.332c-0.1,0.103-0.182,0.225-0.238,0.36
		c-0.056,0.135-0.087,0.284-0.087,0.44c0,0.623,0.498,1.132,1.107,1.132h13.763c0.032-0.038,0.067-0.072,0.099-0.109
		c0.701-0.815,1.501-1.541,2.388-2.154H24.86z"/>
	<path class="st5" d="M10.216,33.079c-0.201,0.205-0.325,0.488-0.325,0.799c0,0.311,0.125,0.594,0.325,0.799
		c-0.201-0.205-0.325-0.488-0.325-0.799S10.015,33.285,10.216,33.079z"/>
	<path class="st5" d="M22.116,32.747H10.998c-0.305,0-0.581,0.127-0.782,0.332c-0.201,0.205-0.325,0.488-0.325,0.799
		s0.125,0.594,0.325,0.799c0.201,0.205,0.478,0.332,0.782,0.332h11.091c0.151-0.71,0.366-1.395,0.63-2.055
		c0.028-0.069,0.048-0.141,0.076-0.209H22.116z"/>
	<path class="st5" d="M21.84,38.213H10.998c-0.609,0-1.107,0.509-1.107,1.132c0,0.623,0.498,1.132,1.107,1.132h11.118
		c0.01,0,0.018-0.005,0.027-0.006C21.975,39.741,21.875,38.986,21.84,38.213z"/>
	<path class="st5" d="M9.891,39.345c0-0.623,0.498-1.132,1.107-1.132h-0.017c-0.609,0-1.107,0.509-1.107,1.132
		c0,0.623,0.498,1.132,1.107,1.132h0.017C10.389,40.477,9.891,39.968,9.891,39.345z"/>
	<path class="st5" d="M22.116,40.477h0.029l-0.001-0.004C22.134,40.471,22.126,40.477,22.116,40.477z"/>
	<path class="st0" d="M41.38,0.028H29.225h-8.36h-2.472h-1.835v0.511v2.139v9.496c0,0,0.036,0.745-0.729,0.745H4V45.92
		c0,0.983,0.787,1.788,1.749,1.788h21.124c-0.701-0.525-1.346-1.118-1.923-1.775H24.86v-0.1c-1.304-1.515-2.249-3.342-2.715-5.357
		h-0.029H10.998h-0.017c-0.609,0-1.107-0.509-1.107-1.132s0.498-1.132,1.107-1.132h0.017H21.84
		c-0.009-0.193-0.029-0.383-0.029-0.579c0-0.9,0.098-1.777,0.278-2.624H10.998c-0.305,0-0.581-0.127-0.782-0.332
		c-0.201-0.205-0.325-0.488-0.325-0.799c0-0.311,0.125-0.594,0.325-0.799c0.201-0.205,0.478-0.332,0.782-0.332h11.118h0.679
		c0.493-1.169,1.161-2.245,1.965-3.202H10.998c-0.609,0-1.107-0.509-1.107-1.132c0-0.311,0.125-0.594,0.325-0.799
		c0.201-0.205,0.478-0.332,0.782-0.332h11.118h2.744h2.388c0.27-0.187,0.551-0.358,0.835-0.523c1.858-1.081,4.011-1.711,6.315-1.711
		c2.304,0,4.457,0.63,6.315,1.711c0.294,0.171,0.582,0.349,0.86,0.542c0.652,0.454,1.26,0.966,1.814,1.532V2.081
		C43.388,0.952,42.484,0.028,41.38,0.028z M36.423,24.078H10.998c-0.609,0-1.107-0.509-1.107-1.132c0-0.623,0.498-1.132,1.107-1.132
		h25.425c0.609,0,1.107,0.509,1.107,1.132C37.53,23.569,37.032,24.078,36.423,24.078z M36.423,18.612H10.998
		c-0.609,0-1.107-0.509-1.107-1.132c0-0.623,0.498-1.132,1.107-1.132h25.425c0.609,0,1.107,0.509,1.107,1.132
		C37.53,18.103,37.032,18.612,36.423,18.612z M37.53,12.014c0,0.622-0.498,1.132-1.107,1.132H20.049
		c-0.609,0-1.107-0.509-1.107-1.132v0c0-0.622,0.498-1.132,1.107-1.132h16.374C37.032,10.882,37.53,11.392,37.53,12.014
		L37.53,12.014z"/>
	<path class="st13" d="M31.938,38.503c0.061,0.005,0.12,0.019,0.182,0.019h0.019c-0.073-0.027-0.135-0.066-0.201-0.105V38.503z"/>
	<circle class="st8" cx="34.332" cy="37.379" r="10.621"/>
	<polygon class="st14" points="34.303,34.252 34.288,34.237 34.288,37.861 34.303,37.857 	"/>
	<path class="st13" d="M27.365,32.446l1.161,5.742l1.077-0.003l0-0.001h0.456h2.265l-0.006-0.006l0.728-0.002l-0.033,0.008h1.276
		v-0.323v-3.623v-1.375c0.005,0,0.01,0,0.015,0v-1.444v-1.09C29.815,32.835,27.365,32.446,27.365,32.446z"/>
	<polygon class="st13" points="29.602,38.183 29.603,38.185 30.058,38.183 	"/>
	<polygon class="st13" points="33.012,38.183 33.045,38.175 32.317,38.177 32.323,38.183 	"/>
	<path class="st14" d="M34.288,41.256v1.508l0.015,0.007v-1.514C34.298,41.256,34.293,41.256,34.288,41.256z"/>
	<path class="st14" d="M34.288,42.764v-1.508v-3.072h-1.276h-0.688h-2.265l-0.456,0.001l-1.077,0.003
		c0.954,5.937,5.777,7.803,5.777,7.803v-3.22L34.288,42.764z"/>
	<path class="st14" d="M34.303,30.329v1.09v1.444c-0.005,0-0.01,0-0.015,0v1.375l0.015,0.014v3.605l-0.015,0.004v0.323h3.918
		l-0.013-0.013c0,0,0.002-0.006,0.003-0.009l1.585-0.004l0.427-0.001c0.62-2.687,1.004-5.708,1.004-5.708
		C37.816,32.467,34.303,30.329,34.303,30.329z"/>
	<path class="st5" d="M34.319,29.77c-4.815,2.69-7.444,2.271-7.444,2.271l1.245,6.161c1.024,6.37,6.198,8.372,6.198,8.372
		c0.643-0.298,1.219-0.641,1.74-1.014c1.003-0.717,1.789-1.547,2.409-2.386c0.804-1.087,1.325-2.185,1.654-3.078
		c0.17-0.46,0.291-0.867,0.373-1.185c0.119-0.464,0.158-0.744,0.158-0.744c0.665-2.882,1.077-6.124,1.077-6.124
		C38.088,32.064,34.319,29.77,34.319,29.77z M40.207,38.155c0,0-0.03,0.208-0.114,0.557c-0.047,0.196-0.114,0.44-0.202,0.716
		c-0.033,0.105-0.069,0.214-0.109,0.328c-0.35,1.003-0.969,2.336-2.029,3.594c-0.113,0.134-0.235,0.267-0.358,0.398
		c-0.487,0.522-1.052,1.023-1.718,1.47c-0.419,0.281-0.876,0.542-1.374,0.772c0,0-4.823-1.865-5.777-7.803l-1.161-5.742
		c0,0,2.45,0.39,6.938-2.117c0,0,3.513,2.139,6.908,2.119C41.211,32.447,40.827,35.468,40.207,38.155z"/>
	<path class="st13" d="M39.78,38.156l-1.585,0.004c0,0.001-0.001,0.002-0.001,0.004l-3.906,0.019v3.072
		c0.005,0,0.01,0.001,0.015,0.001v1.514v3.22c0.498-0.231,0.955-0.491,1.374-0.772c0.666-0.446,1.231-0.948,1.718-1.47
		c0.123-0.132,0.245-0.264,0.358-0.398c1.06-1.258,1.68-2.591,2.029-3.594c0.04-0.114,0.076-0.223,0.109-0.328
		c0.088-0.276,0.155-0.52,0.202-0.716c0.084-0.349,0.114-0.557,0.114-0.557L39.78,38.156z"/>
	<path class="st6" d="M29.962,38.923l2.602,1.485c0,0,3.573-5.048,7.437-7.198l0.254,0.383c0,0-4.023,3.329-6.955,9.565h-0.343
		c0,0-2.647-3.13-3.354-3.828L29.962,38.923z"/>
</g>
<g id="remote_x5F_mysql">
</g>
<g id="addon_x5F_domains">
</g>
<g id="mysql_x5F_database_x5F_wizard">
</g>
<g id="multiphp_x5F_ini_x5F_editor">
</g>
</svg>
