<svg id="Layer_1" data-name="Layer 1" xmlns="http://www.w3.org/2000/svg" viewBox="0 0 47.9 46.9"><defs><style>.cls-1{fill:#bbb;}.cls-2{fill:#fff;}.cls-3{fill:#e0e0e0;}.cls-4{fill:#dfdfdf;}.cls-5{fill:#666;}.cls-6{fill:#ff6c2c;}</style></defs><title>dovecot_search_index</title><path class="cls-1" d="M47.93,17.09,28.42,1.93a7.79,7.79,0,0,0-9.3.5C14.45,6.23.06,17.07.06,17.07V43.91s-.44,3.43,4.11,3.43l41.36.06s2.12-.19,2.31-2.93S47.93,17.09,47.93,17.09ZM42.41,36.68a3,3,0,0,1-1.12,2l-2.1,1.7a3.06,3.06,0,0,1-1.92.68A3,3,0,0,1,34.88,40l-6.25-7.75a3,3,0,0,1-.68-2,10.4,10.4,0,0,1-3.32.54A10.55,10.55,0,1,1,33.7,25.6a3,3,0,0,1,1.8,1.08l6.25,7.75A3,3,0,0,1,42.41,36.68Z" transform="translate(-0.05 -0.6)"/><path class="cls-2" d="M26.9,6.75C23.47,3.83,21,6.64,21,6.64L4.7,19.84l19.36,15-.85,5.75,12.22-.07a3.45,3.45,0,0,1-.55-.53l-6.25-7.75a3,3,0,0,1-.68-2,10.4,10.4,0,0,1-3.32.54A10.55,10.55,0,1,1,33.7,25.6a3,3,0,0,1,1.8,1.08l6.25,7.75a3,3,0,0,1,.66,2.25,3,3,0,0,1-1.12,2l-2.1,1.7-.06,0,4.94,0V20.26S30.32,9.68,26.9,6.75Z" transform="translate(-0.05 -0.6)"/><circle class="cls-3" cx="24.57" cy="19.61" r="6.84"/><path class="cls-4" d="M47.92,44.85V17.1l-12.7,9.29a2.57,2.57,0,0,1,.28.29l6.25,7.75a3,3,0,0,1,.66,2.25,3,3,0,0,1-1.12,2l-2.1,1.7a3.06,3.06,0,0,1-1.92.68A3,3,0,0,1,34.88,40l-6.25-7.75a2.77,2.77,0,0,1-.42-.7L6.6,47.34s35.69.25,38.62.12S47.92,44.85,47.92,44.85Z" transform="translate(-0.05 -0.6)"/><path class="cls-5" d="M30.88,26.05A8.58,8.58,0,1,0,29,27.59h0l1.45,1.82,2-1.58-1.49-1.78Zm-7,1a6.84,6.84,0,1,1,7.53-6.07A6.84,6.84,0,0,1,23.89,27Z" transform="translate(-0.05 -0.6)"/><path class="cls-6" d="M40.2,35.68l-6.26-7.75a1.08,1.08,0,0,0-1.5-.16l-.07.06-2,1.58-.07.06a1.07,1.07,0,0,0-.16,1.5l6.26,7.75a1.07,1.07,0,0,0,1.49.16L40,37.18A1.08,1.08,0,0,0,40.2,35.68Z" transform="translate(-0.05 -0.6)"/></svg>