<?xml version="1.0" encoding="utf-8"?>
<!-- Generator: Adobe Illustrator 21.1.0, SVG Export Plug-In . SVG Version: 6.00 Build 0)  -->
<svg version="1.1" xmlns="http://www.w3.org/2000/svg" xmlns:xlink="http://www.w3.org/1999/xlink" x="0px" y="0px"
	 viewBox="0 0 48 48" style="enable-background:new 0 0 48 48;" xml:space="preserve">
<style type="text/css">
	.st0{fill:#E0E0E0;}
	.st1{fill:#262626;}
	.st2{fill:#4F5B94;}
	.st3{fill:#15587C;}
	.st4{fill:none;}
	.st5{fill:#BCBCBC;}
	.st6{fill:#FFFFFF;}
	.st7{fill:#D34231;}
	.st8{fill:#666666;}
	.st9{fill:#EDA72B;}
	.st10{fill:#25323C;}
	.st11{fill:#336792;}
	.st12{fill:#32415B;}
	.st13{fill:#84B556;}
	.st14{fill:#6A9638;}
	.st15{fill:#189BD8;}
	.st16{fill:#BA342A;}
	.st17{fill:#FF6C2C;}
	.st18{fill:#8892BF;}
	.st19{fill:#FFFFFF;stroke:#FFFFFF;stroke-width:0.25;stroke-miterlimit:10;}
	.st20{fill:#FFFFFF;stroke:#FFFFFF;stroke-miterlimit:10;}
	.st21{fill:#FF6A1A;}
	.st22{fill:#00AA17;}
	.st23{fill:#FA741D;}
	.st24{fill:none;stroke:#15587C;stroke-miterlimit:10;}
	.st25{fill:none;stroke:#15587C;stroke-width:1.5;stroke-miterlimit:10;}
	.st26{fill:none;stroke:#BA342A;stroke-width:5;stroke-miterlimit:10;}
	.st27{fill:#000004;}
	.st28{fill:#000004;stroke:#FFFFFF;stroke-width:0.5;stroke-miterlimit:10;}
	.st29{fill:#017F00;}
	.st30{fill:none;stroke:#BCBCBC;stroke-miterlimit:10;}
	.st31{fill:#39FF2A;}
	.st32{fill:#FF00B3;}
	.st33{fill:#4DFF00;}
	.st34{fill:#FFFFFF;stroke:#FFFFFF;stroke-width:1.5;stroke-miterlimit:10;}
	.st35{fill:#FFFFFF;stroke:#FFFFFF;stroke-width:0.5;stroke-miterlimit:10;}
	.st36{fill:#FFFFFF;stroke:#BCBCBC;stroke-miterlimit:10;}
</style>
<g id="Layer_1">
	<circle class="st10" cx="24" cy="24" r="24"/>
	<g>
		<path class="st12" d="M39.392,32.021H8.696c-2.103,0-3.808-1.705-3.808-3.808V19.57c0-2.103,1.705-3.808,3.808-3.808h30.696
			c2.103,0,3.808,1.705,3.808,3.808v8.643C43.2,30.316,41.495,32.021,39.392,32.021z"/>
		<g>
			<path class="st5" d="M14.632,28.146v-1.442c0.284,0.177,0.567,0.308,0.849,0.395c0.282,0.086,0.549,0.13,0.8,0.13
				c0.306,0,0.547-0.044,0.723-0.13c0.176-0.087,0.265-0.218,0.265-0.395c0-0.112-0.04-0.207-0.12-0.282
				c-0.08-0.074-0.183-0.141-0.308-0.196c-0.125-0.057-0.263-0.107-0.412-0.152c-0.149-0.045-0.293-0.096-0.431-0.152
				c-0.222-0.087-0.418-0.18-0.587-0.279c-0.169-0.1-0.311-0.215-0.426-0.347c-0.115-0.131-0.202-0.283-0.262-0.456
				s-0.09-0.378-0.09-0.614c0-0.323,0.068-0.601,0.205-0.834c0.136-0.232,0.318-0.424,0.546-0.572s0.488-0.257,0.781-0.326
				c0.292-0.069,0.598-0.104,0.914-0.104c0.248,0,0.499,0.02,0.753,0.06c0.254,0.039,0.506,0.097,0.753,0.172v1.375
				c-0.218-0.132-0.452-0.23-0.701-0.296c-0.25-0.066-0.494-0.099-0.734-0.099c-0.113,0-0.219,0.01-0.319,0.03
				c-0.1,0.021-0.188,0.051-0.265,0.091c-0.076,0.039-0.136,0.09-0.18,0.151c-0.043,0.062-0.065,0.133-0.065,0.212
				c0,0.105,0.033,0.195,0.098,0.271s0.151,0.14,0.257,0.194s0.223,0.104,0.352,0.146c0.129,0.043,0.257,0.087,0.385,0.133
				c0.229,0.082,0.437,0.172,0.622,0.27c0.186,0.099,0.345,0.213,0.478,0.344c0.133,0.132,0.235,0.286,0.306,0.463
				c0.071,0.176,0.106,0.387,0.106,0.631c0,0.342-0.072,0.634-0.215,0.876c-0.144,0.242-0.335,0.439-0.573,0.592
				s-0.513,0.263-0.824,0.333c-0.311,0.069-0.634,0.104-0.969,0.104C15.726,28.439,15.156,28.342,14.632,28.146z"/>
			<path class="st5" d="M25.227,28.299h-1.719V27.42H23.48c-0.426,0.68-0.996,1.02-1.708,1.02c-1.296,0-1.943-0.81-1.943-2.429
				v-3.482h1.719v3.325c0,0.814,0.313,1.223,0.939,1.223c0.309,0,0.557-0.112,0.742-0.335c0.186-0.224,0.279-0.527,0.279-0.91
				v-3.303h1.719V28.299z"/>
			<path class="st5" d="M28.426,27.628h-0.022v0.671h-1.725v-8.543h1.725v3.641h0.022c0.426-0.673,1.032-1.009,1.818-1.009
				c0.72,0,1.275,0.256,1.665,0.767c0.39,0.511,0.584,1.209,0.584,2.096c0,0.962-0.227,1.734-0.682,2.316s-1.062,0.873-1.823,0.873
				C29.299,28.439,28.779,28.169,28.426,27.628z M28.376,25.194v0.591c0,0.372,0.104,0.681,0.312,0.925
				c0.207,0.244,0.473,0.366,0.797,0.366c0.393,0,0.698-0.157,0.914-0.471c0.217-0.313,0.325-0.758,0.325-1.333
				c0-0.477-0.099-0.85-0.297-1.118s-0.481-0.403-0.849-0.403c-0.346,0-0.632,0.134-0.86,0.4S28.376,24.766,28.376,25.194z"/>
			<path class="st5" d="M34.381,28.439c-0.284,0-0.521-0.09-0.709-0.271c-0.189-0.18-0.284-0.401-0.284-0.665
				c0-0.271,0.098-0.492,0.292-0.665c0.194-0.172,0.438-0.259,0.729-0.259c0.295,0,0.536,0.088,0.723,0.262
				c0.188,0.175,0.281,0.396,0.281,0.662c0,0.274-0.096,0.499-0.287,0.674S34.687,28.439,34.381,28.439z"/>
		</g>
	</g>
	<path class="st11" d="M39.375,14.807H8.713c-2.711,0-4.909,2.198-4.909,4.909v8.568c0,2.711,2.198,4.909,4.909,4.909h30.661
		c2.711,0,4.909-2.198,4.909-4.909v-8.568C44.284,17.005,42.086,14.807,39.375,14.807z M42.098,27.915
		c0,1.642-1.331,2.973-2.973,2.973H8.963c-1.642,0-2.973-1.331-2.973-2.973v-7.83c0-1.642,1.331-2.973,2.973-2.973h30.163
		c1.642,0,2.973,1.331,2.973,2.973V27.915z"/>
</g>
<g id="remote_x5F_mysql">
</g>
<g id="addon_x5F_domains">
</g>
<g id="mysql_x5F_database_x5F_wizard">
</g>
<g id="multiphp_x5F_ini_x5F_editor">
</g>
</svg>
