<?xml version="1.0" encoding="utf-8"?>
<!-- Generator: Adobe Illustrator 21.1.0, SVG Export Plug-In . SVG Version: 6.00 Build 0)  -->
<svg version="1.1" xmlns="http://www.w3.org/2000/svg" xmlns:xlink="http://www.w3.org/1999/xlink" x="0px" y="0px"
	 viewBox="0 0 48 48" style="enable-background:new 0 0 48 48;" xml:space="preserve">
<style type="text/css">
	.st0{fill:#E0E0E0;}
	.st1{fill:#262626;}
	.st2{fill:#4F5B94;}
	.st3{fill:#15587C;}
	.st4{fill:none;}
	.st5{fill:#BCBCBC;}
	.st6{fill:#FFFFFF;}
	.st7{fill:#D34231;}
	.st8{fill:#666666;}
	.st9{fill:#EDA72B;}
	.st10{fill:#25323C;}
	.st11{fill:#336792;}
	.st12{fill:#32415B;}
	.st13{fill:#84B556;}
	.st14{fill:#6A9638;}
	.st15{fill:#189BD8;}
	.st16{fill:#BA342A;}
	.st17{fill:#FF6C2C;}
	.st18{fill:#8892BF;}
	.st19{fill:#FFFFFF;stroke:#FFFFFF;stroke-width:0.25;stroke-miterlimit:10;}
	.st20{fill:#FFFFFF;stroke:#FFFFFF;stroke-miterlimit:10;}
	.st21{fill:#FF6A1A;}
	.st22{fill:#00AA17;}
	.st23{fill:#FA741D;}
	.st24{fill:none;stroke:#15587C;stroke-miterlimit:10;}
	.st25{fill:none;stroke:#15587C;stroke-width:1.5;stroke-miterlimit:10;}
	.st26{fill:none;stroke:#BA342A;stroke-width:5;stroke-miterlimit:10;}
	.st27{fill:#000004;}
	.st28{fill:#000004;stroke:#FFFFFF;stroke-width:0.5;stroke-miterlimit:10;}
	.st29{fill:#017F00;}
	.st30{fill:none;stroke:#BCBCBC;stroke-miterlimit:10;}
	.st31{fill:#39FF2A;}
	.st32{fill:#FF00B3;}
	.st33{fill:#4DFF00;}
	.st34{fill:#FFFFFF;stroke:#FFFFFF;stroke-width:1.5;stroke-miterlimit:10;}
	.st35{fill:#FFFFFF;stroke:#FFFFFF;stroke-width:0.5;stroke-miterlimit:10;}
	.st36{fill:#FFFFFF;stroke:#BCBCBC;stroke-miterlimit:10;}
</style>
<g id="Layer_1">
	<circle class="st7" cx="35.589" cy="37.553" r="9.639"/>
	<g>
		<g>
			<path class="st6" d="M34.126,40.667c-0.062-0.166-0.111-0.354-0.145-0.562c-0.035-0.208-0.051-0.406-0.051-0.591
				c0-0.296,0.028-0.565,0.084-0.808c0.056-0.244,0.14-0.473,0.252-0.688c0.112-0.215,0.252-0.42,0.419-0.615
				c0.168-0.196,0.364-0.389,0.587-0.582c0.236-0.205,0.443-0.395,0.62-0.573c0.177-0.176,0.328-0.353,0.452-0.529
				c0.124-0.176,0.217-0.359,0.279-0.548c0.062-0.189,0.093-0.398,0.093-0.63c0-0.199-0.034-0.383-0.102-0.553
				c-0.068-0.169-0.166-0.315-0.293-0.437s-0.283-0.218-0.466-0.288c-0.183-0.07-0.387-0.106-0.61-0.106
				c-0.485,0-0.987,0.104-1.509,0.313c-0.522,0.208-1.016,0.524-1.482,0.947v-2.895c0.478-0.294,1-0.516,1.565-0.663
				c0.566-0.148,1.149-0.221,1.752-0.221c0.578,0,1.115,0.066,1.612,0.198c0.496,0.131,0.929,0.338,1.299,0.62
				c0.37,0.282,0.658,0.643,0.866,1.082c0.208,0.439,0.313,0.967,0.313,1.583c0,0.391-0.044,0.745-0.13,1.063
				c-0.088,0.317-0.215,0.617-0.382,0.899c-0.168,0.282-0.376,0.553-0.625,0.813s-0.534,0.527-0.857,0.803
				c-0.217,0.185-0.409,0.359-0.573,0.52c-0.165,0.16-0.302,0.319-0.411,0.476c-0.108,0.157-0.191,0.324-0.247,0.5
				s-0.084,0.376-0.084,0.6c0,0.154,0.02,0.312,0.06,0.472c0.041,0.16,0.095,0.294,0.163,0.404H34.126z M35.486,44.88
				c-0.497,0-0.91-0.154-1.239-0.462c-0.33-0.32-0.494-0.698-0.494-1.134c0-0.449,0.164-0.824,0.494-1.126
				c0.329-0.301,0.742-0.451,1.239-0.451c0.49,0,0.897,0.151,1.22,0.451c0.323,0.296,0.485,0.671,0.485,1.126
				c0,0.462-0.159,0.843-0.476,1.144C36.392,44.729,35.982,44.88,35.486,44.88z"/>
		</g>
	</g>
	<polygon class="st4" points="16.063,27.165 13.881,25.094 12.812,26.109 13.879,25.1 	"/>
	<path class="st4" d="M9.655,40.318c0.085,0.069,0.179,0.125,0.281,0.167c0.08,0.045,0.163,0.084,0.25,0.112
		c-0.088-0.028-0.171-0.067-0.25-0.112C9.834,40.443,9.74,40.387,9.655,40.318z"/>
	<path class="st4" d="M35.943,24.217c0.61,0,1.109-0.51,1.109-1.134v0C37.052,23.707,36.553,24.217,35.943,24.217z"/>
	<polygon class="st4" points="7.139,16.634 7.139,31.473 7.142,31.471 7.142,16.636 	"/>
	<path class="st4" d="M37.052,17.609L37.052,17.609c0-0.624-0.499-1.134-1.109-1.134C36.553,16.476,37.052,16.986,37.052,17.609z"/>
	<path class="st4" d="M24.368,35.108h-0.003c-0.003,0.019-0.004,0.039-0.006,0.058h0.003C24.364,35.147,24.365,35.127,24.368,35.108
		z"/>
	<path class="st4" d="M9.237,39.439c0,0.119,0.018,0.233,0.052,0.34C9.255,39.671,9.237,39.557,9.237,39.439L9.237,39.439z"/>
	<path class="st4" d="M9.256,28.523c0,0.136,0.027,0.265,0.073,0.384C9.283,28.788,9.256,28.659,9.256,28.523L9.256,28.523z"/>
	<path class="st4" d="M9.256,28.523c0,0.136,0.027,0.265,0.073,0.384C9.283,28.788,9.256,28.659,9.256,28.523L9.256,28.523z"/>
	<path class="st0" d="M24.352,35.254c0.006-0.029,0.01-0.059,0.016-0.088h-0.006C24.357,35.195,24.355,35.225,24.352,35.254z"/>
	<polygon class="st0" points="16.093,27.194 16.063,27.165 13.879,25.1 12.812,26.109 12.811,26.11 13.879,25.1 	"/>
	<path class="st5" d="M22.407,13.268h13.536c0.61,0,1.109-0.51,1.109-1.133v0c0-0.468-0.281-0.871-0.678-1.044
		c-0.133-0.058-0.278-0.089-0.431-0.089H22.735c-0.01,0.782-0.125,1.538-0.325,2.259C22.409,13.263,22.408,13.266,22.407,13.268z"/>
	<path class="st5" d="M20.621,18.69v0.021v0.033h15.322c0.61,0,1.109-0.51,1.109-1.134c0-0.624-0.499-1.134-1.109-1.134h-15.19
		c-0.043,0.053-0.088,0.104-0.132,0.155V18.69z"/>
	<path class="st5" d="M20.621,24.207v0.01h15.322c0.61,0,1.109-0.51,1.109-1.134c0-0.468-0.281-0.872-0.678-1.044
		c-0.133-0.058-0.278-0.089-0.431-0.089H20.621v2.224V24.207z"/>
	<path class="st5" d="M18.688,29.658l-0.013-0.012H10.36c-0.124,0-0.239-0.029-0.348-0.069c0.072,0.035,0.146,0.064,0.224,0.084
		s0.159,0.031,0.243,0.031h8.248l-0.038-0.034H18.688z"/>
	<path class="st5" d="M24.361,35.166h0.006c0.004-0.02,0.011-0.039,0.016-0.058h-0.015C24.365,35.127,24.364,35.147,24.361,35.166z"
		/>
	<polygon class="st0" points="16.093,27.194 13.879,25.1 12.811,26.11 11.469,27.384 16.293,27.384 	"/>
	<polygon class="st5" points="16.296,27.387 16.293,27.384 11.469,27.384 11.466,27.387 11.427,27.424 16.336,27.424 	"/>
	<path class="st5" d="M9.578,29.179l-0.004,0.003l-0.049,0.047c0.101,0.123,0.222,0.227,0.361,0.3
		c0.039,0.02,0.083,0.032,0.124,0.047C9.831,29.489,9.689,29.347,9.578,29.179z"/>
	<path class="st5" d="M10.011,29.576c0.11,0.041,0.224,0.069,0.348,0.069h8.315l-0.009-0.008l-0.006-0.005l0,0l-2.322-2.204
		l-0.003-0.003h-4.909l-0.003,0.003l-1.845,1.752C9.689,29.347,9.831,29.489,10.011,29.576z"/>
	<path class="st5" d="M9.887,29.529c0.039,0.02,0.083,0.032,0.124,0.048l0,0C9.97,29.561,9.926,29.549,9.887,29.529z"/>
	<path class="st5" d="M18.675,29.646L18.675,29.646l-8.315,0c-0.124,0-0.239-0.029-0.348-0.069l0,0
		c0.109,0.041,0.224,0.069,0.348,0.069H18.675z"/>
	<path class="st5" d="M21.665,27.424h-1.044v0.003v2.23H20.62v0.034h6.604c0.847-0.904,1.832-1.676,2.932-2.267h-5.945H21.665z"/>
	<path class="st5" d="M24.568,40.602c-0.057-0.209-0.11-0.42-0.155-0.634c-0.085-0.379-0.157-0.762-0.203-1.154
		c-0.017-0.146-0.026-0.293-0.038-0.44c-0.002-0.022-0.002-0.044-0.003-0.066h-2.701h0H10.36h0h-0.017
		c-0.152,0-0.297,0.032-0.43,0.089c-0.397,0.172-0.677,0.575-0.677,1.042c0,0.119,0.018,0.233,0.052,0.34
		c0.067,0.215,0.197,0.401,0.366,0.539c0.085,0.069,0.179,0.125,0.281,0.167c0.08,0.045,0.163,0.084,0.25,0.112
		c0.087,0.028,0.179,0.044,0.276,0.044h14.115C24.574,40.628,24.572,40.615,24.568,40.602z"/>
	<path class="st9" d="M7.142,16.593c1.625,1.913,4.039,3.129,6.74,3.129c1.478,0,2.867-0.369,4.092-1.011
		c0.015-0.008,0.031-0.013,0.045-0.021c0.996-0.529,1.877-1.244,2.602-2.097v0.039c0.044-0.052,0.089-0.103,0.132-0.155
		c0.004-0.005,0.009-0.01,0.013-0.015c0.751-0.927,1.313-2.011,1.642-3.192c0.001-0.003,0.002-0.005,0.003-0.008
		c0.2-0.721,0.315-1.477,0.325-2.259c0-0.001,0-0.002,0-0.003c0-0.037,0.006-0.073,0.006-0.11c0-3.046-1.538-5.732-3.879-7.328
		c-0.576-0.392-1.204-0.711-1.866-0.96c-0.351-0.132-0.71-0.243-1.08-0.33c-0.655-0.154-1.334-0.244-2.036-0.244
		c-4.894,0-8.862,3.968-8.862,8.862c0,0.741,0.101,1.457,0.272,2.145c0.177,0.712,0.433,1.393,0.771,2.025l-0.263,0.011h0.268
		c0.301,0.561,0.663,1.084,1.074,1.565c0.001,0.001,0.002,0.002,0.002,0.002V16.593z M11.796,8.437l0.512-1.038l1.57-3.182
		l1.57,3.182l0.465,0.943l0.047,0.095l1.246,0.181l1.654,0.24l1.757,0.255l-1.757,1.713l-0.177,0.172l-1.436,1.4l0.148,0.862
		l0.097,0.567l0.023,0.132l0.147,0.857l0.035,0.206l0.247,1.439l0.003,0.015l0.096,0.56l-1.066-0.56l-0.029-0.015l-2.646-1.391
		l-0.424-0.223l-0.424,0.223l-2.646,1.391l-0.029,0.015l-1.066,0.56l0.047-0.272l0.019-0.11l0.272-1.585l0.03-0.176l0.28-1.633
		l0.039-0.227l0.109-0.635l-0.995-0.97L7.139,9.113L11.796,8.437z"/>
	<polygon class="st17" points="10.509,12.398 10.4,13.033 10.361,13.26 10.081,14.893 10.051,15.069 9.779,16.654 9.76,16.764 
		9.714,17.036 10.78,16.476 10.809,16.46 13.455,15.069 13.879,14.846 14.303,15.069 16.949,16.46 16.978,16.476 18.044,17.036 
		17.948,16.476 17.945,16.46 17.699,15.021 17.663,14.816 17.516,13.959 17.494,13.827 17.396,13.26 17.249,12.398 18.684,10.998 
		18.861,10.826 20.618,9.113 18.861,8.858 17.207,8.618 15.961,8.437 15.915,8.342 15.449,7.399 13.879,4.217 12.308,7.399 
		11.796,8.437 7.139,9.113 9.514,11.428 	"/>
	<path class="st7" d="M20.621,29.658v-2.23v-0.003h-0.002v-0.041v0v-3.167h0.002v-0.01v-0.033V21.95h-0.002v-0.028v-3.179h0.002
		V18.71V18.69v-2.059v-0.039c-0.725,0.853-1.606,1.568-2.602,2.097c-0.015,0.008-0.031,0.013-0.045,0.021
		c-1.225,0.642-2.615,1.011-4.092,1.011c-2.7,0-5.114-1.217-6.74-3.129v0.044v14.835l2.377-2.248
		c0.002,0.002,0.005,0.004,0.007,0.006l0.049-0.047l0.004-0.003l1.845-1.752l0.003-0.003l0.04-0.038l0.003-0.003l1.342-1.274
		l0.001-0.001l1.069-1.015l2.182,2.072l0.03,0.029l0.2,0.19l0.003,0.003l0.04,0.038l0.003,0.003l2.322,2.204l0,0l0.006,0.005
		l0.009,0.008l0,0l0.013,0.012h0.002l0.038,0.034h0.007l1.884,1.782v-1.782h0.001v-0.034H20.621z M9.256,28.523L9.256,28.523
		c0,0.136,0.027,0.265,0.073,0.384C9.283,28.788,9.256,28.659,9.256,28.523z M9.256,28.523L9.256,28.523
		c0,0.136,0.027,0.265,0.073,0.384C9.283,28.788,9.256,28.659,9.256,28.523z"/>
	<path class="st0" d="M41.019,0.13H5.37c-1.049,0-1.9,0.85-1.9,1.9v43.953c0,1.049,0.851,1.9,1.9,1.9h25.145
		c-2.877-1.454-5.062-4.068-5.934-7.233c-0.001-0.003-0.002-0.006-0.003-0.009h0H10.463c-0.097,0-0.189-0.016-0.276-0.044
		c-0.088-0.028-0.171-0.066-0.25-0.112c-0.102-0.042-0.197-0.098-0.281-0.167c-0.169-0.138-0.299-0.324-0.366-0.539
		c-0.034-0.107-0.052-0.222-0.052-0.34c0-0.467,0.28-0.87,0.677-1.042c0.132-0.057,0.277-0.089,0.43-0.089h0.017h0h11.11h0h2.701
		c-0.019-0.27-0.041-0.539-0.041-0.813c0-0.447,0.032-0.885,0.082-1.319c0.036-0.311,0.08-0.619,0.141-0.922
		c0.004-0.029,0.006-0.059,0.01-0.088h-0.003c0.003-0.019,0.004-0.039,0.006-0.058h-0.121h-0.033h-1.643H10.411
		c-0.148,0-0.286-0.034-0.417-0.079c-0.39-0.189-0.666-0.559-0.666-0.996c0-0.624,0.546-1.134,1.214-1.134h12.307h1.363h0.033h0.854
		c0.524-1.191,1.248-2.271,2.126-3.207H20.62h-0.001v1.782l-1.884-1.782h-0.007h-8.248c-0.084,0-0.165-0.011-0.243-0.031
		s-0.153-0.049-0.224-0.084c-0.042-0.015-0.085-0.027-0.124-0.048c-0.139-0.073-0.261-0.177-0.361-0.3
		c-0.002-0.002-0.005-0.004-0.007-0.006l-2.377,2.248l-0.002,0.002V16.634c-0.41-0.481-0.773-1.003-1.074-1.565H5.798l0.263-0.011
		c-0.338-0.632-0.594-1.313-0.771-2.025c-0.171-0.688-0.272-1.404-0.272-2.145c0-4.894,3.968-8.862,8.862-8.862
		c0.702,0,1.381,0.09,2.036,0.244c0.37,0.087,0.73,0.198,1.08,0.33c0.662,0.249,1.29,0.568,1.866,0.96
		c2.341,1.595,3.879,4.281,3.879,7.328c0,0.037-0.005,0.073-0.006,0.11c0,0.001,0,0.002,0,0.003h13.208
		c0.152,0,0.298,0.032,0.431,0.089c0.398,0.173,0.678,0.577,0.678,1.044v0c0,0.623-0.499,1.133-1.109,1.133H22.407
		c-0.329,1.181-0.89,2.265-1.642,3.192c-0.004,0.005-0.009,0.01-0.013,0.015h15.19c0.61,0,1.109,0.51,1.109,1.134
		c0,0.623-0.499,1.134-1.109,1.134H20.621h-0.002v3.179v0.028h0.002h15.322c0.152,0,0.298,0.032,0.431,0.089
		c0.398,0.173,0.678,0.576,0.678,1.044v0c0,0.623-0.499,1.134-1.109,1.134H20.621h-0.002v3.167v0v0.041h0.002h1.044h2.546h5.945
		c0.601-0.323,1.242-0.574,1.901-0.787c0.123-0.041,0.245-0.082,0.37-0.119c0.195-0.056,0.391-0.106,0.59-0.152
		c0.336-0.08,0.677-0.144,1.023-0.195c0.035-0.005,0.07-0.012,0.105-0.016c0.513-0.07,1.033-0.118,1.566-0.118
		c2.729,0,5.232,0.952,7.208,2.534V2.03C42.918,0.981,42.068,0.13,41.019,0.13z"/>
	<path class="st5" d="M24.211,32.899h-1.363H10.542c-0.667,0-1.214,0.51-1.214,1.134c0,0.437,0.276,0.807,0.666,0.996
		c0.131,0.046,0.269,0.079,0.417,0.079h12.157h1.643h0.033h0.121h0.003h0.015h0.052c0.168-0.768,0.414-1.506,0.727-2.209h-0.064
		h-0.854H24.211z"/>
</g>
<g id="remote_x5F_mysql">
</g>
<g id="addon_x5F_domains">
</g>
<g id="mysql_x5F_database_x5F_wizard">
</g>
<g id="multiphp_x5F_ini_x5F_editor">
</g>
</svg>
