<?xml version="1.0" encoding="utf-8"?>
<!-- Generator: Adobe Illustrator 21.1.0, SVG Export Plug-In . SVG Version: 6.00 Build 0)  -->
<svg version="1.1" xmlns="http://www.w3.org/2000/svg" xmlns:xlink="http://www.w3.org/1999/xlink" x="0px" y="0px"
	 viewBox="0 0 48 48" style="enable-background:new 0 0 48 48;" xml:space="preserve">
<style type="text/css">
	.st0{fill:#E0E0E0;}
	.st1{fill:#262626;}
	.st2{fill:#4F5B94;}
	.st3{fill:#15587C;}
	.st4{fill:none;}
	.st5{fill:#BCBCBC;}
	.st6{fill:#FFFFFF;}
	.st7{fill:#D34231;}
	.st8{fill:#666666;}
	.st9{fill:#EDA72B;}
	.st10{fill:#25323C;}
	.st11{fill:#336792;}
	.st12{fill:#32415B;}
	.st13{fill:#84B556;}
	.st14{fill:#6A9638;}
	.st15{fill:#189BD8;}
	.st16{fill:#BA342A;}
	.st17{fill:#FF6C2C;}
	.st18{fill:#8892BF;}
	.st19{fill:#FFFFFF;stroke:#FFFFFF;stroke-width:0.25;stroke-miterlimit:10;}
	.st20{fill:#FFFFFF;stroke:#FFFFFF;stroke-miterlimit:10;}
	.st21{fill:#FF6A1A;}
	.st22{fill:#00AA17;}
	.st23{fill:#FA741D;}
	.st24{fill:none;stroke:#15587C;stroke-miterlimit:10;}
	.st25{fill:none;stroke:#15587C;stroke-width:1.5;stroke-miterlimit:10;}
	.st26{fill:none;stroke:#BA342A;stroke-width:5;stroke-miterlimit:10;}
	.st27{fill:#000004;}
	.st28{fill:#000004;stroke:#FFFFFF;stroke-width:0.5;stroke-miterlimit:10;}
	.st29{fill:#017F00;}
	.st30{fill:none;stroke:#BCBCBC;stroke-miterlimit:10;}
	.st31{fill:#39FF2A;}
	.st32{fill:#FF00B3;}
	.st33{fill:#4DFF00;}
	.st34{fill:#FFFFFF;stroke:#FFFFFF;stroke-width:1.5;stroke-miterlimit:10;}
	.st35{fill:#FFFFFF;stroke:#FFFFFF;stroke-width:0.5;stroke-miterlimit:10;}
	.st36{fill:#FFFFFF;stroke:#BCBCBC;stroke-miterlimit:10;}
</style>
<g id="Layer_1">
	<g>
		<path class="st8" d="M15.925,9.984c0-2.787,2.26-5.047,5.047-5.047h6.644c2.787,0,5.047,2.26,5.047,5.047v8.472h5.328V9.56
			c0-5.217-4.229-9.445-9.445-9.445h-8.503c-5.217,0-9.445,4.229-9.445,9.445v8.896h5.328V9.984z"/>
		<path class="st11" d="M37.991,18.456h-5.328H15.925h-5.328H3v4.52v9.406v12.526C3,46.608,4.392,48,6.093,48h36.402
			c1.701,0,3.093-1.392,3.093-3.093V32.381v-9.406v-4.52H37.991z"/>
		<g>
			<path class="st10" d="M17.768,25.621c-1.985,0-3.595,1.609-3.595,3.595v0c0,0.515,0.113,1.003,0.308,1.446
				c0.288,0.654,0.766,1.201,1.362,1.581v0.956v2.285v5.352h3.849v-5.352v-2.285v-0.956c0.597-0.38,1.074-0.927,1.362-1.581
				c0.195-0.443,0.308-0.931,0.308-1.446v0C21.363,27.23,19.753,25.621,17.768,25.621z"/>
			<path class="st10" d="M30.82,25.621c-1.985,0-3.595,1.609-3.595,3.595v0c0,0.515,0.113,1.003,0.308,1.446
				c0.288,0.654,0.766,1.201,1.362,1.581v0.956v2.285v5.352h3.849v-5.352v-2.285v-0.956c0.597-0.38,1.074-0.927,1.362-1.581
				c0.195-0.443,0.308-0.931,0.308-1.446v0C34.414,27.23,32.805,25.621,30.82,25.621z"/>
		</g>
	</g>
</g>
<g id="remote_x5F_mysql">
</g>
<g id="addon_x5F_domains">
</g>
<g id="mysql_x5F_database_x5F_wizard">
</g>
<g id="multiphp_x5F_ini_x5F_editor">
</g>
</svg>
