<?xml version="1.0" encoding="utf-8"?>
<!-- Generator: Adobe Illustrator 21.1.0, SVG Export Plug-In . SVG Version: 6.00 Build 0)  -->
<svg version="1.1" xmlns="http://www.w3.org/2000/svg" xmlns:xlink="http://www.w3.org/1999/xlink" x="0px" y="0px"
	 viewBox="0 0 48 48" style="enable-background:new 0 0 48 48;" xml:space="preserve">
<style type="text/css">
	.st0{fill:#E0E0E0;}
	.st1{fill:#262626;}
	.st2{fill:#4F5B94;}
	.st3{fill:#15587C;}
	.st4{fill:none;}
	.st5{fill:#BCBCBC;}
	.st6{fill:#FFFFFF;}
	.st7{fill:#D34231;}
	.st8{fill:#666666;}
	.st9{fill:#EDA72B;}
	.st10{fill:#25323C;}
	.st11{fill:#336792;}
	.st12{fill:#32415B;}
	.st13{fill:#84B556;}
	.st14{fill:#6A9638;}
	.st15{fill:#189BD8;}
	.st16{fill:#BA342A;}
	.st17{fill:#FF6C2C;}
	.st18{fill:#8892BF;}
	.st19{fill:#FFFFFF;stroke:#FFFFFF;stroke-width:0.25;stroke-miterlimit:10;}
	.st20{fill:#FFFFFF;stroke:#FFFFFF;stroke-miterlimit:10;}
	.st21{fill:#FF6A1A;}
	.st22{fill:#00AA17;}
	.st23{fill:#FA741D;}
	.st24{fill:none;stroke:#15587C;stroke-miterlimit:10;}
	.st25{fill:none;stroke:#15587C;stroke-width:1.5;stroke-miterlimit:10;}
	.st26{fill:none;stroke:#BA342A;stroke-width:5;stroke-miterlimit:10;}
	.st27{fill:#000004;}
	.st28{fill:#000004;stroke:#FFFFFF;stroke-width:0.5;stroke-miterlimit:10;}
	.st29{fill:#017F00;}
	.st30{fill:none;stroke:#BCBCBC;stroke-miterlimit:10;}
	.st31{fill:#39FF2A;}
	.st32{fill:#FF00B3;}
	.st33{fill:#4DFF00;}
	.st34{fill:#FFFFFF;stroke:#FFFFFF;stroke-width:1.5;stroke-miterlimit:10;}
	.st35{fill:#FFFFFF;stroke:#FFFFFF;stroke-width:0.5;stroke-miterlimit:10;}
	.st36{fill:#FFFFFF;stroke:#BCBCBC;stroke-miterlimit:10;}
</style>
<g id="Layer_1">
	<g>
		<g>
			<path class="st5" d="M46.812,41.99H1.188C0.534,41.99,0,41.455,0,40.802V5.258c0-0.653,0.534-1.188,1.188-1.188h45.625
				C47.466,4.071,48,4.605,48,5.258v35.544C48,41.455,47.466,41.99,46.812,41.99z"/>
			<path class="st0" d="M44.16,39.806H3.84c-0.688,0-1.25-0.562-1.25-1.25V13.865c0-0.688,0.562-1.25,1.25-1.25H44.16
				c0.688,0,1.25,0.562,1.25,1.25v24.691C45.41,39.244,44.848,39.806,44.16,39.806z"/>
			<path class="st10" d="M4.124,9.951H3.753c-0.691,0-1.256-0.565-1.256-1.256V8.325c0-0.691,0.565-1.256,1.256-1.256h0.371
				c0.691,0,1.256,0.565,1.256,1.256v0.371C5.38,9.386,4.815,9.951,4.124,9.951z"/>
			<path class="st10" d="M9.268,9.951H8.897c-0.691,0-1.256-0.565-1.256-1.256V8.325c0-0.691,0.565-1.256,1.256-1.256h0.371
				c0.691,0,1.256,0.565,1.256,1.256v0.371C10.524,9.386,9.959,9.951,9.268,9.951z"/>
			<path class="st10" d="M14.412,9.951h-0.371c-0.691,0-1.256-0.565-1.256-1.256V8.325c0-0.691,0.565-1.256,1.256-1.256h0.371
				c0.691,0,1.256,0.565,1.256,1.256v0.371C15.668,9.386,15.103,9.951,14.412,9.951z"/>
		</g>
		<g>
			<path class="st15" d="M31.651,31.961l-3.679-1.538c0,0-1.894-0.633-0.216-2.419c1.677-1.785,1.731-5.352,1.731-5.352
				c-0.433-6.33-5.356-5.874-5.356-5.874c-5.465,0.271-5.356,5.924-5.356,5.924s0.325,3.261,2.056,5.101s-0.92,2.636-0.92,2.636
				l-4.058,1.958c-2.381,1.082-2.272,4.53-2.272,4.53h21.047C35.276,33.703,31.651,31.961,31.651,31.961z"/>
			<path class="st12" d="M37.831,29.279l-2.705-0.966c0,0-1.948-0.856-0.108-2.425c0,0,3.138-3.765,0.433-7.877
				c0,0-3.084-3.74-6.492-0.75c0,0,4.599,4.714-0.379,11.91c0,0,4.058,1.179,5.194,2.369c0,0,1.407,2.163,1.84,2.163h5.356
				C40.969,33.703,41.618,30.848,37.831,29.279z"/>
			<path class="st12" d="M19.748,29.258c-4.978-7.196-0.379-11.97-0.379-11.97c-3.409-2.989-6.492,0.704-6.492,0.704
				c-2.705,4.112,0.433,7.82,0.433,7.82c1.84,1.569-0.108,2.33-0.108,2.33l-2.705,1.141c-3.787,1.569-3.138,4.421-3.138,4.421h5.356
				c0.433,0,1.84-2.169,1.84-2.169C15.69,30.344,19.748,29.258,19.748,29.258z"/>
		</g>
	</g>
</g>
<g id="remote_x5F_mysql">
</g>
<g id="addon_x5F_domains">
</g>
<g id="mysql_x5F_database_x5F_wizard">
</g>
<g id="multiphp_x5F_ini_x5F_editor">
</g>
</svg>
