<?xml version="1.0" encoding="utf-8"?>
<!-- Generator: Adobe Illustrator 21.1.0, SVG Export Plug-In . SVG Version: 6.00 Build 0)  -->
<svg version="1.1" xmlns="http://www.w3.org/2000/svg" xmlns:xlink="http://www.w3.org/1999/xlink" x="0px" y="0px"
	 viewBox="0 0 48 48" style="enable-background:new 0 0 48 48;" xml:space="preserve">
<style type="text/css">
	.st0{fill:#E0E0E0;}
	.st1{fill:#262626;}
	.st2{fill:#4F5B94;}
	.st3{fill:#15587C;}
	.st4{fill:none;}
	.st5{fill:#BCBCBC;}
	.st6{fill:#FFFFFF;}
	.st7{fill:#D34231;}
	.st8{fill:#666666;}
	.st9{fill:#EDA72B;}
	.st10{fill:#25323C;}
	.st11{fill:#336792;}
	.st12{fill:#32415B;}
	.st13{fill:#84B556;}
	.st14{fill:#6A9638;}
	.st15{fill:#189BD8;}
	.st16{fill:#BA342A;}
	.st17{fill:#FF6C2C;}
	.st18{fill:#8892BF;}
	.st19{fill:#FFFFFF;stroke:#FFFFFF;stroke-width:0.25;stroke-miterlimit:10;}
	.st20{fill:#FFFFFF;stroke:#FFFFFF;stroke-miterlimit:10;}
	.st21{fill:#FF6A1A;}
	.st22{fill:#00AA17;}
	.st23{fill:#FA741D;}
	.st24{fill:none;stroke:#15587C;stroke-miterlimit:10;}
	.st25{fill:none;stroke:#15587C;stroke-width:1.5;stroke-miterlimit:10;}
	.st26{fill:none;stroke:#BA342A;stroke-width:5;stroke-miterlimit:10;}
	.st27{fill:#000004;}
	.st28{fill:#000004;stroke:#FFFFFF;stroke-width:0.5;stroke-miterlimit:10;}
	.st29{fill:#017F00;}
	.st30{fill:none;stroke:#BCBCBC;stroke-miterlimit:10;}
	.st31{fill:#39FF2A;}
	.st32{fill:#FF00B3;}
	.st33{fill:#4DFF00;}
	.st34{fill:#FFFFFF;stroke:#FFFFFF;stroke-width:1.5;stroke-miterlimit:10;}
	.st35{fill:#FFFFFF;stroke:#FFFFFF;stroke-width:0.5;stroke-miterlimit:10;}
	.st36{fill:#FFFFFF;stroke:#BCBCBC;stroke-miterlimit:10;}
</style>
<g id="Layer_1">
	<path class="st2" d="M24.237,0C11.16,0,0.56,10.601,0.56,23.677c0,12.184,9.204,22.214,21.038,23.527l-2.865-3.084l1.312,1.366
		l4.925-4.728L6.538,21.558l-1.406,1.349v-7.58l34.76-0.216l3.213,0.561l4.171,2.552C44.813,7.778,35.436,0,24.237,0z"/>
	<rect x="4.66" y="14.677" class="st2" width="38.759" height="9.436"/>
	<path class="st10" d="M23.588,24.718l14.477,4.754l6.304,6.668c2.246-3.62,3.547-7.889,3.547-12.463
		c0-1.877-0.225-3.701-0.638-5.452l-4.171-2.552l-3.213-0.561l-34.76,0.216v14.151l16.466,17.725c0.867,0.096,1.747,0.15,2.639,0.15
		c2.879,0,5.638-0.515,8.19-1.456l-6.071-6.529L23.588,24.718z"/>
	<g>
		<g>
			<path class="st6" d="M5.111,29.433V15.302h4.85c4.861,0,7.293,2.296,7.293,6.888c0,2.201-0.664,3.958-1.99,5.272
				c-1.328,1.313-3.096,1.971-5.303,1.971H5.111z M8.195,17.894v8.957h1.526c1.337,0,2.385-0.414,3.146-1.241
				c0.76-0.828,1.141-1.955,1.141-3.38c0-1.347-0.377-2.406-1.131-3.179c-0.754-0.771-1.812-1.157-3.174-1.157H8.195z"/>
			<path class="st6" d="M31.84,29.433h-3.112l-5.642-8.879c-0.331-0.519-0.561-0.91-0.688-1.173H22.36
				c0.051,0.5,0.077,1.262,0.077,2.286v7.766h-2.912V15.302h3.322l5.432,8.603c0.248,0.388,0.477,0.772,0.687,1.153h0.038
				c-0.051-0.329-0.076-0.976-0.076-1.941v-7.814h2.912V29.433z"/>
			<path class="st6" d="M34.34,28.891v-3.153c0.555,0.479,1.155,0.839,1.805,1.079c0.648,0.24,1.305,0.359,1.967,0.359
				c0.388,0,0.727-0.036,1.016-0.108c0.29-0.072,0.531-0.172,0.727-0.301c0.193-0.128,0.338-0.278,0.434-0.453
				c0.096-0.174,0.143-0.362,0.143-0.566c0-0.276-0.076-0.522-0.229-0.739s-0.361-0.417-0.625-0.601
				c-0.264-0.185-0.578-0.361-0.94-0.532s-0.754-0.345-1.175-0.522c-1.068-0.46-1.865-1.021-2.391-1.686
				c-0.525-0.663-0.787-1.465-0.787-2.404c0-0.735,0.143-1.368,0.43-1.896c0.286-0.529,0.676-0.964,1.169-1.306
				s1.064-0.593,1.714-0.754c0.648-0.161,1.336-0.241,2.062-0.241c0.712,0,1.345,0.044,1.895,0.133
				c0.551,0.089,1.058,0.225,1.522,0.409v2.946c-0.229-0.164-0.479-0.309-0.749-0.434s-0.549-0.229-0.835-0.311
				c-0.287-0.082-0.572-0.143-0.854-0.183c-0.283-0.039-0.552-0.059-0.807-0.059c-0.351,0-0.669,0.034-0.954,0.104
				c-0.287,0.068-0.529,0.166-0.727,0.29c-0.197,0.125-0.35,0.274-0.457,0.448c-0.109,0.175-0.163,0.37-0.163,0.587
				c0,0.236,0.061,0.448,0.182,0.636c0.12,0.187,0.292,0.364,0.515,0.532c0.223,0.167,0.494,0.331,0.812,0.492
				s0.678,0.327,1.078,0.498c0.547,0.236,1.039,0.487,1.475,0.754c0.436,0.266,0.811,0.566,1.122,0.901s0.55,0.718,0.716,1.148
				c0.166,0.43,0.248,0.931,0.248,1.502c0,0.789-0.145,1.45-0.434,1.986c-0.291,0.535-0.684,0.969-1.18,1.301
				c-0.496,0.331-1.074,0.569-1.732,0.714s-1.354,0.217-2.086,0.217c-0.75,0-1.465-0.065-2.143-0.197
				C35.424,29.351,34.836,29.153,34.34,28.891z"/>
		</g>
	</g>
	<g>
		<path class="st18" d="M36.513,32.018l-3.394,3.097l9.031,9.837c1.173-1.049,2.134-2.323,2.821-3.759L36.513,32.018z"/>
		<polygon class="st5" points="33.119,35.115 36.513,32.018 36.444,31.943 31.448,30.344 29.967,31.682 		"/>
		<path class="st2" d="M29.708,38.226l8.338,9.129c1.533-0.522,2.922-1.347,4.104-2.403l-9.031-9.837L29.708,38.226z"/>
		<polygon class="st10" points="31.448,30.344 27.612,29.117 28.501,33.006 29.967,31.682 		"/>
		<polygon class="st5" points="29.967,31.682 28.501,33.006 29.689,38.205 29.708,38.226 33.119,35.115 		"/>
	</g>
</g>
<g id="remote_x5F_mysql">
</g>
<g id="addon_x5F_domains">
</g>
<g id="mysql_x5F_database_x5F_wizard">
</g>
<g id="multiphp_x5F_ini_x5F_editor">
</g>
</svg>
