<svg id="Layer_1" data-name="Layer 1" xmlns="http://www.w3.org/2000/svg" viewBox="0 0 366.59 61.07"><defs><style>.cls-1{fill:#db1d05;}.cls-2{fill:#ededed;}.cls-3{fill:#208545;}.cls-4{fill:#218545;}</style></defs><title>tls_status_icon_1</title><path class="cls-1" d="M34.9,26.19a6.22,6.22,0,1,0,0,8.8A6.22,6.22,0,0,0,34.9,26.19Zm-7.32,1.49a4.11,4.11,0,0,1,5-.64l-5.61,5.61A4.11,4.11,0,0,1,27.59,27.68Zm.86,6.47,5.61-5.61a4.1,4.1,0,0,1-5.61,5.61Z"/><path class="cls-2" d="M30.5,54.17A23.58,23.58,0,1,1,54.08,30.59,23.61,23.61,0,0,1,30.5,54.17ZM30.5,10A20.58,20.58,0,1,0,51.08,30.59,20.6,20.6,0,0,0,30.5,10Z"/><path class="cls-2" d="M30.5,58.46A27.87,27.87,0,1,1,58.37,30.59,27.9,27.9,0,0,1,30.5,58.46Zm0-52.74A24.87,24.87,0,1,0,55.37,30.59,24.9,24.9,0,0,0,30.5,5.72Z"/><path class="cls-2" d="M30.5,49.7A19.11,19.11,0,1,1,49.61,30.59,19.13,19.13,0,0,1,30.5,49.7Zm0-35.22A16.11,16.11,0,1,0,46.61,30.59,16.13,16.13,0,0,0,30.5,14.48Z"/><path class="cls-1" d="M96.25,29.93h-.4V26.68c0-1.64-2-3-4.38-3s-4.38,1.33-4.38,3v3.25H87a1,1,0,0,0-1,1v5.48a1,1,0,0,0,1,1h9.28a1,1,0,0,0,1-1V30.93A1,1,0,0,0,96.25,29.93Zm-7.19-2.56c0-.85,1.08-1.53,2.41-1.53s2.41.69,2.41,1.53v2.56H89.06Z"/><path class="cls-2" d="M91.61,54.17a23.58,23.58,0,1,1,23.58-23.58A23.61,23.61,0,0,1,91.61,54.17Zm0-44.16a20.58,20.58,0,1,0,20.58,20.58A20.6,20.6,0,0,0,91.61,10Z"/><path class="cls-2" d="M91.61,58.46a27.87,27.87,0,1,1,27.87-27.87A27.9,27.9,0,0,1,91.61,58.46Zm0-52.74a24.87,24.87,0,1,0,24.87,24.87A24.9,24.9,0,0,0,91.61,5.72Z"/><path class="cls-2" d="M91.61,49.7a19.11,19.11,0,1,1,19.11-19.11A19.13,19.13,0,0,1,91.61,49.7Zm0-35.22a16.11,16.11,0,1,0,16.11,16.11A16.13,16.13,0,0,0,91.61,14.48Z"/><path class="cls-3" d="M150.82,30h-.33V27.38c0-1.34-1.61-2.43-3.59-2.43s-3.59,1.09-3.59,2.43V30h-.1a.82.82,0,0,0-.82.82v4.5a.82.82,0,0,0,.82.82h7.61a.82.82,0,0,0,.82-.82v-4.5A.82.82,0,0,0,150.82,30Zm-5.9-2.1c0-.69.88-1.26,2-1.26s2,.56,2,1.26V30h-4Z"/><path d="M160.21,33.37a2.66,2.66,0,0,1-4.91-.62h1l-1-1.36-.8-1.06-.64.85-1.19,1.57h1.14a4.1,4.1,0,0,0,7.28,1.85Z"/><path d="M161.94,31.54a4.1,4.1,0,0,0-7.33-1.95l.93,1.23a2.66,2.66,0,0,1,4.93.71h-1l1,1.34.8,1.09.62-.82,1.22-1.61Z"/><path class="cls-2" d="M152.72,54.17A23.58,23.58,0,1,1,176.3,30.59,23.61,23.61,0,0,1,152.72,54.17Zm0-44.16A20.58,20.58,0,1,0,173.3,30.59,20.6,20.6,0,0,0,152.72,10Z"/><path class="cls-2" d="M152.72,58.46a27.87,27.87,0,1,1,27.87-27.87A27.9,27.9,0,0,1,152.72,58.46Zm0-52.74a24.87,24.87,0,1,0,24.87,24.87A24.9,24.9,0,0,0,152.72,5.72Z"/><path class="cls-4" d="M152.72,49.7a19.11,19.11,0,1,1,19.11-19.11A19.13,19.13,0,0,1,152.72,49.7Zm0-35.22a16.11,16.11,0,1,0,16.11,16.11A16.13,16.13,0,0,0,152.72,14.48Z"/><path class="cls-3" d="M208.78,30h-.33V27.34c0-1.34-1.61-2.43-3.59-2.43s-3.59,1.09-3.59,2.43V30h-.1a.82.82,0,0,0-.82.82v4.5a.82.82,0,0,0,.82.82h7.61a.82.82,0,0,0,.82-.82v-4.5A.82.82,0,0,0,208.78,30Zm-5.9-2.1c0-.69.88-1.26,2-1.26s2,.56,2,1.26V30h-4Z"/><path d="M219.65,27.28v8.87h-1.83V35.2a2.35,2.35,0,0,1-2,1,3,3,0,0,1-3-3.31,3,3,0,0,1,3-3.26,2.42,2.42,0,0,1,2.08,1V27.28ZM217.82,33a1.62,1.62,0,0,0-1.6-1.78,1.79,1.79,0,0,0,0,3.56A1.62,1.62,0,0,0,217.82,33Z"/><path d="M222.47,29.71,224,34.4l1.51-4.68h1.83l-2.43,6.43H223l-2.44-6.42Z"/><path class="cls-2" d="M213.83,54.17a23.58,23.58,0,1,1,23.58-23.58A23.61,23.61,0,0,1,213.83,54.17Zm0-44.16a20.58,20.58,0,1,0,20.58,20.58A20.6,20.6,0,0,0,213.83,10Z"/><path class="cls-2" d="M213.83,58.46A27.87,27.87,0,1,1,241.7,30.59,27.9,27.9,0,0,1,213.83,58.46Zm0-52.74A24.87,24.87,0,1,0,238.7,30.59,24.9,24.9,0,0,0,213.83,5.72Z"/><path class="cls-4" d="M213.83,49.7a19.11,19.11,0,1,1,19.11-19.11A19.13,19.13,0,0,1,213.83,49.7Zm0-35.22a16.11,16.11,0,1,0,16.11,16.11A16.13,16.13,0,0,0,213.83,14.48Z"/><path class="cls-4" d="M270.31,30H270V27.34c0-1.34-1.61-2.43-3.59-2.43S262.8,26,262.8,27.34V30h-.1a.82.82,0,0,0-.82.82v4.5a.82.82,0,0,0,.82.82h7.61a.82.82,0,0,0,.82-.82v-4.5A.82.82,0,0,0,270.31,30Zm-5.9-2.1c0-.69.88-1.26,2-1.26s2,.56,2,1.26V30h-4Z"/><path d="M281.18,32.71a3.45,3.45,0,1,1-3.44-3.27A3.19,3.19,0,0,1,281.18,32.71Zm-5,0a1.61,1.61,0,1,0,1.6-1.77A1.6,1.6,0,0,0,276.13,32.73Z"/><path d="M283.16,29.49l1.52,4.68,1.51-4.68H288l-2.43,6.43H283.7l-2.44-6.42Z"/><path class="cls-4" d="M274.94,54.17a23.58,23.58,0,1,1,23.58-23.58A23.61,23.61,0,0,1,274.94,54.17Zm0-44.16a20.58,20.58,0,1,0,20.58,20.58A20.6,20.6,0,0,0,274.94,10Z"/><path class="cls-2" d="M274.94,58.46a27.87,27.87,0,1,1,27.87-27.87A27.9,27.9,0,0,1,274.94,58.46Zm0-52.74a24.87,24.87,0,1,0,24.87,24.87A24.9,24.9,0,0,0,274.94,5.72Z"/><path class="cls-4" d="M274.94,49.7a19.11,19.11,0,1,1,19.11-19.11A19.13,19.13,0,0,1,274.94,49.7Zm0-35.22a16.11,16.11,0,1,0,16.11,16.11A16.13,16.13,0,0,0,274.94,14.48Z"/><path class="cls-4" d="M331.64,30h-.33V27.38c0-1.34-1.61-2.43-3.59-2.43s-3.59,1.09-3.59,2.43V30H324a.82.82,0,0,0-.82.82v4.5a.82.82,0,0,0,.82.82h7.61a.82.82,0,0,0,.82-.82v-4.5A.82.82,0,0,0,331.64,30Zm-5.9-2.1c0-.69.88-1.26,2-1.26s2,.56,2,1.26V30h-4Z"/><path d="M342.07,33.08h-4.61a1.64,1.64,0,0,0,1.66,1.29,2.28,2.28,0,0,0,1.62-.68l1,1A3.59,3.59,0,0,1,339,35.81a3.11,3.11,0,0,1-3.36-3.26,3.13,3.13,0,0,1,3.31-3.3C341.17,29.25,342.23,30.74,342.07,33.08ZM340.35,32a1.34,1.34,0,0,0-1.42-1.4,1.51,1.51,0,0,0-1.51,1.4Z"/><path d="M344.05,29.31,345.57,34l1.51-4.68h1.83l-2.43,6.43h-1.89l-2.44-6.42Z"/><path class="cls-4" d="M336.05,54.17a23.58,23.58,0,1,1,23.58-23.58A23.61,23.61,0,0,1,336.05,54.17Zm0-44.16a20.58,20.58,0,1,0,20.58,20.58A20.6,20.6,0,0,0,336.05,10Z"/><path class="cls-4" d="M336.05,58.46a27.87,27.87,0,1,1,27.87-27.87A27.9,27.9,0,0,1,336.05,58.46Zm0-52.74a24.87,24.87,0,1,0,24.87,24.87A24.9,24.9,0,0,0,336.05,5.72Z"/><path class="cls-4" d="M336.05,49.7a19.11,19.11,0,1,1,19.11-19.11A19.13,19.13,0,0,1,336.05,49.7Zm0-35.22a16.11,16.11,0,1,0,16.11,16.11A16.13,16.13,0,0,0,336.05,14.48Z"/></svg>