<?xml version="1.0" encoding="utf-8"?>
<!-- Generator: Adobe Illustrator 21.1.0, SVG Export Plug-In . SVG Version: 6.00 Build 0)  -->
<svg version="1.1" xmlns="http://www.w3.org/2000/svg" xmlns:xlink="http://www.w3.org/1999/xlink" x="0px" y="0px"
	 viewBox="0 0 48 48" style="enable-background:new 0 0 48 48;" xml:space="preserve">
<style type="text/css">
	.st0{fill:#E0E0E0;}
	.st1{fill:#262626;}
	.st2{fill:#4F5B94;}
	.st3{fill:#15587C;}
	.st4{fill:none;}
	.st5{fill:#BCBCBC;}
	.st6{fill:#FFFFFF;}
	.st7{fill:#D34231;}
	.st8{fill:#666666;}
	.st9{fill:#EDA72B;}
	.st10{fill:#25323C;}
	.st11{fill:#336792;}
	.st12{fill:#32415B;}
	.st13{fill:#84B556;}
	.st14{fill:#6A9638;}
	.st15{fill:#189BD8;}
	.st16{fill:#BA342A;}
	.st17{fill:#FF6C2C;}
	.st18{fill:#8892BF;}
	.st19{fill:#FFFFFF;stroke:#FFFFFF;stroke-width:0.25;stroke-miterlimit:10;}
	.st20{fill:#FFFFFF;stroke:#FFFFFF;stroke-miterlimit:10;}
	.st21{fill:#FF6A1A;}
	.st22{fill:#00AA17;}
	.st23{fill:#FA741D;}
	.st24{fill:none;stroke:#15587C;stroke-miterlimit:10;}
	.st25{fill:none;stroke:#15587C;stroke-width:1.5;stroke-miterlimit:10;}
	.st26{fill:none;stroke:#BA342A;stroke-width:5;stroke-miterlimit:10;}
	.st27{fill:#000004;}
	.st28{fill:#000004;stroke:#FFFFFF;stroke-width:0.5;stroke-miterlimit:10;}
	.st29{fill:#017F00;}
	.st30{fill:none;stroke:#BCBCBC;stroke-miterlimit:10;}
	.st31{fill:#39FF2A;}
	.st32{fill:#FF00B3;}
	.st33{fill:#4DFF00;}
	.st34{fill:#FFFFFF;stroke:#FFFFFF;stroke-width:1.5;stroke-miterlimit:10;}
	.st35{fill:#FFFFFF;stroke:#FFFFFF;stroke-width:0.5;stroke-miterlimit:10;}
	.st36{fill:#FFFFFF;stroke:#BCBCBC;stroke-miterlimit:10;}
</style>
<g id="Layer_1">
	<g>
		<path class="st5" d="M46.812,42.934H1.206c-0.653,0-1.188-0.534-1.188-1.188V6.217c0-0.653,0.534-1.188,1.188-1.188h45.606
			C47.466,5.03,48,5.564,48,6.217v35.529C48,42.4,47.466,42.934,46.812,42.934z"/>
		<path class="st0" d="M44.161,40.751H3.857c-0.688,0-1.25-0.562-1.25-1.25v-24.68c0-0.688,0.562-1.25,1.25-1.25h40.304
			c0.688,0,1.25,0.562,1.25,1.25v24.68C45.411,40.189,44.849,40.751,44.161,40.751z"/>
		<path class="st10" d="M4.14,10.908H3.771c-0.691,0-1.256-0.565-1.256-1.256V9.283c0-0.691,0.565-1.256,1.256-1.256H4.14
			c0.691,0,1.256,0.565,1.256,1.256v0.369C5.396,10.343,4.831,10.908,4.14,10.908z"/>
		<path class="st10" d="M9.282,10.908H8.913c-0.691,0-1.256-0.565-1.256-1.256V9.283c0-0.691,0.565-1.256,1.256-1.256h0.369
			c0.691,0,1.256,0.565,1.256,1.256v0.369C10.538,10.343,9.973,10.908,9.282,10.908z"/>
		<path class="st10" d="M14.425,10.908h-0.369c-0.691,0-1.256-0.565-1.256-1.256V9.283c0-0.691,0.565-1.256,1.256-1.256h0.369
			c0.691,0,1.256,0.565,1.256,1.256v0.369C15.681,10.343,15.115,10.908,14.425,10.908z"/>
		<g>
			<path class="st15" d="M8.08,21.45c-1.158,0-1.736-0.84-1.736-2.518c0-0.87,0.156-1.534,0.47-1.99
				c0.312-0.456,0.767-0.685,1.361-0.685c1.13,0,1.695,0.854,1.695,2.56c0,0.85-0.154,1.5-0.463,1.953S8.656,21.45,8.08,21.45z
				 M8.127,17.102c-0.463,0-0.695,0.601-0.695,1.803c0,1.133,0.228,1.698,0.682,1.698c0.443,0,0.665-0.583,0.665-1.75
				S8.562,17.102,8.127,17.102z"/>
			<path class="st15" d="M11.56,20.445h2.062v0.917h-3.235v-0.378c0-0.257,0.042-0.487,0.126-0.691
				c0.083-0.204,0.188-0.388,0.315-0.55c0.126-0.162,0.265-0.306,0.415-0.431s0.293-0.237,0.429-0.338
				c0.143-0.105,0.268-0.205,0.375-0.301s0.198-0.191,0.271-0.285c0.073-0.095,0.128-0.19,0.164-0.287
				c0.036-0.098,0.055-0.2,0.055-0.311c0-0.215-0.059-0.377-0.177-0.486c-0.117-0.109-0.297-0.165-0.539-0.165
				c-0.418,0-0.818,0.172-1.2,0.515v-0.973c0.423-0.282,0.899-0.424,1.431-0.424c0.247,0,0.468,0.033,0.663,0.1
				s0.361,0.162,0.497,0.285c0.136,0.124,0.239,0.274,0.311,0.45c0.071,0.177,0.106,0.373,0.106,0.59
				c0,0.231-0.034,0.437-0.104,0.616c-0.068,0.18-0.16,0.343-0.274,0.49s-0.246,0.282-0.396,0.404
				c-0.148,0.123-0.304,0.241-0.464,0.355c-0.109,0.079-0.214,0.158-0.314,0.236s-0.189,0.155-0.266,0.231
				c-0.077,0.075-0.138,0.149-0.184,0.222C11.582,20.311,11.56,20.38,11.56,20.445z"/>
			<path class="st15" d="M14.496,21.198v-0.963c0.326,0.245,0.706,0.367,1.14,0.367c0.273,0,0.486-0.061,0.64-0.182
				c0.152-0.122,0.229-0.291,0.229-0.508c0-0.225-0.095-0.396-0.283-0.519c-0.188-0.121-0.448-0.182-0.778-0.182h-0.451v-0.848
				h0.417c0.634,0,0.95-0.217,0.95-0.651c0-0.408-0.243-0.612-0.729-0.612c-0.325,0-0.642,0.108-0.949,0.325v-0.902
				c0.341-0.178,0.739-0.267,1.193-0.267c0.498,0,0.885,0.115,1.162,0.347c0.276,0.231,0.415,0.531,0.415,0.899
				c0,0.656-0.322,1.067-0.967,1.232v0.018c0.344,0.045,0.615,0.174,0.814,0.387c0.198,0.214,0.298,0.476,0.298,0.786
				c0,0.47-0.166,0.841-0.498,1.113c-0.332,0.273-0.791,0.41-1.377,0.41C15.219,21.45,14.811,21.366,14.496,21.198z"/>
			<path class="st15" d="M21.859,19.692c0,0.247-0.042,0.479-0.126,0.693c-0.083,0.215-0.2,0.4-0.349,0.559
				c-0.149,0.157-0.327,0.281-0.533,0.371c-0.205,0.09-0.431,0.135-0.675,0.135c-0.273,0-0.519-0.053-0.734-0.158
				c-0.216-0.104-0.398-0.257-0.547-0.457c-0.149-0.199-0.264-0.443-0.343-0.733c-0.079-0.289-0.119-0.617-0.119-0.983
				c0-0.432,0.052-0.823,0.154-1.175c0.104-0.351,0.25-0.651,0.441-0.901c0.19-0.25,0.422-0.442,0.693-0.579
				s0.576-0.205,0.916-0.205c0.375,0,0.666,0.046,0.874,0.137v0.924c-0.246-0.145-0.515-0.217-0.807-0.217
				c-0.181,0-0.345,0.036-0.492,0.108c-0.146,0.072-0.272,0.175-0.378,0.309c-0.104,0.133-0.188,0.293-0.247,0.481
				c-0.061,0.188-0.093,0.396-0.097,0.628h0.021c0.23-0.329,0.57-0.493,1.021-0.493c0.201,0,0.383,0.037,0.546,0.111
				c0.163,0.075,0.302,0.181,0.417,0.317s0.205,0.301,0.268,0.491C21.827,19.246,21.859,19.459,21.859,19.692z M20.812,19.763
				c0-0.539-0.214-0.809-0.642-0.809c-0.097,0-0.186,0.019-0.265,0.056s-0.146,0.09-0.203,0.157c-0.057,0.068-0.1,0.147-0.131,0.24
				c-0.03,0.092-0.046,0.194-0.046,0.306c0,0.124,0.017,0.239,0.048,0.347s0.076,0.202,0.134,0.282s0.126,0.145,0.205,0.19
				c0.079,0.047,0.168,0.07,0.265,0.07c0.098,0,0.185-0.021,0.263-0.062c0.078-0.04,0.146-0.098,0.2-0.171
				c0.056-0.074,0.098-0.162,0.127-0.267C20.797,20,20.812,19.886,20.812,19.763z"/>
			<path class="st15" d="M22.361,20.011c0-0.14,0.02-0.274,0.06-0.404c0.039-0.13,0.099-0.25,0.178-0.36
				c0.079-0.111,0.178-0.21,0.297-0.298c0.118-0.087,0.258-0.159,0.419-0.215c-0.247-0.126-0.438-0.288-0.573-0.485
				s-0.204-0.416-0.204-0.656c0-0.191,0.039-0.369,0.117-0.532s0.187-0.305,0.324-0.424s0.302-0.212,0.493-0.278
				s0.399-0.1,0.626-0.1c0.23,0,0.441,0.033,0.634,0.1s0.358,0.159,0.497,0.276c0.139,0.118,0.247,0.258,0.324,0.419
				c0.076,0.161,0.115,0.336,0.115,0.525c0,0.237-0.072,0.454-0.218,0.649c-0.145,0.194-0.345,0.354-0.6,0.481
				c0.158,0.056,0.297,0.127,0.417,0.215s0.221,0.188,0.302,0.3c0.081,0.111,0.143,0.233,0.184,0.365
				c0.04,0.132,0.061,0.27,0.061,0.411c0,0.215-0.042,0.41-0.125,0.587c-0.084,0.176-0.202,0.328-0.354,0.455
				c-0.153,0.127-0.335,0.226-0.546,0.296c-0.212,0.07-0.445,0.104-0.701,0.104c-0.251,0-0.481-0.034-0.693-0.103
				c-0.211-0.069-0.394-0.167-0.546-0.293s-0.271-0.276-0.357-0.453C22.404,20.418,22.361,20.224,22.361,20.011z M23.375,19.916
				c0,0.115,0.018,0.218,0.051,0.309c0.034,0.091,0.083,0.168,0.146,0.23c0.062,0.063,0.138,0.112,0.226,0.146
				c0.087,0.034,0.185,0.051,0.293,0.051c0.104,0,0.199-0.018,0.286-0.053c0.087-0.034,0.162-0.084,0.226-0.146
				c0.063-0.063,0.113-0.141,0.149-0.231s0.055-0.192,0.055-0.305c0-0.1-0.018-0.195-0.051-0.287
				c-0.034-0.091-0.083-0.169-0.146-0.236c-0.063-0.066-0.139-0.119-0.226-0.159c-0.087-0.039-0.185-0.06-0.293-0.06
				c-0.102,0-0.197,0.019-0.285,0.055s-0.164,0.088-0.227,0.154c-0.063,0.066-0.113,0.145-0.149,0.236
				C23.394,19.71,23.375,19.809,23.375,19.916z M23.524,17.693c0,0.089,0.016,0.172,0.046,0.25s0.071,0.146,0.124,0.203
				c0.052,0.058,0.113,0.103,0.185,0.135c0.071,0.033,0.146,0.049,0.226,0.049c0.081,0,0.157-0.016,0.227-0.049
				c0.07-0.032,0.132-0.078,0.186-0.137c0.053-0.058,0.095-0.126,0.125-0.203c0.03-0.076,0.046-0.159,0.046-0.248
				c0-0.091-0.015-0.176-0.044-0.254s-0.07-0.146-0.124-0.203c-0.053-0.057-0.115-0.102-0.187-0.135
				c-0.071-0.032-0.147-0.049-0.229-0.049c-0.086,0-0.165,0.017-0.236,0.051c-0.07,0.034-0.132,0.079-0.183,0.137
				c-0.051,0.057-0.091,0.125-0.119,0.203S23.524,17.604,23.524,17.693z"/>
			<path class="st15" d="M29.771,18.61c0,0.446-0.048,0.845-0.143,1.195c-0.095,0.352-0.233,0.648-0.415,0.892
				c-0.183,0.242-0.404,0.429-0.667,0.559c-0.262,0.129-0.56,0.194-0.892,0.194c-0.398,0-0.74-0.065-1.027-0.196v-0.91
				c0.255,0.173,0.562,0.259,0.922,0.259c0.369,0,0.657-0.13,0.865-0.389s0.312-0.634,0.315-1.124l-0.021-0.007
				c-0.215,0.329-0.542,0.494-0.98,0.494c-0.198,0-0.383-0.039-0.551-0.116c-0.169-0.077-0.314-0.184-0.438-0.32
				s-0.22-0.299-0.288-0.488c-0.069-0.188-0.104-0.396-0.104-0.623c0-0.264,0.042-0.504,0.125-0.721
				c0.084-0.218,0.201-0.404,0.352-0.561s0.33-0.277,0.541-0.362c0.21-0.085,0.442-0.128,0.698-0.128
				c0.265,0,0.502,0.053,0.712,0.159c0.211,0.106,0.39,0.26,0.538,0.461c0.147,0.2,0.261,0.446,0.339,0.738
				S29.771,18.239,29.771,18.61z M28.689,18.022c0-0.129-0.016-0.249-0.048-0.362c-0.031-0.113-0.075-0.211-0.132-0.293
				c-0.057-0.081-0.126-0.146-0.207-0.193s-0.171-0.072-0.268-0.072c-0.093,0-0.179,0.021-0.256,0.063
				c-0.078,0.042-0.146,0.1-0.202,0.173s-0.101,0.162-0.132,0.265c-0.032,0.103-0.048,0.213-0.048,0.332
				c0,0.131,0.016,0.247,0.048,0.349c0.031,0.102,0.076,0.188,0.134,0.257c0.058,0.07,0.127,0.124,0.208,0.16
				c0.082,0.036,0.172,0.054,0.271,0.054c0.095,0,0.181-0.02,0.258-0.058s0.143-0.091,0.198-0.156
				c0.056-0.064,0.099-0.142,0.129-0.23S28.689,18.125,28.689,18.022z"/>
			<path class="st7" d="M33.79,16.979c-0.217,0.403-0.411,0.782-0.583,1.136s-0.323,0.702-0.455,1.047
				c-0.131,0.344-0.242,0.694-0.335,1.05c-0.093,0.356-0.169,0.739-0.228,1.15H31.07c0.063-0.39,0.146-0.766,0.251-1.127
				c0.104-0.362,0.225-0.713,0.361-1.053c0.137-0.339,0.288-0.67,0.454-0.992s0.342-0.637,0.527-0.945h-2.259v-0.903h3.385V16.979z"
				/>
			<path class="st15" d="M37.304,16.342v3.165h0.583v0.826h-0.583v1.029h-0.977v-1.029h-2.12v-0.864
				c0.188-0.218,0.383-0.455,0.584-0.713s0.396-0.523,0.583-0.797c0.188-0.272,0.362-0.548,0.524-0.824
				c0.161-0.276,0.299-0.541,0.412-0.793H37.304z M35.167,19.507h1.16v-1.754c-0.079,0.151-0.165,0.305-0.258,0.46
				s-0.19,0.309-0.292,0.459s-0.204,0.296-0.309,0.438C35.365,19.251,35.265,19.383,35.167,19.507z"/>
			<path class="st15" d="M41.835,19.692c0,0.247-0.042,0.479-0.126,0.693c-0.083,0.215-0.2,0.4-0.349,0.559
				c-0.149,0.157-0.327,0.281-0.533,0.371c-0.205,0.09-0.431,0.135-0.675,0.135c-0.273,0-0.519-0.053-0.734-0.158
				c-0.216-0.104-0.398-0.257-0.547-0.457c-0.149-0.199-0.264-0.443-0.343-0.733c-0.079-0.289-0.119-0.617-0.119-0.983
				c0-0.432,0.052-0.823,0.154-1.175c0.104-0.351,0.25-0.651,0.441-0.901c0.19-0.25,0.422-0.442,0.693-0.579
				s0.576-0.205,0.916-0.205c0.375,0,0.666,0.046,0.874,0.137v0.924c-0.246-0.145-0.515-0.217-0.807-0.217
				c-0.181,0-0.345,0.036-0.492,0.108c-0.146,0.072-0.272,0.175-0.378,0.309c-0.104,0.133-0.188,0.293-0.247,0.481
				c-0.061,0.188-0.093,0.396-0.097,0.628h0.021c0.23-0.329,0.57-0.493,1.021-0.493c0.201,0,0.383,0.037,0.546,0.111
				c0.163,0.075,0.302,0.181,0.417,0.317s0.205,0.301,0.268,0.491C41.803,19.246,41.835,19.459,41.835,19.692z M40.787,19.763
				c0-0.539-0.214-0.809-0.642-0.809c-0.097,0-0.186,0.019-0.265,0.056s-0.146,0.09-0.203,0.157c-0.057,0.068-0.1,0.147-0.131,0.24
				c-0.03,0.092-0.046,0.194-0.046,0.306c0,0.124,0.017,0.239,0.048,0.347s0.076,0.202,0.134,0.282s0.126,0.145,0.205,0.19
				c0.079,0.047,0.168,0.07,0.265,0.07c0.098,0,0.185-0.021,0.263-0.062c0.078-0.04,0.146-0.098,0.2-0.171
				c0.056-0.074,0.098-0.162,0.127-0.267C40.772,20,40.787,19.886,40.787,19.763z"/>
			<path class="st15" d="M7.564,29.05h2.062v0.917H6.391v-0.378c0-0.257,0.042-0.487,0.126-0.691
				c0.083-0.204,0.188-0.388,0.315-0.55c0.126-0.162,0.265-0.306,0.415-0.431s0.293-0.237,0.429-0.338
				c0.143-0.105,0.268-0.205,0.375-0.301s0.198-0.191,0.271-0.285c0.073-0.095,0.128-0.19,0.164-0.287
				c0.036-0.098,0.055-0.2,0.055-0.311c0-0.215-0.059-0.377-0.177-0.486c-0.117-0.109-0.297-0.165-0.539-0.165
				c-0.418,0-0.818,0.172-1.2,0.515v-0.973c0.423-0.282,0.899-0.424,1.431-0.424c0.247,0,0.468,0.033,0.663,0.1
				s0.361,0.162,0.497,0.285c0.136,0.124,0.239,0.274,0.311,0.45c0.071,0.177,0.106,0.373,0.106,0.59
				c0,0.231-0.034,0.437-0.104,0.616c-0.068,0.18-0.16,0.343-0.274,0.49s-0.246,0.282-0.396,0.404
				c-0.148,0.123-0.304,0.241-0.464,0.355c-0.109,0.079-0.214,0.158-0.314,0.236s-0.189,0.155-0.266,0.231
				c-0.077,0.075-0.138,0.149-0.184,0.222C7.587,28.915,7.564,28.984,7.564,29.05z"/>
			<path class="st15" d="M13.869,28.297c0,0.247-0.042,0.479-0.126,0.693c-0.083,0.215-0.2,0.4-0.349,0.559
				c-0.149,0.157-0.327,0.281-0.533,0.371c-0.205,0.09-0.431,0.135-0.675,0.135c-0.273,0-0.519-0.053-0.734-0.158
				c-0.216-0.104-0.398-0.257-0.547-0.457c-0.149-0.199-0.264-0.443-0.343-0.733c-0.079-0.289-0.119-0.617-0.119-0.983
				c0-0.432,0.052-0.823,0.154-1.175c0.104-0.351,0.25-0.651,0.441-0.901c0.19-0.25,0.422-0.442,0.693-0.579
				s0.576-0.205,0.916-0.205c0.375,0,0.666,0.046,0.874,0.137v0.924c-0.246-0.145-0.515-0.217-0.807-0.217
				c-0.181,0-0.345,0.036-0.492,0.108c-0.146,0.072-0.272,0.175-0.378,0.309c-0.104,0.133-0.188,0.293-0.247,0.481
				c-0.061,0.188-0.093,0.396-0.097,0.628h0.021c0.23-0.329,0.57-0.493,1.021-0.493c0.201,0,0.383,0.037,0.546,0.111
				c0.163,0.075,0.302,0.181,0.417,0.317s0.205,0.301,0.268,0.491C13.837,27.851,13.869,28.063,13.869,28.297z M12.821,28.367
				c0-0.539-0.214-0.809-0.642-0.809c-0.097,0-0.186,0.019-0.265,0.056s-0.146,0.09-0.203,0.157c-0.057,0.068-0.1,0.147-0.131,0.24
				c-0.03,0.092-0.046,0.194-0.046,0.306c0,0.124,0.017,0.239,0.048,0.347s0.076,0.202,0.134,0.282s0.126,0.145,0.205,0.19
				c0.079,0.047,0.168,0.07,0.265,0.07c0.098,0,0.185-0.021,0.263-0.062c0.078-0.04,0.146-0.098,0.2-0.171
				c0.056-0.074,0.098-0.162,0.127-0.267C12.807,28.604,12.821,28.49,12.821,28.367z"/>
			<path class="st15" d="M17.328,24.946v3.165h0.583v0.826h-0.583v1.029h-0.977v-1.029h-2.12v-0.864
				c0.188-0.218,0.383-0.455,0.584-0.713s0.396-0.523,0.583-0.797c0.188-0.272,0.362-0.548,0.524-0.824
				c0.161-0.276,0.299-0.541,0.412-0.793H17.328z M15.191,28.111h1.16v-1.754c-0.079,0.151-0.165,0.305-0.258,0.46
				s-0.19,0.309-0.292,0.459s-0.204,0.296-0.309,0.438C15.39,27.855,15.289,27.987,15.191,28.111z"/>
			<path class="st15" d="M18.366,28.615c0-0.14,0.02-0.274,0.06-0.404c0.039-0.13,0.099-0.25,0.178-0.36
				c0.079-0.111,0.178-0.21,0.297-0.298c0.118-0.087,0.258-0.159,0.419-0.215c-0.247-0.126-0.438-0.288-0.573-0.485
				s-0.204-0.416-0.204-0.656c0-0.191,0.039-0.369,0.117-0.532s0.187-0.305,0.324-0.424s0.302-0.212,0.493-0.278
				s0.399-0.1,0.626-0.1c0.23,0,0.441,0.033,0.634,0.1s0.358,0.159,0.497,0.276c0.139,0.118,0.247,0.258,0.324,0.419
				c0.076,0.161,0.115,0.336,0.115,0.525c0,0.237-0.072,0.454-0.218,0.649c-0.145,0.194-0.345,0.354-0.6,0.481
				c0.158,0.056,0.297,0.127,0.417,0.215s0.221,0.188,0.302,0.3c0.081,0.111,0.143,0.233,0.184,0.365
				c0.04,0.132,0.061,0.27,0.061,0.411c0,0.215-0.042,0.41-0.125,0.587c-0.084,0.176-0.202,0.328-0.354,0.455
				c-0.153,0.127-0.335,0.226-0.546,0.296c-0.212,0.07-0.445,0.104-0.701,0.104c-0.251,0-0.481-0.034-0.693-0.103
				c-0.211-0.069-0.394-0.167-0.546-0.293s-0.271-0.276-0.357-0.453C18.409,29.022,18.366,28.828,18.366,28.615z M19.38,28.521
				c0,0.115,0.018,0.218,0.051,0.309c0.034,0.091,0.083,0.168,0.146,0.23c0.062,0.063,0.138,0.112,0.226,0.146
				c0.087,0.034,0.185,0.051,0.293,0.051c0.104,0,0.199-0.018,0.286-0.053c0.087-0.034,0.162-0.084,0.226-0.146
				c0.063-0.063,0.113-0.141,0.149-0.231s0.055-0.192,0.055-0.305c0-0.1-0.018-0.195-0.051-0.287
				c-0.034-0.091-0.083-0.169-0.146-0.236c-0.063-0.066-0.139-0.119-0.226-0.159c-0.087-0.039-0.185-0.06-0.293-0.06
				c-0.102,0-0.197,0.019-0.285,0.055s-0.164,0.088-0.227,0.154c-0.063,0.066-0.113,0.145-0.149,0.236
				C19.398,28.314,19.38,28.413,19.38,28.521z M19.529,26.298c0,0.089,0.016,0.172,0.046,0.25s0.071,0.146,0.124,0.203
				c0.052,0.058,0.113,0.103,0.185,0.135c0.071,0.033,0.146,0.049,0.226,0.049c0.081,0,0.157-0.016,0.227-0.049
				c0.07-0.032,0.132-0.078,0.186-0.137c0.053-0.058,0.095-0.126,0.125-0.203c0.03-0.076,0.046-0.159,0.046-0.248
				c0-0.091-0.015-0.176-0.044-0.254s-0.07-0.146-0.124-0.203c-0.053-0.057-0.115-0.102-0.187-0.135
				c-0.071-0.032-0.147-0.049-0.229-0.049c-0.086,0-0.165,0.017-0.236,0.051c-0.07,0.034-0.132,0.079-0.183,0.137
				c-0.051,0.057-0.091,0.125-0.119,0.203S19.529,26.209,19.529,26.298z"/>
			<path class="st7" d="M24.061,30.055c-1.158,0-1.736-0.84-1.736-2.518c0-0.87,0.156-1.534,0.47-1.99
				c0.312-0.456,0.767-0.685,1.361-0.685c1.13,0,1.695,0.854,1.695,2.56c0,0.85-0.154,1.5-0.463,1.953S24.637,30.055,24.061,30.055z
				 M24.107,25.706c-0.463,0-0.695,0.601-0.695,1.803c0,1.133,0.228,1.698,0.682,1.698c0.443,0,0.665-0.583,0.665-1.75
				S24.542,25.706,24.107,25.706z"/>
			<path class="st15" d="M27.54,29.05h2.062v0.917h-3.235v-0.378c0-0.257,0.042-0.487,0.126-0.691
				c0.083-0.204,0.188-0.388,0.315-0.55c0.126-0.162,0.265-0.306,0.415-0.431s0.293-0.237,0.429-0.338
				c0.143-0.105,0.268-0.205,0.375-0.301s0.198-0.191,0.271-0.285c0.073-0.095,0.128-0.19,0.164-0.287
				c0.036-0.098,0.055-0.2,0.055-0.311c0-0.215-0.059-0.377-0.177-0.486c-0.117-0.109-0.297-0.165-0.539-0.165
				c-0.418,0-0.818,0.172-1.2,0.515v-0.973c0.423-0.282,0.899-0.424,1.431-0.424c0.247,0,0.468,0.033,0.663,0.1
				s0.361,0.162,0.497,0.285c0.136,0.124,0.239,0.274,0.311,0.45c0.071,0.177,0.106,0.373,0.106,0.59
				c0,0.231-0.034,0.437-0.104,0.616c-0.068,0.18-0.16,0.343-0.274,0.49s-0.246,0.282-0.396,0.404
				c-0.148,0.123-0.304,0.241-0.464,0.355c-0.109,0.079-0.214,0.158-0.314,0.236s-0.189,0.155-0.266,0.231
				c-0.077,0.075-0.138,0.149-0.184,0.222C27.562,28.915,27.54,28.984,27.54,29.05z"/>
			<path class="st15" d="M30.562,29.837v-0.945c0.332,0.211,0.687,0.315,1.062,0.315c0.282,0,0.504-0.069,0.663-0.208
				s0.239-0.327,0.239-0.565c0-0.497-0.341-0.746-1.021-0.746c-0.251,0-0.541,0.02-0.868,0.06l0.183-2.801h2.574v0.903h-1.757
				l-0.067,1.005c0.174-0.014,0.324-0.021,0.45-0.021c0.5,0,0.892,0.136,1.174,0.406c0.282,0.271,0.424,0.635,0.424,1.093
				c0,0.506-0.168,0.92-0.505,1.241c-0.337,0.32-0.794,0.481-1.37,0.481C31.273,30.055,30.881,29.982,30.562,29.837z"/>
			<path class="st15" d="M37.84,28.297c0,0.247-0.042,0.479-0.126,0.693c-0.083,0.215-0.2,0.4-0.349,0.559
				c-0.149,0.157-0.327,0.281-0.533,0.371c-0.205,0.09-0.431,0.135-0.675,0.135c-0.273,0-0.519-0.053-0.734-0.158
				c-0.216-0.104-0.398-0.257-0.547-0.457c-0.149-0.199-0.264-0.443-0.343-0.733c-0.079-0.289-0.119-0.617-0.119-0.983
				c0-0.432,0.052-0.823,0.154-1.175c0.104-0.351,0.25-0.651,0.441-0.901c0.19-0.25,0.422-0.442,0.693-0.579
				s0.576-0.205,0.916-0.205c0.375,0,0.666,0.046,0.874,0.137v0.924c-0.246-0.145-0.515-0.217-0.807-0.217
				c-0.181,0-0.345,0.036-0.492,0.108c-0.146,0.072-0.272,0.175-0.378,0.309c-0.104,0.133-0.188,0.293-0.247,0.481
				c-0.061,0.188-0.093,0.396-0.097,0.628h0.021c0.23-0.329,0.57-0.493,1.021-0.493c0.201,0,0.383,0.037,0.546,0.111
				c0.163,0.075,0.302,0.181,0.417,0.317s0.205,0.301,0.268,0.491C37.808,27.851,37.84,28.063,37.84,28.297z M36.792,28.367
				c0-0.539-0.214-0.809-0.642-0.809c-0.097,0-0.186,0.019-0.265,0.056s-0.146,0.09-0.203,0.157c-0.057,0.068-0.1,0.147-0.131,0.24
				c-0.03,0.092-0.046,0.194-0.046,0.306c0,0.124,0.017,0.239,0.048,0.347s0.076,0.202,0.134,0.282s0.126,0.145,0.205,0.19
				c0.079,0.047,0.168,0.07,0.265,0.07c0.098,0,0.185-0.021,0.263-0.062c0.078-0.04,0.146-0.098,0.2-0.171
				c0.056-0.074,0.098-0.162,0.127-0.267C36.777,28.604,36.792,28.49,36.792,28.367z"/>
			<path class="st15" d="M40.892,24.834v5.133h-1.068v-3.886c-0.059,0.054-0.128,0.104-0.208,0.152s-0.166,0.091-0.256,0.129
				c-0.091,0.039-0.185,0.071-0.282,0.099c-0.097,0.026-0.193,0.046-0.288,0.058v-0.932c0.278-0.084,0.541-0.191,0.787-0.322
				c0.246-0.13,0.469-0.273,0.668-0.431H40.892z"/>
			<path class="st15" d="M9.819,34.188c-0.217,0.403-0.411,0.782-0.583,1.136s-0.323,0.702-0.455,1.047
				c-0.131,0.344-0.242,0.694-0.335,1.05c-0.093,0.356-0.169,0.739-0.228,1.15H7.1c0.063-0.39,0.146-0.766,0.251-1.127
				c0.104-0.362,0.225-0.713,0.361-1.053c0.137-0.339,0.288-0.67,0.454-0.992s0.342-0.637,0.527-0.945H6.435V33.55h3.385V34.188z"/>
			<path class="st15" d="M12.926,33.438v5.133h-1.068v-3.886c-0.059,0.054-0.128,0.104-0.208,0.152s-0.166,0.091-0.256,0.129
				c-0.091,0.039-0.185,0.071-0.282,0.099c-0.097,0.026-0.193,0.046-0.288,0.058V34.19c0.278-0.084,0.541-0.191,0.787-0.322
				c0.246-0.13,0.469-0.273,0.668-0.431H12.926z"/>
			<path class="st7" d="M17.328,33.55v3.165h0.583v0.826h-0.583v1.029h-0.977v-1.029h-2.12v-0.864
				c0.188-0.218,0.383-0.455,0.584-0.713s0.396-0.523,0.583-0.797c0.188-0.272,0.362-0.548,0.524-0.824
				c0.161-0.276,0.299-0.541,0.412-0.793H17.328z M15.191,36.715h1.16v-1.754c-0.079,0.151-0.165,0.305-0.258,0.46
				s-0.19,0.309-0.292,0.459s-0.204,0.296-0.309,0.438C15.39,36.459,15.289,36.591,15.191,36.715z"/>
			<path class="st15" d="M18.576,38.44v-0.945c0.332,0.211,0.687,0.315,1.062,0.315c0.282,0,0.504-0.069,0.663-0.208
				s0.239-0.327,0.239-0.565c0-0.497-0.341-0.746-1.021-0.746c-0.251,0-0.541,0.02-0.868,0.06l0.183-2.801h2.574v0.903h-1.757
				l-0.067,1.005c0.174-0.014,0.324-0.021,0.45-0.021c0.5,0,0.892,0.136,1.174,0.406c0.282,0.271,0.424,0.635,0.424,1.093
				c0,0.506-0.168,0.92-0.505,1.241c-0.337,0.32-0.794,0.481-1.37,0.481C19.288,38.658,18.896,38.586,18.576,38.44z"/>
			<path class="st15" d="M22.486,38.406v-0.963c0.326,0.245,0.706,0.367,1.14,0.367c0.273,0,0.486-0.061,0.64-0.182
				c0.152-0.122,0.229-0.291,0.229-0.508c0-0.225-0.095-0.396-0.283-0.519c-0.188-0.121-0.448-0.182-0.778-0.182h-0.451v-0.848
				h0.417c0.634,0,0.95-0.217,0.95-0.651c0-0.408-0.243-0.612-0.729-0.612c-0.325,0-0.642,0.108-0.949,0.325v-0.902
				c0.341-0.178,0.739-0.267,1.193-0.267c0.498,0,0.885,0.115,1.162,0.347c0.276,0.231,0.415,0.531,0.415,0.899
				c0,0.656-0.322,1.067-0.967,1.232v0.018c0.344,0.045,0.615,0.174,0.814,0.387c0.198,0.214,0.298,0.476,0.298,0.786
				c0,0.47-0.166,0.841-0.498,1.113c-0.332,0.273-0.791,0.41-1.377,0.41C23.209,38.658,22.801,38.574,22.486,38.406z"/>
			<path class="st15" d="M29.85,36.9c0,0.247-0.042,0.479-0.126,0.693c-0.083,0.215-0.2,0.4-0.349,0.559
				c-0.149,0.157-0.327,0.281-0.533,0.371c-0.205,0.09-0.431,0.135-0.675,0.135c-0.273,0-0.519-0.053-0.734-0.158
				c-0.216-0.104-0.398-0.257-0.547-0.457c-0.149-0.199-0.264-0.443-0.343-0.733c-0.079-0.289-0.119-0.617-0.119-0.983
				c0-0.432,0.052-0.823,0.154-1.175c0.104-0.351,0.25-0.651,0.441-0.901c0.19-0.25,0.422-0.442,0.693-0.579
				s0.576-0.205,0.916-0.205c0.375,0,0.666,0.046,0.874,0.137v0.924c-0.246-0.145-0.515-0.217-0.807-0.217
				c-0.181,0-0.345,0.036-0.492,0.108c-0.146,0.072-0.272,0.175-0.378,0.309c-0.104,0.133-0.188,0.293-0.247,0.481
				c-0.061,0.188-0.093,0.396-0.097,0.628h0.021c0.23-0.329,0.57-0.493,1.021-0.493c0.201,0,0.383,0.037,0.546,0.111
				c0.163,0.075,0.302,0.181,0.417,0.317s0.205,0.301,0.268,0.491C29.817,36.454,29.85,36.667,29.85,36.9z M28.802,36.971
				c0-0.539-0.214-0.809-0.642-0.809c-0.097,0-0.186,0.019-0.265,0.056s-0.146,0.09-0.203,0.157c-0.057,0.068-0.1,0.147-0.131,0.24
				c-0.03,0.092-0.046,0.194-0.046,0.306c0,0.124,0.017,0.239,0.048,0.347s0.076,0.202,0.134,0.282s0.126,0.145,0.205,0.19
				c0.079,0.047,0.168,0.07,0.265,0.07c0.098,0,0.185-0.021,0.263-0.062c0.078-0.04,0.146-0.098,0.2-0.171
				c0.056-0.074,0.098-0.162,0.127-0.267C28.787,37.208,28.802,37.094,28.802,36.971z"/>
			<path class="st15" d="M30.352,37.219c0-0.14,0.02-0.274,0.06-0.404c0.039-0.13,0.099-0.25,0.178-0.36
				c0.079-0.111,0.178-0.21,0.297-0.298c0.118-0.087,0.258-0.159,0.419-0.215c-0.247-0.126-0.438-0.288-0.573-0.485
				s-0.204-0.416-0.204-0.656c0-0.191,0.039-0.369,0.117-0.532s0.187-0.305,0.324-0.424s0.302-0.212,0.493-0.278
				s0.399-0.1,0.626-0.1c0.23,0,0.441,0.033,0.634,0.1s0.358,0.159,0.497,0.276c0.139,0.118,0.247,0.258,0.324,0.419
				c0.076,0.161,0.115,0.336,0.115,0.525c0,0.237-0.072,0.454-0.218,0.649c-0.145,0.194-0.345,0.354-0.6,0.481
				c0.158,0.056,0.297,0.127,0.417,0.215s0.221,0.188,0.302,0.3c0.081,0.111,0.143,0.233,0.184,0.365
				c0.04,0.132,0.061,0.27,0.061,0.411c0,0.215-0.042,0.41-0.125,0.587c-0.084,0.176-0.202,0.328-0.354,0.455
				c-0.153,0.127-0.335,0.226-0.546,0.296c-0.212,0.07-0.445,0.104-0.701,0.104c-0.251,0-0.481-0.034-0.693-0.103
				c-0.211-0.069-0.394-0.167-0.546-0.293s-0.271-0.276-0.357-0.453C30.395,37.626,30.352,37.432,30.352,37.219z M31.365,37.124
				c0,0.115,0.018,0.218,0.051,0.309c0.034,0.091,0.083,0.168,0.146,0.23c0.062,0.063,0.138,0.112,0.226,0.146
				c0.087,0.034,0.185,0.051,0.293,0.051c0.104,0,0.199-0.018,0.286-0.053c0.087-0.034,0.162-0.084,0.226-0.146
				c0.063-0.063,0.113-0.141,0.149-0.231s0.055-0.192,0.055-0.305c0-0.1-0.018-0.195-0.051-0.287
				c-0.034-0.091-0.083-0.169-0.146-0.236c-0.063-0.066-0.139-0.119-0.226-0.159c-0.087-0.039-0.185-0.06-0.293-0.06
				c-0.102,0-0.197,0.019-0.285,0.055s-0.164,0.088-0.227,0.154c-0.063,0.066-0.113,0.145-0.149,0.236
				C31.384,36.918,31.365,37.017,31.365,37.124z M31.515,34.901c0,0.089,0.016,0.172,0.046,0.25s0.071,0.146,0.124,0.203
				c0.052,0.058,0.113,0.103,0.185,0.135c0.071,0.033,0.146,0.049,0.226,0.049c0.081,0,0.157-0.016,0.227-0.049
				c0.07-0.032,0.132-0.078,0.186-0.137c0.053-0.058,0.095-0.126,0.125-0.203c0.03-0.076,0.046-0.159,0.046-0.248
				c0-0.091-0.015-0.176-0.044-0.254s-0.07-0.146-0.124-0.203c-0.053-0.057-0.115-0.102-0.187-0.135
				c-0.071-0.032-0.147-0.049-0.229-0.049c-0.086,0-0.165,0.017-0.236,0.051c-0.07,0.034-0.132,0.079-0.183,0.137
				c-0.051,0.057-0.091,0.125-0.119,0.203S31.515,34.812,31.515,34.901z"/>
			<path class="st15" d="M37.785,34.188c-0.217,0.403-0.411,0.782-0.583,1.136s-0.323,0.702-0.455,1.047
				c-0.131,0.344-0.242,0.694-0.335,1.05c-0.093,0.356-0.169,0.739-0.228,1.15h-1.119c0.063-0.39,0.146-0.766,0.251-1.127
				c0.104-0.362,0.225-0.713,0.361-1.053c0.137-0.339,0.288-0.67,0.454-0.992s0.342-0.637,0.527-0.945H34.4V33.55h3.385V34.188z"/>
			<path class="st15" d="M40.041,38.658c-1.158,0-1.736-0.84-1.736-2.518c0-0.87,0.156-1.534,0.47-1.99
				c0.312-0.456,0.767-0.685,1.361-0.685c1.13,0,1.695,0.854,1.695,2.56c0,0.85-0.154,1.5-0.463,1.953S40.617,38.658,40.041,38.658z
				 M40.088,34.31c-0.463,0-0.695,0.601-0.695,1.803c0,1.133,0.228,1.698,0.682,1.698c0.443,0,0.665-0.583,0.665-1.75
				S40.522,34.31,40.088,34.31z"/>
		</g>
	</g>
</g>
<g id="remote_x5F_mysql">
</g>
<g id="addon_x5F_domains">
</g>
<g id="mysql_x5F_database_x5F_wizard">
</g>
<g id="multiphp_x5F_ini_x5F_editor">
</g>
</svg>
