<?xml version="1.0" encoding="utf-8"?>
<!-- Generator: Adobe Illustrator 21.1.0, SVG Export Plug-In . SVG Version: 6.00 Build 0)  -->
<svg version="1.1" xmlns="http://www.w3.org/2000/svg" xmlns:xlink="http://www.w3.org/1999/xlink" x="0px" y="0px"
	 viewBox="0 0 48 48" style="enable-background:new 0 0 48 48;" xml:space="preserve">
<style type="text/css">
	.st0{fill:#E0E0E0;}
	.st1{fill:#262626;}
	.st2{fill:#4F5B94;}
	.st3{fill:#15587C;}
	.st4{fill:none;}
	.st5{fill:#BCBCBC;}
	.st6{fill:#FFFFFF;}
	.st7{fill:#D34231;}
	.st8{fill:#666666;}
	.st9{fill:#EDA72B;}
	.st10{fill:#25323C;}
	.st11{fill:#336792;}
	.st12{fill:#32415B;}
	.st13{fill:#84B556;}
	.st14{fill:#6A9638;}
	.st15{fill:#189BD8;}
	.st16{fill:#BA342A;}
	.st17{fill:#FF6C2C;}
	.st18{fill:#8892BF;}
	.st19{fill:#FFFFFF;stroke:#FFFFFF;stroke-width:0.25;stroke-miterlimit:10;}
	.st20{fill:#FFFFFF;stroke:#FFFFFF;stroke-miterlimit:10;}
	.st21{fill:#FF6A1A;}
	.st22{fill:#00AA17;}
	.st23{fill:#FA741D;}
	.st24{fill:none;stroke:#15587C;stroke-miterlimit:10;}
	.st25{fill:none;stroke:#15587C;stroke-width:1.5;stroke-miterlimit:10;}
	.st26{fill:none;stroke:#BA342A;stroke-width:5;stroke-miterlimit:10;}
	.st27{fill:#000004;}
	.st28{fill:#000004;stroke:#FFFFFF;stroke-width:0.5;stroke-miterlimit:10;}
	.st29{fill:#017F00;}
	.st30{fill:none;stroke:#BCBCBC;stroke-miterlimit:10;}
	.st31{fill:#39FF2A;}
	.st32{fill:#FF00B3;}
	.st33{fill:#4DFF00;}
	.st34{fill:#FFFFFF;stroke:#FFFFFF;stroke-width:1.5;stroke-miterlimit:10;}
	.st35{fill:#FFFFFF;stroke:#FFFFFF;stroke-width:0.5;stroke-miterlimit:10;}
	.st36{fill:#FFFFFF;stroke:#BCBCBC;stroke-miterlimit:10;}
</style>
<g id="Layer_1">
	<g>
		<g>
			<polygon class="st4" points="7.358,47.968 23.46,47.968 23.513,47.929 			"/>
			<path class="st5" d="M28.398,2.199c0,0-4.14-2.968-8.525,0L0.397,17.164L0,17.469c0,0.432,0,28.058,0,28.058
				s0.088,0.493,0.397,1.029c0.363,0.629,1.033,1.316,2.282,1.346c0.432,0.01,2.182,0.016,4.741,0.02l16.742-12.564
				C17.105,29.866,5.077,20.503,4.805,20.275L21.622,6.677c2.795-2.374,5.397,0,5.397,0l17.346,13.519l3.601-2.702l0-0.026
				L28.398,2.199z"/>
			<path class="st6" d="M27.019,6.677c0,0-2.602-2.374-5.397,0L4.805,20.275c0.272,0.228,12.3,9.591,19.357,15.083l20.203-15.161
				L27.019,6.677z"/>
			<path class="st0" d="M23.522,47.922l-0.01,0.007l4.278-0.01C26.382,47.92,24.953,47.921,23.522,47.922L23.522,47.922z"/>
			<path class="st0" d="M23.523,47.922c-6.056,0.004-12.079,0.005-16.102-0.001l-0.062,0.047l16.155-0.039L23.523,47.922
				L23.523,47.922z"/>
			<polygon class="st0" points="47.966,17.495 47.938,30.311 47.969,30.289 47.983,30.16 48,17.469 			"/>
			<path class="st0" d="M47.983,30.16l-0.014,0.13l-0.03,0.022l0.027-12.816l-3.601,2.702L24.162,35.357L7.42,47.921l38.36,0.047
				c0,0,0.591,0.005,1.155-0.404c0.038-0.026,0.062-0.044,0.09-0.067c0.01-0.009,0.021-0.016,0.031-0.025
				c0.066-0.054,0.109-0.096,0.109-0.096c0.017-0.014,0.028-0.035,0.044-0.051c0.031-0.032,0.06-0.068,0.09-0.103
				c0.095-0.108,0.177-0.226,0.246-0.359c0.022-0.04,0.045-0.081,0.066-0.124c0.021-0.046,0.041-0.091,0.059-0.139
				c0.091-0.218,0.161-0.471,0.207-0.764c0.002-0.013,0.004-0.025,0.006-0.038c0.01-0.07,0.021-0.139,0.028-0.213
				c0.054-0.438,0.049-0.778,0.049-0.778l0.015-10.733L47.983,30.16z"/>
		</g>
		<g>
			<g>
				<path class="st4" d="M26.127,16.912l0.144,0.063c0.697-0.947,1.434-1.85,2.195-2.642l-0.144,0.012
					C27.74,14.929,26.999,15.758,26.127,16.912z"/>
				<path class="st4" d="M21.79,23.849l0.222,0.112c0.833-1.605,2.063-3.817,3.515-5.936l-0.104-0.148
					C24.358,19.384,23.134,21.336,21.79,23.849z"/>
				<path class="st2" d="M20.857,26.308l0.121,0.069c2.685,0.224,3.121-0.758,3.121-0.758c-0.242,0.138-0.774-0.034-0.774-0.034
					c1.21-0.207,1.984-1.482,1.984-1.482c-1.741,0.923-2.584,0.688-2.813,0.586H21.64C21.139,25.683,20.857,26.308,20.857,26.308z"
					/>
				<path class="st9" d="M30.243,11.863c-0.556-0.276-1.621,0.586-1.621,0.586s-0.266,0.167-0.779,0.597
					c-0.084,0.07-0.174,0.147-0.271,0.232l0.75,1.067c0.431-0.432,0.774-0.729,1.02-0.924c0.288-0.229,0.441-0.317,0.441-0.317
					c-0.129,0.106-0.258,0.217-0.386,0.331c-0.313,0.278-0.624,0.579-0.931,0.898l2.876-0.238c0.004-0.014,0.009-0.029,0.013-0.043
					c0.012-0.04,0.023-0.08,0.032-0.119C31.787,12.323,30.243,11.863,30.243,11.863z"/>
				<path class="st17" d="M27.572,13.279c-0.672,0.588-1.659,1.535-2.934,2.982c-0.065,0.074-0.131,0.149-0.197,0.225l0.982,1.392
					c0.243-0.345,0.479-0.666,0.705-0.965c0.872-1.154,1.613-1.983,2.195-2.567L27.572,13.279z"/>
				<path class="st17" d="M28.466,14.334c-0.761,0.792-1.498,1.695-2.195,2.642c-0.254,0.345-0.503,0.696-0.745,1.05l0,0
					l2.612-0.232C29.033,17.534,29.541,17,29.541,17s1.284-1.22,1.801-2.904L28.466,14.334z"/>
				<path class="st16" d="M24.44,16.485c-0.3,0.345-0.616,0.717-0.947,1.118c-1.905,2.308-2.723,4.286-3.074,5.551
					c-0.02,0.072-0.039,0.142-0.056,0.21l1.036,1.222c0.131-0.251,0.261-0.497,0.39-0.738c1.344-2.513,2.568-4.465,3.633-5.971
					L24.44,16.485z"/>
				<path class="st16" d="M28.38,19.103c0.895-0.741,1.064-1.638,1.064-1.638c-0.653,0.345-1.306,0.328-1.306,0.328l-2.612,0.232
					l0,0c-1.452,2.119-2.682,4.331-3.515,5.936c-0.134,0.259-0.258,0.502-0.371,0.727h0.855c-0.045-0.02-0.066-0.034-0.066-0.034
					c0.256-0.023,0.5-0.06,0.733-0.109c3.537-0.737,4.516-4.166,4.516-4.166c-0.774,0.276-1.016,0.207-1.016,0.207
					c1.379-0.362,1.863-1.293,1.863-1.293c-0.532,0.31-1.33,0.379-1.33,0.379C28.065,19.396,28.38,19.103,28.38,19.103z"/>
				<path class="st2" d="M21.4,24.587l-1.036-1.222c-0.205,0.807-0.209,1.272-0.209,1.272c-0.581-0.552-1.258-0.672-1.258-0.672
					c1.137,1,1.137,1.827,1.137,1.827c-1.185,0.19-1.621,0.845-1.621,0.845c1.645-0.414,1.742-0.224,1.742-0.224
					c-0.225,0.341-0.586,1.096-0.942,1.892c0.009,0.034,0.028,0.057,0.065,0.055c0.079-0.006,0.243-0.103,0.356-0.174
					c0.459-0.985,0.851-1.788,0.851-1.788C20.795,25.764,21.1,25.162,21.4,24.587z"/>
				<path class="st2" d="M19.278,28.358c-0.036,0.003-0.056-0.02-0.065-0.055c-0.123,0.273-0.245,0.552-0.361,0.819
					c0.011,0.032,0.034,0.053,0.077,0.047c0.059-0.008,0.172-0.042,0.287-0.081c0.139-0.307,0.281-0.614,0.417-0.906
					C19.521,28.255,19.356,28.352,19.278,28.358z"/>
			</g>
			<g>
				<path class="st10" d="M31.539,15.803h-0.197v0.582h-0.155v-0.582H30.99v-0.131h0.549V15.803z"/>
				<path class="st10" d="M32.419,16.385h-0.153v-0.427c0-0.046,0.002-0.097,0.006-0.152h-0.004
					c-0.008,0.044-0.016,0.075-0.021,0.095l-0.162,0.484h-0.127l-0.165-0.479c-0.005-0.013-0.012-0.046-0.021-0.1h-0.005
					c0.004,0.07,0.007,0.132,0.007,0.185v0.395h-0.14v-0.713h0.227l0.142,0.423c0.011,0.033,0.02,0.067,0.024,0.102h0.003
					c0.009-0.039,0.019-0.073,0.027-0.103l0.142-0.422h0.222V16.385z"/>
			</g>
		</g>
	</g>
</g>
<g id="remote_x5F_mysql">
</g>
<g id="addon_x5F_domains">
</g>
<g id="mysql_x5F_database_x5F_wizard">
</g>
<g id="multiphp_x5F_ini_x5F_editor">
</g>
</svg>
