<?xml version="1.0" encoding="utf-8"?>
<!-- Generator: Adobe Illustrator 21.1.0, SVG Export Plug-In . SVG Version: 6.00 Build 0)  -->
<svg version="1.1" xmlns="http://www.w3.org/2000/svg" xmlns:xlink="http://www.w3.org/1999/xlink" x="0px" y="0px"
	 viewBox="0 0 48 48" style="enable-background:new 0 0 48 48;" xml:space="preserve">
<style type="text/css">
	.st0{fill:#E0E0E0;}
	.st1{fill:#262626;}
	.st2{fill:#4F5B94;}
	.st3{fill:#15587C;}
	.st4{fill:none;}
	.st5{fill:#BCBCBC;}
	.st6{fill:#FFFFFF;}
	.st7{fill:#D34231;}
	.st8{fill:#666666;}
	.st9{fill:#EDA72B;}
	.st10{fill:#25323C;}
	.st11{fill:#336792;}
	.st12{fill:#32415B;}
	.st13{fill:#84B556;}
	.st14{fill:#6A9638;}
	.st15{fill:#189BD8;}
	.st16{fill:#BA342A;}
	.st17{fill:#FF6C2C;}
	.st18{fill:#8892BF;}
	.st19{fill:#FFFFFF;stroke:#FFFFFF;stroke-width:0.25;stroke-miterlimit:10;}
	.st20{fill:#FFFFFF;stroke:#FFFFFF;stroke-miterlimit:10;}
	.st21{fill:#FF6A1A;}
	.st22{fill:#00AA17;}
	.st23{fill:#FA741D;}
	.st24{fill:none;stroke:#15587C;stroke-miterlimit:10;}
	.st25{fill:none;stroke:#15587C;stroke-width:1.5;stroke-miterlimit:10;}
	.st26{fill:none;stroke:#BA342A;stroke-width:5;stroke-miterlimit:10;}
	.st27{fill:#000004;}
	.st28{fill:#000004;stroke:#FFFFFF;stroke-width:0.5;stroke-miterlimit:10;}
	.st29{fill:#017F00;}
	.st30{fill:none;stroke:#BCBCBC;stroke-miterlimit:10;}
	.st31{fill:#39FF2A;}
	.st32{fill:#FF00B3;}
	.st33{fill:#4DFF00;}
	.st34{fill:#FFFFFF;stroke:#FFFFFF;stroke-width:1.5;stroke-miterlimit:10;}
	.st35{fill:#FFFFFF;stroke:#FFFFFF;stroke-width:0.5;stroke-miterlimit:10;}
	.st36{fill:#FFFFFF;stroke:#BCBCBC;stroke-miterlimit:10;}
</style>
<g id="Layer_1">
	<g>
		<path class="st5" d="M44.904,42.914H2.975c-1.71,0-3.096-1.386-3.096-3.096V9.096C-0.121,7.386,1.265,6,2.975,6h41.929
			C46.614,6,48,7.386,48,9.096v30.722C48,41.528,46.614,42.914,44.904,42.914z"/>
		<path class="st10" d="M42.963,37.593H4.917c-1.335,0-2.416-1.082-2.416-2.416V11.422c0-1.335,1.082-2.416,2.416-2.416h38.046
			c1.335,0,2.416,1.082,2.416,2.416v23.754C45.379,36.511,44.297,37.593,42.963,37.593z"/>
		<path class="st8" d="M29.498,41.356H18.381c-0.589,0-1.067-0.478-1.067-1.067v-0.097c0-0.589,0.478-1.067,1.067-1.067h11.117
			c0.589,0,1.067,0.478,1.067,1.067v0.097C30.565,40.878,30.087,41.356,29.498,41.356z"/>
		<g>
			<path class="st20" d="M17.453,23.91l-5.781,2.723v-1.515l4.135-1.706v-0.025l-4.135-1.827v-1.521l5.781,2.838V23.91z"/>
		</g>
		<g>
			<path class="st21" d="M27.836,19.491h-3.537c0,0-4.407,0.455-4.288,4.782c0,0-0.119,3.142,3.142,4.17
				c0,0,0.336,0.119,0.632,0.158c0.296,0.04,1.581,0,1.581,0l0.672-2.213c0,0,0.237-0.593-0.455-0.711l-1.443,0.04
				c0,0-1.166-0.239-1.166-1.661c0,0-0.119-1.004,1.166-1.499h2.055c0,0,0.85,0.074,1.146-0.843L27.836,19.491z"/>
			<path class="st21" d="M25.959,28.619l2.933-10.926c0,0,0.15-1.047,1.119-1.146h3.854c0,0,3.676,0.402,3.933,4.351
				c0,0,0.336,3.574-3.478,4.779l-3.893,0.059l0.534-2.035c0,0,0.146-0.87,0.923-0.909c0.777-0.039,1.528,0,1.528,0
				s1.383-0.135,1.423-1.599c0.04-1.464-1.423-1.602-1.423-1.602l-1.838-0.02l-2.174,8.162c0,0-0.198,0.865-1.067,0.887
				C27.461,28.641,25.959,28.619,25.959,28.619z"/>
		</g>
	</g>
</g>
<g id="remote_x5F_mysql">
</g>
<g id="addon_x5F_domains">
</g>
<g id="mysql_x5F_database_x5F_wizard">
</g>
<g id="multiphp_x5F_ini_x5F_editor">
</g>
</svg>
