<?xml version="1.0" encoding="utf-8"?>
<!-- Generator: Adobe Illustrator 21.1.0, SVG Export Plug-In . SVG Version: 6.00 Build 0)  -->
<svg version="1.1" xmlns="http://www.w3.org/2000/svg" xmlns:xlink="http://www.w3.org/1999/xlink" x="0px" y="0px"
	 viewBox="0 0 48 48" style="enable-background:new 0 0 48 48;" xml:space="preserve">
<style type="text/css">
	.st0{fill:#E0E0E0;}
	.st1{fill:#262626;}
	.st2{fill:#4F5B94;}
	.st3{fill:#15587C;}
	.st4{fill:none;}
	.st5{fill:#BCBCBC;}
	.st6{fill:#FFFFFF;}
	.st7{fill:#D34231;}
	.st8{fill:#666666;}
	.st9{fill:#EDA72B;}
	.st10{fill:#25323C;}
	.st11{fill:#336792;}
	.st12{fill:#32415B;}
	.st13{fill:#84B556;}
	.st14{fill:#6A9638;}
	.st15{fill:#189BD8;}
	.st16{fill:#BA342A;}
	.st17{fill:#FF6C2C;}
	.st18{fill:#8892BF;}
	.st19{fill:#FFFFFF;stroke:#FFFFFF;stroke-width:0.25;stroke-miterlimit:10;}
	.st20{fill:#FFFFFF;stroke:#FFFFFF;stroke-miterlimit:10;}
	.st21{fill:#FF6A1A;}
	.st22{fill:#00AA17;}
	.st23{fill:#FA741D;}
	.st24{fill:none;stroke:#15587C;stroke-miterlimit:10;}
	.st25{fill:none;stroke:#15587C;stroke-width:1.5;stroke-miterlimit:10;}
	.st26{fill:none;stroke:#BA342A;stroke-width:5;stroke-miterlimit:10;}
	.st27{fill:#000004;}
	.st28{fill:#000004;stroke:#FFFFFF;stroke-width:0.5;stroke-miterlimit:10;}
	.st29{fill:#017F00;}
	.st30{fill:none;stroke:#BCBCBC;stroke-miterlimit:10;}
	.st31{fill:#39FF2A;}
	.st32{fill:#FF00B3;}
	.st33{fill:#4DFF00;}
	.st34{fill:#FFFFFF;stroke:#FFFFFF;stroke-width:1.5;stroke-miterlimit:10;}
	.st35{fill:#FFFFFF;stroke:#FFFFFF;stroke-width:0.5;stroke-miterlimit:10;}
	.st36{fill:#FFFFFF;stroke:#BCBCBC;stroke-miterlimit:10;}
</style>
<g id="Layer_1">
	<circle class="st12" cx="24" cy="24" r="24"/>
	<path class="st5" d="M22.746,19.129l1.596-1.024L11.261,9.707c-0.302,0.251-0.499,0.625-0.499,1.048v14.698
		c0,0.424,0.197,0.797,0.499,1.048L22.746,19.129L22.746,19.129z"/>
	<path class="st0" d="M37.422,9.707c-0.237-0.197-0.538-0.32-0.87-0.32H12.131c-0.332,0-0.633,0.123-0.87,0.32l13.081,8.397
		L37.422,9.707z"/>
	<path class="st5" d="M37.422,9.707l-13.081,8.397l13.081,8.397c0.302-0.251,0.499-0.625,0.499-1.048v-6.711v-7.987
		C37.921,10.332,37.725,9.958,37.422,9.707z"/>
	<path class="st0" d="M24.342,18.105l-1.596,1.024l0,0l-11.485,7.373c0.237,0.197,0.538,0.32,0.87,0.32h8.78h6.862h8.78
		c0.332,0,0.633-0.123,0.87-0.32L24.342,18.105z"/>
	<polygon class="st9" points="10.762,15.793 10.762,12.092 6.192,20.741 8.477,20.741 	"/>
	<polygon class="st17" points="10.762,20.741 10.762,15.793 8.477,20.741 	"/>
	<polygon class="st9" points="42.491,20.741 37.921,12.092 37.921,15.793 40.206,20.741 	"/>
	<polygon class="st17" points="37.921,15.793 37.921,20.741 40.206,20.741 	"/>
	<path class="st9" d="M42.491,20.741h-2.285h-2.285h-5.819c0,0,0,1.851,0,4.004s-1.775,1.813-1.775,1.813s-10.689,0.038-12.048,0
		c-1.36-0.038-1.662-1.095-1.662-1.095v-4.721h-5.854H8.477H6.192v13.748c0.302,1.133,1.435,1.171,1.435,1.171
		s32.481,0.151,33.652,0c1.171-0.151,1.211-1.284,1.211-1.284L42.491,20.741z"/>
</g>
<g id="remote_x5F_mysql">
</g>
<g id="addon_x5F_domains">
</g>
<g id="mysql_x5F_database_x5F_wizard">
</g>
<g id="multiphp_x5F_ini_x5F_editor">
</g>
</svg>
