<?xml version="1.0" encoding="utf-8"?>
<!-- Generator: Adobe Illustrator 21.1.0, SVG Export Plug-In . SVG Version: 6.00 Build 0)  -->
<svg version="1.1" xmlns="http://www.w3.org/2000/svg" xmlns:xlink="http://www.w3.org/1999/xlink" x="0px" y="0px"
	 viewBox="0 0 48 48" style="enable-background:new 0 0 48 48;" xml:space="preserve">
<style type="text/css">
	.st0{fill:#E0E0E0;}
	.st1{fill:#262626;}
	.st2{fill:#4F5B94;}
	.st3{fill:#15587C;}
	.st4{fill:none;}
	.st5{fill:#BCBCBC;}
	.st6{fill:#FFFFFF;}
	.st7{fill:#D34231;}
	.st8{fill:#666666;}
	.st9{fill:#EDA72B;}
	.st10{fill:#25323C;}
	.st11{fill:#336792;}
	.st12{fill:#32415B;}
	.st13{fill:#84B556;}
	.st14{fill:#6A9638;}
	.st15{fill:#189BD8;}
	.st16{fill:#BA342A;}
	.st17{fill:#FF6C2C;}
	.st18{fill:#8892BF;}
	.st19{fill:#FFFFFF;stroke:#FFFFFF;stroke-width:0.25;stroke-miterlimit:10;}
	.st20{fill:#FFFFFF;stroke:#FFFFFF;stroke-miterlimit:10;}
	.st21{fill:#FF6A1A;}
	.st22{fill:#00AA17;}
	.st23{fill:#FA741D;}
	.st24{fill:none;stroke:#15587C;stroke-miterlimit:10;}
	.st25{fill:none;stroke:#15587C;stroke-width:1.5;stroke-miterlimit:10;}
	.st26{fill:none;stroke:#BA342A;stroke-width:5;stroke-miterlimit:10;}
	.st27{fill:#000004;}
	.st28{fill:#000004;stroke:#FFFFFF;stroke-width:0.5;stroke-miterlimit:10;}
	.st29{fill:#017F00;}
	.st30{fill:none;stroke:#BCBCBC;stroke-miterlimit:10;}
	.st31{fill:#39FF2A;}
	.st32{fill:#FF00B3;}
	.st33{fill:#4DFF00;}
	.st34{fill:#FFFFFF;stroke:#FFFFFF;stroke-width:1.5;stroke-miterlimit:10;}
	.st35{fill:#FFFFFF;stroke:#FFFFFF;stroke-width:0.5;stroke-miterlimit:10;}
	.st36{fill:#FFFFFF;stroke:#BCBCBC;stroke-miterlimit:10;}
</style>
<g id="Layer_1">
	<path class="st5" d="M46.812,41.934H1.201c-0.653,0-1.188-0.534-1.188-1.188V5.214c0-0.653,0.534-1.188,1.188-1.188h45.611
		C47.466,4.026,48,4.56,48,5.214v35.533C48,41.4,47.466,41.934,46.812,41.934z"/>
	<path class="st0" d="M44.161,39.751H3.852c-0.688,0-1.25-0.562-1.25-1.25V13.818c0-0.688,0.562-1.25,1.25-1.25h40.309
		c0.688,0,1.25,0.562,1.25,1.25v24.683C45.411,39.189,44.849,39.751,44.161,39.751z"/>
	<path class="st10" d="M4.136,9.905h-0.37c-0.691,0-1.256-0.565-1.256-1.256v-0.37c0-0.691,0.565-1.256,1.256-1.256h0.37
		c0.691,0,1.256,0.565,1.256,1.256v0.37C5.392,9.34,4.827,9.905,4.136,9.905z"/>
	<path class="st10" d="M9.278,9.905h-0.37c-0.691,0-1.256-0.565-1.256-1.256v-0.37c0-0.691,0.565-1.256,1.256-1.256h0.37
		c0.691,0,1.256,0.565,1.256,1.256v0.37C10.535,9.34,9.969,9.905,9.278,9.905z"/>
	<path class="st10" d="M14.421,9.905h-0.37c-0.691,0-1.256-0.565-1.256-1.256v-0.37c0-0.691,0.565-1.256,1.256-1.256h0.37
		c0.691,0,1.256,0.565,1.256,1.256v0.37C15.677,9.34,15.112,9.905,14.421,9.905z"/>
	<path class="st2" d="M42.692,14.954l-0.115-0.117c-0.428-0.435-1.127-0.44-1.562-0.012L29.722,25.943l-6.186-7.092
		c-0.326-0.374-0.844-0.459-1.275-0.268c-0.166,0.05-0.326,0.126-0.458,0.257L5.188,35.197c-0.435,0.428-0.44,1.127-0.012,1.562
		l0.115,0.117c0.428,0.435,1.127,0.44,1.561,0.012l15.747-15.502l6.166,7.069c0.226,0.259,0.544,0.372,0.863,0.363
		c0.309,0.025,0.624-0.067,0.862-0.301l12.19-12.001C43.114,16.088,43.12,15.388,42.692,14.954z"/>
	<polygon class="st10" points="42.975,32.291 39.784,29.206 39.784,31.227 4.892,31.227 4.892,33.354 39.784,33.354 39.784,35.429 	
		"/>
</g>
<g id="remote_x5F_mysql">
</g>
<g id="addon_x5F_domains">
</g>
<g id="mysql_x5F_database_x5F_wizard">
</g>
<g id="multiphp_x5F_ini_x5F_editor">
</g>
</svg>
