<?xml version="1.0" encoding="utf-8"?>
<!-- Generator: Adobe Illustrator 21.1.0, SVG Export Plug-In . SVG Version: 6.00 Build 0)  -->
<svg version="1.1" xmlns="http://www.w3.org/2000/svg" xmlns:xlink="http://www.w3.org/1999/xlink" x="0px" y="0px"
	 viewBox="0 0 48 48" style="enable-background:new 0 0 48 48;" xml:space="preserve">
<style type="text/css">
	.st0{fill:#E0E0E0;}
	.st1{fill:#262626;}
	.st2{fill:#4F5B94;}
	.st3{fill:#15587C;}
	.st4{fill:none;}
	.st5{fill:#BCBCBC;}
	.st6{fill:#FFFFFF;}
	.st7{fill:#D34231;}
	.st8{fill:#666666;}
	.st9{fill:#EDA72B;}
	.st10{fill:#25323C;}
	.st11{fill:#336792;}
	.st12{fill:#32415B;}
	.st13{fill:#84B556;}
	.st14{fill:#6A9638;}
	.st15{fill:#189BD8;}
	.st16{fill:#BA342A;}
	.st17{fill:#FF6C2C;}
	.st18{fill:#8892BF;}
	.st19{fill:#FFFFFF;stroke:#FFFFFF;stroke-width:0.25;stroke-miterlimit:10;}
	.st20{fill:#FFFFFF;stroke:#FFFFFF;stroke-miterlimit:10;}
	.st21{fill:#FF6A1A;}
	.st22{fill:#00AA17;}
	.st23{fill:#FA741D;}
	.st24{fill:none;stroke:#15587C;stroke-miterlimit:10;}
	.st25{fill:none;stroke:#15587C;stroke-width:1.5;stroke-miterlimit:10;}
	.st26{fill:none;stroke:#BA342A;stroke-width:5;stroke-miterlimit:10;}
	.st27{fill:#000004;}
	.st28{fill:#000004;stroke:#FFFFFF;stroke-width:0.5;stroke-miterlimit:10;}
	.st29{fill:#017F00;}
	.st30{fill:none;stroke:#BCBCBC;stroke-miterlimit:10;}
	.st31{fill:#39FF2A;}
	.st32{fill:#FF00B3;}
	.st33{fill:#4DFF00;}
	.st34{fill:#FFFFFF;stroke:#FFFFFF;stroke-width:1.5;stroke-miterlimit:10;}
	.st35{fill:#FFFFFF;stroke:#FFFFFF;stroke-width:0.5;stroke-miterlimit:10;}
	.st36{fill:#FFFFFF;stroke:#BCBCBC;stroke-miterlimit:10;}
</style>
<g id="Layer_1">
	<circle class="st8" cx="36.641" cy="35.989" r="9.678"/>
	<path class="st9" d="M43.048,35.958c0.265-0.966,0.36-2.14,0.36-2.14c0.038-1.761-0.852-3.333-0.852-3.333
		c-1.136-2.197-4.09-2.632-4.09-2.632s-5.094-0.89-7.442,1.647c-2.348,2.537-1.155,6.192-1.155,6.192s0.076,0.322,0.36,0.265
		c0.284-0.057,0.284-0.36,0.284-0.36c-0.17-0.644-0.265-1.288-0.265-1.288c-0.284-2.67,0.72-3.806,0.72-3.806
		c1.098-1.761,4.052-2.083,4.052-2.083s1.155-0.265,3.106,0.038c1.95,0.303,3.049,1.363,3.049,1.363s0.739,0.644,1.212,1.988
		c0.473,1.345,0.284,4.071,0.057,4.147c-0.227,0.076-0.417,0.682-0.417,0.682l-0.398,1.969l-0.739,0.739
		c-0.985,0.814-1.591,1.041-2.064,1.231c-0.399,0.16-1.188,0.306-1.426,0.348c-0.124-0.399-0.496-0.689-0.936-0.689
		c-0.541,0-0.98,0.439-0.98,0.98c0,0.541,0.439,0.98,0.98,0.98c0.448,0,0.825-0.3,0.942-0.71h0.076c0,0,1.269-0.152,2.31-0.682
		c1.041-0.53,1.818-1.307,1.818-1.307c0.057,0.284,0.454,0.341,0.454,0.341c0.701-0.114,1.042-0.568,1.042-0.568
		s0.53-0.492,0.606-1.666C43.787,36.431,43.048,35.958,43.048,35.958z"/>
	<path class="st0" d="M36.465,42.707c-0.811,0-1.468-0.657-1.468-1.468c0-0.203,0.041-0.396,0.116-0.572
		c0.223-0.526,0.744-0.896,1.352-0.896c0.384,0,0.734,0.148,0.996,0.39l0.079-0.016c2.348-0.379,3.56-1.799,3.56-1.799
		s0.208-1.439,0.398-2.14c0.143-0.527,0.467-0.636,0.619-0.658c0.008-0.001,0.016-0.002,0.024-0.003
		c0.01-0.152,0.017-0.307,0.022-0.464c0.005-0.144-0.002-0.279-0.02-0.405c-0.126-3.152-2.605-5.667-5.645-5.667
		c-3.121,0-5.65,2.649-5.65,5.918c0,0.158,0.006,0.314,0.018,0.469c-0.002,0.001-0.003,0.001-0.003,0.001s-0.376,2.751,2.631,6.841
		c0,0,2.998,4.583,6.428,0c0,0,0.339-0.425,0.754-1.228c-0.904,0.538-2.26,0.823-2.926,0.938
		C37.499,42.401,37.018,42.707,36.465,42.707z"/>
	<path class="st13" d="M25.722,40.487c-0.556,0.057-1.121,0.087-1.692,0.087c-9.1,0-16.478-7.428-16.478-16.592
		c0-8.81,6.821-16.013,15.436-16.555v5.779c-5.491,0.525-9.787,5.147-9.787,10.776c0,5.981,4.848,10.829,10.829,10.829
		c0.33,0,0.654-0.02,0.976-0.049c0.647-5.174,4.681-9.283,9.816-10.053c0.016-0.241,0.037-0.481,0.037-0.727
		c0-2.636-0.944-5.051-2.509-6.928l-3.435,2.685v-5.412V8.132v0l10.972,3.03l-3.05,2.384c2.294,2.851,3.671,6.481,3.671,10.436
		c0,0.425-0.032,0.843-0.063,1.26c2.842,1.006,5.174,3.078,6.517,5.741c0.672-2.21,1.037-4.554,1.037-6.983
		c0-13.237-10.731-23.968-23.968-23.968S0.062,10.763,0.062,24S10.793,47.968,24.03,47.968c2.64,0,5.178-0.433,7.553-1.222
		C28.917,45.484,26.81,43.246,25.722,40.487z M23.542,19.83v4.806l4.82,0.009c0.452,0.001,0.818,0.368,0.817,0.82l-0.001,0.279
		c-0.001,0.452-0.368,0.818-0.82,0.817l-4.884-0.009v0.009h-0.742c-0.003,0-0.006,0.002-0.009,0.002h-0.28
		c-0.003,0-0.006-0.002-0.009-0.002h-0.81v-0.817v-0.696V19.83c0-0.452,0.366-0.819,0.819-0.819h0.28
		C23.175,19.012,23.542,19.378,23.542,19.83z"/>
	<path class="st0" d="M25.006,34.761c-0.322,0.029-0.647,0.049-0.976,0.049c-5.981,0-10.829-4.848-10.829-10.829
		c0-5.629,4.295-10.251,9.787-10.776V7.427C14.373,7.968,7.552,15.171,7.552,23.982c0,9.163,7.377,16.592,16.478,16.592
		c0.571,0,1.136-0.03,1.692-0.087c-0.521-1.323-0.817-2.759-0.817-4.267C24.905,35.725,24.946,35.24,25.006,34.761z"/>
	<path class="st0" d="M36.837,13.545l3.05-2.384l-10.972-3.03v0v6.195v5.412l3.435-2.685c1.566,1.878,2.509,4.292,2.509,6.928
		c0,0.245-0.021,0.485-0.037,0.727c0.568-0.085,1.146-0.144,1.738-0.144c1.364,0,2.668,0.247,3.885,0.677
		c0.031-0.417,0.063-0.835,0.063-1.26C40.508,20.027,39.131,16.396,36.837,13.545z"/>
	<path class="st8" d="M28.358,26.562c0.452,0.001,0.819-0.365,0.82-0.817l0-0.279c0.001-0.452-0.365-0.819-0.817-0.82l-4.82-0.009
		V19.83c0-0.452-0.367-0.819-0.819-0.819h-0.28c-0.452,0-0.819,0.367-0.819,0.819v5.218v0.696v0.817"/>
</g>
<g id="remote_x5F_mysql">
</g>
<g id="addon_x5F_domains">
</g>
<g id="mysql_x5F_database_x5F_wizard">
</g>
<g id="multiphp_x5F_ini_x5F_editor">
</g>
</svg>
