<?xml version="1.0" encoding="utf-8"?>
<!-- Generator: Adobe Illustrator 21.1.0, SVG Export Plug-In . SVG Version: 6.00 Build 0)  -->
<svg version="1.1" xmlns="http://www.w3.org/2000/svg" xmlns:xlink="http://www.w3.org/1999/xlink" x="0px" y="0px"
	 viewBox="0 0 48 48" style="enable-background:new 0 0 48 48;" xml:space="preserve">
<style type="text/css">
	.st0{fill:#E0E0E0;}
	.st1{fill:#262626;}
	.st2{fill:#4F5B94;}
	.st3{fill:#15587C;}
	.st4{fill:none;}
	.st5{fill:#BCBCBC;}
	.st6{fill:#FFFFFF;}
	.st7{fill:#D34231;}
	.st8{fill:#666666;}
	.st9{fill:#EDA72B;}
	.st10{fill:#25323C;}
	.st11{fill:#336792;}
	.st12{fill:#32415B;}
	.st13{fill:#84B556;}
	.st14{fill:#6A9638;}
	.st15{fill:#189BD8;}
	.st16{fill:#BA342A;}
	.st17{fill:#FF6C2C;}
	.st18{fill:#8892BF;}
	.st19{fill:#FFFFFF;stroke:#FFFFFF;stroke-width:0.25;stroke-miterlimit:10;}
	.st20{fill:#FFFFFF;stroke:#FFFFFF;stroke-miterlimit:10;}
	.st21{fill:#FF6A1A;}
	.st22{fill:#00AA17;}
	.st23{fill:#FA741D;}
	.st24{fill:none;stroke:#15587C;stroke-miterlimit:10;}
	.st25{fill:none;stroke:#15587C;stroke-width:1.5;stroke-miterlimit:10;}
	.st26{fill:none;stroke:#BA342A;stroke-width:5;stroke-miterlimit:10;}
	.st27{fill:#000004;}
	.st28{fill:#000004;stroke:#FFFFFF;stroke-width:0.5;stroke-miterlimit:10;}
	.st29{fill:#017F00;}
	.st30{fill:none;stroke:#BCBCBC;stroke-miterlimit:10;}
	.st31{fill:#39FF2A;}
	.st32{fill:#FF00B3;}
	.st33{fill:#4DFF00;}
	.st34{fill:#FFFFFF;stroke:#FFFFFF;stroke-width:1.5;stroke-miterlimit:10;}
	.st35{fill:#FFFFFF;stroke:#FFFFFF;stroke-width:0.5;stroke-miterlimit:10;}
	.st36{fill:#FFFFFF;stroke:#BCBCBC;stroke-miterlimit:10;}
</style>
<g id="Layer_1">
	<g>
		<path class="st5" d="M46.812,40.878H1.188C0.534,40.878,0,40.343,0,39.69V4.146c0-0.653,0.534-1.187,1.188-1.187h45.625
			C47.466,2.959,48,3.493,48,4.146V39.69C48,40.343,47.466,40.878,46.812,40.878z"/>
		<path class="st0" d="M44.16,38.694H3.84c-0.688,0-1.25-0.562-1.25-1.25V12.753c0-0.688,0.562-1.25,1.25-1.25H44.16
			c0.688,0,1.25,0.562,1.25,1.25v24.691C45.41,38.131,44.848,38.694,44.16,38.694z"/>
		<path class="st10" d="M4.124,8.839H3.753c-0.691,0-1.256-0.565-1.256-1.256V7.213c0-0.691,0.565-1.256,1.256-1.256h0.371
			c0.691,0,1.256,0.565,1.256,1.256v0.371C5.38,8.274,4.815,8.839,4.124,8.839z"/>
		<path class="st10" d="M9.268,8.839H8.897c-0.691,0-1.256-0.565-1.256-1.256V7.213c0-0.691,0.565-1.256,1.256-1.256h0.371
			c0.691,0,1.256,0.565,1.256,1.256v0.371C10.524,8.274,9.959,8.839,9.268,8.839z"/>
		<path class="st10" d="M14.412,8.839h-0.371c-0.691,0-1.256-0.565-1.256-1.256V7.213c0-0.691,0.565-1.256,1.256-1.256h0.371
			c0.691,0,1.256,0.565,1.256,1.256v0.371C15.668,8.274,15.103,8.839,14.412,8.839z"/>
		<g>
			<path class="st9" d="M24.672,19.919c1.985,0,3.781,0.802,5.085,2.1l4.2-4.122c-2.36-2.407-5.647-3.903-9.285-3.903
				c-3.626,0-6.903,1.485-9.262,3.879l4.201,4.124C20.913,20.713,22.699,19.919,24.672,19.919z"/>
			<path class="st14" d="M17.461,27.13c0-2.01,0.824-3.826,2.15-5.134l-4.201-4.124c-2.313,2.348-3.742,5.569-3.742,9.125
				c0,3.596,1.46,6.851,3.819,9.205l4.011-4.057C18.239,30.848,17.461,29.081,17.461,27.13z"/>
			<path class="st7" d="M33.956,17.897l-4.2,4.122c1.313,1.306,2.126,3.113,2.126,5.111c0,1.941-0.77,3.698-2.017,4.995l4.015,4.055
				c2.345-2.352,3.796-5.597,3.796-9.181C37.675,23.454,36.256,20.242,33.956,17.897z"/>
			<path class="st10" d="M25.177,28.788c0.641-0.145,1.132-0.596,1.357-1.164l0,0l5.411-2.659c0,0,0.926-0.773-0.248-1.098
				l-6.049,1.369c-0.389-0.206-0.851-0.28-1.314-0.176c-1.03,0.233-1.675,1.256-1.442,2.286
				C23.124,28.375,24.147,29.021,25.177,28.788z"/>
		</g>
	</g>
</g>
<g id="remote_x5F_mysql">
</g>
<g id="addon_x5F_domains">
</g>
<g id="mysql_x5F_database_x5F_wizard">
</g>
<g id="multiphp_x5F_ini_x5F_editor">
</g>
</svg>
