<?xml version="1.0" encoding="utf-8"?>
<!-- Generator: Adobe Illustrator 21.1.0, SVG Export Plug-In . SVG Version: 6.00 Build 0)  -->
<svg version="1.1" xmlns="http://www.w3.org/2000/svg" xmlns:xlink="http://www.w3.org/1999/xlink" x="0px" y="0px"
	 viewBox="0 0 48 48" style="enable-background:new 0 0 48 48;" xml:space="preserve">
<style type="text/css">
	.st0{fill:#E0E0E0;}
	.st1{fill:#262626;}
	.st2{fill:#4F5B94;}
	.st3{fill:#15587C;}
	.st4{fill:none;}
	.st5{fill:#BCBCBC;}
	.st6{fill:#FFFFFF;}
	.st7{fill:#D34231;}
	.st8{fill:#666666;}
	.st9{fill:#EDA72B;}
	.st10{fill:#25323C;}
	.st11{fill:#336792;}
	.st12{fill:#32415B;}
	.st13{fill:#84B556;}
	.st14{fill:#6A9638;}
	.st15{fill:#189BD8;}
	.st16{fill:#BA342A;}
	.st17{fill:#FF6C2C;}
	.st18{fill:#8892BF;}
	.st19{fill:#FFFFFF;stroke:#FFFFFF;stroke-width:0.25;stroke-miterlimit:10;}
	.st20{fill:#FFFFFF;stroke:#FFFFFF;stroke-miterlimit:10;}
	.st21{fill:#FF6A1A;}
	.st22{fill:#00AA17;}
	.st23{fill:#FA741D;}
	.st24{fill:none;stroke:#15587C;stroke-miterlimit:10;}
	.st25{fill:none;stroke:#15587C;stroke-width:1.5;stroke-miterlimit:10;}
	.st26{fill:none;stroke:#BA342A;stroke-width:5;stroke-miterlimit:10;}
	.st27{fill:#000004;}
	.st28{fill:#000004;stroke:#FFFFFF;stroke-width:0.5;stroke-miterlimit:10;}
	.st29{fill:#017F00;}
	.st30{fill:none;stroke:#BCBCBC;stroke-miterlimit:10;}
	.st31{fill:#39FF2A;}
	.st32{fill:#FF00B3;}
	.st33{fill:#4DFF00;}
	.st34{fill:#FFFFFF;stroke:#FFFFFF;stroke-width:1.5;stroke-miterlimit:10;}
	.st35{fill:#FFFFFF;stroke:#FFFFFF;stroke-width:0.5;stroke-miterlimit:10;}
	.st36{fill:#FFFFFF;stroke:#BCBCBC;stroke-miterlimit:10;}
</style>
<g id="Layer_1">
	<g>
		<path class="st12" d="M46.812,41.981H1.188C0.534,41.981,0,41.447,0,40.794V5.25c0-0.653,0.534-1.188,1.188-1.188h45.625
			C47.466,4.062,48,4.596,48,5.25v35.544C48,41.447,47.466,41.981,46.812,41.981z"/>
		<path class="st11" d="M44.16,39.797H3.84c-0.688,0-1.25-0.562-1.25-1.25V13.857c0-0.688,0.562-1.25,1.25-1.25H44.16
			c0.688,0,1.25,0.562,1.25,1.25v24.691C45.41,39.235,44.848,39.797,44.16,39.797z"/>
		<path class="st0" d="M4.124,9.943H3.753c-0.691,0-1.256-0.565-1.256-1.256V8.316c0-0.691,0.565-1.256,1.256-1.256h0.371
			c0.691,0,1.256,0.565,1.256,1.256v0.371C5.38,9.377,4.815,9.943,4.124,9.943z"/>
		<path class="st0" d="M9.268,9.943H8.897c-0.691,0-1.256-0.565-1.256-1.256V8.316c0-0.691,0.565-1.256,1.256-1.256h0.371
			c0.691,0,1.256,0.565,1.256,1.256v0.371C10.524,9.377,9.959,9.943,9.268,9.943z"/>
		<path class="st0" d="M14.412,9.943h-0.371c-0.691,0-1.256-0.565-1.256-1.256V8.316c0-0.691,0.565-1.256,1.256-1.256h0.371
			c0.691,0,1.256,0.565,1.256,1.256v0.371C15.668,9.377,15.103,9.943,14.412,9.943z"/>
		<g>
			<g>
				<path class="st6" d="M14.261,26.615l-2.604,0.362l1.863,2.071l-1.73,1.227l-1.302-2.493l-1.302,2.493l-1.74-1.227l1.873-2.071
					l-2.604-0.362l0.675-1.982l2.395,1.06l-0.408-2.815H11.6l-0.409,2.815l2.376-1.06L14.261,26.615z"/>
				<path class="st6" d="M23.119,26.615l-2.604,0.362l1.862,2.071l-1.729,1.227l-1.302-2.493l-1.303,2.493l-1.739-1.227l1.872-2.071
					l-2.604-0.362l0.675-1.982l2.396,1.06l-0.409-2.815h2.224l-0.408,2.815l2.377-1.06L23.119,26.615z"/>
				<path class="st6" d="M31.978,26.615l-2.604,0.362l1.863,2.071l-1.73,1.227l-1.302-2.493l-1.302,2.493l-1.74-1.227l1.873-2.071
					l-2.604-0.362l0.675-1.982l2.395,1.06l-0.408-2.815h2.225l-0.409,2.815l2.376-1.06L31.978,26.615z"/>
			</g>
			<rect x="33.647" y="28.073" class="st6" width="7.318" height="1.285"/>
		</g>
	</g>
</g>
<g id="remote_x5F_mysql">
</g>
<g id="addon_x5F_domains">
</g>
<g id="mysql_x5F_database_x5F_wizard">
</g>
<g id="multiphp_x5F_ini_x5F_editor">
</g>
</svg>
