<?xml version="1.0" encoding="utf-8"?>
<!-- Generator: Adobe Illustrator 21.1.0, SVG Export Plug-In . SVG Version: 6.00 Build 0)  -->
<svg version="1.1" xmlns="http://www.w3.org/2000/svg" xmlns:xlink="http://www.w3.org/1999/xlink" x="0px" y="0px"
	 viewBox="0 0 48 48" style="enable-background:new 0 0 48 48;" xml:space="preserve">
<style type="text/css">
	.st0{fill:#E0E0E0;}
	.st1{fill:#262626;}
	.st2{fill:#4F5B94;}
	.st3{fill:#15587C;}
	.st4{fill:none;}
	.st5{fill:#BCBCBC;}
	.st6{fill:#FFFFFF;}
	.st7{fill:#D34231;}
	.st8{fill:#666666;}
	.st9{fill:#EDA72B;}
	.st10{fill:#25323C;}
	.st11{fill:#336792;}
	.st12{fill:#32415B;}
	.st13{fill:#84B556;}
	.st14{fill:#6A9638;}
	.st15{fill:#189BD8;}
	.st16{fill:#BA342A;}
	.st17{fill:#FF6C2C;}
	.st18{fill:#8892BF;}
	.st19{fill:#FFFFFF;stroke:#FFFFFF;stroke-width:0.25;stroke-miterlimit:10;}
	.st20{fill:#FFFFFF;stroke:#FFFFFF;stroke-miterlimit:10;}
	.st21{fill:#FF6A1A;}
	.st22{fill:#00AA17;}
	.st23{fill:#FA741D;}
	.st24{fill:none;stroke:#15587C;stroke-miterlimit:10;}
	.st25{fill:none;stroke:#15587C;stroke-width:1.5;stroke-miterlimit:10;}
	.st26{fill:none;stroke:#BA342A;stroke-width:5;stroke-miterlimit:10;}
	.st27{fill:#000004;}
	.st28{fill:#000004;stroke:#FFFFFF;stroke-width:0.5;stroke-miterlimit:10;}
	.st29{fill:#017F00;}
	.st30{fill:none;stroke:#BCBCBC;stroke-miterlimit:10;}
	.st31{fill:#39FF2A;}
	.st32{fill:#FF00B3;}
	.st33{fill:#4DFF00;}
	.st34{fill:#FFFFFF;stroke:#FFFFFF;stroke-width:1.5;stroke-miterlimit:10;}
	.st35{fill:#FFFFFF;stroke:#FFFFFF;stroke-width:0.5;stroke-miterlimit:10;}
	.st36{fill:#FFFFFF;stroke:#BCBCBC;stroke-miterlimit:10;}
</style>
<g id="Layer_1">
	<path class="st0" d="M45.334,8.788h-1.551h-1.525H31.242h-1.605H18.622h-1.863h-5.742V7.666v-1.06V6.25
		c0-1.151-0.942-2.093-2.093-2.093h-6.83c-1.151,0-2.093,0.942-2.093,2.093v0.356v1.06v3.787v0.193V40.34
		c0,1.472,1.194,2.666,2.666,2.666h42.667c1.472,0,2.666-1.194,2.666-2.666V11.454C48,9.981,46.806,8.788,45.334,8.788z"/>
	<path class="st13" d="M23.96,6.073c0-1.151-0.942-2.093-2.093-2.093h-6.83c-1.151,0-2.093,0.942-2.093,2.093v1.593H23.96V6.073z"/>
	<path class="st18" d="M36.58,6.073c0-1.151-0.942-2.093-2.093-2.093h-6.83c-1.151,0-2.093,0.942-2.093,2.093v1.593H36.58V6.073z"/>
	<rect x="3.881" y="15.105" class="st5" width="21.749" height="21.648"/>
	<path class="st11" d="M22.668,32.047l-3.559-1.051c0,0-1.832-0.394-0.209-2.121c1.622-1.727,1.675-5.067,1.675-5.067
		c-0.419-6.123-5.181-5.627-5.181-5.627c-5.286,0.262-5.181,5.757-5.181,5.757s0.314,3.168,1.989,4.948s-0.89,2.556-0.89,2.556
		l-3.925,1.024c-2.303,1.047-2.198,3.511-2.198,3.511h20.358C26.174,32.854,22.668,32.047,22.668,32.047z"/>
	<rect x="3.931" y="15.105" class="st30" width="21.749" height="21.648"/>
	<path class="st5" d="M43.694,24.571H30.107c-0.69,0-1.25-0.56-1.25-1.25v-0.102c0-0.69,0.56-1.25,1.25-1.25h13.587
		c0.69,0,1.25,0.56,1.25,1.25v0.102C44.944,24.011,44.384,24.571,43.694,24.571z"/>
	<path class="st5" d="M43.694,30.197H30.107c-0.69,0-1.25-0.56-1.25-1.25v-0.102c0-0.69,0.56-1.25,1.25-1.25h13.587
		c0.69,0,1.25,0.56,1.25,1.25v0.102C44.944,29.637,44.384,30.197,43.694,30.197z"/>
	<path class="st5" d="M43.694,35.823H30.107c-0.69,0-1.25-0.56-1.25-1.25v-0.102c0-0.69,0.56-1.25,1.25-1.25h13.587
		c0.69,0,1.25,0.56,1.25,1.25v0.102C44.944,35.263,44.384,35.823,43.694,35.823z"/>
	<g>
		<rect x="33.352" y="16.343" class="st5" width="2.602" height="2.602"/>
		<rect x="28.857" y="16.343" class="st5" width="2.602" height="2.602"/>
		<rect x="42.342" y="16.343" class="st5" width="2.602" height="2.602"/>
		<rect x="37.847" y="16.343" class="st5" width="2.602" height="2.602"/>
	</g>
</g>
<g id="remote_x5F_mysql">
</g>
<g id="addon_x5F_domains">
</g>
<g id="mysql_x5F_database_x5F_wizard">
</g>
<g id="multiphp_x5F_ini_x5F_editor">
</g>
</svg>
