<svg xmlns="http://www.w3.org/2000/svg" viewBox="0 0 48 48"><defs><style>.cls-1{fill:#25323c;}.cls-2{fill:#fff;}</style></defs><title>wordpress_manager</title><g id="Layer_84" data-name="Layer 84"><circle class="cls-1" cx="23.92" cy="23.97" r="23.81"/><path class="cls-2" d="M24,2.42A21.62,21.62,0,1,0,45.63,24,21.64,21.64,0,0,0,24,2.42ZM4.57,24a19.36,19.36,0,0,1,1.68-7.91l9.27,25.4A19.44,19.44,0,0,1,4.57,24ZM24,43.48a19.43,19.43,0,0,1-5.49-.79l5.83-16.95,6,16.37a1.82,1.82,0,0,0,.14.27A19.4,19.4,0,0,1,24,43.48Zm2.68-28.55c1.17-.06,2.22-.18,2.22-.18a.8.8,0,0,0-.12-1.6s-3.15.25-5.18.25-5.12-.25-5.12-.25a.8.8,0,0,0-.12,1.6s1,.12,2,.18l3,8.3L19.18,36,12.1,14.93c1.17-.06,2.22-.18,2.22-.18a.8.8,0,0,0-.12-1.6s-3.15.25-5.18.25l-1.25,0A19.43,19.43,0,0,1,37.13,9.71l-.25,0a3.37,3.37,0,0,0-3.26,3.45c0,1.6.92,3,1.91,4.56a10.24,10.24,0,0,1,1.6,5.36c0,1.66-.64,3.59-1.48,6.28l-1.94,6.48Zm14.38-.21a19.44,19.44,0,0,1-7.28,26.13l5.94-17.16a18.35,18.35,0,0,0,1.48-7A14.91,14.91,0,0,0,41.06,14.72Z"/></g></svg>