<?xml version="1.0" encoding="utf-8"?>
<!-- Generator: Adobe Illustrator 21.1.0, SVG Export Plug-In . SVG Version: 6.00 Build 0)  -->
<svg version="1.1" xmlns="http://www.w3.org/2000/svg" xmlns:xlink="http://www.w3.org/1999/xlink" x="0px" y="0px"
	 viewBox="0 0 48 48" style="enable-background:new 0 0 48 48;" xml:space="preserve">
<style type="text/css">
	.st0{fill:#E0E0E0;}
	.st1{fill:#262626;}
	.st2{fill:#4F5B94;}
	.st3{fill:#15587C;}
	.st4{fill:none;}
	.st5{fill:#BCBCBC;}
	.st6{fill:#FFFFFF;}
	.st7{fill:#D34231;}
	.st8{fill:#666666;}
	.st9{fill:#EDA72B;}
	.st10{fill:#25323C;}
	.st11{fill:#336792;}
	.st12{fill:#32415B;}
	.st13{fill:#84B556;}
	.st14{fill:#6A9638;}
	.st15{fill:#189BD8;}
	.st16{fill:#BA342A;}
	.st17{fill:#FF6C2C;}
	.st18{fill:#8892BF;}
	.st19{fill:#FFFFFF;stroke:#FFFFFF;stroke-width:0.25;stroke-miterlimit:10;}
	.st20{fill:#FFFFFF;stroke:#FFFFFF;stroke-miterlimit:10;}
	.st21{fill:#FF6A1A;}
	.st22{fill:#00AA17;}
	.st23{fill:#FA741D;}
	.st24{fill:none;stroke:#15587C;stroke-miterlimit:10;}
	.st25{fill:none;stroke:#15587C;stroke-width:1.5;stroke-miterlimit:10;}
	.st26{fill:none;stroke:#BA342A;stroke-width:5;stroke-miterlimit:10;}
	.st27{fill:#000004;}
	.st28{fill:#000004;stroke:#FFFFFF;stroke-width:0.5;stroke-miterlimit:10;}
	.st29{fill:#017F00;}
	.st30{fill:none;stroke:#BCBCBC;stroke-miterlimit:10;}
	.st31{fill:#39FF2A;}
	.st32{fill:#FF00B3;}
	.st33{fill:#4DFF00;}
	.st34{fill:#FFFFFF;stroke:#FFFFFF;stroke-width:1.5;stroke-miterlimit:10;}
	.st35{fill:#FFFFFF;stroke:#FFFFFF;stroke-width:0.5;stroke-miterlimit:10;}
	.st36{fill:#FFFFFF;stroke:#BCBCBC;stroke-miterlimit:10;}
</style>
<g id="Layer_1">
	<g>
		<circle class="st5" cx="23.998" cy="24" r="24"/>
		<path class="st14" d="M7.069,13.299c0,0-2.483,3.271-3.103,8.392h12.103c0,0,0.908-2.739,3.225-4.415
			c0.259-0.188,0.536-0.361,0.832-0.517l-8.09-8.449C10.4,9.526,8.678,11.144,7.069,13.299z"/>
		<path class="st9" d="M35.773,8.347c-0.053-0.04-0.105-0.079-0.158-0.118c-7.515-5.642-16.134-3.45-16.134-3.45
			s-3.452,0.561-7.432,3.52c-0.005,0.004-0.01,0.007-0.014,0.011l8.09,8.449c1.652-0.871,3.879-1.159,6.805,0.071l0.847-0.168
			l8.25-8.113C35.941,8.481,35.86,8.413,35.773,8.347z"/>
		<path class="st7" d="M41.256,18.38c-1.034,0.879-4.655,3.31-4.655,3.31h7.448c0,0-0.712-7.378-8.022-13.142l-8.25,8.113
			l10.893-2.159c0,0,2.483-0.569,3.051,1.552C41.721,16.053,42.29,17.501,41.256,18.38z"/>
		<circle class="st8" cx="23.929" cy="23.371" r="3.439"/>
		<polygon class="st8" points="23.09,20.036 39.083,16.829 25.478,26.442 		"/>
		<circle class="st0" cx="12.913" cy="35.267" r="2.146"/>
		<circle class="st0" cx="34.897" cy="35.267" r="2.146"/>
		<rect x="17.05" y="32.81" class="st8" width="2.845" height="4.983"/>
		<rect x="28.015" y="32.81" class="st8" width="2.845" height="4.983"/>
		<rect x="21.186" y="32.81" class="st8" width="2.123" height="4.983"/>
		<rect x="24.703" y="32.775" class="st8" width="2.123" height="4.983"/>
		<g>
			<path class="st8" d="M9.363,28.87H8.536v-2.297c0-0.248,0.01-0.522,0.03-0.822H8.546c-0.043,0.235-0.082,0.405-0.116,0.509
				l-0.872,2.61H6.873l-0.887-2.584c-0.024-0.069-0.062-0.248-0.116-0.535H5.847c0.022,0.379,0.033,0.711,0.033,0.996v2.123H5.126
				v-3.839h1.227l0.76,2.275c0.061,0.182,0.104,0.365,0.132,0.549H7.26c0.047-0.212,0.096-0.397,0.147-0.555l0.761-2.27h1.195V28.87
				z"/>
			<path class="st8" d="M11.046,28.87h-0.837v-3.839h0.837V28.87z"/>
			<path class="st8" d="M15.236,28.87h-0.846l-1.532-2.412c-0.09-0.141-0.152-0.247-0.187-0.318h-0.011
				c0.014,0.136,0.021,0.343,0.021,0.621v2.109h-0.79v-3.839h0.902l1.476,2.337c0.067,0.105,0.129,0.21,0.187,0.313h0.011
				c-0.015-0.09-0.021-0.266-0.021-0.527v-2.123h0.791V28.87z"/>
		</g>
		<g>
			<path class="st8" d="M36.259,28.87h-0.827v-2.297c0-0.248,0.01-0.522,0.03-0.822h-0.021c-0.043,0.235-0.082,0.405-0.116,0.509
				l-0.872,2.61h-0.685l-0.887-2.584c-0.024-0.069-0.062-0.248-0.116-0.535h-0.023c0.022,0.379,0.033,0.711,0.033,0.996v2.123
				h-0.754v-3.839h1.227l0.76,2.275c0.061,0.182,0.104,0.365,0.132,0.549h0.016c0.047-0.212,0.096-0.397,0.147-0.555l0.761-2.27
				h1.195V28.87z"/>
			<path class="st8" d="M40.374,28.87h-0.913l-0.264-0.854h-1.323l-0.262,0.854h-0.907l1.354-3.839h0.993L40.374,28.87z
				 M39.005,27.353l-0.399-1.291c-0.029-0.097-0.05-0.211-0.062-0.345h-0.021c-0.009,0.112-0.03,0.224-0.064,0.334l-0.405,1.302
				H39.005z"/>
			<path class="st8" d="M43.875,28.87h-0.993l-0.641-1.25c-0.024-0.047-0.049-0.133-0.075-0.257h-0.01
				c-0.013,0.059-0.041,0.147-0.086,0.268l-0.644,1.239h-0.998l1.186-1.92l-1.084-1.919h1.019l0.532,1.151
				c0.041,0.091,0.078,0.198,0.111,0.323h0.01c0.021-0.074,0.06-0.187,0.117-0.334l0.591-1.141h0.934l-1.115,1.903L43.875,28.87z"/>
		</g>
	</g>
</g>
<g id="remote_x5F_mysql">
</g>
<g id="addon_x5F_domains">
</g>
<g id="mysql_x5F_database_x5F_wizard">
</g>
<g id="multiphp_x5F_ini_x5F_editor">
</g>
</svg>
