<?xml version="1.0" encoding="utf-8"?>
<!-- Generator: Adobe Illustrator 21.1.0, SVG Export Plug-In . SVG Version: 6.00 Build 0)  -->
<svg version="1.1" xmlns="http://www.w3.org/2000/svg" xmlns:xlink="http://www.w3.org/1999/xlink" x="0px" y="0px"
	 viewBox="0 0 48 48" style="enable-background:new 0 0 48 48;" xml:space="preserve">
<style type="text/css">
	.st0{fill:#E0E0E0;}
	.st1{fill:#262626;}
	.st2{fill:#4F5B94;}
	.st3{fill:#15587C;}
	.st4{fill:none;}
	.st5{fill:#BCBCBC;}
	.st6{fill:#FFFFFF;}
	.st7{fill:#D34231;}
	.st8{fill:#666666;}
	.st9{fill:#EDA72B;}
	.st10{fill:#25323C;}
	.st11{fill:#336792;}
	.st12{fill:#32415B;}
	.st13{fill:#84B556;}
	.st14{fill:#6A9638;}
	.st15{fill:#189BD8;}
	.st16{fill:#BA342A;}
	.st17{fill:#FF6C2C;}
	.st18{fill:#8892BF;}
	.st19{fill:#FFFFFF;stroke:#FFFFFF;stroke-width:0.25;stroke-miterlimit:10;}
	.st20{fill:#FFFFFF;stroke:#FFFFFF;stroke-miterlimit:10;}
	.st21{fill:#FF6A1A;}
	.st22{fill:#00AA17;}
	.st23{fill:#FA741D;}
	.st24{fill:none;stroke:#15587C;stroke-miterlimit:10;}
	.st25{fill:none;stroke:#15587C;stroke-width:1.5;stroke-miterlimit:10;}
	.st26{fill:none;stroke:#BA342A;stroke-width:5;stroke-miterlimit:10;}
	.st27{fill:#000004;}
	.st28{fill:#000004;stroke:#FFFFFF;stroke-width:0.5;stroke-miterlimit:10;}
	.st29{fill:#017F00;}
	.st30{fill:none;stroke:#BCBCBC;stroke-miterlimit:10;}
	.st31{fill:#39FF2A;}
	.st32{fill:#FF00B3;}
	.st33{fill:#4DFF00;}
	.st34{fill:#FFFFFF;stroke:#FFFFFF;stroke-width:1.5;stroke-miterlimit:10;}
	.st35{fill:#FFFFFF;stroke:#FFFFFF;stroke-width:0.5;stroke-miterlimit:10;}
	.st36{fill:#FFFFFF;stroke:#BCBCBC;stroke-miterlimit:10;}
</style>
<g id="Layer_1">
	<g>
		<path class="st0" d="M27.028,41.969h-6.342v-6.628h5.265c0.135-1.059,0.403-2.077,0.8-3.029h-6.065v-6.628h6.628v5.468
			c0.576-1.041,1.308-1.981,2.16-2.799v-2.669h4.401c1.181-0.397,2.44-0.621,3.755-0.621s2.574,0.224,3.755,0.621h3.505v1.893
			c1.271,0.996,2.337,2.241,3.111,3.67V12.566H0v28.429c0,2.622,2.145,4.768,4.768,4.768h25.168
			C28.724,44.715,27.733,43.426,27.028,41.969z M38.261,16.027h6.628v6.628h-6.628V16.027z M29.473,16.027h6.628v6.628h-6.628
			V16.027z M20.686,16.027h6.628v6.628h-6.628V16.027z M9.739,41.969H3.111v-6.628h6.628V41.969z M9.739,32.312H3.111v-6.628h6.628
			V32.312z M9.739,22.655H3.111v-6.628h6.628V22.655z M18.526,41.969h-6.628v-6.628h6.628V41.969z M18.526,32.312h-6.628v-6.628
			h6.628V32.312z M18.526,22.655h-6.628v-6.628h6.628V22.655z"/>
		<path class="st13" d="M48,5.768C48,3.145,45.855,1,43.232,1H4.768C2.145,1,0,3.145,0,5.768v6.798h48V5.768z"/>
		<rect x="3.111" y="16.027" class="st5" width="6.628" height="6.628"/>
		<rect x="11.898" y="16.027" class="st5" width="6.628" height="6.628"/>
		<rect x="20.686" y="16.027" class="st5" width="6.628" height="6.628"/>
		<rect x="29.473" y="16.027" class="st5" width="6.628" height="6.628"/>
		<rect x="38.261" y="16.027" class="st7" width="6.628" height="6.628"/>
		<rect x="3.111" y="25.684" class="st5" width="6.628" height="6.628"/>
		<rect x="11.898" y="25.684" class="st5" width="6.628" height="6.628"/>
		<path class="st5" d="M20.686,25.684v6.628h6.065c0.166-0.399,0.355-0.785,0.563-1.16v-5.468H20.686z"/>
		<path class="st5" d="M29.473,28.353c1.239-1.19,2.736-2.109,4.401-2.669h-4.401V28.353z"/>
		<path class="st7" d="M41.384,25.684c1.282,0.431,2.463,1.076,3.505,1.893v-1.893H41.384z"/>
		<rect x="3.111" y="35.341" class="st5" width="6.628" height="6.628"/>
		<rect x="11.898" y="35.341" class="st5" width="6.628" height="6.628"/>
		<path class="st5" d="M20.686,41.969h6.342c-0.751-1.551-1.184-3.283-1.184-5.122c0-0.512,0.044-1.012,0.107-1.506h-5.265V41.969z"
			/>
		<g>
			<circle class="st8" cx="37.564" cy="37.272" r="9.385"/>
			<circle class="st6" cx="37.564" cy="37.211" r="8.285"/>
			<g>
				<path class="st8" d="M37.688,37.917h-0.117c-0.434,0-0.785-0.352-0.785-0.785v-5.079c0-0.434,0.352-0.785,0.785-0.785h0.117
					c0.434,0,0.785,0.352,0.785,0.785v5.079C38.474,37.565,38.122,37.917,37.688,37.917z"/>
				<path class="st8" d="M36.787,37.119l0-0.117c0.001-0.434,0.353-0.785,0.787-0.784l5.079,0.01
					c0.434,0.001,0.785,0.353,0.784,0.787l0,0.117c-0.001,0.434-0.353,0.785-0.787,0.784l-5.079-0.01
					C37.138,37.905,36.787,37.553,36.787,37.119z"/>
			</g>
			<circle class="st7" cx="37.651" cy="37.032" r="1.31"/>
		</g>
		<path class="st6" d="M6.556,8.951H6.294c-0.966,0-1.756-0.79-1.756-1.756V6.933c0-0.966,0.79-1.756,1.756-1.756h0.262
			c0.966,0,1.756,0.79,1.756,1.756v0.262C8.312,8.161,7.522,8.951,6.556,8.951z"/>
		<path class="st6" d="M41.706,8.951h-0.262c-0.966,0-1.756-0.79-1.756-1.756V6.933c0-0.966,0.79-1.756,1.756-1.756h0.262
			c0.966,0,1.756,0.79,1.756,1.756v0.262C43.462,8.161,42.672,8.951,41.706,8.951z"/>
	</g>
</g>
<g id="remote_x5F_mysql">
</g>
<g id="addon_x5F_domains">
</g>
<g id="mysql_x5F_database_x5F_wizard">
</g>
<g id="multiphp_x5F_ini_x5F_editor">
</g>
</svg>
