<?xml version="1.0" encoding="utf-8"?>
<!-- Generator: Adobe Illustrator 21.1.0, SVG Export Plug-In . SVG Version: 6.00 Build 0)  -->
<svg version="1.1" xmlns="http://www.w3.org/2000/svg" xmlns:xlink="http://www.w3.org/1999/xlink" x="0px" y="0px"
	 viewBox="0 0 47 47" style="enable-background:new 0 0 47 47;" xml:space="preserve">
<style type="text/css">
	.st0{fill:#E0E0E0;}
	.st1{fill:#262626;}
	.st2{fill:#4F5B94;}
	.st3{fill:#15587C;}
	.st4{fill:none;}
	.st5{fill:#BCBCBC;}
	.st6{fill:#FFFFFF;}
	.st7{fill:#D34231;}
	.st8{fill:#666666;}
	.st9{fill:#EDA72B;}
	.st10{fill:#25323C;}
	.st11{fill:#336792;}
	.st12{fill:#32415B;}
	.st13{fill:#84B556;}
	.st14{fill:#6A9638;}
	.st15{fill:#189BD8;}
	.st16{fill:#BA342A;}
	.st17{fill:#FF6C2C;}
	.st18{fill:#8892BF;}
	.st19{fill:#FFFFFF;stroke:#FFFFFF;stroke-width:0.25;stroke-miterlimit:10;}
	.st20{fill:#FFFFFF;stroke:#FFFFFF;stroke-miterlimit:10;}
	.st21{fill:#FF6A1A;}
	.st22{fill:#00AA17;}
	.st23{fill:#FA741D;}
	.st24{fill:none;stroke:#15587C;stroke-miterlimit:10;}
	.st25{fill:none;stroke:#15587C;stroke-width:1.5;stroke-miterlimit:10;}
	.st26{fill:none;stroke:#BA342A;stroke-width:5;stroke-miterlimit:10;}
	.st27{fill:#000004;}
	.st28{fill:#000004;stroke:#FFFFFF;stroke-width:0.5;stroke-miterlimit:10;}
	.st29{fill:#017F00;}
	.st30{fill:none;stroke:#BCBCBC;stroke-miterlimit:10;}
	.st31{fill:#39FF2A;}
	.st32{fill:#FF00B3;}
	.st33{fill:#4DFF00;}
	.st34{fill:#FFFFFF;stroke:#FFFFFF;stroke-width:1.5;stroke-miterlimit:10;}
	.st35{fill:#FFFFFF;stroke:#FFFFFF;stroke-width:0.5;stroke-miterlimit:10;}
	.st36{fill:#FFFFFF;stroke:#BCBCBC;stroke-miterlimit:10;}
</style>
<g id="Layer_1">
	<g>
		<path class="st13" d="M31.34,26.804c-3.241,1.574-5.481,4.887-5.481,8.732c0,5.364,4.349,9.713,9.713,9.713
			c3.926,0,7.299-2.333,8.83-5.685l-8.83-4.028L31.34,26.804z"/>
		<path class="st2" d="M35.571,25.824c-0.073,0-0.144,0.009-0.217,0.011l0.217,9.702l8.83,4.028
			c0.561-1.228,0.882-2.589,0.882-4.028C45.284,30.172,40.936,25.824,35.571,25.824z"/>
		<path class="st9" d="M35.309,25.837c-1.421,0.038-2.763,0.382-3.969,0.967l4.232,8.732L35.309,25.837z"/>
		<path class="st9" d="M35.571,35.536l-0.217-9.702c-0.015,0-0.03,0.002-0.045,0.002L35.571,35.536z"/>
		<path class="st11" d="M24.145,35.574c0-1.589,0.326-3.102,0.912-4.477H6.211c-1.122,0-2.031-0.909-2.031-2.031v-8.729
			c0-0.775,0.439-1.44,1.077-1.783l7.707-5.643h0.001c0.34-0.332,0.803-0.538,1.315-0.538h19.21c0.512,0,0.975,0.206,1.315,0.538
			l7.708,5.643c0.638,0.342,1.077,1.008,1.077,1.783v7.108c0.94,0.927,1.711,2.021,2.285,3.227c0.723-2.26,1.117-4.667,1.117-7.167
			c0-12.974-10.518-23.492-23.492-23.492S0.007,10.531,0.007,23.505s10.518,23.492,23.492,23.492c2.5,0,4.907-0.394,7.167-1.117
			C26.813,44.044,24.145,40.126,24.145,35.574z"/>
		<path class="st5" d="M12.395,18.306h22.978h6.185c0.347,0,0.669,0.095,0.954,0.249l-7.708-5.643
			c-0.34-0.332-0.803-0.538-1.315-0.538h-19.21c-0.512,0-0.975,0.206-1.315,0.538h-0.001l-7.707,5.643
			c0.286-0.153,0.607-0.249,0.954-0.249H12.395z"/>
		<path class="st0" d="M42.512,18.555c-0.286-0.153-0.607-0.249-0.954-0.249h-6.185H12.395H6.211c-0.347,0-0.669,0.095-0.954,0.249
			c-0.638,0.342-1.077,1.008-1.077,1.783v8.729c0,1.122,0.909,2.031,2.031,2.031h18.846c1.741-4.083,5.791-6.947,10.511-6.947
			c3.127,0,5.958,1.259,8.021,3.294v-7.108C43.589,19.562,43.15,18.897,42.512,18.555z M10.253,29.411H7.911v-2.342h2.342V29.411z
			 M14.186,29.411h-2.342v-2.342h2.342V29.411z M18.119,29.411h-2.342v-2.342h2.342V29.411z M36.042,22.781
			c-0.682,0-1.239-0.558-1.239-1.239c0-0.682,0.558-1.239,1.239-1.239c0.682,0,1.239,0.558,1.239,1.239
			C37.281,22.223,36.724,22.781,36.042,22.781z M40.38,22.781c-0.682,0-1.239-0.558-1.239-1.239c0-0.682,0.558-1.239,1.239-1.239
			s1.239,0.558,1.239,1.239C41.619,22.223,41.061,22.781,40.38,22.781z"/>
		<circle class="st14" cx="40.38" cy="21.542" r="1.239"/>
		<circle class="st7" cx="36.042" cy="21.542" r="1.239"/>
		<rect x="7.911" y="27.069" class="st10" width="2.342" height="2.342"/>
		<rect x="11.844" y="27.069" class="st10" width="2.342" height="2.342"/>
		<rect x="15.776" y="27.069" class="st10" width="2.342" height="2.342"/>
	</g>
</g>
<g id="remote_x5F_mysql">
</g>
<g id="addon_x5F_domains">
</g>
<g id="mysql_x5F_database_x5F_wizard">
</g>
<g id="multiphp_x5F_ini_x5F_editor">
</g>
</svg>
