<?xml version="1.0" encoding="utf-8"?>
<!-- Generator: Adobe Illustrator 21.1.0, SVG Export Plug-In . SVG Version: 6.00 Build 0)  -->
<svg version="1.1" xmlns="http://www.w3.org/2000/svg" xmlns:xlink="http://www.w3.org/1999/xlink" x="0px" y="0px"
	 viewBox="0 0 48 48" style="enable-background:new 0 0 48 48;" xml:space="preserve">
<style type="text/css">
	.st0{fill:#E0E0E0;}
	.st1{fill:#262626;}
	.st2{fill:#4F5B94;}
	.st3{fill:#15587C;}
	.st4{fill:none;}
	.st5{fill:#BCBCBC;}
	.st6{fill:#FFFFFF;}
	.st7{fill:#D34231;}
	.st8{fill:#666666;}
	.st9{fill:#EDA72B;}
	.st10{fill:#25323C;}
	.st11{fill:#336792;}
	.st12{fill:#32415B;}
	.st13{fill:#84B556;}
	.st14{fill:#6A9638;}
	.st15{fill:#189BD8;}
	.st16{fill:#BA342A;}
	.st17{fill:#FF6C2C;}
	.st18{fill:#8892BF;}
	.st19{fill:#FFFFFF;stroke:#FFFFFF;stroke-width:0.25;stroke-miterlimit:10;}
	.st20{fill:#FFFFFF;stroke:#FFFFFF;stroke-miterlimit:10;}
	.st21{fill:#FF6A1A;}
	.st22{fill:#00AA17;}
	.st23{fill:#FA741D;}
	.st24{fill:none;stroke:#15587C;stroke-miterlimit:10;}
	.st25{fill:none;stroke:#15587C;stroke-width:1.5;stroke-miterlimit:10;}
	.st26{fill:none;stroke:#BA342A;stroke-width:5;stroke-miterlimit:10;}
	.st27{fill:#000004;}
	.st28{fill:#000004;stroke:#FFFFFF;stroke-width:0.5;stroke-miterlimit:10;}
	.st29{fill:#017F00;}
	.st30{fill:none;stroke:#BCBCBC;stroke-miterlimit:10;}
	.st31{fill:#39FF2A;}
	.st32{fill:#FF00B3;}
	.st33{fill:#4DFF00;}
	.st34{fill:#FFFFFF;stroke:#FFFFFF;stroke-width:1.5;stroke-miterlimit:10;}
	.st35{fill:#FFFFFF;stroke:#FFFFFF;stroke-width:0.5;stroke-miterlimit:10;}
	.st36{fill:#FFFFFF;stroke:#BCBCBC;stroke-miterlimit:10;}
</style>
<g id="Layer_1">
	<polygon class="st4" points="7.339,47.511 23.452,47.511 23.505,47.472 	"/>
	<path class="st5" d="M28.394,1.709c0,0-4.143-2.97-8.531,0L0.373,16.685l-0.397,0.305c0,0.432,0,28.078,0,28.078
		s0.089,0.494,0.397,1.029c0.363,0.629,1.034,1.317,2.284,1.347c0.432,0.01,2.184,0.016,4.744,0.02l16.754-12.573
		C17.093,29.396,5.056,20.026,4.784,19.798l16.83-13.607c2.797-2.376,5.401,0,5.401,0L44.373,19.72l3.603-2.704l0-0.026
		L28.394,1.709z"/>
	<path class="st6" d="M27.014,6.191c0,0-2.604-2.376-5.401,0L4.784,19.798c0.272,0.229,12.309,9.598,19.371,15.094L44.373,19.72
		L27.014,6.191z"/>
	<path class="st0" d="M23.515,47.465l-0.01,0.007l4.281-0.01C26.377,47.463,24.947,47.464,23.515,47.465L23.515,47.465z"/>
	<path class="st0" d="M23.515,47.465c-6.06,0.004-12.088,0.005-16.114-0.001l-0.062,0.047l16.166-0.039L23.515,47.465L23.515,47.465
		z"/>
	<path class="st0" d="M47.976,17.016l-3.603,2.704L24.155,34.891L7.401,47.464l38.388,0.047c0,0,0.592,0.005,1.156-0.404
		c0.038-0.026,0.062-0.044,0.09-0.067c0.01-0.009,0.021-0.016,0.031-0.025c0.066-0.054,0.109-0.096,0.109-0.096
		c0.017-0.014,0.028-0.035,0.044-0.051c0.031-0.032,0.06-0.068,0.09-0.103c0.095-0.108,0.177-0.227,0.246-0.359
		c0.022-0.04,0.045-0.081,0.066-0.125c0.021-0.046,0.041-0.091,0.06-0.139c0.091-0.218,0.162-0.472,0.207-0.765
		c0.002-0.013,0.004-0.025,0.006-0.038c0.01-0.07,0.021-0.139,0.028-0.213c0.054-0.439,0.049-0.778,0.049-0.778L47.976,17.016z"/>
	<g>
		<path class="st13" d="M21.078,12.791c-2.681,1.302-4.533,4.042-4.533,7.223c0,4.437,3.597,8.034,8.034,8.034
			c3.247,0,6.037-1.93,7.304-4.702l-7.304-3.332L21.078,12.791z"/>
		<path class="st2" d="M24.578,11.979c-0.061,0-0.119,0.008-0.18,0.009l0.18,8.025l7.304,3.332c0.464-1.016,0.73-2.142,0.73-3.332
			C32.612,15.576,29.015,11.979,24.578,11.979z"/>
		<path class="st9" d="M24.361,11.99c-1.176,0.031-2.286,0.316-3.283,0.8l3.5,7.223L24.361,11.99z"/>
		<path class="st9" d="M24.578,20.013l-0.18-8.025c-0.013,0-0.025,0.002-0.038,0.002L24.578,20.013z"/>
	</g>
</g>
<g id="remote_x5F_mysql">
</g>
<g id="addon_x5F_domains">
</g>
<g id="mysql_x5F_database_x5F_wizard">
</g>
<g id="multiphp_x5F_ini_x5F_editor">
</g>
</svg>
