<?xml version="1.0" encoding="utf-8"?>
<!-- Generator: Adobe Illustrator 21.1.0, SVG Export Plug-In . SVG Version: 6.00 Build 0)  -->
<svg version="1.1" xmlns="http://www.w3.org/2000/svg" xmlns:xlink="http://www.w3.org/1999/xlink" x="0px" y="0px"
	 viewBox="0 0 48 48" style="enable-background:new 0 0 48 48;" xml:space="preserve">
<style type="text/css">
	.st0{fill:#E0E0E0;}
	.st1{fill:#262626;}
	.st2{fill:#4F5B94;}
	.st3{fill:#15587C;}
	.st4{fill:none;}
	.st5{fill:#BCBCBC;}
	.st6{fill:#FFFFFF;}
	.st7{fill:#D34231;}
	.st8{fill:#666666;}
	.st9{fill:#EDA72B;}
	.st10{fill:#25323C;}
	.st11{fill:#336792;}
	.st12{fill:#32415B;}
	.st13{fill:#84B556;}
	.st14{fill:#6A9638;}
	.st15{fill:#189BD8;}
	.st16{fill:#BA342A;}
	.st17{fill:#FF6C2C;}
	.st18{fill:#8892BF;}
	.st19{fill:#FFFFFF;stroke:#FFFFFF;stroke-width:0.25;stroke-miterlimit:10;}
	.st20{fill:#FFFFFF;stroke:#FFFFFF;stroke-miterlimit:10;}
	.st21{fill:#FF6A1A;}
	.st22{fill:#00AA17;}
	.st23{fill:#FA741D;}
	.st24{fill:none;stroke:#15587C;stroke-miterlimit:10;}
	.st25{fill:none;stroke:#15587C;stroke-width:1.5;stroke-miterlimit:10;}
	.st26{fill:none;stroke:#BA342A;stroke-width:5;stroke-miterlimit:10;}
	.st27{fill:#000004;}
	.st28{fill:#000004;stroke:#FFFFFF;stroke-width:0.5;stroke-miterlimit:10;}
	.st29{fill:#017F00;}
	.st30{fill:none;stroke:#BCBCBC;stroke-miterlimit:10;}
	.st31{fill:#39FF2A;}
	.st32{fill:#FF00B3;}
	.st33{fill:#4DFF00;}
	.st34{fill:#FFFFFF;stroke:#FFFFFF;stroke-width:1.5;stroke-miterlimit:10;}
	.st35{fill:#FFFFFF;stroke:#FFFFFF;stroke-width:0.5;stroke-miterlimit:10;}
	.st36{fill:#FFFFFF;stroke:#BCBCBC;stroke-miterlimit:10;}
</style>
<g id="Layer_1">
	<g>
		<path class="st5" d="M28.409,1.358c0,0-4.142-2.969-8.528,0L0.397,16.328L0,16.633c0,0.432,0,28.068,0,28.068
			s0.088,0.494,0.397,1.029c0.363,0.629,1.033,1.317,2.283,1.346c0.432,0.01,2.183,0.016,4.743,0.02l16.748-12.568
			c-7.06-5.494-19.092-14.86-19.364-15.088L21.63,5.838c2.796-2.375,5.399,0,5.399,0l17.352,13.524l3.602-2.703l0-0.026
			L28.409,1.358z"/>
		<path class="st6" d="M27.029,5.838c0,0-2.603-2.375-5.399,0L4.807,19.44c0.272,0.229,12.304,9.594,19.364,15.088l20.21-15.166
			L27.029,5.838z"/>
		<path class="st0" d="M48,29.328l-0.014,0.13l-0.03,0.022l0.027-12.821l-3.602,2.703l-20.21,15.166L7.423,47.096l38.374,0.047
			c0,0,0.591,0.005,1.155-0.404c0.038-0.026,0.062-0.044,0.09-0.067c0.01-0.009,0.021-0.016,0.031-0.025
			c0.066-0.054,0.109-0.096,0.109-0.096c0.017-0.014,0.028-0.035,0.044-0.051c0.031-0.032,0.06-0.068,0.09-0.103
			c0.095-0.108,0.177-0.227,0.246-0.359c0.022-0.04,0.045-0.081,0.066-0.124c0.021-0.046,0.041-0.091,0.059-0.139
			c0.091-0.218,0.162-0.471,0.207-0.764c0.002-0.013,0.004-0.025,0.006-0.038c0.01-0.07,0.021-0.139,0.028-0.213
			c0.054-0.439,0.049-0.778,0.049-0.778l0.015-10.737L48,29.328z"/>
		<g>
			<polygon class="st17" points="21.622,11.067 24.591,7.187 27.565,11.062 			"/>
			
				<rect x="21.744" y="12.049" transform="matrix(-1.337181e-10 1 -1 -1.337181e-10 38.2937 -10.8938)" class="st17" width="5.7" height="3.302"/>
		</g>
		<rect x="22.943" y="13.7" class="st17" width="3.302" height="16.022"/>
		<g>
			<polygon class="st17" points="30.601,13.863 34.399,13.741 33.53,17.44 			"/>
			
				<rect x="28.262" y="15.665" transform="matrix(-0.7742 0.6329 -0.6329 -0.7742 64.8027 10.7816)" class="st17" width="4.434" height="2.569"/>
		</g>
		
			<rect x="25.753" y="15.318" transform="matrix(0.6329 0.7742 -0.7742 0.6329 25.2254 -13.6791)" class="st17" width="2.569" height="8.888"/>
		<g>
			<polygon class="st17" points="15.217,16.885 14.289,13.2 18.088,13.262 			"/>
			
				<rect x="16.041" y="15.064" transform="matrix(0.7833 0.6217 -0.6217 0.7833 14.1211 -7.8076)" class="st17" width="4.434" height="2.569"/>
		</g>
		
			<rect x="20.454" y="14.667" transform="matrix(0.6217 -0.7833 0.7833 0.6217 -6.7451 24.2566)" class="st17" width="2.569" height="8.888"/>
	</g>
</g>
<g id="remote_x5F_mysql">
</g>
<g id="addon_x5F_domains">
</g>
<g id="mysql_x5F_database_x5F_wizard">
</g>
<g id="multiphp_x5F_ini_x5F_editor">
</g>
</svg>
