<?xml version="1.0" encoding="utf-8"?>
<!-- Generator: Adobe Illustrator 21.1.0, SVG Export Plug-In . SVG Version: 6.00 Build 0)  -->
<svg version="1.1" xmlns="http://www.w3.org/2000/svg" xmlns:xlink="http://www.w3.org/1999/xlink" x="0px" y="0px"
	 viewBox="0 0 48 48" style="enable-background:new 0 0 48 48;" xml:space="preserve">
<style type="text/css">
	.st0{fill:#E0E0E0;}
	.st1{fill:#262626;}
	.st2{fill:#4F5B94;}
	.st3{fill:#15587C;}
	.st4{fill:none;}
	.st5{fill:#BCBCBC;}
	.st6{fill:#FFFFFF;}
	.st7{fill:#D34231;}
	.st8{fill:#666666;}
	.st9{fill:#EDA72B;}
	.st10{fill:#25323C;}
	.st11{fill:#336792;}
	.st12{fill:#32415B;}
	.st13{fill:#84B556;}
	.st14{fill:#6A9638;}
	.st15{fill:#189BD8;}
	.st16{fill:#BA342A;}
	.st17{fill:#FF6C2C;}
	.st18{fill:#8892BF;}
	.st19{fill:#FFFFFF;stroke:#FFFFFF;stroke-width:0.25;stroke-miterlimit:10;}
	.st20{fill:#FFFFFF;stroke:#FFFFFF;stroke-miterlimit:10;}
	.st21{fill:#FF6A1A;}
	.st22{fill:#00AA17;}
	.st23{fill:#FA741D;}
	.st24{fill:none;stroke:#15587C;stroke-miterlimit:10;}
	.st25{fill:none;stroke:#15587C;stroke-width:1.5;stroke-miterlimit:10;}
	.st26{fill:none;stroke:#BA342A;stroke-width:5;stroke-miterlimit:10;}
	.st27{fill:#000004;}
	.st28{fill:#000004;stroke:#FFFFFF;stroke-width:0.5;stroke-miterlimit:10;}
	.st29{fill:#017F00;}
	.st30{fill:none;stroke:#BCBCBC;stroke-miterlimit:10;}
	.st31{fill:#39FF2A;}
	.st32{fill:#FF00B3;}
	.st33{fill:#4DFF00;}
	.st34{fill:#FFFFFF;stroke:#FFFFFF;stroke-width:1.5;stroke-miterlimit:10;}
	.st35{fill:#FFFFFF;stroke:#FFFFFF;stroke-width:0.5;stroke-miterlimit:10;}
	.st36{fill:#FFFFFF;stroke:#BCBCBC;stroke-miterlimit:10;}
</style>
<g id="Layer_1">
	<g>
		<circle class="st12" cx="24" cy="24" r="24"/>
		<path class="st5" d="M13.683,35.123c-0.354,0.353-0.926,0.352-1.278-0.002l-0.176-0.177c-0.353-0.354-0.352-0.926,0.002-1.278
			l12.107-12.07c0.32,0.611,0.712,1.193,1.172,1.737L13.683,35.123z"/>
		<path class="st8" d="M26.052,23.929c-0.026-0.026-0.051-0.054-0.076-0.081c-0.163-0.167-0.318-0.34-0.467-0.516l-11.826,11.79
			c-0.354,0.353-0.926,0.352-1.279-0.002l-0.176-0.177c-0.352-0.354-0.352-0.926,0.002-1.279l12.107-12.07
			c-0.322-0.615-0.571-1.259-0.751-1.917L9.665,33.558l0.093,4.823c0,0-0.003,0.771,0.871,0.873
			c0.874,0.102,5.926,0.067,5.926,0.067l0.034-3.292l3.277-0.009l0.091-3.292l3.22-0.009l0.019-3.306l4.408,0.007l0.335-0.357
			l2.469-2.625C28.811,26.017,27.301,25.183,26.052,23.929z"/>
		<path class="st9" d="M25.514,23.346c-0.46-0.545-0.852-1.127-1.172-1.737c-0.322-0.615-0.571-1.259-0.751-1.917
			c-0.884-3.232-0.056-6.834,2.486-9.369c3.74-3.729,9.777-3.744,13.539-0.056l-2.034,2.028c-0.994-0.997-2.607-0.999-3.604-0.005
			c-0.997,0.994-0.999,2.607-0.005,3.604l-6.407,6.387l-1.585,1.58C25.818,23.694,25.663,23.522,25.514,23.346z"/>
		<path class="st17" d="M39.691,10.331c-0.026-0.026-0.054-0.051-0.08-0.077l-2.034,2.028c0.994,0.997,0.991,2.61-0.005,3.604
			s-2.61,0.991-3.604-0.005l-6.407,6.387l-1.585,1.58c0.026,0.027,0.05,0.054,0.076,0.081c1.25,1.253,2.759,2.088,4.356,2.509
			c3.2,0.844,6.75,0.017,9.263-2.489C43.437,20.195,43.446,14.097,39.691,10.331z"/>
		<g>
			<path class="st6" d="M28.181,19.012c-0.483-0.123-0.949-0.409-1.399-0.859c-0.499-0.499-0.75-1.035-0.753-1.608
				s0.246-1.11,0.747-1.61c0.503-0.504,1.071-0.757,1.702-0.76c0.633-0.002,1.21,0.258,1.731,0.779
				c0.329,0.329,0.572,0.666,0.729,1.011l-0.677,0.678c-0.097-0.383-0.318-0.747-0.664-1.094c-0.29-0.29-0.624-0.43-1.001-0.417
				c-0.376,0.013-0.728,0.181-1.052,0.505c-0.329,0.329-0.503,0.666-0.52,1.01s0.115,0.655,0.394,0.934
				c0.167,0.167,0.325,0.275,0.473,0.325l0.625-0.626l-0.621-0.621l0.576-0.577l1.32,1.32L28.181,19.012z"/>
			<path class="st6" d="M30.373,19.425l-1.104,1.104L28.57,19.83l3.204-3.204l1.095,1.095c0.782,0.782,0.833,1.514,0.152,2.194
				c-0.321,0.322-0.694,0.47-1.118,0.444c-0.423-0.026-0.822-0.226-1.197-0.601L30.373,19.425z M31.919,17.879l-0.998,0.999
				l0.274,0.274c0.373,0.373,0.727,0.39,1.063,0.054c0.329-0.329,0.308-0.68-0.065-1.053L31.919,17.879z"/>
			<path class="st6" d="M34.033,24.864c-0.483-0.123-0.949-0.409-1.399-0.859c-0.499-0.499-0.75-1.035-0.753-1.608
				s0.246-1.11,0.747-1.61c0.503-0.504,1.07-0.757,1.702-0.76c0.633-0.002,1.21,0.258,1.731,0.779
				c0.329,0.329,0.571,0.666,0.729,1.011l-0.677,0.678c-0.097-0.383-0.318-0.748-0.664-1.094c-0.29-0.29-0.624-0.429-1.001-0.417
				s-0.728,0.181-1.052,0.505c-0.329,0.329-0.503,0.665-0.52,1.01c-0.017,0.344,0.115,0.655,0.394,0.934
				c0.167,0.167,0.325,0.276,0.473,0.325l0.625-0.626l-0.621-0.621l0.576-0.577l1.32,1.32L34.033,24.864z"/>
		</g>
	</g>
</g>
<g id="remote_x5F_mysql">
</g>
<g id="addon_x5F_domains">
</g>
<g id="mysql_x5F_database_x5F_wizard">
</g>
<g id="multiphp_x5F_ini_x5F_editor">
</g>
</svg>
