<?xml version="1.0" encoding="utf-8"?>
<!-- Generator: Adobe Illustrator 21.1.0, SVG Export Plug-In . SVG Version: 6.00 Build 0)  -->
<svg version="1.1" xmlns="http://www.w3.org/2000/svg" xmlns:xlink="http://www.w3.org/1999/xlink" x="0px" y="0px"
	 viewBox="0 0 48 48" style="enable-background:new 0 0 48 48;" xml:space="preserve">
<style type="text/css">
	.st0{fill:#E0E0E0;}
	.st1{fill:#262626;}
	.st2{fill:#4F5B94;}
	.st3{fill:#15587C;}
	.st4{fill:none;}
	.st5{fill:#BCBCBC;}
	.st6{fill:#FFFFFF;}
	.st7{fill:#D34231;}
	.st8{fill:#666666;}
	.st9{fill:#EDA72B;}
	.st10{fill:#25323C;}
	.st11{fill:#336792;}
	.st12{fill:#32415B;}
	.st13{fill:#84B556;}
	.st14{fill:#6A9638;}
	.st15{fill:#189BD8;}
	.st16{fill:#BA342A;}
	.st17{fill:#FF6C2C;}
	.st18{fill:#8892BF;}
	.st19{fill:#FFFFFF;stroke:#FFFFFF;stroke-width:0.25;stroke-miterlimit:10;}
	.st20{fill:#FFFFFF;stroke:#FFFFFF;stroke-miterlimit:10;}
	.st21{fill:#FF6A1A;}
	.st22{fill:#00AA17;}
	.st23{fill:#FA741D;}
	.st24{fill:none;stroke:#15587C;stroke-miterlimit:10;}
	.st25{fill:none;stroke:#15587C;stroke-width:1.5;stroke-miterlimit:10;}
	.st26{fill:none;stroke:#BA342A;stroke-width:5;stroke-miterlimit:10;}
	.st27{fill:#000004;}
	.st28{fill:#000004;stroke:#FFFFFF;stroke-width:0.5;stroke-miterlimit:10;}
	.st29{fill:#017F00;}
	.st30{fill:none;stroke:#BCBCBC;stroke-miterlimit:10;}
	.st31{fill:#39FF2A;}
	.st32{fill:#FF00B3;}
	.st33{fill:#4DFF00;}
	.st34{fill:#FFFFFF;stroke:#FFFFFF;stroke-width:1.5;stroke-miterlimit:10;}
	.st35{fill:#FFFFFF;stroke:#FFFFFF;stroke-width:0.5;stroke-miterlimit:10;}
	.st36{fill:#FFFFFF;stroke:#BCBCBC;stroke-miterlimit:10;}
</style>
<g id="Layer_1">
	<g>
		<path class="st7" d="M46.812,42.926H1.178c-0.653,0-1.188-0.534-1.188-1.188V6.188C-0.009,5.534,0.525,5,1.178,5h45.634
			C47.466,5,48,5.534,48,6.188v35.551C48,42.392,47.466,42.926,46.812,42.926z"/>
		<path class="st0" d="M44.16,40.742H3.831c-0.688,0-1.25-0.562-1.25-1.25V14.796c0-0.688,0.562-1.25,1.25-1.25H44.16
			c0.688,0,1.25,0.562,1.25,1.25v24.696C45.41,40.18,44.847,40.742,44.16,40.742z"/>
		<path class="st10" d="M4.116,10.882H3.744c-0.691,0-1.256-0.565-1.256-1.256V9.255c0-0.691,0.565-1.256,1.256-1.256h0.371
			c0.691,0,1.256,0.565,1.256,1.256v0.371C5.372,10.317,4.806,10.882,4.116,10.882z"/>
		<path class="st10" d="M9.261,10.882H8.89c-0.691,0-1.256-0.565-1.256-1.256V9.255c0-0.691,0.565-1.256,1.256-1.256h0.371
			c0.691,0,1.256,0.565,1.256,1.256v0.371C10.517,10.317,9.952,10.882,9.261,10.882z"/>
		<path class="st10" d="M14.406,10.882h-0.371c-0.691,0-1.256-0.565-1.256-1.256V9.255c0-0.691,0.565-1.256,1.256-1.256h0.371
			c0.691,0,1.256,0.565,1.256,1.256v0.371C15.662,10.317,15.097,10.882,14.406,10.882z"/>
		<polygon class="st7" points="19.715,37.058 13.907,31.251 13.907,23.038 19.715,17.23 27.928,17.23 33.735,23.038 33.735,31.251 
			27.928,37.058 		"/>
		<g>
			<path class="st6" d="M23.831,34.989c-0.543,0-0.991-0.17-1.345-0.511c-0.353-0.34-0.529-0.751-0.529-1.235
				c0-0.504,0.178-0.918,0.535-1.24c0.356-0.322,0.803-0.483,1.339-0.483c0.544,0,0.988,0.163,1.335,0.488
				c0.346,0.326,0.52,0.738,0.52,1.235c0,0.505-0.172,0.922-0.516,1.252C24.828,34.824,24.381,34.989,23.831,34.989z M25.502,19.67
				l-0.397,10.388h-2.607L22.12,19.67H25.502z"/>
		</g>
	</g>
</g>
<g id="remote_x5F_mysql">
</g>
<g id="addon_x5F_domains">
</g>
<g id="mysql_x5F_database_x5F_wizard">
</g>
<g id="multiphp_x5F_ini_x5F_editor">
</g>
</svg>
