<?xml version="1.0" encoding="utf-8"?>
<!-- Generator: Adobe Illustrator 21.1.0, SVG Export Plug-In . SVG Version: 6.00 Build 0)  -->
<svg version="1.1" xmlns="http://www.w3.org/2000/svg" xmlns:xlink="http://www.w3.org/1999/xlink" x="0px" y="0px"
	 viewBox="0 0 48 48" style="enable-background:new 0 0 48 48;" xml:space="preserve">
<style type="text/css">
	.st0{fill:#E0E0E0;}
	.st1{fill:#262626;}
	.st2{fill:#4F5B94;}
	.st3{fill:#15587C;}
	.st4{fill:none;}
	.st5{fill:#BCBCBC;}
	.st6{fill:#FFFFFF;}
	.st7{fill:#D34231;}
	.st8{fill:#666666;}
	.st9{fill:#EDA72B;}
	.st10{fill:#25323C;}
	.st11{fill:#336792;}
	.st12{fill:#32415B;}
	.st13{fill:#84B556;}
	.st14{fill:#6A9638;}
	.st15{fill:#189BD8;}
	.st16{fill:#BA342A;}
	.st17{fill:#FF6C2C;}
	.st18{fill:#8892BF;}
	.st19{fill:#FFFFFF;stroke:#FFFFFF;stroke-width:0.25;stroke-miterlimit:10;}
	.st20{fill:#FFFFFF;stroke:#FFFFFF;stroke-miterlimit:10;}
	.st21{fill:#FF6A1A;}
	.st22{fill:#00AA17;}
	.st23{fill:#FA741D;}
	.st24{fill:none;stroke:#15587C;stroke-miterlimit:10;}
	.st25{fill:none;stroke:#15587C;stroke-width:1.5;stroke-miterlimit:10;}
	.st26{fill:none;stroke:#BA342A;stroke-width:5;stroke-miterlimit:10;}
	.st27{fill:#000004;}
	.st28{fill:#000004;stroke:#FFFFFF;stroke-width:0.5;stroke-miterlimit:10;}
	.st29{fill:#017F00;}
	.st30{fill:none;stroke:#BCBCBC;stroke-miterlimit:10;}
	.st31{fill:#39FF2A;}
	.st32{fill:#FF00B3;}
	.st33{fill:#4DFF00;}
	.st34{fill:#FFFFFF;stroke:#FFFFFF;stroke-width:1.5;stroke-miterlimit:10;}
	.st35{fill:#FFFFFF;stroke:#FFFFFF;stroke-width:0.5;stroke-miterlimit:10;}
	.st36{fill:#FFFFFF;stroke:#BCBCBC;stroke-miterlimit:10;}
</style>
<g id="Layer_1">
	<path class="st12" d="M26.322,42.522v2.094l-2.398-1.954l-2.489-2.028l-0.088-7.511l-0.002-0.181L5.147,14.302h18.777h18.777
		l-9.61,10.991c0.973-0.266,1.993-0.42,3.051-0.42c4.608,0,8.574,2.702,10.433,6.601c0.732-2.288,1.131-4.724,1.131-7.255
		c0-13.134-10.647-23.782-23.782-23.782S0.142,11.084,0.142,24.218S10.79,48,23.924,48c2.531,0,4.967-0.399,7.255-1.131
		C29.171,45.912,27.487,44.399,26.322,42.522z"/>
	<polygon class="st5" points="23.924,35.748 23.924,33.124 21.511,33.124 	"/>
	<path class="st5" d="M23.924,14.302v18.822h1.141c1.137-3.807,4.182-6.781,8.026-7.832l9.61-10.991H23.924z"/>
	<polygon class="st0" points="23.924,33.124 23.924,14.302 5.147,14.302 21.345,32.943 21.511,33.124 	"/>
	<path class="st8" d="M24.579,36.461c0-0.008-0.001-0.016-0.001-0.025c0-1.152,0.174-2.262,0.487-3.312h-1.141v2.625L24.579,36.461z
		"/>
	<polygon class="st31" points="21.345,32.943 21.347,33.124 21.511,33.124 	"/>
	<path class="st5" d="M23.924,35.748v6.914l2.398,1.954v-2.094c-1.095-1.763-1.738-3.835-1.743-6.061L23.924,35.748z"/>
	<polygon class="st0" points="21.511,33.124 21.347,33.124 21.435,40.634 23.924,42.662 23.924,35.748 	"/>
	<path class="st32" d="M35.665,26.563l-0.016,0.014c0.019-0.001,0.039-0.002,0.058-0.003L35.665,26.563z"/>
	<path class="st13" d="M29.003,29.64l4.383-2.678C31.693,27.458,30.187,28.395,29.003,29.64z"/>
	<path class="st13" d="M28.242,33.61l0.157,0.313l0.157,0.219l0.157,0.376l0.157,0.251l0.125,0.532h0.376c0,0,0.282,0.157,0,0.72
		c-0.282,0.564-0.251,1.535,0.125,2.287c0.376,0.752,0.783,0.752,0.783,0.752s0.125,0.532,0.376,0.846
		c0.251,0.313-0.188,1.096-0.188,1.096l0.265,0.658c0,0,0.048,1.441,0.518,1.441c0,0-0.376,1.034,0.94,1.159
		c0,0,0.564,0.094,0.188-0.564l0.129-0.439V42.85l0.81-1.316c0,0,0.094-0.532,0.564-0.658c0.47-0.125,0.47-0.125,0.47-0.125
		s0.595,0.125,0.72-1.002c0,0,0.908-0.251,0.971-1.096c0.063-0.846-0.564-1.316-0.564-1.316h-0.564l-0.564-0.532l-0.532,0.031
		c0,0-0.094-0.626-0.532-1.19l-0.376-0.063c0,0-0.094-0.313-0.877-0.251l-0.063-0.345l-1.566-0.564l-0.595,0.626l-0.689-0.47
		l0.063-0.47l-0.532-0.376l0.219-0.313l0.094-0.439h-0.219c0,0-0.971-0.532,0-1.66l1.065-0.094l0.094,0.47l0.313,0.595l0.595-0.658
		l-0.063-0.439c0,0,0.72-0.282,0.752-0.814c0,0,0.125,0.125,1.284-0.564h0.846l-0.063-0.501h0.157h0.47l0.439-0.345l-0.345-0.595
		l0.125-0.313h-0.313l-0.376-0.376l-0.376,0.501l-0.282,0.031c0,0-0.72,1.19-0.877-0.063l0.877-0.814h0.282l0.532-0.157
		c0,0,0.501,0.814,0.752,0c0,0,0.407,0.031,0.063-0.282l0.019-0.237c-0.453,0.067-0.896,0.165-1.327,0.291l-4.383,2.678
		c-0.509,0.535-0.958,1.127-1.338,1.765l-0.19,0.703C27.475,32.107,27.114,33.172,28.242,33.61z"/>
	<path class="st11" d="M45.532,38.058v0.564l-0.188,0.313v0.345l-0.376,0.877l-0.683,0.877l-0.225,0.439l-0.157,0.219
		c0,0-0.063,0.626-0.783,0.971c-0.72,0.345-0.846-0.251-0.846-0.251l0.157-0.47c-0.689-0.564,0.219-1.347,0.219-1.347
		s0,0,0.125-0.438c0.125-0.439-0.094-1.284-0.094-1.284l0.376-0.564v-0.877l-0.345-0.407c0.407-1.002-0.501-0.814-0.501-0.814
		l-0.357-0.47l-0.27,0.313l-1.002,0.157c0,0-0.407,0-0.846-0.47c-0.439-0.47-0.313-1.034-0.227-0.94
		c0.086,0.094,0.196-0.658,0.196-0.658l-0.188-0.125c-0.094-1.566,0.658-1.566,0.658-1.566c-0.063-0.626,0.501-0.752,0.501-0.752
		c1.848-0.595,2.506,0.322,2.506,0.322s0.065-0.105,0.18-0.184c0.138-0.096,0.347-0.155,0.604,0.05
		c0.47,0.376,0.282-0.157,0.282-0.157l-0.251-0.526h-0.532c0,0-0.125-0.1-0.125-0.194c0-0.081-0.28,0.123-0.357,0.18
		c-0.012,0.009-0.019,0.015-0.019,0.015v-0.048v-0.147c-0.079-0.108-0.139-0.154-0.184-0.167c-0.1-0.028-0.129,0.105-0.129,0.105
		c-0.626,0.282-0.47-0.063-0.47-0.063c0.376-0.72-0.564-0.282-0.564-0.282c-0.47-0.251-0.439,0.282-0.439,0.282
		s-1.128,0.814-1.347-0.157c-0.219-0.971,0.689-0.345,0.689-0.345l0.282-0.501h0.376v-0.501L40.802,29.1v-0.157l-0.642-0.439h-0.172
		l-0.219-0.626l-0.251-0.157v-0.251h0.803c-1.261-0.583-2.666-0.908-4.146-0.908c-0.157,0-0.313,0.004-0.468,0.011l0.648,0.177
		h0.407l0.125,0.219h0.47l-0.376,0.501h-0.282c-0.125,0.47-0.345,0.282-0.345,0.282c-1.128,0.971-0.814-0.595-0.814-0.595
		l-0.282-0.251l0.391-0.331c-0.316,0.017-0.628,0.048-0.936,0.094l-0.019,0.237c0.345,0.313-0.063,0.282-0.063,0.282
		c-0.251,0.814-0.752,0-0.752,0l-0.532,0.157h-0.282l-0.877,0.814c0.157,1.253,0.877,0.063,0.877,0.063l0.282-0.031l0.376-0.501
		l0.376,0.376h0.313l-0.125,0.313l0.345,0.595l-0.438,0.345h-0.47h-0.157l0.063,0.501h-0.846c-1.159,0.689-1.284,0.564-1.284,0.564
		c-0.031,0.532-0.752,0.814-0.752,0.814l0.063,0.438l-0.595,0.658L29.902,31.7l-0.094-0.47l-1.065,0.094c-0.971,1.128,0,1.66,0,1.66
		h0.219l-0.094,0.439l-0.219,0.313l0.532,0.376l-0.063,0.47l0.689,0.47l0.595-0.626l1.566,0.564l0.063,0.345
		c0.783-0.063,0.877,0.251,0.877,0.251l0.376,0.063c0.438,0.564,0.532,1.19,0.532,1.19l0.532-0.031l0.564,0.533h0.564
		c0,0,0.626,0.47,0.564,1.315c-0.063,0.846-0.971,1.096-0.971,1.096c-0.125,1.128-0.72,1.002-0.72,1.002s0,0-0.47,0.125
		s-0.564,0.658-0.564,0.658l-0.81,1.316v0.407l-0.129,0.438c0.376,0.658-0.188,0.564-0.188,0.564
		c-1.315-0.125-0.94-1.159-0.94-1.159c-0.47,0-0.518-1.441-0.518-1.441l-0.265-0.658c0,0,0.439-0.783,0.188-1.096
		c-0.251-0.313-0.376-0.846-0.376-0.846s-0.407,0-0.783-0.752c-0.376-0.752-0.407-1.723-0.125-2.286c0.282-0.564,0-0.72,0-0.72
		h-0.376l-0.125-0.532l-0.157-0.251l-0.157-0.376l-0.157-0.219l-0.157-0.313c-1.128-0.439-0.767-1.503-0.767-1.503l0.19-0.703
		c-0.881,1.48-1.388,3.209-1.388,5.056c0,4.215,2.635,7.814,6.348,9.241l0.128-0.221l0.376,0.157c0,0,0.188-0.439,0.595-0.439
		c0,0,0.094,0.251,0.689,0.439c0.595,0.188,0.877-0.125,0.877-0.125l0.752,0.125c0,0,0.219-0.439,0.689-0.188
		c0.47,0.251,0.689,0.188,0.689,0.188l0.376-0.251l0.376,0.031l0.626-0.219c0,0,0.47-0.313,0.783,0.439
		c0.014,0.034,0.029,0.068,0.043,0.102c3.442-1.28,5.978-4.419,6.39-8.197L45.532,38.058z"/>
	<path class="st13" d="M41.008,27.822c-0.224-0.125-0.453-0.243-0.687-0.351h-0.803v0.251l0.251,0.157l0.219,0.626h0.172
		l0.642,0.439V29.1l0.376,0.282v0.501h-0.376l-0.282,0.501c0,0-0.908-0.626-0.689,0.345c0.219,0.971,1.347,0.157,1.347,0.157
		s-0.031-0.532,0.439-0.282c0,0,0.94-0.438,0.564,0.282c0,0-0.157,0.345,0.47,0.063c0,0,0.03-0.133,0.129-0.105
		c0.045,0.013,0.106,0.059,0.184,0.167v0.147v0.048c0,0,0.007-0.006,0.019-0.015c0.076-0.057,0.357-0.261,0.357-0.18
		c0,0.094,0.125,0.194,0.125,0.194h0.532l0.251,0.526c0,0,0.188,0.532-0.282,0.157c-0.257-0.205-0.466-0.146-0.604-0.05
		c-0.114,0.08-0.18,0.184-0.18,0.184s-0.658-0.917-2.506-0.322c0,0-0.564,0.125-0.501,0.752c0,0-0.752,0-0.658,1.566l0.188,0.125
		c0,0-0.11,0.752-0.196,0.658c-0.086-0.094-0.211,0.47,0.227,0.94c0.438,0.47,0.846,0.47,0.846,0.47l1.002-0.157l0.27-0.313
		l0.357,0.47c0,0,0.908-0.188,0.501,0.814l0.345,0.407v0.877l-0.376,0.564c0,0,0.219,0.846,0.094,1.284
		c-0.125,0.438-0.125,0.438-0.125,0.438s-0.908,0.783-0.219,1.347l-0.157,0.47c0,0,0.125,0.595,0.846,0.251
		c0.72-0.345,0.783-0.971,0.783-0.971l0.157-0.219l0.225-0.439l0.683-0.877l0.376-0.877v-0.345l0.188-0.313v-0.564l0.481-0.515
		c0.039-0.356,0.059-0.717,0.059-1.083V36.46C46.072,32.749,44.03,29.516,41.008,27.822z"/>
	<path class="st13" d="M38.798,45.2l-0.626,0.219l-0.376-0.031l-0.376,0.251c0,0-0.219,0.063-0.689-0.188
		c-0.47-0.251-0.689,0.188-0.689,0.188l-0.752-0.125c0,0-0.282,0.313-0.877,0.125c-0.595-0.188-0.689-0.439-0.689-0.439
		c-0.407,0-0.595,0.439-0.595,0.439l-0.376-0.157l-0.128,0.221c1.102,0.424,2.299,0.656,3.55,0.656c1.213,0,2.375-0.219,3.449-0.618
		c-0.014-0.034-0.029-0.069-0.043-0.102C39.267,44.886,38.798,45.2,38.798,45.2z"/>
	<path class="st13" d="M35.54,27.158c0,0-0.313,1.566,0.814,0.595c0,0,0.219,0.188,0.345-0.282h0.282l0.376-0.501h-0.47
		l-0.125-0.219h-0.407l-0.648-0.177c-0.019,0.001-0.039,0.002-0.058,0.003l-0.391,0.331L35.54,27.158z"/>
</g>
<g id="remote_x5F_mysql">
</g>
<g id="addon_x5F_domains">
</g>
<g id="mysql_x5F_database_x5F_wizard">
</g>
<g id="multiphp_x5F_ini_x5F_editor">
</g>
</svg>
