<?xml version="1.0" encoding="utf-8"?>
<!-- Generator: Adobe Illustrator 21.1.0, SVG Export Plug-In . SVG Version: 6.00 Build 0)  -->
<svg version="1.1" xmlns="http://www.w3.org/2000/svg" xmlns:xlink="http://www.w3.org/1999/xlink" x="0px" y="0px"
	 viewBox="0 0 46 45" style="enable-background:new 0 0 46 45;" xml:space="preserve">
<style type="text/css">
	.st0{fill:#E0E0E0;}
	.st1{fill:#262626;}
	.st2{fill:#4F5B94;}
	.st3{fill:#15587C;}
	.st4{fill:none;}
	.st5{fill:#BCBCBC;}
	.st6{fill:#FFFFFF;}
	.st7{fill:#D34231;}
	.st8{fill:#666666;}
	.st9{fill:#EDA72B;}
	.st10{fill:#25323C;}
	.st11{fill:#336792;}
	.st12{fill:#32415B;}
	.st13{fill:#84B556;}
	.st14{fill:#6A9638;}
	.st15{fill:#189BD8;}
	.st16{fill:#BA342A;}
	.st17{fill:#FF6C2C;}
	.st18{fill:#8892BF;}
	.st19{fill:#FFFFFF;stroke:#FFFFFF;stroke-width:0.25;stroke-miterlimit:10;}
	.st20{fill:#FFFFFF;stroke:#FFFFFF;stroke-miterlimit:10;}
	.st21{fill:#FF6A1A;}
	.st22{fill:#00AA17;}
	.st23{fill:#FA741D;}
	.st24{fill:none;stroke:#15587C;stroke-miterlimit:10;}
	.st25{fill:none;stroke:#15587C;stroke-width:1.5;stroke-miterlimit:10;}
	.st26{fill:none;stroke:#BA342A;stroke-width:5;stroke-miterlimit:10;}
	.st27{fill:#000004;}
	.st28{fill:#000004;stroke:#FFFFFF;stroke-width:0.5;stroke-miterlimit:10;}
	.st29{fill:#017F00;}
	.st30{fill:none;stroke:#BCBCBC;stroke-miterlimit:10;}
	.st31{fill:#39FF2A;}
	.st32{fill:#FF00B3;}
	.st33{fill:#4DFF00;}
	.st34{fill:#FFFFFF;stroke:#FFFFFF;stroke-width:1.5;stroke-miterlimit:10;}
	.st35{fill:#FFFFFF;stroke:#FFFFFF;stroke-width:0.5;stroke-miterlimit:10;}
	.st36{fill:#FFFFFF;stroke:#BCBCBC;stroke-miterlimit:10;}
</style>
<g id="Layer_1">
	<g>
		<polygon class="st4" points="7.118,45 22.506,45 22.556,44.963 		"/>
		<path class="st5" d="M27.225,1.261c0,0-3.956-2.836-8.147,0L0.466,15.562l-0.379,0.291c0,0.413,0,26.814,0,26.814
			s0.085,0.471,0.379,0.983c0.346,0.601,0.987,1.258,2.181,1.286c0.413,0.01,2.086,0.016,4.531,0.019l15.999-12.006
			C16.433,27.7,4.938,18.753,4.678,18.535L20.75,5.54c2.671-2.269,5.158,0,5.158,0l16.577,12.92l3.441-2.582l0-0.025L27.225,1.261z"
			/>
		<path class="st6" d="M25.907,5.54c0,0-2.487-2.269-5.158,0L4.678,18.535c0.26,0.218,11.755,9.166,18.499,14.414L42.484,18.46
			L25.907,5.54z"/>
		<path class="st0" d="M22.566,44.956l-0.009,0.007l4.088-0.01C25.299,44.954,23.933,44.955,22.566,44.956L22.566,44.956z"/>
		<path class="st0" d="M22.566,44.956c-5.787,0.004-11.544,0.005-15.388-0.001L7.118,45l15.438-0.037L22.566,44.956L22.566,44.956z"
			/>
		<polygon class="st0" points="45.925,15.878 45.899,28.126 45.928,28.105 45.941,27.981 45.958,15.853 		"/>
		<path class="st0" d="M45.941,27.981l-0.013,0.124l-0.029,0.021l0.026-12.248l-3.441,2.582L23.177,32.949L7.178,44.955L43.837,45
			c0,0,0.565,0.005,1.104-0.386c0.036-0.025,0.059-0.042,0.086-0.064c0.01-0.008,0.02-0.015,0.03-0.024
			c0.063-0.052,0.104-0.092,0.104-0.092c0.016-0.014,0.027-0.034,0.042-0.048c0.029-0.031,0.058-0.065,0.086-0.098
			c0.09-0.103,0.169-0.216,0.235-0.343c0.021-0.039,0.043-0.077,0.063-0.119c0.02-0.044,0.039-0.087,0.057-0.132
			c0.087-0.208,0.154-0.45,0.198-0.73c0.002-0.012,0.004-0.024,0.006-0.036c0.01-0.067,0.02-0.133,0.027-0.204
			c0.052-0.419,0.047-0.743,0.047-0.743l0.014-10.258L45.941,27.981z"/>
		<g>
			<polygon class="st7" points="20.482,25.307 16.099,20.924 16.099,14.726 20.482,10.343 26.68,10.343 31.063,14.726 
				31.063,20.924 26.68,25.307 			"/>
			<g>
				<path class="st6" d="M23.587,23.863c-0.421,0-0.768-0.132-1.042-0.396c-0.273-0.263-0.41-0.582-0.41-0.956
					c0-0.392,0.138-0.712,0.415-0.961c0.276-0.25,0.622-0.375,1.037-0.375c0.42,0,0.765,0.126,1.033,0.379
					c0.268,0.252,0.402,0.571,0.402,0.957c0,0.391-0.133,0.714-0.398,0.969S24.013,23.863,23.587,23.863z M24.88,11.999
					l-0.308,8.045h-2.019l-0.292-8.045H24.88z"/>
			</g>
		</g>
	</g>
</g>
<g id="remote_x5F_mysql">
</g>
<g id="addon_x5F_domains">
</g>
<g id="mysql_x5F_database_x5F_wizard">
</g>
<g id="multiphp_x5F_ini_x5F_editor">
</g>
</svg>
