<?xml version="1.0" encoding="utf-8"?>
<!-- Generator: Adobe Illustrator 21.1.0, SVG Export Plug-In . SVG Version: 6.00 Build 0)  -->
<svg version="1.1" xmlns="http://www.w3.org/2000/svg" xmlns:xlink="http://www.w3.org/1999/xlink" x="0px" y="0px"
	 viewBox="0 0 48 48" style="enable-background:new 0 0 48 48;" xml:space="preserve">
<style type="text/css">
	.st0{fill:#E0E0E0;}
	.st1{fill:#262626;}
	.st2{fill:#4F5B94;}
	.st3{fill:#15587C;}
	.st4{fill:none;}
	.st5{fill:#BCBCBC;}
	.st6{fill:#FFFFFF;}
	.st7{fill:#D34231;}
	.st8{fill:#666666;}
	.st9{fill:#EDA72B;}
	.st10{fill:#25323C;}
	.st11{fill:#336792;}
	.st12{fill:#32415B;}
	.st13{fill:#84B556;}
	.st14{fill:#6A9638;}
	.st15{fill:#189BD8;}
	.st16{fill:#BA342A;}
	.st17{fill:#FF6C2C;}
	.st18{fill:#8892BF;}
	.st19{fill:#FFFFFF;stroke:#FFFFFF;stroke-width:0.25;stroke-miterlimit:10;}
	.st20{fill:#FFFFFF;stroke:#FFFFFF;stroke-miterlimit:10;}
	.st21{fill:#FF6A1A;}
	.st22{fill:#00AA17;}
	.st23{fill:#FA741D;}
	.st24{fill:none;stroke:#15587C;stroke-miterlimit:10;}
	.st25{fill:none;stroke:#15587C;stroke-width:1.5;stroke-miterlimit:10;}
	.st26{fill:none;stroke:#BA342A;stroke-width:5;stroke-miterlimit:10;}
	.st27{fill:#000004;}
	.st28{fill:#000004;stroke:#FFFFFF;stroke-width:0.5;stroke-miterlimit:10;}
	.st29{fill:#017F00;}
	.st30{fill:none;stroke:#BCBCBC;stroke-miterlimit:10;}
	.st31{fill:#39FF2A;}
	.st32{fill:#FF00B3;}
	.st33{fill:#4DFF00;}
	.st34{fill:#FFFFFF;stroke:#FFFFFF;stroke-width:1.5;stroke-miterlimit:10;}
	.st35{fill:#FFFFFF;stroke:#FFFFFF;stroke-width:0.5;stroke-miterlimit:10;}
	.st36{fill:#FFFFFF;stroke:#BCBCBC;stroke-miterlimit:10;}
</style>
<g id="Layer_1">
	<g>
		<path class="st18" d="M46.812,44.391H5.2c-0.653,0-1.188-0.534-1.188-1.188V10.83c0-0.653,0.534-1.188,1.188-1.188h41.612
			c0.653,0,1.188,0.534,1.188,1.188v32.374C48,43.857,47.466,44.391,46.812,44.391z"/>
		<path class="st2" d="M44.918,42.232H3.306c-0.653,0-1.188-0.534-1.188-1.188V8.67c0-0.653,0.534-1.188,1.188-1.188h41.612
			c0.653,0,1.188,0.534,1.188,1.188v32.374C46.106,41.698,45.571,42.232,44.918,42.232z"/>
		<path class="st18" d="M42.8,39.904H1.188C0.534,39.904,0,39.37,0,38.717V6.343C0,5.69,0.534,5.155,1.188,5.155H42.8
			c0.653,0,1.188,0.534,1.188,1.188v32.374C43.987,39.37,43.453,39.904,42.8,39.904z"/>
		<path class="st0" d="M40.364,37.903H3.623c-0.688,0-1.25-0.562-1.25-1.25V14.235c0-0.688,0.562-1.25,1.25-1.25h36.741
			c0.688,0,1.25,0.562,1.25,1.25v22.418C41.614,37.341,41.052,37.903,40.364,37.903z"/>
		<path class="st0" d="M3.916,10.544H3.302c-0.558,0-1.014-0.456-1.014-1.014V8.916c0-0.558,0.456-1.014,1.014-1.014h0.614
			c0.558,0,1.014,0.456,1.014,1.014V9.53C4.93,10.088,4.474,10.544,3.916,10.544z"/>
		<path class="st0" d="M8.63,10.544H8.016c-0.558,0-1.014-0.456-1.014-1.014V8.916c0-0.558,0.456-1.014,1.014-1.014H8.63
			c0.558,0,1.014,0.456,1.014,1.014V9.53C9.644,10.088,9.188,10.544,8.63,10.544z"/>
		<path class="st0" d="M13.344,10.544H12.73c-0.558,0-1.014-0.456-1.014-1.014V8.916c0-0.558,0.456-1.014,1.014-1.014h0.614
			c0.558,0,1.014,0.456,1.014,1.014V9.53C14.358,10.088,13.902,10.544,13.344,10.544z"/>
		<ellipse class="st18" cx="21.994" cy="25.444" rx="13.683" ry="7.241"/>
		<g>
			<g>
				<path class="st6" d="M25.308,27.492l0.639-3.29c0.144-0.743,0.024-1.296-0.357-1.646c-0.369-0.339-0.995-0.503-1.914-0.503
					H22.57l0.317-1.63c0.012-0.061-0.004-0.125-0.044-0.173c-0.04-0.048-0.099-0.076-0.162-0.076h-1.528
					c-0.1,0-0.187,0.071-0.206,0.17l-0.679,3.493c-0.062-0.393-0.214-0.731-0.457-1.009c-0.448-0.513-1.157-0.773-2.107-0.773
					h-2.961c-0.1,0-0.187,0.071-0.206,0.17l-1.374,7.069c-0.012,0.061,0.004,0.125,0.044,0.173c0.04,0.048,0.099,0.076,0.162,0.076
					h1.54c0.1,0,0.187-0.071,0.206-0.17l0.332-1.71h1.146c0.602,0,1.107-0.065,1.502-0.194c0.403-0.131,0.775-0.354,1.102-0.66
					c0.264-0.243,0.483-0.515,0.651-0.808l-0.275,1.413c-0.012,0.061,0.004,0.125,0.044,0.173c0.04,0.048,0.099,0.076,0.162,0.076
					h1.528c0.1,0,0.187-0.071,0.206-0.17l0.754-3.88h1.048c0.447,0,0.577,0.089,0.613,0.127c0.032,0.035,0.1,0.158,0.024,0.545
					l-0.608,3.128c-0.012,0.061,0.004,0.125,0.044,0.173c0.04,0.048,0.099,0.076,0.162,0.076h1.552
					C25.203,27.662,25.289,27.591,25.308,27.492z M18.225,24.774c-0.096,0.493-0.277,0.845-0.538,1.046
					c-0.265,0.204-0.689,0.307-1.259,0.307h-0.683l0.494-2.54h0.882c0.648,0,0.909,0.139,1.014,0.255
					C18.281,24.004,18.312,24.326,18.225,24.774z"/>
				<path class="st6" d="M31.842,22.826c-0.448-0.513-1.157-0.773-2.107-0.773h-2.961c-0.1,0-0.187,0.071-0.206,0.17l-1.374,7.069
					c-0.012,0.061,0.004,0.125,0.044,0.173c0.04,0.048,0.099,0.076,0.162,0.076h1.54c0.1,0,0.187-0.071,0.206-0.17l0.332-1.71h1.146
					c0.602,0,1.107-0.065,1.501-0.194c0.403-0.131,0.775-0.354,1.102-0.66c0.273-0.251,0.498-0.533,0.668-0.837
					c0.17-0.304,0.292-0.644,0.363-1.009C32.433,24.062,32.293,23.343,31.842,22.826z M30.245,24.774
					c-0.096,0.493-0.277,0.845-0.538,1.046c-0.265,0.204-0.689,0.307-1.259,0.307h-0.683l0.494-2.54h0.882
					c0.648,0,0.909,0.139,1.014,0.255C30.301,24.004,30.332,24.326,30.245,24.774z"/>
			</g>
			<g>
				<path class="st27" d="M17.121,23.378c0.585,0,0.975,0.108,1.17,0.324c0.195,0.216,0.241,0.587,0.139,1.112
					c-0.106,0.547-0.311,0.938-0.615,1.172s-0.766,0.351-1.387,0.351h-0.937l0.575-2.959H17.121z M13.369,29.332h1.54l0.365-1.88
					h1.319c0.582,0,1.061-0.061,1.437-0.183c0.376-0.122,0.718-0.327,1.025-0.615c0.258-0.237,0.467-0.499,0.627-0.785
					c0.16-0.286,0.273-0.602,0.34-0.947c0.163-0.838,0.04-1.491-0.369-1.958c-0.408-0.468-1.058-0.701-1.949-0.701h-2.961
					L13.369,29.332z"/>
				<path class="st27" d="M21.153,20.383h1.528l-0.365,1.88h1.361c0.856,0,1.447,0.149,1.772,0.448
					c0.325,0.299,0.423,0.783,0.293,1.452l-0.639,3.29H23.55l0.608-3.128c0.069-0.356,0.044-0.599-0.076-0.728
					c-0.12-0.129-0.376-0.194-0.767-0.194h-1.221l-0.787,4.05h-1.528L21.153,20.383z"/>
				<path class="st27" d="M29.141,23.378c0.585,0,0.975,0.108,1.17,0.324c0.195,0.216,0.241,0.587,0.139,1.112
					c-0.106,0.547-0.311,0.938-0.615,1.172c-0.304,0.234-0.766,0.351-1.387,0.351h-0.937l0.575-2.959H29.141z M25.389,29.332h1.54
					l0.365-1.88h1.319c0.582,0,1.061-0.061,1.437-0.183c0.376-0.122,0.718-0.327,1.025-0.615c0.258-0.237,0.467-0.499,0.627-0.785
					c0.16-0.286,0.273-0.602,0.34-0.947c0.163-0.838,0.04-1.491-0.369-1.958c-0.408-0.468-1.058-0.701-1.949-0.701h-2.961
					L25.389,29.332z"/>
			</g>
		</g>
	</g>
</g>
<g id="remote_x5F_mysql">
</g>
<g id="addon_x5F_domains">
</g>
<g id="mysql_x5F_database_x5F_wizard">
</g>
<g id="multiphp_x5F_ini_x5F_editor">
</g>
</svg>
