<?xml version="1.0" encoding="utf-8"?>
<!-- Generator: Adobe Illustrator 21.1.0, SVG Export Plug-In . SVG Version: 6.00 Build 0)  -->
<svg version="1.1" xmlns="http://www.w3.org/2000/svg" xmlns:xlink="http://www.w3.org/1999/xlink" x="0px" y="0px"
	 viewBox="0 0 48 48" style="enable-background:new 0 0 48 48;" xml:space="preserve">
<style type="text/css">
	.st0{fill:#262626;}
	.st1{fill:#E0E0E0;}
	.st2{fill:#4F5B94;}
	.st3{fill:#15587C;}
	.st4{fill:none;}
	.st5{fill:#BCBCBC;}
	.st6{fill:#FFFFFF;}
	.st7{fill:#D34231;}
	.st8{fill:#666666;}
	.st9{fill:#EDA72B;}
	.st10{fill:#25323C;}
	.st11{fill:#336792;}
	.st12{fill:#32415B;}
	.st13{fill:#84B556;}
	.st14{fill:#6A9638;}
	.st15{fill:#189BD8;}
	.st16{fill:#BA342A;}
	.st17{fill:#FF6C2C;}
	.st18{fill:#8892BF;}
	.st19{fill:#FFFFFF;stroke:#FFFFFF;stroke-width:0.25;stroke-miterlimit:10;}
	.st20{fill:#FFFFFF;stroke:#FFFFFF;stroke-miterlimit:10;}
	.st21{fill:#FF6A1A;}
	.st22{fill:#00AA17;}
	.st23{fill:#FA741D;}
	.st24{fill:none;stroke:#15587C;stroke-miterlimit:10;}
	.st25{fill:none;stroke:#15587C;stroke-width:1.5;stroke-miterlimit:10;}
	.st26{fill:none;stroke:#BA342A;stroke-width:5;stroke-miterlimit:10;}
	.st27{fill:#000004;}
	.st28{fill:#000004;stroke:#FFFFFF;stroke-width:0.5;stroke-miterlimit:10;}
	.st29{fill:#017F00;}
	.st30{fill:none;stroke:#BCBCBC;stroke-miterlimit:10;}
	.st31{fill:#39FF2A;}
	.st32{fill:#FF00B3;}
	.st33{fill:#4DFF00;}
	.st34{fill:#FFFFFF;stroke:#FFFFFF;stroke-width:1.5;stroke-miterlimit:10;}
	.st35{fill:#FFFFFF;stroke:#FFFFFF;stroke-width:0.5;stroke-miterlimit:10;}
	.st36{fill:#FFFFFF;stroke:#BCBCBC;stroke-miterlimit:10;}
</style>
<g id="Layer_1">
	<path class="st4" d="M15.231,11.803c-0.689,0-1.254,0.2-1.693,0.6c-0.439,0.4-0.659,0.916-0.659,1.548
		c0,0.614,0.22,1.132,0.659,1.555c0.439,0.423,1.004,0.634,1.693,0.634c0.698,0,1.265-0.205,1.7-0.614
		c0.435-0.409,0.653-0.934,0.653-1.575c0-0.632-0.218-1.148-0.653-1.548C16.496,12.003,15.93,11.803,15.231,11.803z"/>
	<path class="st4" d="M38.77,11.803c-0.69,0-1.254,0.2-1.693,0.6c-0.439,0.4-0.659,0.916-0.659,1.548
		c0,0.614,0.22,1.132,0.659,1.555c0.439,0.423,1.004,0.634,1.693,0.634c0.698,0,1.265-0.205,1.7-0.614
		c0.434-0.409,0.652-0.934,0.652-1.575c0-0.632-0.218-1.148-0.652-1.548C40.035,12.003,39.468,11.803,38.77,11.803z"/>
	<path class="st4" d="M7.876,27.896c-0.689,0-1.265,0.205-1.725,0.614c-0.461,0.409-0.692,0.934-0.692,1.575
		c0,0.622,0.224,1.148,0.672,1.575c0.448,0.427,1.008,0.64,1.681,0.64c0.724,0,1.312-0.206,1.764-0.62
		c0.452-0.414,0.679-0.945,0.679-1.594c0-0.632-0.222-1.155-0.666-1.569C9.145,28.103,8.574,27.896,7.876,27.896z"/>
	<path class="st4" d="M43.79,36.613l-0.947-1.022l1.242,1.4c0.013-0.021,0.022-0.034,0.022-0.034L43.79,36.613z"/>
	<rect x="13.163" y="18.302" class="st4" width="4.085" height="13.664"/>
	<polygon class="st2" points="42.842,35.59 42.842,35.59 42.844,35.591 	"/>
</g>
<g id="remote_x5F_mysql">
</g>
<g id="addon_x5F_domains">
</g>
<g id="mysql_x5F_database_x5F_wizard">
</g>
<g id="multiphp_x5F_ini_x5F_editor">
	<g>
		<path class="st11" d="M35.811,32.589l-3.432,3.131l9.131,9.945c1.186-1.06,2.158-2.349,2.852-3.8L35.811,32.589z"/>
		<path class="st3" d="M28.931,38.865l8.429,9.229c1.55-0.528,2.954-1.361,4.149-2.43l-9.131-9.945L28.931,38.865z"/>
		<polygon class="st10" points="30.69,30.897 26.812,29.656 27.711,33.588 29.193,32.249 		"/>
		<polygon class="st5" points="35.811,32.589 35.741,32.513 30.69,30.897 29.193,32.249 27.711,33.588 28.912,38.844 28.931,38.865 
			32.379,35.72 		"/>
	</g>
	<path class="st2" d="M24.062,0.042C10.842,0.042,0.124,10.76,0.124,23.98c0,13.221,10.717,23.938,23.938,23.938
		c2.73,0,5.35-0.463,7.794-1.305l-5.827-6.293l-1.578-8.354l-1.22-6.459l1.541,0.497l4.628,1.493l4.071,1.313l3.232,1.043
		l1.18,0.381l1.605,1.733l3.355,3.624l0.001,0.001l0.947,1.022l0.318,0.343c0,0-0.009,0.014-0.022,0.034l0.036,0.04
		C46.57,33.277,48,28.797,48,23.98C48,10.76,37.283,0.042,24.062,0.042z"/>
	<g>
		<path class="st6" d="M38.77,16.14c0.698,0,1.265-0.205,1.7-0.614c0.434-0.409,0.652-0.934,0.652-1.575
			c0-0.632-0.218-1.148-0.652-1.548c-0.435-0.401-1.003-0.6-1.7-0.6c-0.69,0-1.254,0.2-1.693,0.6
			c-0.439,0.4-0.659,0.916-0.659,1.548c0,0.614,0.22,1.132,0.659,1.555C37.516,15.928,38.081,16.14,38.77,16.14z"/>
		<polygon class="st6" points="36.702,29.852 37.882,30.233 39.487,31.966 40.788,31.966 40.788,18.302 36.702,18.302 		"/>
		<path class="st6" d="M29.076,17.968c-1.862,0-3.279,0.832-4.253,2.495h-0.052v-2.161h-4.085v13.664h3.764l-1.22-6.459l1.541,0.497
			v-1.831c0-0.863,0.228-1.575,0.685-2.135c0.457-0.561,1.038-0.841,1.745-0.841c1.464,0,2.197,1.059,2.197,3.176v3.123l4.071,1.313
			v-5.211C33.47,19.845,32.005,17.968,29.076,17.968z"/>
		<path class="st6" d="M7.876,27.896c-0.689,0-1.265,0.205-1.725,0.614c-0.461,0.409-0.692,0.934-0.692,1.575
			c0,0.622,0.224,1.148,0.672,1.575c0.448,0.427,1.008,0.64,1.681,0.64c0.723,0,1.312-0.206,1.764-0.62s0.679-0.945,0.679-1.594
			c0-0.632-0.222-1.155-0.666-1.569C9.145,28.103,8.574,27.896,7.876,27.896z"/>
		<path class="st6" d="M15.231,11.803c-0.689,0-1.254,0.2-1.693,0.6c-0.439,0.4-0.659,0.916-0.659,1.548
			c0,0.614,0.22,1.132,0.659,1.555c0.439,0.423,1.004,0.634,1.693,0.634c0.698,0,1.265-0.205,1.7-0.614
			c0.435-0.409,0.653-0.934,0.653-1.575c0-0.632-0.218-1.148-0.653-1.548C16.496,12.003,15.93,11.803,15.231,11.803z"/>
		<rect x="13.164" y="18.302" class="st6" width="4.085" height="13.664"/>
	</g>
</g>
</svg>
