<?xml version="1.0" encoding="utf-8"?>
<!-- Generator: Adobe Illustrator 21.1.0, SVG Export Plug-In . SVG Version: 6.00 Build 0)  -->
<svg version="1.1" xmlns="http://www.w3.org/2000/svg" xmlns:xlink="http://www.w3.org/1999/xlink" x="0px" y="0px"
	 viewBox="0 0 48 48" style="enable-background:new 0 0 48 48;" xml:space="preserve">
<style type="text/css">
	.st0{fill:#E0E0E0;}
	.st1{fill:#262626;}
	.st2{fill:#4F5B94;}
	.st3{fill:#15587C;}
	.st4{fill:none;}
	.st5{fill:#BCBCBC;}
	.st6{fill:#FFFFFF;}
	.st7{fill:#D34231;}
	.st8{fill:#666666;}
	.st9{fill:#EDA72B;}
	.st10{fill:#25323C;}
	.st11{fill:#336792;}
	.st12{fill:#32415B;}
	.st13{fill:#84B556;}
	.st14{fill:#6A9638;}
	.st15{fill:#189BD8;}
	.st16{fill:#BA342A;}
	.st17{fill:#FF6C2C;}
	.st18{fill:#8892BF;}
	.st19{fill:#FFFFFF;stroke:#FFFFFF;stroke-width:0.25;stroke-miterlimit:10;}
	.st20{fill:#FFFFFF;stroke:#FFFFFF;stroke-miterlimit:10;}
	.st21{fill:#FF6A1A;}
	.st22{fill:#00AA17;}
	.st23{fill:#FA741D;}
	.st24{fill:none;stroke:#15587C;stroke-miterlimit:10;}
	.st25{fill:none;stroke:#15587C;stroke-width:1.5;stroke-miterlimit:10;}
	.st26{fill:none;stroke:#BA342A;stroke-width:5;stroke-miterlimit:10;}
	.st27{fill:#000004;}
	.st28{fill:#000004;stroke:#FFFFFF;stroke-width:0.5;stroke-miterlimit:10;}
	.st29{fill:#017F00;}
	.st30{fill:none;stroke:#BCBCBC;stroke-miterlimit:10;}
	.st31{fill:#39FF2A;}
	.st32{fill:#FF00B3;}
	.st33{fill:#4DFF00;}
	.st34{fill:#FFFFFF;stroke:#FFFFFF;stroke-width:1.5;stroke-miterlimit:10;}
	.st35{fill:#FFFFFF;stroke:#FFFFFF;stroke-width:0.5;stroke-miterlimit:10;}
	.st36{fill:#FFFFFF;stroke:#BCBCBC;stroke-miterlimit:10;}
</style>
<g id="Layer_1">
	<circle class="st10" cx="24.088" cy="23.912" r="23.912"/>
	<path class="st2" d="M24.08,23.897v0.03c0.005-0.005,0.011-0.01,0.017-0.015C24.091,23.907,24.085,23.902,24.08,23.897z"/>
	<path class="st2" d="M37.428,21.095c-0.01,0.01-0.021,0.019-0.031,0.028c0.01,0.01,0.021,0.019,0.031,0.028V21.095z"/>
	<polygon class="st2" points="35.328,11.079 35.327,11.078 35.327,11.079 	"/>
	<path class="st2" d="M12.868,11.067c-0.007,0.004-0.013,0.008-0.02,0.012h0.019C12.867,11.075,12.867,11.071,12.868,11.067z"/>
	<path class="st5" d="M35.327,11.079L35.327,11.079c-0.333-1.583-2.361-2.946-5.278-3.744c-1.729-0.473-3.764-0.751-5.952-0.751
		c-2.165,0-4.18,0.272-5.897,0.737c-2.939,0.794-4.99,2.159-5.332,3.747c-0.001,0.004-0.001,0.008-0.001,0.012
		c-0.032,0.152-0.053,0.304-0.053,0.46c0,2.737,5.052,4.955,11.283,4.955c6.231,0,11.283-2.219,11.283-4.955
		C35.38,11.384,35.358,11.231,35.327,11.079z"/>
	<path class="st2" d="M22.892,16.915c0.398,0.016,0.798,0.027,1.205,0.027c0.404,0,0.801-0.011,1.195-0.027
		c-0.399-0.017-0.798-0.034-1.204-0.034C23.684,16.882,23.288,16.898,22.892,16.915z"/>
	<path class="st11" d="M37.43,10.945c-0.165-3.175-6.065-5.728-13.333-5.728c-7.255,0-13.145,2.543-13.331,5.71
		c-0.003,0.051-0.018,0.101-0.018,0.153c0,0.051,0.014,0.101,0.017,0.152v1.397v6.781c0.315,0.3,0.663,0.587,1.04,0.863
		c0.391,0.286,0.807,0.561,1.26,0.818c2.796,1.585,6.698,2.572,11.023,2.572s8.227-0.988,11.023-2.572
		c0.452-0.256,0.868-0.532,1.26-0.818c0.383-0.281,0.739-0.573,1.058-0.879v-6.749v-1.412c0.003-0.051,0.017-0.101,0.017-0.152
		C37.445,11.034,37.432,10.99,37.43,10.945z M24.097,16.942c-0.407,0-0.807-0.011-1.205-0.027c0.396-0.017,0.792-0.033,1.196-0.033
		c0.406,0,0.805,0.016,1.204,0.034C24.897,16.931,24.5,16.942,24.097,16.942z M35.328,11.079h-0.001
		c0.032,0.152,0.053,0.304,0.053,0.46c0,2.737-5.052,4.955-11.283,4.955c-6.231,0-11.283-2.219-11.283-4.955
		c0-0.155,0.021-0.308,0.053-0.46h-0.019c0.007-0.004,0.013-0.008,0.02-0.012C13.21,9.48,15.26,8.115,18.199,7.32
		c1.718-0.464,3.733-0.737,5.897-0.737c2.187,0,4.223,0.278,5.952,0.751c2.917,0.798,4.946,2.161,5.278,3.744
		C35.327,11.079,35.328,11.079,35.328,11.079h2.1H35.328z"/>
	<path class="st11" d="M36.415,21.941c-0.89,0.658-1.964,1.232-3.154,1.725c-3.6,1.379-7.124,1.618-7.124,1.618
		c-0.671,0.05-1.353,0.081-2.049,0.081c-5.051,0-9.52-1.349-12.327-3.423c-0.354-0.262-0.684-0.534-0.982-0.818
		c-0.004,0.004-0.009,0.008-0.013,0.012v1.636v6.846c1.132,1.081,2.677,2.011,4.525,2.723c1.837,0.708,3.964,1.2,6.265,1.412
		l1.609,0.098c0.307,0.01,0.613,0.02,0.925,0.02c3.27,0,6.296-0.567,8.789-1.526c1.86-0.716,3.415-1.653,4.551-2.743v-2.39
		c-0.006-0.005-0.013-0.009-0.019-0.014l0.019-1.985v-2.426v-1.636c-0.01-0.01-0.021-0.019-0.031-0.028
		C37.098,21.407,36.769,21.679,36.415,21.941z"/>
	<path class="st11" d="M24.088,35.506c-0.258,0-0.51-0.014-0.765-0.021l-1.552-0.088l-0.092-0.005
		c-3.137-0.275-5.961-1.066-8.166-2.22c-1.075-0.562-2.001-1.208-2.747-1.92v5.188c-0.012,0.102-0.035,0.202-0.035,0.304
		c0,3.238,5.977,5.862,13.349,5.862c0.729,0,1.439-0.033,2.135-0.083l0.003,0.001l0.021-0.003c0.025-0.002,0.052-0.003,0.077-0.005
		c-0.002-0.001-0.004-0.003-0.006-0.004l2.984-0.372c4.781-0.892,8.135-2.973,8.135-5.398v-5.508
		c-0.751,0.721-1.687,1.373-2.774,1.94C31.897,34.617,28.184,35.506,24.088,35.506z"/>
</g>
<g id="remote_x5F_mysql">
</g>
<g id="addon_x5F_domains">
</g>
<g id="mysql_x5F_database_x5F_wizard">
</g>
<g id="multiphp_x5F_ini_x5F_editor">
</g>
</svg>
