<?xml version="1.0" encoding="utf-8"?>
<!-- Generator: Adobe Illustrator 21.1.0, SVG Export Plug-In . SVG Version: 6.00 Build 0)  -->
<svg version="1.1" xmlns="http://www.w3.org/2000/svg" xmlns:xlink="http://www.w3.org/1999/xlink" x="0px" y="0px"
	 viewBox="0 0 48 48" style="enable-background:new 0 0 48 48;" xml:space="preserve">
<style type="text/css">
	.st0{fill:#E0E0E0;}
	.st1{fill:#262626;}
	.st2{fill:#4F5B94;}
	.st3{fill:#15587C;}
	.st4{fill:none;}
	.st5{fill:#BCBCBC;}
	.st6{fill:#FFFFFF;}
	.st7{fill:#D34231;}
	.st8{fill:#666666;}
	.st9{fill:#EDA72B;}
	.st10{fill:#25323C;}
	.st11{fill:#336792;}
	.st12{fill:#32415B;}
	.st13{fill:#84B556;}
	.st14{fill:#6A9638;}
	.st15{fill:#189BD8;}
	.st16{fill:#BA342A;}
	.st17{fill:#FF6C2C;}
	.st18{fill:#8892BF;}
	.st19{fill:#FFFFFF;stroke:#FFFFFF;stroke-width:0.25;stroke-miterlimit:10;}
	.st20{fill:#FFFFFF;stroke:#FFFFFF;stroke-miterlimit:10;}
	.st21{fill:#FF6A1A;}
	.st22{fill:#00AA17;}
	.st23{fill:#FA741D;}
	.st24{fill:none;stroke:#15587C;stroke-miterlimit:10;}
	.st25{fill:none;stroke:#15587C;stroke-width:1.5;stroke-miterlimit:10;}
	.st26{fill:none;stroke:#BA342A;stroke-width:5;stroke-miterlimit:10;}
	.st27{fill:#000004;}
	.st28{fill:#000004;stroke:#FFFFFF;stroke-width:0.5;stroke-miterlimit:10;}
	.st29{fill:#017F00;}
	.st30{fill:none;stroke:#BCBCBC;stroke-miterlimit:10;}
	.st31{fill:#39FF2A;}
	.st32{fill:#FF00B3;}
	.st33{fill:#4DFF00;}
	.st34{fill:#FFFFFF;stroke:#FFFFFF;stroke-width:1.5;stroke-miterlimit:10;}
	.st35{fill:#FFFFFF;stroke:#FFFFFF;stroke-width:0.5;stroke-miterlimit:10;}
	.st36{fill:#FFFFFF;stroke:#BCBCBC;stroke-miterlimit:10;}
</style>
<g id="Layer_1">
	<g>
		<rect x="1.536" y="5.641" class="st0" width="17.592" height="4.962"/>
		<path class="st10" d="M46.643,4.081H1.357C0.611,4.081,0,4.692,0,5.438v35.205C0,41.389,0.611,42,1.357,42h45.286
			C47.389,42,48,41.389,48,40.643V5.438C48,4.692,47.389,4.081,46.643,4.081z M12.785,8.394c0-0.724,0.592-1.316,1.316-1.316h0.252
			c0.724,0,1.316,0.592,1.316,1.316v0.252c0,0.724-0.592,1.316-1.316,1.316h-0.252c-0.724,0-1.316-0.592-1.316-1.316V8.394z
			 M7.641,8.394c0-0.724,0.592-1.316,1.316-1.316h0.252c0.724,0,1.315,0.592,1.315,1.316v0.252c0,0.724-0.592,1.316-1.315,1.316
			H8.957c-0.724,0-1.316-0.592-1.316-1.316V8.394z M2.497,8.394c0-0.724,0.592-1.316,1.316-1.316h0.252
			c0.724,0,1.316,0.592,1.316,1.316v0.252c0,0.724-0.592,1.316-1.316,1.316H3.813c-0.724,0-1.316-0.592-1.316-1.316V8.394z"/>
		<path class="st12" d="M43.889,12.312H3.925c-0.786,0-1.428,0.643-1.428,1.428v24.334c0,0.786,0.643,1.428,1.428,1.428h39.964
			c0.786,0,1.428-0.643,1.428-1.428V13.741C45.318,12.955,44.675,12.312,43.889,12.312z"/>
		<g>
			<path class="st6" d="M17.238,30.82c-0.659-3.39,1.695-5.603,1.695-5.603l2.58-2.775c0,0,1.987-1.814,2.073-3.088
				c0.086-1.274-0.076-3.034-0.076-3.034h-0.367l0.065,2.116c0,0,0.043,1.285-0.804,2.181c-0.848,0.896-2.758,2.181-2.758,2.181
				s-3.692,2.062-4.221,5.301c-0.529,3.239,1.425,5.441,1.425,5.441s1.393,2.051,4.966,3.077c0,0,0.551,0.119,0.367-0.389
				C22.182,36.229,17.896,34.21,17.238,30.82z"/>
			<path class="st6" d="M21.199,30.693c0,0-0.421-2.717,1.082-5.265c1.311-2.221,1.347-2.238,1.335-2.206
				c0.06-0.137,0.76-1.75,0.787-3.08c0.028-1.391-0.183-5.052-0.183-5.052s-0.221-0.388-0.342,0l0.054,4.221
				c0,0,0.092,0.999-0.456,2.446c-0.548,1.447-2.15,3.091-2.15,3.091s-2.065,2.136-2.009,4.257s0.52,3.021,0.52,3.021
				s1.012,2.29,3.147,3.541c0,0,0.323,0.183,0.52,0.056c0,0,0.183-0.197-0.07-0.52C23.18,34.88,21.311,32.464,21.199,30.693z"/>
			<path class="st6" d="M23.616,23.222c-0.003,0.006-0.005,0.01-0.005,0.01S23.614,23.227,23.616,23.222z"/>
			<path class="st6" d="M33.507,28.277c-0.155-0.759-0.562-2.164-1.883-3.344c-1.321-1.18-3.723-2.669-3.723-2.669
				s-2.403-1.391-2.515-2.599c-0.112-1.208,0.225-2.093,0.225-2.093l-0.112-0.197c0,0-0.197,0.337-0.309,0.295
				c-0.112-0.042-0.239-0.197-0.267-0.632S24.866,16.7,24.866,16.7l-0.267,0.112c0,0,0.899,3.85-0.52,8.289
				c0,0-1.04,2.782-0.801,5.493c0.239,2.712,1.349,4.931,1.349,4.931s1.264-0.027,2.445,1.103c0,0,1.349-0.246,2.838-1.174
				c1.489-0.927,2.192-1.812,2.922-3.077C33.563,31.115,33.661,29.035,33.507,28.277z M32.082,29.53
				c-0.032,1.425-0.599,2.721-1.36,3.79c-0.761,1.069-1.15,1.377-2.316,2.138c0,0-0.518,0.081-0.145-0.389s1.555-1.377,2.186-3.935
				s-0.437-4.194-0.437-4.194s-0.875-1.943-2.964-3.644c-2.089-1.7-1.619-2.105-1.619-2.105h0.227c0,0,0.275,0.858,1.393,1.522
				s2.915,2.186,3.563,2.899S32.115,28.105,32.082,29.53z"/>
		</g>
	</g>
</g>
<g id="remote_x5F_mysql">
</g>
<g id="addon_x5F_domains">
</g>
<g id="mysql_x5F_database_x5F_wizard">
</g>
<g id="multiphp_x5F_ini_x5F_editor">
</g>
</svg>
