<?xml version="1.0" encoding="utf-8"?>
<!-- Generator: Adobe Illustrator 21.1.0, SVG Export Plug-In . SVG Version: 6.00 Build 0)  -->
<svg version="1.1" xmlns="http://www.w3.org/2000/svg" xmlns:xlink="http://www.w3.org/1999/xlink" x="0px" y="0px"
	 viewBox="0 0 48 48" style="enable-background:new 0 0 48 48;" xml:space="preserve">
<style type="text/css">
	.st0{fill:#E0E0E0;}
	.st1{fill:#262626;}
	.st2{fill:#4F5B94;}
	.st3{fill:#15587C;}
	.st4{fill:none;}
	.st5{fill:#BCBCBC;}
	.st6{fill:#FFFFFF;}
	.st7{fill:#D34231;}
	.st8{fill:#666666;}
	.st9{fill:#EDA72B;}
	.st10{fill:#25323C;}
	.st11{fill:#336792;}
	.st12{fill:#32415B;}
	.st13{fill:#84B556;}
	.st14{fill:#6A9638;}
	.st15{fill:#189BD8;}
	.st16{fill:#BA342A;}
	.st17{fill:#FF6C2C;}
	.st18{fill:#8892BF;}
	.st19{fill:#FFFFFF;stroke:#FFFFFF;stroke-width:0.25;stroke-miterlimit:10;}
	.st20{fill:#FFFFFF;stroke:#FFFFFF;stroke-miterlimit:10;}
	.st21{fill:#FF6A1A;}
	.st22{fill:#00AA17;}
	.st23{fill:#FA741D;}
	.st24{fill:none;stroke:#15587C;stroke-miterlimit:10;}
	.st25{fill:none;stroke:#15587C;stroke-width:1.5;stroke-miterlimit:10;}
	.st26{fill:none;stroke:#BA342A;stroke-width:5;stroke-miterlimit:10;}
	.st27{fill:#000004;}
	.st28{fill:#000004;stroke:#FFFFFF;stroke-width:0.5;stroke-miterlimit:10;}
	.st29{fill:#017F00;}
	.st30{fill:none;stroke:#BCBCBC;stroke-miterlimit:10;}
	.st31{fill:#39FF2A;}
	.st32{fill:#FF00B3;}
	.st33{fill:#4DFF00;}
	.st34{fill:#FFFFFF;stroke:#FFFFFF;stroke-width:1.5;stroke-miterlimit:10;}
	.st35{fill:#FFFFFF;stroke:#FFFFFF;stroke-width:0.5;stroke-miterlimit:10;}
	.st36{fill:#FFFFFF;stroke:#BCBCBC;stroke-miterlimit:10;}
</style>
<g id="Layer_1">
	<g>
		<path class="st2" d="M46.812,41.919H1.188C0.534,41.919,0,41.385,0,40.732V5.188C0,4.534,0.534,4,1.188,4h45.625
			C47.466,4,48,4.534,48,5.188v35.544C48,41.385,47.466,41.919,46.812,41.919z"/>
		<path class="st18" d="M44.16,39.735H3.84c-0.688,0-1.25-0.562-1.25-1.25V13.795c0-0.688,0.562-1.25,1.25-1.25H44.16
			c0.688,0,1.25,0.562,1.25,1.25v24.691C45.41,39.173,44.848,39.735,44.16,39.735z"/>
		<path class="st0" d="M4.124,9.881H3.753c-0.691,0-1.256-0.565-1.256-1.256V8.254c0-0.691,0.565-1.256,1.256-1.256h0.371
			c0.691,0,1.256,0.565,1.256,1.256v0.371C5.38,9.315,4.815,9.881,4.124,9.881z"/>
		<path class="st0" d="M9.268,9.881H8.897c-0.691,0-1.256-0.565-1.256-1.256V8.254c0-0.691,0.565-1.256,1.256-1.256h0.371
			c0.691,0,1.256,0.565,1.256,1.256v0.371C10.524,9.315,9.959,9.881,9.268,9.881z"/>
		<path class="st0" d="M14.412,9.881h-0.371c-0.691,0-1.256-0.565-1.256-1.256V8.254c0-0.691,0.565-1.256,1.256-1.256h0.371
			c0.691,0,1.256,0.565,1.256,1.256v0.371C15.668,9.315,15.103,9.881,14.412,9.881z"/>
		<ellipse class="st2" cx="24" cy="26.14" rx="14.931" ry="7.902"/>
		<g>
			<path class="st28" d="M18.683,23.885c0.638,0,1.064,0.118,1.277,0.354c0.213,0.236,0.263,0.64,0.152,1.214
				c-0.116,0.597-0.34,1.023-0.672,1.279c-0.332,0.255-0.836,0.383-1.514,0.383h-1.022l0.627-3.229H18.683z M14.588,30.382h1.68
				l0.399-2.051h1.439c0.635,0,1.158-0.067,1.568-0.2c0.41-0.133,0.783-0.357,1.119-0.671c0.282-0.259,0.509-0.544,0.684-0.857
				c0.174-0.312,0.298-0.656,0.371-1.033c0.178-0.914,0.044-1.627-0.402-2.137c-0.446-0.51-1.155-0.765-2.127-0.765h-3.231
				L14.588,30.382z"/>
			<path class="st28" d="M23.083,20.617h1.667l-0.399,2.051h1.485c0.935,0,1.579,0.163,1.934,0.489
				c0.355,0.326,0.461,0.854,0.319,1.585l-0.698,3.59h-1.694l0.663-3.413c0.075-0.388,0.048-0.653-0.083-0.794
				c-0.131-0.141-0.41-0.212-0.837-0.212h-1.333l-0.859,4.419h-1.667L23.083,20.617z"/>
			<path class="st28" d="M31.799,23.885c0.638,0,1.064,0.118,1.277,0.354c0.213,0.236,0.263,0.64,0.152,1.214
				c-0.116,0.597-0.34,1.023-0.672,1.279c-0.332,0.255-0.836,0.383-1.514,0.383H30.02l0.627-3.229H31.799z M27.705,30.382h1.68
				l0.399-2.051h1.439c0.635,0,1.158-0.067,1.568-0.2c0.41-0.133,0.783-0.357,1.119-0.671c0.282-0.259,0.509-0.544,0.684-0.857
				c0.174-0.312,0.298-0.656,0.371-1.033c0.178-0.914,0.044-1.627-0.402-2.137c-0.446-0.51-1.155-0.765-2.127-0.765h-3.232
				L27.705,30.382z"/>
		</g>
	</g>
</g>
<g id="remote_x5F_mysql">
</g>
<g id="addon_x5F_domains">
</g>
<g id="mysql_x5F_database_x5F_wizard">
</g>
<g id="multiphp_x5F_ini_x5F_editor">
</g>
</svg>
