<?xml version="1.0" encoding="utf-8"?>
<!-- Generator: Adobe Illustrator 21.1.0, SVG Export Plug-In . SVG Version: 6.00 Build 0)  -->
<svg version="1.1" xmlns="http://www.w3.org/2000/svg" xmlns:xlink="http://www.w3.org/1999/xlink" x="0px" y="0px"
	 viewBox="0 0 48 48" style="enable-background:new 0 0 48 48;" xml:space="preserve">
<style type="text/css">
	.st0{fill:#E0E0E0;}
	.st1{fill:#262626;}
	.st2{fill:#4F5B94;}
	.st3{fill:#15587C;}
	.st4{fill:none;}
	.st5{fill:#BCBCBC;}
	.st6{fill:#FFFFFF;}
	.st7{fill:#D34231;}
	.st8{fill:#666666;}
	.st9{fill:#EDA72B;}
	.st10{fill:#25323C;}
	.st11{fill:#336792;}
	.st12{fill:#32415B;}
	.st13{fill:#84B556;}
	.st14{fill:#6A9638;}
	.st15{fill:#189BD8;}
	.st16{fill:#BA342A;}
	.st17{fill:#FF6C2C;}
	.st18{fill:#8892BF;}
	.st19{fill:#FFFFFF;stroke:#FFFFFF;stroke-width:0.25;stroke-miterlimit:10;}
	.st20{fill:#FFFFFF;stroke:#FFFFFF;stroke-miterlimit:10;}
	.st21{fill:#FF6A1A;}
	.st22{fill:#00AA17;}
	.st23{fill:#FA741D;}
	.st24{fill:none;stroke:#15587C;stroke-miterlimit:10;}
	.st25{fill:none;stroke:#15587C;stroke-width:1.5;stroke-miterlimit:10;}
	.st26{fill:none;stroke:#BA342A;stroke-width:5;stroke-miterlimit:10;}
	.st27{fill:#000004;}
	.st28{fill:#000004;stroke:#FFFFFF;stroke-width:0.5;stroke-miterlimit:10;}
	.st29{fill:#017F00;}
	.st30{fill:none;stroke:#BCBCBC;stroke-miterlimit:10;}
	.st31{fill:#39FF2A;}
	.st32{fill:#FF00B3;}
	.st33{fill:#4DFF00;}
	.st34{fill:#FFFFFF;stroke:#FFFFFF;stroke-width:1.5;stroke-miterlimit:10;}
	.st35{fill:#FFFFFF;stroke:#FFFFFF;stroke-width:0.5;stroke-miterlimit:10;}
	.st36{fill:#FFFFFF;stroke:#BCBCBC;stroke-miterlimit:10;}
</style>
<g id="Layer_1">
	<rect x="0.993" y="7.071" class="st0" width="17.573" height="4.956"/>
	<path class="st3" d="M46.644,5.067H1.408c-0.746,0-1.356,0.61-1.356,1.356v35.167c0,0.746,0.61,1.355,1.356,1.355h45.237
		c0.745,0,1.356-0.61,1.356-1.355V6.422C48,5.677,47.39,5.067,46.644,5.067z M12.824,9.376c0-0.723,0.591-1.314,1.314-1.314h0.251
		c0.723,0,1.314,0.591,1.314,1.314v0.251c0,0.723-0.591,1.314-1.314,1.314h-0.251c-0.723,0-1.314-0.591-1.314-1.314V9.376z
		 M7.685,9.376c0-0.723,0.591-1.314,1.314-1.314h0.251c0.723,0,1.314,0.591,1.314,1.314v0.251c0,0.723-0.591,1.314-1.314,1.314
		H8.999c-0.723,0-1.314-0.591-1.314-1.314V9.376z M2.547,9.376c0-0.723,0.591-1.314,1.314-1.314h0.251
		c0.723,0,1.314,0.591,1.314,1.314v0.251c0,0.723-0.591,1.314-1.314,1.314H3.861c-0.723,0-1.314-0.591-1.314-1.314V9.376z"/>
	<path class="st10" d="M43.894,13.289H3.974c-0.785,0-1.427,0.642-1.427,1.427v24.307c0,0.785,0.642,1.427,1.427,1.427h39.92
		c0.785,0,1.427-0.642,1.427-1.427V14.716C45.321,13.931,44.679,13.289,43.894,13.289z"/>
	<path class="st2" d="M17.748,21.139c-0.004,0.002-0.008,0.005-0.012,0.007h0.011C17.748,21.144,17.748,21.142,17.748,21.139z"/>
	<polygon class="st2" points="23.929,27.033 23.929,27.051 23.939,27.042 	"/>
	<path class="st2" d="M32.043,25.329c-0.006,0.006-0.013,0.011-0.019,0.017c0.006,0.006,0.013,0.011,0.019,0.017V25.329z"/>
	<polygon class="st2" points="30.131,19.24 30.131,19.24 30.131,19.24 	"/>
	<path class="st2" d="M16.478,19.233c-0.004,0.002-0.008,0.005-0.012,0.007h0.011C16.477,19.238,16.477,19.235,16.478,19.233z"/>
	<path class="st5" d="M30.766,19.24L30.766,19.24c-0.202-0.963-1.436-1.791-3.209-2.276c-1.051-0.288-2.288-0.457-3.618-0.457
		c-1.316,0-2.541,0.166-3.585,0.448c-1.787,0.483-3.033,1.313-3.241,2.278c-0.001,0.002,0,0.005-0.001,0.007
		c-0.019,0.092-0.032,0.185-0.032,0.279c0,1.664,3.071,3.012,6.859,3.012c3.788,0,6.859-1.349,6.859-3.012
		C30.798,19.426,30.785,19.333,30.766,19.24z"/>
	<path class="st2" d="M23.207,22.788c0.242,0.01,0.485,0.016,0.732,0.016c0.245,0,0.487-0.007,0.727-0.016
		c-0.242-0.01-0.485-0.02-0.732-0.02C23.688,22.768,23.447,22.778,23.207,22.788z"/>
	<path class="st3" d="M32.045,19.158c-0.1-1.93-3.687-3.482-8.106-3.482c-4.41,0-7.991,1.546-8.104,3.471
		c-0.002,0.031-0.011,0.061-0.011,0.093c0,0.031,0.009,0.061,0.011,0.093v0.849v4.122c0.191,0.183,0.403,0.357,0.632,0.525
		c0.238,0.174,0.491,0.341,0.766,0.497c1.7,0.963,4.072,1.564,6.701,1.564s5.001-0.6,6.701-1.564
		c0.275-0.156,0.528-0.323,0.766-0.497c0.233-0.171,0.449-0.348,0.643-0.534v-4.103v-0.859c0.002-0.031,0.011-0.061,0.011-0.093
		C32.054,19.213,32.046,19.186,32.045,19.158z M23.939,22.804c-0.247,0-0.491-0.007-0.733-0.016c0.241-0.01,0.482-0.02,0.727-0.02
		c0.247,0,0.49,0.01,0.732,0.02C24.426,22.798,24.184,22.804,23.939,22.804z M30.767,19.24L30.767,19.24
		c0.018,0.092,0.031,0.185,0.031,0.279c0,1.664-3.071,3.012-6.859,3.012c-3.788,0-6.859-1.349-6.859-3.012
		c0-0.094,0.013-0.187,0.032-0.279h-0.011c0.004-0.002,0.008-0.005,0.012-0.007c0.208-0.965,1.454-1.795,3.241-2.278
		c1.044-0.282,2.269-0.448,3.585-0.448c1.33,0,2.567,0.169,3.618,0.457C29.33,17.449,30.564,18.278,30.767,19.24L30.767,19.24h1.276
		H30.767z"/>
	<path class="st3" d="M31.427,25.843c-0.541,0.4-1.194,0.749-1.917,1.048c-2.188,0.838-4.331,0.984-4.331,0.984
		c-0.408,0.03-0.822,0.049-1.246,0.049c-3.071,0-5.788-0.82-7.494-2.081c-0.215-0.159-0.416-0.325-0.597-0.497
		c-0.003,0.002-0.006,0.005-0.008,0.007v0.994v4.162c0.688,0.657,1.627,1.223,2.751,1.655c1.117,0.43,2.41,0.73,3.808,0.858
		l0.978,0.059c0.186,0.006,0.373,0.012,0.562,0.012c1.988,0,3.828-0.345,5.343-0.928c1.131-0.435,2.076-1.005,2.766-1.667v-1.453
		c-0.004-0.003-0.008-0.006-0.011-0.009l0.011-1.207v-1.475v-0.994c-0.006-0.006-0.013-0.011-0.019-0.017
		C31.843,25.519,31.643,25.684,31.427,25.843z"/>
	<path class="st3" d="M23.934,34.09c-0.157,0-0.31-0.008-0.465-0.013l-0.944-0.053l-0.056-0.003
		c-1.907-0.167-3.624-0.648-4.964-1.349c-0.653-0.342-1.216-0.734-1.67-1.167v3.154c-0.007,0.062-0.021,0.123-0.021,0.185
		c0,1.968,3.633,3.564,8.115,3.564c0.443,0,0.875-0.02,1.298-0.05l0.002,0.001l0.012-0.002c0.015-0.001,0.031-0.002,0.047-0.003
		c-0.001-0.001-0.002-0.002-0.004-0.003l1.814-0.226c2.907-0.542,4.945-1.807,4.945-3.281v-3.348
		c-0.457,0.438-1.025,0.835-1.686,1.18C28.681,33.549,26.424,34.09,23.934,34.09z"/>
</g>
<g id="remote_x5F_mysql">
</g>
<g id="addon_x5F_domains">
</g>
<g id="mysql_x5F_database_x5F_wizard">
</g>
<g id="multiphp_x5F_ini_x5F_editor">
</g>
</svg>
