<?xml version="1.0" encoding="utf-8"?>
<!-- Generator: Adobe Illustrator 21.1.0, SVG Export Plug-In . SVG Version: 6.00 Build 0)  -->
<svg version="1.1" xmlns="http://www.w3.org/2000/svg" xmlns:xlink="http://www.w3.org/1999/xlink" x="0px" y="0px"
	 viewBox="0 0 48 48" style="enable-background:new 0 0 48 48;" xml:space="preserve">
<style type="text/css">
	.st0{fill:#E0E0E0;}
	.st1{fill:#262626;}
	.st2{fill:#4F5B94;}
	.st3{fill:#15587C;}
	.st4{fill:none;}
	.st5{fill:#BCBCBC;}
	.st6{fill:#FFFFFF;}
	.st7{fill:#D34231;}
	.st8{fill:#666666;}
	.st9{fill:#EDA72B;}
	.st10{fill:#25323C;}
	.st11{fill:#336792;}
	.st12{fill:#32415B;}
	.st13{fill:#84B556;}
	.st14{fill:#6A9638;}
	.st15{fill:#189BD8;}
	.st16{fill:#BA342A;}
	.st17{fill:#FF6C2C;}
	.st18{fill:#8892BF;}
	.st19{fill:#FFFFFF;stroke:#FFFFFF;stroke-width:0.25;stroke-miterlimit:10;}
	.st20{fill:#FFFFFF;stroke:#FFFFFF;stroke-miterlimit:10;}
	.st21{fill:#FF6A1A;}
	.st22{fill:#00AA17;}
	.st23{fill:#FA741D;}
	.st24{fill:none;stroke:#15587C;stroke-miterlimit:10;}
	.st25{fill:none;stroke:#15587C;stroke-width:1.5;stroke-miterlimit:10;}
	.st26{fill:none;stroke:#BA342A;stroke-width:5;stroke-miterlimit:10;}
	.st27{fill:#000004;}
	.st28{fill:#000004;stroke:#FFFFFF;stroke-width:0.5;stroke-miterlimit:10;}
	.st29{fill:#017F00;}
	.st30{fill:none;stroke:#BCBCBC;stroke-miterlimit:10;}
	.st31{fill:#39FF2A;}
	.st32{fill:#FF00B3;}
	.st33{fill:#4DFF00;}
	.st34{fill:#FFFFFF;stroke:#FFFFFF;stroke-width:1.5;stroke-miterlimit:10;}
	.st35{fill:#FFFFFF;stroke:#FFFFFF;stroke-width:0.5;stroke-miterlimit:10;}
	.st36{fill:#FFFFFF;stroke:#BCBCBC;stroke-miterlimit:10;}
</style>
<g id="Layer_1">
	<path class="st2" d="M23.976,23.986v0.03c0.005-0.005,0.011-0.01,0.017-0.015C23.987,23.996,23.981,23.991,23.976,23.986z"/>
	<path class="st2" d="M24,21.177c-0.01,0.01-0.021,0.019-0.031,0.028c0.01,0.01,0.021,0.019,0.031,0.028V21.177z"/>
	<polygon class="st2" points="23.985,11.14 23.983,11.139 23.984,11.14 	"/>
	<path class="st2" d="M23.994,11.128c-0.007,0.004-0.013,0.008-0.02,0.012h0.019C23.994,11.136,23.993,11.132,23.994,11.128z"/>
	<path class="st2" d="M22.782,16.989c0.398,0.016,0.8,0.027,1.208,0.027c0.404,0,0.803-0.011,1.198-0.027
		c-0.399-0.017-0.799-0.034-1.207-0.034C23.576,16.955,23.178,16.972,22.782,16.989z"/>
	<g>
		<path class="st12" d="M23.984,0.037C10.749,0.037,0.02,10.766,0.02,24.001s10.729,23.964,23.964,23.964
			c2.746,0,5.381-0.468,7.838-1.318c-1.886-0.926-3.469-2.364-4.577-4.132l-1.036,0.129c0.002,0.001,0.004,0.003,0.006,0.004
			c-0.025,0.002-0.052,0.003-0.077,0.005l-0.021,0.003l-0.003-0.001c-0.698,0.05-1.409,0.083-2.14,0.083
			c-7.388,0-13.378-2.63-13.378-5.875c0-0.103,0.023-0.203,0.035-0.305v-5.199c0.748,0.714,1.675,1.361,2.753,1.924
			c2.211,1.156,5.04,1.949,8.184,2.224l0.092,0.005l1.556,0.088c0.256,0.007,0.508,0.021,0.767,0.021
			c0.542,0,1.077-0.018,1.604-0.048C25.64,35,25.741,34.444,25.876,33.9c-0.623,0.042-1.248,0.081-1.891,0.081
			c-0.312,0-0.62-0.01-0.927-0.02l-1.612-0.098c-2.305-0.212-4.438-0.706-6.278-1.415c-1.851-0.714-3.4-1.646-4.534-2.729v-6.861
			v-1.639c0.004-0.004,0.009-0.008,0.013-0.012c0.299,0.285,0.629,0.557,0.984,0.82c2.813,2.079,7.292,3.431,12.354,3.431
			c0.698,0,1.381-0.031,2.053-0.081c0,0,3.532-0.24,7.139-1.622c1.193-0.493,2.269-1.069,3.161-1.728
			c0.355-0.262,0.685-0.535,0.984-0.82c0.01,0.01,0.021,0.019,0.031,0.028v1.639v2.431l-0.001,0.09
			c4.105,0.211,7.626,2.614,9.405,6.069c0.769-2.349,1.191-4.856,1.191-7.462C47.949,10.766,37.219,0.037,23.984,0.037z
			 M37.353,11.293v1.416v6.764c-0.32,0.307-0.676,0.6-1.06,0.881c-0.392,0.287-0.809,0.563-1.262,0.82
			c-2.802,1.588-6.713,2.578-11.047,2.578c-4.334,0-8.245-0.99-11.047-2.578c-0.453-0.257-0.87-0.533-1.262-0.82
			c-0.378-0.276-0.727-0.564-1.042-0.865v-6.796v-1.4l0-0.306c0.186-3.173,6.09-5.722,13.36-5.722c7.285,0,13.197,2.558,13.363,5.74
			L37.353,11.293z"/>
		<path class="st18" d="M37.353,22.873v-1.639c-0.01-0.01-0.021-0.019-0.031-0.028c-0.299,0.285-0.629,0.557-0.984,0.82
			c-0.892,0.659-1.968,1.235-3.161,1.728c-3.607,1.382-7.139,1.622-7.139,1.622c-0.673,0.05-1.356,0.081-2.053,0.081
			c-5.062,0-9.541-1.352-12.354-3.431c-0.355-0.262-0.685-0.535-0.984-0.82c-0.004,0.004-0.009,0.008-0.013,0.012v1.639v6.861
			c1.135,1.083,2.683,2.015,4.534,2.729c1.841,0.71,3.973,1.203,6.278,1.415l1.612,0.098c0.307,0.01,0.615,0.02,0.927,0.02
			c0.644,0,1.269-0.039,1.891-0.081c1.208-4.895,5.62-8.531,10.895-8.531c0.196,0,0.389,0.016,0.582,0.026l0.001-0.09V22.873z"/>
		<path class="st18" d="M23.217,35.6l-1.556-0.088l-0.092-0.005c-3.144-0.275-5.974-1.068-8.184-2.224
			c-1.077-0.563-2.005-1.21-2.753-1.924v5.199c-0.012,0.102-0.035,0.202-0.035,0.305c0,3.245,5.99,5.875,13.378,5.875
			c0.73,0,1.442-0.033,2.14-0.083l0.003,0.001l0.021-0.003c0.025-0.002,0.052-0.003,0.077-0.005
			c-0.002-0.001-0.004-0.003-0.006-0.004l1.036-0.129c-1.077-1.72-1.708-3.748-1.708-5.928c0-0.343,0.021-0.68,0.051-1.015
			c-0.528,0.03-1.062,0.048-1.604,0.048C23.725,35.62,23.473,35.607,23.217,35.6z"/>
		<path class="st18" d="M23.993,5.265c-7.271,0-13.174,2.549-13.36,5.722l0,0.306v1.4v6.796c0.315,0.301,0.665,0.589,1.042,0.865
			c0.392,0.287,0.809,0.563,1.262,0.82c2.802,1.588,6.713,2.578,11.047,2.578c4.334,0,8.245-0.99,11.047-2.578
			c0.453-0.257,0.87-0.533,1.262-0.82c0.384-0.281,0.74-0.574,1.06-0.881v-6.764v-1.416l0.002-0.288
			C37.19,7.823,31.278,5.265,23.993,5.265z M23.864,16.706c-6.353,0-11.503-2.262-11.503-5.052c0-0.158,0.021-0.314,0.054-0.469
			c0.001-0.004,0.001-0.008,0.001-0.013c0.349-1.618,2.439-3.01,5.436-3.82c1.751-0.473,3.806-0.751,6.012-0.751
			c2.23,0,4.305,0.283,6.068,0.766c2.974,0.814,5.042,2.203,5.381,3.817l0,0.001c0.032,0.154,0.054,0.31,0.054,0.469
			C35.367,14.444,30.217,16.706,23.864,16.706z"/>
		<path class="st5" d="M35.313,11.184c-0.339-1.613-2.407-3.003-5.381-3.817c-1.763-0.482-3.838-0.766-6.068-0.766
			c-2.207,0-4.261,0.278-6.012,0.751c-2.996,0.81-5.087,2.201-5.436,3.82c-0.001,0.004-0.001,0.008-0.001,0.013
			c-0.032,0.154-0.054,0.31-0.054,0.469c0,2.79,5.15,5.052,11.503,5.052c6.353,0,11.503-2.262,11.503-5.052
			C35.367,11.496,35.346,11.34,35.313,11.184L35.313,11.184z"/>
	</g>
	<circle class="st8" cx="36.611" cy="36.701" r="9.311"/>
	<path class="st9" d="M42.775,36.671c0.255-0.929,0.346-2.059,0.346-2.059c0.036-1.694-0.82-3.206-0.82-3.206
		c-1.093-2.113-3.935-2.532-3.935-2.532s-4.9-0.856-7.159,1.585c-2.259,2.441-1.111,5.957-1.111,5.957s0.073,0.31,0.346,0.255
		c0.273-0.055,0.273-0.346,0.273-0.346c-0.164-0.619-0.255-1.239-0.255-1.239c-0.273-2.569,0.692-3.662,0.692-3.662
		c1.057-1.694,3.898-2.004,3.898-2.004s1.111-0.255,2.988,0.036c1.876,0.291,2.933,1.312,2.933,1.312s0.71,0.619,1.166,1.913
		c0.455,1.293,0.273,3.917,0.055,3.99c-0.219,0.073-0.401,0.656-0.401,0.656l-0.383,1.895l-0.71,0.71
		c-0.947,0.783-1.53,1.002-1.986,1.184c-0.384,0.154-1.143,0.294-1.372,0.335c-0.119-0.384-0.477-0.662-0.9-0.662
		c-0.521,0-0.943,0.422-0.943,0.943s0.422,0.943,0.943,0.943c0.431,0,0.793-0.289,0.906-0.683h0.073c0,0,1.221-0.146,2.222-0.656
		s1.749-1.257,1.749-1.257c0.055,0.273,0.437,0.328,0.437,0.328c0.674-0.109,1.002-0.547,1.002-0.547s0.51-0.474,0.583-1.603
		C43.485,37.126,42.775,36.671,42.775,36.671z"/>
	<path class="st0" d="M36.442,43.164c-0.78,0-1.412-0.632-1.412-1.412c0-0.195,0.04-0.381,0.111-0.55
		c0.214-0.506,0.716-0.862,1.301-0.862c0.37,0,0.706,0.142,0.958,0.375l0.076-0.015c2.259-0.364,3.425-1.731,3.425-1.731
		s0.2-1.384,0.383-2.059c0.137-0.507,0.45-0.612,0.596-0.633c0.008-0.001,0.016-0.002,0.023-0.003
		c0.009-0.146,0.017-0.295,0.021-0.446c0.005-0.139-0.002-0.268-0.02-0.389c-0.121-3.032-2.506-5.452-5.43-5.452
		c-3.002,0-5.436,2.549-5.436,5.693c0,0.152,0.006,0.302,0.017,0.451c-0.002,0.001-0.002,0.001-0.002,0.001
		s-0.362,2.647,2.531,6.581c0,0,2.884,4.409,6.184,0c0,0,0.326-0.409,0.726-1.181c-0.87,0.518-2.174,0.792-2.815,0.902
		C37.437,42.87,36.974,43.164,36.442,43.164z"/>
</g>
<g id="remote_x5F_mysql">
</g>
<g id="addon_x5F_domains">
</g>
<g id="mysql_x5F_database_x5F_wizard">
</g>
<g id="multiphp_x5F_ini_x5F_editor">
</g>
</svg>
