<?xml version="1.0" encoding="utf-8"?>
<!-- Generator: Adobe Illustrator 21.1.0, SVG Export Plug-In . SVG Version: 6.00 Build 0)  -->
<svg version="1.1" xmlns="http://www.w3.org/2000/svg" xmlns:xlink="http://www.w3.org/1999/xlink" x="0px" y="0px"
	 viewBox="0 0 48 48" style="enable-background:new 0 0 48 48;" xml:space="preserve">
<style type="text/css">
	.st0{fill:#E0E0E0;}
	.st1{fill:#262626;}
	.st2{fill:#4F5B94;}
	.st3{fill:#15587C;}
	.st4{fill:none;}
	.st5{fill:#BCBCBC;}
	.st6{fill:#FFFFFF;}
	.st7{fill:#D34231;}
	.st8{fill:#666666;}
	.st9{fill:#EDA72B;}
	.st10{fill:#25323C;}
	.st11{fill:#336792;}
	.st12{fill:#32415B;}
	.st13{fill:#84B556;}
	.st14{fill:#6A9638;}
	.st15{fill:#189BD8;}
	.st16{fill:#BA342A;}
	.st17{fill:#FF6C2C;}
	.st18{fill:#8892BF;}
	.st19{fill:#FFFFFF;stroke:#FFFFFF;stroke-width:0.25;stroke-miterlimit:10;}
	.st20{fill:#FFFFFF;stroke:#FFFFFF;stroke-miterlimit:10;}
	.st21{fill:#FF6A1A;}
	.st22{fill:#00AA17;}
	.st23{fill:#FA741D;}
	.st24{fill:none;stroke:#15587C;stroke-miterlimit:10;}
	.st25{fill:none;stroke:#15587C;stroke-width:1.5;stroke-miterlimit:10;}
	.st26{fill:none;stroke:#BA342A;stroke-width:5;stroke-miterlimit:10;}
	.st27{fill:#000004;}
	.st28{fill:#000004;stroke:#FFFFFF;stroke-width:0.5;stroke-miterlimit:10;}
	.st29{fill:#017F00;}
	.st30{fill:none;stroke:#BCBCBC;stroke-miterlimit:10;}
	.st31{fill:#39FF2A;}
	.st32{fill:#FF00B3;}
	.st33{fill:#4DFF00;}
	.st34{fill:#FFFFFF;stroke:#FFFFFF;stroke-width:1.5;stroke-miterlimit:10;}
	.st35{fill:#FFFFFF;stroke:#FFFFFF;stroke-width:0.5;stroke-miterlimit:10;}
	.st36{fill:#FFFFFF;stroke:#BCBCBC;stroke-miterlimit:10;}
</style>
<g id="Layer_1">
	<path class="st0" d="M41.804,0.045H29.579H18.684h-1.846v0.514v11.703c0,0,0.036,0.749-0.733,0.749H4.208v33.191
		C4.208,47.191,5,48,5.968,48h21.246c-0.705-0.528-1.353-1.124-1.934-1.785h-0.091v-0.1c-1.311-1.524-2.262-3.362-2.73-5.387h-0.029
		H11.247H11.23c-0.612,0-1.114-0.512-1.114-1.138c0-0.626,0.501-1.138,1.114-1.138h0.017h10.905
		c-0.009-0.194-0.029-0.386-0.029-0.582c0-0.905,0.099-1.787,0.28-2.639H11.247c-0.306,0-0.585-0.128-0.787-0.334
		c-0.202-0.206-0.327-0.491-0.327-0.804s0.125-0.598,0.327-0.804c0.202-0.206,0.48-0.334,0.787-0.334h11.183h0.683
		c0.496-1.176,1.167-2.258,1.976-3.221H11.247c-0.613,0-1.114-0.512-1.114-1.138c0-0.313,0.125-0.598,0.327-0.804
		c0.202-0.206,0.48-0.334,0.787-0.334h11.183h2.759h2.402c0.271-0.188,0.554-0.36,0.84-0.526c1.869-1.087,4.034-1.721,6.352-1.721
		s4.483,0.633,6.352,1.721c0.295,0.172,0.586,0.351,0.865,0.545c0.656,0.456,1.267,0.971,1.824,1.541V2.109
		C43.824,0.974,42.915,0.045,41.804,0.045z"/>
	<path class="st0" d="M25.094,46.224h0.091c-0.03-0.034-0.061-0.066-0.091-0.1V46.224z"/>
	<path class="st5" d="M22.92,32.953h-0.683c0.228,0,0.429,0.088,0.606,0.21C22.871,33.094,22.891,33.021,22.92,32.953z"/>
	<path class="st5" d="M22.348,40.763h0.029l-0.001-0.004C22.366,40.757,22.358,40.763,22.348,40.763z"/>
	<circle class="st13" cx="34.745" cy="37.729" r="10.255"/>
	<polygon class="st6" points="38.339,39.434 38.339,29.941 31.574,29.941 31.574,39.438 28.869,39.44 34.962,46.147 41.044,39.432 	
		"/>
	<path class="st0" d="M25.757,46.224h0.091c-0.03-0.034-0.061-0.066-0.091-0.1V46.224z"/>
	<path class="st5" d="M16.528,0.658c0.033-0.011,0.066-0.023,0.1-0.034c-0.034,0.011-0.068,0.02-0.101,0.032L16.528,0.658z"/>
	<path class="st5" d="M16.33,0.725c0.066-0.023,0.132-0.045,0.198-0.067l-0.002-0.002C16.46,0.678,16.395,0.702,16.33,0.725z"/>
	<path class="st0" d="M19.236,12.1c0-0.626,0.501-1.138,1.114-1.138h16.469c0.613,0,1.114,0.512,1.114,1.138v0
		c0,0.626-0.501,1.138-1.114,1.138H20.35C19.737,13.239,19.236,12.726,19.236,12.1L19.236,12.1z"/>
	<path class="st0" d="M11.247,16.46h25.572c0.613,0,1.114,0.512,1.114,1.138c0,0.626-0.501,1.138-1.114,1.138H11.247
		c-0.613,0-1.114-0.512-1.114-1.138C10.133,16.972,10.634,16.46,11.247,16.46z"/>
	<path class="st0" d="M11.247,21.957h25.572c0.613,0,1.114,0.512,1.114,1.138c0,0.626-0.501,1.138-1.114,1.138H11.247
		c-0.613,0-1.114-0.512-1.114-1.138C10.133,22.47,10.634,21.957,11.247,21.957z"/>
	<path class="st8" d="M20.35,13.239h16.469c0.613,0,1.114-0.512,1.114-1.138v0c0-0.626-0.501-1.138-1.114-1.138H20.35
		c-0.612,0-1.114,0.512-1.114,1.138v0C19.236,12.726,19.737,13.239,20.35,13.239z"/>
	<path class="st8" d="M11.247,18.736h25.572c0.613,0,1.114-0.512,1.114-1.138c0-0.626-0.501-1.138-1.114-1.138H11.247
		c-0.613,0-1.114,0.512-1.114,1.138C10.133,18.224,10.634,18.736,11.247,18.736z"/>
	<path class="st8" d="M11.247,24.234h25.572c0.613,0,1.114-0.512,1.114-1.138c0-0.626-0.501-1.138-1.114-1.138H11.247
		c-0.613,0-1.114,0.512-1.114,1.138C10.133,23.722,10.634,24.234,11.247,24.234z"/>
	<path class="st5" d="M16.838,12.261V0.558c-0.07,0.023-0.141,0.043-0.211,0.066c-0.033,0.011-0.067,0.023-0.1,0.034
		c-0.066,0.022-0.132,0.044-0.198,0.067c0.066-0.023,0.13-0.047,0.196-0.069c0.034-0.011,0.068-0.021,0.101-0.032
		c0.07-0.023,0.141-0.043,0.211-0.066V0.045L4.208,13.01h11.897C16.51,13.01,16.838,12.675,16.838,12.261z"/>
	<path class="st5" d="M16.105,13.01c0.769,0,0.733-0.749,0.733-0.749C16.838,12.675,16.51,13.01,16.105,13.01z"/>
	<path class="st8" d="M25.189,27.455h-2.759H11.247c-0.306,0-0.585,0.128-0.787,0.334c-0.101,0.103-0.183,0.226-0.239,0.362
		c-0.057,0.136-0.088,0.286-0.088,0.442c0,0.626,0.501,1.138,1.114,1.138h13.842c0.032-0.038,0.068-0.072,0.1-0.11
		c0.705-0.82,1.51-1.55,2.402-2.167H25.189z"/>
	<path class="st5" d="M10.46,33.287c-0.202,0.206-0.327,0.491-0.327,0.804c0,0.313,0.125,0.598,0.327,0.804
		c-0.202-0.206-0.327-0.491-0.327-0.804C10.133,33.778,10.258,33.493,10.46,33.287z"/>
	<path class="st8" d="M22.429,32.953H11.247c-0.306,0-0.585,0.128-0.787,0.334c-0.202,0.206-0.327,0.491-0.327,0.804
		c0,0.313,0.125,0.598,0.327,0.804c0.202,0.206,0.48,0.334,0.787,0.334h11.155c0.151-0.714,0.368-1.403,0.634-2.067
		c0.028-0.069,0.048-0.141,0.077-0.21H22.429z"/>
	<path class="st8" d="M22.151,38.45H11.247c-0.613,0-1.114,0.512-1.114,1.138c0,0.626,0.501,1.138,1.114,1.138h11.183
		c0.01,0,0.018-0.005,0.028-0.006C22.287,39.987,22.187,39.228,22.151,38.45z"/>
	<path class="st5" d="M10.133,39.589c0-0.626,0.501-1.138,1.114-1.138H11.23c-0.613,0-1.114,0.512-1.114,1.138
		c0,0.626,0.501,1.138,1.114,1.138h0.017C10.634,40.727,10.133,40.215,10.133,39.589z"/>
	<path class="st5" d="M22.54,40.763h0.029c0-0.002-0.001-0.004-0.001-0.004C22.558,40.757,22.55,40.763,22.54,40.763z"/>
	<path class="st13" d="M25.189,29.622c-0.032,0.038-0.068,0.072-0.1,0.11h0.1V29.622z"/>
</g>
<g id="remote_x5F_mysql">
</g>
<g id="addon_x5F_domains">
</g>
<g id="mysql_x5F_database_x5F_wizard">
</g>
<g id="multiphp_x5F_ini_x5F_editor">
</g>
</svg>
