<?xml version="1.0" encoding="utf-8"?>
<!-- Generator: Adobe Illustrator 21.1.0, SVG Export Plug-In . SVG Version: 6.00 Build 0)  -->
<svg version="1.1" xmlns="http://www.w3.org/2000/svg" xmlns:xlink="http://www.w3.org/1999/xlink" x="0px" y="0px"
	 viewBox="0 0 48 48" style="enable-background:new 0 0 48 48;" xml:space="preserve">
<style type="text/css">
	.st0{fill:#E0E0E0;}
	.st1{fill:#262626;}
	.st2{fill:#4F5B94;}
	.st3{fill:#15587C;}
	.st4{fill:none;}
	.st5{fill:#BCBCBC;}
	.st6{fill:#FFFFFF;}
	.st7{fill:#D34231;}
	.st8{fill:#666666;}
	.st9{fill:#EDA72B;}
	.st10{fill:#25323C;}
	.st11{fill:#336792;}
	.st12{fill:#32415B;}
	.st13{fill:#84B556;}
	.st14{fill:#6A9638;}
	.st15{fill:#189BD8;}
	.st16{fill:#BA342A;}
	.st17{fill:#FF6C2C;}
	.st18{fill:#8892BF;}
	.st19{fill:#FFFFFF;stroke:#FFFFFF;stroke-width:0.25;stroke-miterlimit:10;}
	.st20{fill:#FFFFFF;stroke:#FFFFFF;stroke-miterlimit:10;}
	.st21{fill:#FF6A1A;}
	.st22{fill:#00AA17;}
	.st23{fill:#FA741D;}
	.st24{fill:none;stroke:#15587C;stroke-miterlimit:10;}
	.st25{fill:none;stroke:#15587C;stroke-width:1.5;stroke-miterlimit:10;}
	.st26{fill:none;stroke:#BA342A;stroke-width:5;stroke-miterlimit:10;}
	.st27{fill:#000004;}
	.st28{fill:#000004;stroke:#FFFFFF;stroke-width:0.5;stroke-miterlimit:10;}
	.st29{fill:#017F00;}
	.st30{fill:none;stroke:#BCBCBC;stroke-miterlimit:10;}
	.st31{fill:#39FF2A;}
	.st32{fill:#FF00B3;}
	.st33{fill:#4DFF00;}
	.st34{fill:#FFFFFF;stroke:#FFFFFF;stroke-width:1.5;stroke-miterlimit:10;}
	.st35{fill:#FFFFFF;stroke:#FFFFFF;stroke-width:0.5;stroke-miterlimit:10;}
	.st36{fill:#FFFFFF;stroke:#BCBCBC;stroke-miterlimit:10;}
</style>
<g id="Layer_1">
	<path class="st10" d="M24.663,36.329c0-1.088,0.16-2.138,0.439-3.137H8.687c-2.712,0-4.91-2.198-4.91-4.91v-8.569
		c0-2.712,2.198-4.91,4.91-4.91h30.665c2.712,0,4.91,2.198,4.91,4.91v8.066c1.078,1,1.963,2.198,2.603,3.541
		c0.739-2.309,1.142-4.768,1.142-7.322c0-13.257-10.747-24.003-24.003-24.003S0,10.741,0,23.997s10.747,24.003,24.003,24.003
		c2.554,0,5.014-0.403,7.322-1.142C27.39,44.983,24.663,40.98,24.663,36.329z"/>
	<path class="st12" d="M22.705,22.245c-0.493,0-0.876,0.175-1.148,0.525c-0.273,0.35-0.41,0.845-0.41,1.485
		c0,1.341,0.524,2.01,1.572,2.01c0.999,0,1.499-0.688,1.499-2.065C24.217,22.897,23.713,22.245,22.705,22.245z"/>
	<path class="st12" d="M35.27,22.245c-0.344,0-0.623,0.153-0.838,0.457c-0.216,0.304-0.323,0.683-0.323,1.138v1.035
		c0.722-0.14,1.465-0.218,2.228-0.218c0.006,0,0.011,0.001,0.016,0.001v-0.893C36.352,22.752,35.991,22.245,35.27,22.245z"/>
	<path class="st12" d="M30.958,22.245c-0.356,0-0.642,0.146-0.855,0.436c-0.214,0.291-0.32,0.686-0.32,1.186v2.803
		c0.695-0.472,1.447-0.865,2.238-1.18v-1.767C32.021,22.739,31.667,22.245,30.958,22.245z"/>
	<circle class="st17" cx="36.352" cy="36.636" r="9.742"/>
	<path class="st35" d="M41.058,31.702h-0.536h-7.28h-2.698v2.004h1.229h7.768c0,0,0.029-0.001,0.068,0
		c0.216,0.004,0.913,0.083,0.913,0.957v0.979v1.264v1.465c0,0.874-0.697,0.953-0.913,0.957c-0.039,0.001-0.068,0-0.068,0H34.05
		v0.049h-0.044v-0.992l-3.462,1.973l3.462,2.018V41.34h3.55v-0.007h3.502c0.647,0,1.19-0.421,1.386-1.002
		c0.05-0.147,0.083-0.302,0.083-0.467v-0.536v-2.217v-0.205v-0.983v-1.432v-1.321C42.527,32.36,41.87,31.702,41.058,31.702z"/>
	<rect x="5.604" y="16.823" class="st12" width="36.492" height="7.832"/>
	<g>
		<path class="st12" d="M39.104,17.125H8.937c-1.642,0-2.973,1.331-2.973,2.973v7.831c0,1.642,1.331,2.973,2.973,2.973h17.078
			c0.626-1.184,1.454-2.241,2.431-3.14h-0.749v-6.98h2.087v1.091h0.026c0.215-0.372,0.518-0.675,0.908-0.91
			c0.39-0.234,0.816-0.351,1.278-0.351c0.955,0,1.608,0.434,1.96,1.302c0.515-0.868,1.272-1.302,2.271-1.302
			c1.47,0,2.205,0.936,2.205,2.808v1.451c1.304,0.237,2.531,0.687,3.645,1.318v-6.092C42.077,18.456,40.745,17.125,39.104,17.125z
			 M11.108,27.615c-0.231,0.212-0.532,0.318-0.902,0.318c-0.343,0-0.629-0.109-0.858-0.328c-0.229-0.218-0.343-0.485-0.343-0.804
			c0-0.327,0.117-0.595,0.353-0.804c0.235-0.208,0.528-0.313,0.88-0.313c0.356,0,0.648,0.106,0.875,0.317
			c0.227,0.212,0.341,0.478,0.341,0.801C11.455,27.133,11.34,27.404,11.108,27.615z M18.063,22.766
			c-0.435-0.336-0.922-0.505-1.459-0.505c-0.598,0-1.073,0.181-1.423,0.542s-0.525,0.86-0.525,1.496
			c0,0.618,0.167,1.104,0.502,1.456c0.334,0.352,0.794,0.527,1.379,0.527c0.519,0,1.027-0.167,1.525-0.504v1.731
			c-0.471,0.281-1.15,0.423-2.04,0.423c-1.039,0-1.879-0.326-2.522-0.975c-0.642-0.65-0.964-1.489-0.964-2.515
			c0-1.186,0.344-2.121,1.033-2.805c0.688-0.683,1.61-1.025,2.763-1.025c0.796,0,1.373,0.109,1.729,0.327V22.766z M25.355,26.924
			c-0.657,0.672-1.558,1.009-2.703,1.009c-1.126,0-2.013-0.327-2.657-0.978c-0.645-0.652-0.967-1.537-0.967-2.655
			c0-1.154,0.334-2.057,1.003-2.709c0.669-0.653,1.573-0.978,2.713-0.978c1.122,0,2.003,0.326,2.642,0.978
			c0.638,0.652,0.957,1.514,0.957,2.586C26.343,25.336,26.014,26.252,25.355,26.924z"/>
		<path class="st5" d="M10.239,25.683c-0.352,0-0.646,0.105-0.88,0.313c-0.236,0.21-0.353,0.477-0.353,0.804
			c0,0.319,0.114,0.587,0.343,0.804c0.229,0.219,0.515,0.328,0.858,0.328c0.37,0,0.671-0.106,0.902-0.318
			c0.231-0.211,0.346-0.482,0.346-0.814c0-0.322-0.114-0.589-0.341-0.801C10.887,25.789,10.596,25.683,10.239,25.683z"/>
		<path class="st5" d="M13.571,21.637c-0.689,0.685-1.033,1.62-1.033,2.805c0,1.026,0.321,1.865,0.964,2.515
			c0.642,0.649,1.483,0.975,2.522,0.975c0.89,0,1.57-0.141,2.04-0.423v-1.731c-0.498,0.336-1.006,0.504-1.525,0.504
			c-0.585,0-1.046-0.175-1.379-0.527c-0.335-0.352-0.502-0.837-0.502-1.456c0-0.636,0.175-1.135,0.525-1.496
			s0.825-0.542,1.423-0.542c0.538,0,1.024,0.169,1.459,0.505v-1.827c-0.357-0.218-0.933-0.327-1.729-0.327
			C15.18,20.612,14.259,20.954,13.571,21.637z"/>
		<path class="st5" d="M22.745,20.612c-1.14,0-2.045,0.326-2.713,0.978c-0.67,0.652-1.003,1.555-1.003,2.709
			c0,1.119,0.322,2.004,0.967,2.655c0.645,0.652,1.531,0.978,2.657,0.978c1.145,0,2.046-0.337,2.703-1.009
			c0.658-0.672,0.988-1.588,0.988-2.747c0-1.072-0.319-1.934-0.957-2.586C24.747,20.938,23.867,20.612,22.745,20.612z
			 M22.719,26.282c-1.048,0-1.572-0.67-1.572-2.01c0-0.64,0.137-1.136,0.41-1.485c0.272-0.35,0.655-0.525,1.148-0.525
			c1.008,0,1.513,0.652,1.513,1.956C24.218,25.594,23.717,26.282,22.719,26.282z"/>
		<path class="st5" d="M29.783,23.883c0-0.5,0.106-0.895,0.32-1.186c0.213-0.29,0.499-0.436,0.855-0.436
			c0.709,0,1.063,0.493,1.063,1.478v1.767c0.668-0.266,1.364-0.476,2.087-0.615v-1.035c0-0.454,0.107-0.834,0.323-1.138
			c0.215-0.304,0.494-0.457,0.838-0.457c0.721,0,1.082,0.507,1.082,1.519v0.893c0.711,0.001,1.404,0.074,2.08,0.197V23.42
			c0-1.871-0.735-2.808-2.205-2.808c-0.999,0-1.756,0.434-2.271,1.302c-0.352-0.868-1.006-1.302-1.96-1.302
			c-0.463,0-0.889,0.117-1.278,0.351c-0.39,0.235-0.693,0.538-0.908,0.91h-0.026v-1.091h-2.087v6.98h0.749
			c0.421-0.387,0.863-0.753,1.338-1.075V23.883z"/>
	</g>
	<path class="st11" d="M39.353,14.803H8.687c-2.712,0-4.91,2.198-4.91,4.91v8.569c0,2.712,2.198,4.91,4.91,4.91h16.415
		c0.111-0.4,0.241-0.791,0.393-1.172c0.154-0.388,0.325-0.767,0.519-1.134H8.936c-1.642,0-2.973-1.331-2.973-2.973v-7.831
		c0-1.642,1.331-2.973,2.973-2.973h30.167c1.642,0,2.973,1.331,2.973,2.973v6.092c0.382,0.217,0.748,0.457,1.102,0.714
		c0.379,0.276,0.741,0.573,1.084,0.891v-8.066C44.262,17.001,42.064,14.803,39.353,14.803z"/>
</g>
<g id="remote_x5F_mysql">
</g>
<g id="addon_x5F_domains">
</g>
<g id="mysql_x5F_database_x5F_wizard">
</g>
<g id="multiphp_x5F_ini_x5F_editor">
</g>
</svg>
