<?xml version="1.0" encoding="utf-8"?>
<!-- Generator: Adobe Illustrator 21.1.0, SVG Export Plug-In . SVG Version: 6.00 Build 0)  -->
<svg version="1.1" xmlns="http://www.w3.org/2000/svg" xmlns:xlink="http://www.w3.org/1999/xlink" x="0px" y="0px"
	 viewBox="0 0 48 48" style="enable-background:new 0 0 48 48;" xml:space="preserve">
<style type="text/css">
	.st0{fill:#E0E0E0;}
	.st1{fill:#262626;}
	.st2{fill:#4F5B94;}
	.st3{fill:#15587C;}
	.st4{fill:none;}
	.st5{fill:#BCBCBC;}
	.st6{fill:#FFFFFF;}
	.st7{fill:#D34231;}
	.st8{fill:#666666;}
	.st9{fill:#EDA72B;}
	.st10{fill:#25323C;}
	.st11{fill:#336792;}
	.st12{fill:#32415B;}
	.st13{fill:#84B556;}
	.st14{fill:#6A9638;}
	.st15{fill:#189BD8;}
	.st16{fill:#BA342A;}
	.st17{fill:#FF6C2C;}
	.st18{fill:#8892BF;}
	.st19{fill:#FFFFFF;stroke:#FFFFFF;stroke-width:0.25;stroke-miterlimit:10;}
	.st20{fill:#FFFFFF;stroke:#FFFFFF;stroke-miterlimit:10;}
	.st21{fill:#FF6A1A;}
	.st22{fill:#00AA17;}
	.st23{fill:#FA741D;}
	.st24{fill:none;stroke:#15587C;stroke-miterlimit:10;}
	.st25{fill:none;stroke:#15587C;stroke-width:1.5;stroke-miterlimit:10;}
	.st26{fill:none;stroke:#BA342A;stroke-width:5;stroke-miterlimit:10;}
	.st27{fill:#000004;}
	.st28{fill:#000004;stroke:#FFFFFF;stroke-width:0.5;stroke-miterlimit:10;}
	.st29{fill:#017F00;}
	.st30{fill:none;stroke:#BCBCBC;stroke-miterlimit:10;}
	.st31{fill:#39FF2A;}
	.st32{fill:#FF00B3;}
	.st33{fill:#4DFF00;}
	.st34{fill:#FFFFFF;stroke:#FFFFFF;stroke-width:1.5;stroke-miterlimit:10;}
	.st35{fill:#FFFFFF;stroke:#FFFFFF;stroke-width:0.5;stroke-miterlimit:10;}
	.st36{fill:#FFFFFF;stroke:#BCBCBC;stroke-miterlimit:10;}
</style>
<g id="Layer_1">
	<g>
		<path class="st12" d="M46.812,42.919H1.188C0.534,42.919,0,42.385,0,41.732V6.188C0,5.534,0.534,5,1.188,5h45.625
			C47.466,5,48,5.534,48,6.188v35.544C48,42.385,47.466,42.919,46.812,42.919z"/>
		<path class="st10" d="M44.16,40.735H3.84c-0.688,0-1.25-0.562-1.25-1.25V14.795c0-0.688,0.562-1.25,1.25-1.25H44.16
			c0.688,0,1.25,0.562,1.25,1.25v24.691C45.41,40.173,44.848,40.735,44.16,40.735z"/>
		<path class="st0" d="M4.124,10.881H3.753c-0.691,0-1.256-0.565-1.256-1.256V9.254c0-0.691,0.565-1.256,1.256-1.256h0.371
			c0.691,0,1.256,0.565,1.256,1.256v0.371C5.38,10.315,4.815,10.881,4.124,10.881z"/>
		<path class="st0" d="M9.268,10.881H8.897c-0.691,0-1.256-0.565-1.256-1.256V9.254c0-0.691,0.565-1.256,1.256-1.256h0.371
			c0.691,0,1.256,0.565,1.256,1.256v0.371C10.524,10.315,9.959,10.881,9.268,10.881z"/>
		<path class="st0" d="M14.412,10.881h-0.371c-0.691,0-1.256-0.565-1.256-1.256V9.254c0-0.691,0.565-1.256,1.256-1.256h0.371
			c0.691,0,1.256,0.565,1.256,1.256v0.371C15.668,10.315,15.103,10.881,14.412,10.881z"/>
		<path class="st0" d="M15.299,25.814l2.171-2.128c0,0,0.757-0.671,1.014,0.143l0.1,0.543c0,0,0.114,2.214,2.556,2.371
			c0,0,2.771-0.171,2.828-3.07c0,0-0.029-2.142-2.556-2.342c0,0-1.285-0.071-0.486-1.143l3.185-3.185c0,0,0.671-0.7,1.471-0.1
			l2.871,2.871c0,0,1.471,1.671,2.271,0c0,0,0.086-0.328,0.1-0.514c0.014-0.186,0.143-1.671,1.757-2.057
			c0,0,2.371-0.314,2.699,2.228c0,0,0.186,1.714-1.742,2.171c0,0-1.357,0.029-1.5,0.771c-0.143,0.743,0.171,1.057,0.171,1.057
			l3.213,3.313c0,0,0.828,0.757-0.1,1.728c-0.928,0.971-2.913,2.942-2.913,2.942s-1.171,1.2-1.271-0.443
			c-0.1-1.642-1.428-2.199-1.428-2.199s-1.928-1.057-3.599,1.285c0,0-0.957,1.757,0.414,3.17c0,0,0.671,0.643,1.699,0.686
			c1.028,0.043,0.8,0.728,0.8,0.728s-0.129,0.271-0.271,0.428c-0.143,0.157-3.222,3.242-3.222,3.242s-0.748,0.757-1.648-0.171
			c-0.9-0.928-2.856-2.856-2.856-2.856s-0.914-1.071-1.814-0.229c0,0-0.3,0.343-0.357,1.085c-0.057,0.743-0.528,1.228-0.528,1.228
			s-1.257,1.357-2.885,0.229s-0.814-2.799-0.814-2.799s0.557-1.171,2.042-1.2c0,0,0.9-0.157,1.028-0.743
			c0.129-0.586-0.286-1.157-0.286-1.157l-3.213-3.242c0,0-0.757-0.8,0-1.542C14.956,26.171,15.299,25.814,15.299,25.814z"/>
	</g>
</g>
<g id="remote_x5F_mysql">
</g>
<g id="addon_x5F_domains">
</g>
<g id="mysql_x5F_database_x5F_wizard">
</g>
<g id="multiphp_x5F_ini_x5F_editor">
</g>
</svg>
