<?xml version="1.0" encoding="utf-8"?>
<!-- Generator: Adobe Illustrator 21.1.0, SVG Export Plug-In . SVG Version: 6.00 Build 0)  -->
<svg version="1.1" xmlns="http://www.w3.org/2000/svg" xmlns:xlink="http://www.w3.org/1999/xlink" x="0px" y="0px"
	 viewBox="0 0 48 48" style="enable-background:new 0 0 48 48;" xml:space="preserve">
<style type="text/css">
	.st0{fill:#E0E0E0;}
	.st1{fill:#262626;}
	.st2{fill:#4F5B94;}
	.st3{fill:#15587C;}
	.st4{fill:none;}
	.st5{fill:#BCBCBC;}
	.st6{fill:#FFFFFF;}
	.st7{fill:#D34231;}
	.st8{fill:#666666;}
	.st9{fill:#EDA72B;}
	.st10{fill:#25323C;}
	.st11{fill:#336792;}
	.st12{fill:#32415B;}
	.st13{fill:#84B556;}
	.st14{fill:#6A9638;}
	.st15{fill:#189BD8;}
	.st16{fill:#BA342A;}
	.st17{fill:#FF6C2C;}
	.st18{fill:#8892BF;}
	.st19{fill:#FFFFFF;stroke:#FFFFFF;stroke-width:0.25;stroke-miterlimit:10;}
	.st20{fill:#FFFFFF;stroke:#FFFFFF;stroke-miterlimit:10;}
	.st21{fill:#FF6A1A;}
	.st22{fill:#00AA17;}
	.st23{fill:#FA741D;}
	.st24{fill:none;stroke:#15587C;stroke-miterlimit:10;}
	.st25{fill:none;stroke:#15587C;stroke-width:1.5;stroke-miterlimit:10;}
	.st26{fill:none;stroke:#BA342A;stroke-width:5;stroke-miterlimit:10;}
	.st27{fill:#000004;}
	.st28{fill:#000004;stroke:#FFFFFF;stroke-width:0.5;stroke-miterlimit:10;}
	.st29{fill:#017F00;}
	.st30{fill:none;stroke:#BCBCBC;stroke-miterlimit:10;}
	.st31{fill:#39FF2A;}
	.st32{fill:#FF00B3;}
	.st33{fill:#4DFF00;}
	.st34{fill:#FFFFFF;stroke:#FFFFFF;stroke-width:1.5;stroke-miterlimit:10;}
	.st35{fill:#FFFFFF;stroke:#FFFFFF;stroke-width:0.5;stroke-miterlimit:10;}
	.st36{fill:#FFFFFF;stroke:#BCBCBC;stroke-miterlimit:10;}
</style>
<g id="Layer_1">
	<path class="st12" d="M6.71,26.393c0.772-1.296,1.684-2.499,2.718-3.586c2.407-2.529,5.465-4.432,8.906-5.44
		c0.876-0.257,1.776-0.456,2.697-0.592c0.625-0.092,1.259-0.157,1.901-0.19l0.033-0.028l0.084,0.023
		c0.315-0.015,0.632-0.023,0.951-0.023c3.008,0,5.861,0.662,8.424,1.846c0.476,0.22,0.941,0.458,1.396,0.713
		c6.14,3.442,10.29,10.011,10.29,17.551l0,0.001c0,0.137-0.009,0.272-0.011,0.409C46.563,33.305,48,28.804,48,23.965
		c0-13.255-10.745-24-24-24s-24,10.745-24,24c0,4.843,1.439,9.347,3.906,13.118c-0.003-0.139-0.016-0.276-0.016-0.416
		C3.89,32.912,4.92,29.4,6.71,26.393z"/>
	<path class="st32" d="M22.965,16.556l-0.033,0.028c0.039-0.002,0.078-0.004,0.118-0.005L22.965,16.556z"/>
	<path class="st13" d="M9.428,22.807l8.906-5.44C14.893,18.375,11.835,20.278,9.428,22.807z"/>
	<path class="st11" d="M12.731,45.156c0.186-0.504,0.332-1.139,0.051-1.489c-0.509-0.636-0.764-1.718-0.764-1.718
		s-0.827,0-1.591-1.527c-0.764-1.527-0.827-3.5-0.255-4.646c0.573-1.146,0-1.464,0-1.464H9.41L9.155,33.23l-0.318-0.509
		l-0.318-0.764l-0.318-0.445l-0.318-0.636c-2.291-0.891-1.559-3.055-1.559-3.055l0.387-1.428C4.92,29.4,3.89,32.912,3.89,36.666
		c0,0.14,0.013,0.277,0.016,0.416C6.116,40.461,9.152,43.249,12.731,45.156z"/>
	<path class="st13" d="M19.338,45.639c0.955-0.255,0.955-0.255,0.955-0.255s1.209,0.255,1.464-2.036c0,0,1.846-0.509,1.973-2.227
		c0.127-1.718-1.146-2.673-1.146-2.673h-1.146l-1.146-1.082L19.21,37.43c0,0-0.191-1.273-1.082-2.418l-0.764-0.127
		c0,0-0.191-0.636-1.782-0.509l-0.127-0.7l-3.182-1.146l-1.209,1.273l-1.4-0.955l0.127-0.955L8.71,31.13l0.445-0.636l0.191-0.891
		H8.901c0,0-1.973-1.082,0-3.373l2.164-0.191l0.191,0.955l0.636,1.209l1.209-1.336l-0.127-0.891c0,0,1.464-0.573,1.527-1.655
		c0,0,0.255,0.255,2.609-1.146h1.718l-0.127-1.018h0.318h0.955l0.891-0.7l-0.7-1.209l0.255-0.636h-0.636l-0.764-0.764l-0.764,1.018
		l-0.573,0.064c0,0-1.464,2.418-1.782-0.127l1.782-1.655h0.573l1.082-0.318c0,0,1.018,1.655,1.527,0c0,0,0.827,0.064,0.127-0.573
		l0.038-0.481c-0.921,0.136-1.821,0.335-2.697,0.592l-8.906,5.44c-1.034,1.087-1.946,2.289-2.718,3.586L6.323,27.82
		c0,0-0.732,2.164,1.559,3.055l0.318,0.636l0.318,0.445l0.318,0.764l0.318,0.509l0.255,1.082h0.764c0,0,0.573,0.318,0,1.464
		c-0.573,1.146-0.509,3.118,0.255,4.646c0.764,1.527,1.591,1.527,1.591,1.527s0.255,1.082,0.764,1.718
		c0.28,0.35,0.135,0.985-0.051,1.489c1.664,0.887,3.443,1.586,5.311,2.063l0.15-0.243C18.192,46.976,18.383,45.894,19.338,45.639z"
		/>
	<path class="st11" d="M40.403,27.057l-0.509-1.069h-1.082c0,0-0.255-0.204-0.255-0.395c0-0.165-0.569,0.249-0.724,0.365
		c-0.024,0.018-0.039,0.03-0.039,0.03v-0.097v-0.298c-0.16-0.219-0.282-0.314-0.374-0.34c-0.202-0.057-0.262,0.213-0.262,0.213
		c-1.273,0.573-0.955-0.127-0.955-0.127c0.764-1.464-1.146-0.573-1.146-0.573c-0.955-0.509-0.891,0.573-0.891,0.573
		s-2.291,1.655-2.737-0.318c-0.445-1.973,1.4-0.7,1.4-0.7l0.573-1.018h0.764v-1.018l-0.764-0.573v-0.318l-1.305-0.891h-0.35
		l-0.445-1.273l-0.509-0.318v-0.509h1.631c-2.563-1.184-5.416-1.846-8.424-1.846c-0.319,0-0.635,0.008-0.951,0.023l1.316,0.359
		h0.827l0.255,0.445h0.955l-0.764,1.018h-0.573c-0.255,0.955-0.7,0.573-0.7,0.573c-2.291,1.973-1.655-1.209-1.655-1.209
		l-0.573-0.509l0.794-0.672c-0.642,0.034-1.276,0.098-1.901,0.19l-0.039,0.481c0.7,0.636-0.127,0.573-0.127,0.573
		c-0.509,1.655-1.527,0-1.527,0l-1.082,0.318h-0.573l-1.782,1.655c0.318,2.546,1.782,0.127,1.782,0.127l0.573-0.064l0.764-1.018
		l0.764,0.764h0.636l-0.255,0.636l0.7,1.209l-0.891,0.7H19.02h-0.318l0.127,1.018H17.11c-2.355,1.4-2.609,1.146-2.609,1.146
		c-0.064,1.082-1.527,1.655-1.527,1.655l0.127,0.891l-1.209,1.336l-0.636-1.209l-0.191-0.955l-2.164,0.191
		c-1.973,2.291,0,3.373,0,3.373h0.445l-0.191,0.891L8.71,31.13l1.082,0.764l-0.127,0.955l1.4,0.955l1.209-1.273l3.182,1.146
		l0.127,0.7c1.591-0.127,1.782,0.509,1.782,0.509l0.764,0.127c0.891,1.146,1.082,2.418,1.082,2.418l1.082-0.064l1.146,1.082h1.146
		c0,0,1.273,0.955,1.146,2.673s-1.973,2.227-1.973,2.227c-0.255,2.291-1.464,2.036-1.464,2.036s0,0-0.955,0.255
		c-0.955,0.255-1.146,1.336-1.146,1.336l-0.149,0.243c1.905,0.487,3.901,0.746,5.957,0.746c4.994,0,9.632-1.527,13.473-4.137
		c0.093-0.927-0.252-2.261-0.252-2.261l0.764-1.146v-1.782l-0.7-0.827c0.827-2.036-1.018-1.655-1.018-1.655l-0.725-0.955
		l-0.548,0.636l-2.036,0.318c0,0-0.827,0-1.718-0.955c-0.891-0.955-0.636-2.1-0.462-1.909c0.174,0.191,0.398-1.336,0.398-1.336
		l-0.382-0.255c-0.191-3.182,1.336-3.182,1.336-3.182c-0.127-1.273,1.018-1.527,1.018-1.527c3.755-1.209,5.091,0.655,5.091,0.655
		s0.132-0.213,0.365-0.375c0.28-0.195,0.705-0.315,1.226,0.102C40.784,28.138,40.403,27.057,40.403,27.057z"/>
	<path class="st13" d="M44.11,36.665c0-7.539-4.151-14.108-10.29-17.551c-0.455-0.255-0.92-0.493-1.396-0.713h-1.631v0.509
		l0.509,0.318l0.445,1.273h0.35l1.305,0.891v0.318l0.764,0.573v1.018h-0.764l-0.573,1.018c0,0-1.846-1.273-1.4,0.7
		c0.445,1.973,2.737,0.318,2.737,0.318s-0.064-1.082,0.891-0.573c0,0,1.909-0.891,1.146,0.573c0,0-0.318,0.7,0.955,0.127
		c0,0,0.06-0.27,0.262-0.213c0.092,0.026,0.214,0.12,0.374,0.34v0.298v0.097c0,0,0.015-0.011,0.039-0.03
		c0.155-0.116,0.724-0.53,0.724-0.365c0,0.191,0.255,0.395,0.255,0.395h1.082l0.509,1.069c0,0,0.382,1.082-0.573,0.318
		c-0.521-0.417-0.947-0.297-1.226-0.102c-0.233,0.162-0.365,0.375-0.365,0.375s-1.336-1.864-5.091-0.655
		c0,0-1.146,0.255-1.018,1.527c0,0-1.527,0-1.336,3.182l0.382,0.255c0,0-0.224,1.527-0.398,1.336
		c-0.174-0.191-0.429,0.955,0.462,1.909c0.891,0.955,1.718,0.955,1.718,0.955l2.036-0.318l0.548-0.636l0.725,0.955
		c0,0,1.846-0.382,1.018,1.655l0.7,0.827v1.782l-0.764,1.146c0,0,0.345,1.334,0.252,2.261c2.631-1.788,4.884-4.088,6.626-6.752
		c0.003-0.137,0.011-0.272,0.011-0.409L44.11,36.665z"/>
	<path class="st13" d="M22.711,17.765c0,0-0.636,3.182,1.655,1.209c0,0,0.445,0.382,0.7-0.573h0.573l0.764-1.018h-0.955
		l-0.255-0.445h-0.827l-1.316-0.359c-0.039,0.002-0.079,0.003-0.118,0.005l-0.794,0.672L22.711,17.765z"/>
	<g>
		<polygon class="st6" points="4.523,23.258 37.169,7.045 25.995,36.112 14.711,30.416 10.695,27.421 		"/>
		<polygon class="st0" points="36.621,7.593 10.695,27.421 14.748,35.601 14.711,30.416 		"/>
		<polygon class="st5" points="14.711,30.416 18.253,32.204 14.748,35.601 		"/>
	</g>
</g>
<g id="remote_x5F_mysql">
</g>
<g id="addon_x5F_domains">
</g>
<g id="mysql_x5F_database_x5F_wizard">
</g>
<g id="multiphp_x5F_ini_x5F_editor">
</g>
</svg>
