<?xml version="1.0" encoding="utf-8"?>
<!-- Generator: Adobe Illustrator 21.1.0, SVG Export Plug-In . SVG Version: 6.00 Build 0)  -->
<svg version="1.1" xmlns="http://www.w3.org/2000/svg" xmlns:xlink="http://www.w3.org/1999/xlink" x="0px" y="0px"
	 viewBox="0 0 48 48" style="enable-background:new 0 0 48 48;" xml:space="preserve">
<style type="text/css">
	.st0{fill:#E0E0E0;}
	.st1{fill:#262626;}
	.st2{fill:#4F5B94;}
	.st3{fill:#15587C;}
	.st4{fill:none;}
	.st5{fill:#BCBCBC;}
	.st6{fill:#FFFFFF;}
	.st7{fill:#D34231;}
	.st8{fill:#666666;}
	.st9{fill:#EDA72B;}
	.st10{fill:#25323C;}
	.st11{fill:#336792;}
	.st12{fill:#32415B;}
	.st13{fill:#84B556;}
	.st14{fill:#6A9638;}
	.st15{fill:#189BD8;}
	.st16{fill:#BA342A;}
	.st17{fill:#FF6C2C;}
	.st18{fill:#8892BF;}
	.st19{fill:#FFFFFF;stroke:#FFFFFF;stroke-width:0.25;stroke-miterlimit:10;}
	.st20{fill:#FFFFFF;stroke:#FFFFFF;stroke-miterlimit:10;}
	.st21{fill:#FF6A1A;}
	.st22{fill:#00AA17;}
	.st23{fill:#FA741D;}
	.st24{fill:none;stroke:#15587C;stroke-miterlimit:10;}
	.st25{fill:none;stroke:#15587C;stroke-width:1.5;stroke-miterlimit:10;}
	.st26{fill:none;stroke:#BA342A;stroke-width:5;stroke-miterlimit:10;}
	.st27{fill:#000004;}
	.st28{fill:#000004;stroke:#FFFFFF;stroke-width:0.5;stroke-miterlimit:10;}
	.st29{fill:#017F00;}
	.st30{fill:none;stroke:#BCBCBC;stroke-miterlimit:10;}
	.st31{fill:#39FF2A;}
	.st32{fill:#FF00B3;}
	.st33{fill:#4DFF00;}
	.st34{fill:#FFFFFF;stroke:#FFFFFF;stroke-width:1.5;stroke-miterlimit:10;}
	.st35{fill:#FFFFFF;stroke:#FFFFFF;stroke-width:0.5;stroke-miterlimit:10;}
	.st36{fill:#FFFFFF;stroke:#BCBCBC;stroke-miterlimit:10;}
</style>
<g id="Layer_1">
	<path class="st0" d="M5.83,48.016h36.232c1.011,0,1.83-0.819,1.83-1.83V1.83c0-1.011-0.819-1.83-1.83-1.83H5.83
		C4.819,0,4,0.819,4,1.83v44.357C4,47.197,4.819,48.016,5.83,48.016z"/>
	<path class="st5" d="M20.254,13.211h16.584c0.617,0,1.121-0.513,1.121-1.14v0c0-0.627-0.505-1.14-1.121-1.14H20.254
		c-0.617,0-1.121,0.513-1.121,1.14v0C19.133,12.698,19.637,13.211,20.254,13.211z"/>
	<path class="st5" d="M11.087,18.715h25.75c0.617,0,1.121-0.513,1.121-1.14c0-0.627-0.505-1.14-1.121-1.14h-25.75
		c-0.617,0-1.121,0.513-1.121,1.14C9.966,18.203,10.471,18.715,11.087,18.715z"/>
	<path class="st5" d="M11.087,24.22h25.75c0.617,0,1.121-0.513,1.121-1.14c0-0.627-0.505-1.14-1.121-1.14h-25.75
		c-0.617,0-1.121,0.513-1.121,1.14C9.966,23.707,10.471,24.22,11.087,24.22z"/>
	<path class="st4" d="M9.848,34.033L9.848,34.033c0-0.313,0.126-0.597,0.329-0.803C9.974,33.436,9.848,33.721,9.848,34.033z"/>
	<polygon class="st0" points="14.525,25.108 12.083,27.404 16.967,27.404 	"/>
	<path class="st5" d="M10.967,29.679c-0.346,0-0.645-0.172-0.851-0.425l0,0C10.322,29.507,10.62,29.679,10.967,29.679l8.42,0l0,0
		H10.967z"/>
	<path class="st5" d="M9.848,34.034c0,0.313,0.126,0.597,0.329,0.803C9.974,34.631,9.848,34.346,9.848,34.034L9.848,34.034z"/>
	<path class="st7" d="M9.848,28.541L9.848,28.541c0-0.313,0.126-0.597,0.329-0.803C9.974,27.944,9.848,28.229,9.848,28.541z"/>
	<path class="st7" d="M9.848,28.541L9.848,28.541c0,0.273,0.109,0.516,0.268,0.712l0,0C9.956,29.057,9.848,28.815,9.848,28.541z"/>
	
		<rect x="19.386" y="29.679" transform="matrix(0.7051 -0.7091 0.7091 0.7051 -15.0403 23.1923)" class="st7" width="1.954" height="0"/>
	<path class="st9" d="M19.564,3.449c-0.582-0.395-1.218-0.715-1.887-0.965c-0.354-0.133-0.718-0.244-1.092-0.332
		c-0.662-0.155-1.349-0.246-2.059-0.246c-4.949,0-8.962,3.989-8.962,8.911c0,0.745,0.102,1.465,0.276,2.157
		c0.179,0.716,0.438,1.4,0.78,2.036l-0.266,0.011h0.271c0.304,0.565,0.671,1.09,1.086,1.573c1.644,1.915,4.085,3.134,6.815,3.134
		c1.512,0,2.935-0.376,4.184-1.034c1.007-0.53,1.898-1.245,2.631-2.1c0.05-0.058,0.101-0.115,0.149-0.175
		c0.761-0.934,1.33-2.027,1.663-3.218c0.203-0.726,0.319-1.487,0.329-2.274c0-0.037,0.006-0.073,0.006-0.111
		C23.487,7.754,21.931,5.053,19.564,3.449z M17.63,16.42l-2.676-1.399l-0.429-0.224l-0.429,0.224l-2.676,1.399l-1.108,0.579
		l0.066-0.384l0.275-1.593l0.03-0.177l0.283-1.642l0.039-0.228l0.11-0.639l-1.006-0.975L7.71,9.033l4.709-0.68l0.518-1.044
		l1.588-3.2l1.588,3.2l0.471,0.948l0.047,0.095l1.26,0.182l1.673,0.242l1.777,0.257l-1.777,1.722l-0.179,0.173l-1.452,1.407
		l0.15,0.867l0.098,0.57l0.023,0.132l-0.071,0.076c-0.367,0.395-0.346,1.009,0.045,1.379l0.234-0.252l0.226,1.311l0.1,0.579
		L17.63,16.42z"/>
	<polygon class="st17" points="19.564,8.776 17.891,8.534 16.631,8.352 16.584,8.257 16.113,7.309 14.525,4.109 12.937,7.309 
		12.419,8.352 7.71,9.033 10.111,11.36 11.118,12.336 11.007,12.975 10.968,13.203 10.685,14.845 10.654,15.022 10.379,16.615 
		10.313,16.999 11.421,16.42 14.097,15.022 14.525,14.797 14.954,15.022 17.63,16.42 18.737,16.999 18.638,16.42 18.388,14.974 
		18.352,14.767 18.181,13.773 18.083,13.203 17.933,12.336 19.385,10.928 19.564,10.755 21.341,9.033 	"/>
	<path class="st5" d="M10.711,35.323h26.114c0.625,0,1.137-0.513,1.137-1.14c0-0.627-0.512-1.14-1.137-1.14H10.711
		c-0.626,0-1.137,0.513-1.137,1.14C9.573,34.81,10.085,35.323,10.711,35.323z"/>
	<path class="st5" d="M10.711,41.073h26.125c0.626,0,1.138-0.513,1.138-1.14c0-0.627-0.512-1.14-1.138-1.14H10.711
		c-0.626,0-1.138,0.513-1.138,1.14C9.573,40.56,10.085,41.073,10.711,41.073z"/>
	<path class="st5" d="M10.688,29.757h26.114c0.625,0,1.137-0.513,1.137-1.14c0-0.627-0.512-1.14-1.137-1.14H10.688
		c-0.626,0-1.137,0.513-1.137,1.14C9.551,29.244,10.062,29.757,10.688,29.757z"/>
	<path class="st7" d="M18.71,18.695c-1.25,0.658-2.672,1.034-4.184,1.034c-2.731,0-5.172-1.218-6.815-3.133v14.921l2.406-2.263
		l1.967-1.85l2.442-2.296l2.442,2.296l2.419,2.274h0l1.954,1.838v-1.838v-0.135v-2.139v-3.217v-2.274v-3.218v-2.1
		C20.607,17.449,19.716,18.165,18.71,18.695z"/>
</g>
<g id="remote_x5F_mysql">
</g>
<g id="addon_x5F_domains">
</g>
<g id="mysql_x5F_database_x5F_wizard">
</g>
<g id="multiphp_x5F_ini_x5F_editor">
</g>
</svg>
