<?xml version="1.0" encoding="utf-8"?>
<!-- Generator: Adobe Illustrator 22.1.0, SVG Export Plug-In . SVG Version: 6.00 Build 0)  -->
<svg version="1.1" id="Layer_1" xmlns="http://www.w3.org/2000/svg" xmlns:xlink="http://www.w3.org/1999/xlink" x="0px" y="0px"
	 viewBox="0 0 48 48" style="enable-background:new 0 0 48 48;" xml:space="preserve">
<style type="text/css">
	.st0{fill:#32415B;}
	.st1{fill:#25323C;}
	.st2{fill:#E0E0E0;}
	.st3{fill:#FFFFFF;stroke:#FFFFFF;stroke-miterlimit:10;}
</style>
<title>terminal</title>
<g id="Layer_2_1_">
	<g id="Layer_1-2">
		<g>
			<path class="st0" d="M1.4,5.3h45.1c0.6,0,1.1,0.5,1.1,1.1v35.2c0,0.6-0.5,1.1-1.1,1.1H1.4c-0.6,0-1.1-0.5-1.1-1.1V6.4
				C0.3,5.8,0.8,5.3,1.4,5.3z"/>
			<path class="st1" d="M4,13.7h40c0.6,0,1.1,0.5,1.1,1.1v24.6c0,0.6-0.5,1.1-1.1,1.1H4c-0.6,0-1.1-0.5-1.1-1.1V14.8
				C2.9,14.2,3.4,13.7,4,13.7z"/>
			<path class="st2" d="M4,8.2h0.5c0.7,0,1.2,0.5,1.2,1.2v0.5c0,0.7-0.5,1.2-1.2,1.2H4c-0.7,0-1.2-0.5-1.2-1.2V9.4
				C2.8,8.8,3.3,8.2,4,8.2z"/>
			<path class="st2" d="M9,8.2h0.5c0.7,0,1.2,0.5,1.2,1.2v0.5c0,0.7-0.5,1.2-1.2,1.2H9c-0.7,0-1.2-0.5-1.2-1.2V9.4
				C7.8,8.8,8.4,8.2,9,8.2z"/>
			<path class="st2" d="M14.1,8.2h0.5c0.7,0,1.2,0.5,1.2,1.2v0.5c0,0.7-0.5,1.2-1.2,1.2h-0.5c-0.7,0-1.2-0.5-1.2-1.2V9.4
				C13,8.8,13.5,8.2,14.1,8.2z"/>
			<g>
				<path class="st3" d="M17.2,27.3l-6.8,3.2v-1.8l4.8-2l0,0l-4.8-2.2v-1.7l6.8,3.3V27.3z"/>
				<rect x="18.7" y="29.3" class="st3" width="7.1" height="1.4"/>
			</g>
		</g>
	</g>
</g>
</svg>
