<?xml version="1.0" encoding="utf-8"?>
<!-- Generator: Adobe Illustrator 21.1.0, SVG Export Plug-In . SVG Version: 6.00 Build 0)  -->
<svg version="1.1" xmlns="http://www.w3.org/2000/svg" xmlns:xlink="http://www.w3.org/1999/xlink" x="0px" y="0px"
	 viewBox="0 0 48 48" style="enable-background:new 0 0 48 48;" xml:space="preserve">
<style type="text/css">
	.st0{fill:#E0E0E0;}
	.st1{fill:#262626;}
	.st2{fill:#4F5B94;}
	.st3{fill:#15587C;}
	.st4{fill:none;}
	.st5{fill:#BCBCBC;}
	.st6{fill:#FFFFFF;}
	.st7{fill:#D34231;}
	.st8{fill:#666666;}
	.st9{fill:#EDA72B;}
	.st10{fill:#25323C;}
	.st11{fill:#336792;}
	.st12{fill:#32415B;}
	.st13{fill:#84B556;}
	.st14{fill:#6A9638;}
	.st15{fill:#189BD8;}
	.st16{fill:#BA342A;}
	.st17{fill:#FF6C2C;}
	.st18{fill:#8892BF;}
	.st19{fill:#FFFFFF;stroke:#FFFFFF;stroke-width:0.25;stroke-miterlimit:10;}
	.st20{fill:#FFFFFF;stroke:#FFFFFF;stroke-miterlimit:10;}
	.st21{fill:#FF6A1A;}
	.st22{fill:#00AA17;}
	.st23{fill:#FA741D;}
	.st24{fill:none;stroke:#15587C;stroke-miterlimit:10;}
	.st25{fill:none;stroke:#15587C;stroke-width:1.5;stroke-miterlimit:10;}
	.st26{fill:none;stroke:#BA342A;stroke-width:5;stroke-miterlimit:10;}
	.st27{fill:#000004;}
	.st28{fill:#000004;stroke:#FFFFFF;stroke-width:0.5;stroke-miterlimit:10;}
	.st29{fill:#017F00;}
	.st30{fill:none;stroke:#BCBCBC;stroke-miterlimit:10;}
	.st31{fill:#39FF2A;}
	.st32{fill:#FF00B3;}
	.st33{fill:#4DFF00;}
	.st34{fill:#FFFFFF;stroke:#FFFFFF;stroke-width:1.5;stroke-miterlimit:10;}
	.st35{fill:#FFFFFF;stroke:#FFFFFF;stroke-width:0.5;stroke-miterlimit:10;}
	.st36{fill:#FFFFFF;stroke:#BCBCBC;stroke-miterlimit:10;}
</style>
<g id="Layer_1">
	<path class="st12" d="M42.89,9.205C38.497,3.603,31.671,0,24,0C10.745,0,0,10.745,0,24s10.745,24,24,24
		c3.414,0,6.659-0.718,9.599-2.002C42.075,42.294,48,33.841,48,24C48,18.416,46.088,13.283,42.89,9.205z"/>
	<g>
		<path class="st10" d="M28.138,42.051c0,0,9.245-8.712,12.001-16.046s0.222-11.512,0.222-11.512s-3.156-8.356-13.29-7.867
			c0,0-11.023,0.622-12.223,12.135c0,0-0.4,5.378,2.667,10.312S23.605,37.384,28.138,42.051z"/>
		<circle class="st10" cx="28.128" cy="20.296" r="9.368"/>
	</g>
	<g>
		<g>
			<path class="st23" d="M24.022,42.95c0,0,9.714-9.154,12.61-16.86s0.234-12.096,0.234-12.096s-3.316-8.78-13.964-8.267
				c0,0-11.583,0.654-12.844,12.75c0,0-0.42,5.651,2.802,10.835S19.258,38.046,24.022,42.95z"/>
			<circle class="st6" cx="24.011" cy="20.091" r="9.843"/>
		</g>
		<g>
			<path class="st8" d="M16.275,22.956v-5.82h1.997c2.002,0,3.004,0.945,3.004,2.837c0,0.906-0.273,1.631-0.82,2.172
				c-0.547,0.541-1.274,0.812-2.184,0.812H16.275z M17.545,18.203v3.689h0.629c0.55,0,0.982-0.17,1.295-0.512
				c0.313-0.341,0.47-0.805,0.47-1.392c0-0.555-0.155-0.991-0.466-1.31c-0.311-0.317-0.747-0.477-1.308-0.477H17.545z"/>
			<path class="st8" d="M27.283,22.956h-1.281l-2.324-3.657c-0.136-0.214-0.231-0.374-0.283-0.482h-0.016
				c0.021,0.205,0.031,0.52,0.031,0.941v3.198h-1.199v-5.82h1.368l2.237,3.543c0.102,0.16,0.197,0.318,0.283,0.476h0.016
				c-0.021-0.136-0.031-0.402-0.031-0.8v-3.219h1.199V22.956z"/>
			<path class="st8" d="M28.313,22.732v-1.299c0.228,0.198,0.476,0.346,0.743,0.445c0.267,0.099,0.537,0.147,0.81,0.147
				c0.16,0,0.299-0.015,0.418-0.044c0.119-0.03,0.219-0.071,0.299-0.124s0.14-0.115,0.179-0.187c0.04-0.072,0.059-0.149,0.059-0.233
				c0-0.114-0.031-0.216-0.094-0.305c-0.063-0.09-0.149-0.172-0.257-0.248c-0.109-0.075-0.238-0.148-0.388-0.219
				s-0.311-0.143-0.483-0.215c-0.44-0.189-0.769-0.421-0.985-0.694s-0.324-0.604-0.324-0.99c0-0.303,0.059-0.563,0.177-0.781
				c0.118-0.218,0.278-0.397,0.481-0.538s0.438-0.244,0.706-0.311c0.267-0.066,0.55-0.1,0.849-0.1c0.293,0,0.554,0.019,0.78,0.055
				c0.227,0.037,0.436,0.093,0.627,0.169v1.214c-0.095-0.068-0.197-0.128-0.309-0.179c-0.111-0.052-0.226-0.095-0.344-0.128
				c-0.118-0.034-0.235-0.059-0.352-0.075s-0.227-0.024-0.332-0.024c-0.144,0-0.275,0.015-0.393,0.043
				c-0.118,0.028-0.218,0.068-0.299,0.119c-0.082,0.052-0.144,0.113-0.189,0.185c-0.044,0.072-0.067,0.152-0.067,0.242
				c0,0.097,0.025,0.185,0.075,0.262s0.121,0.149,0.212,0.219s0.203,0.137,0.334,0.203c0.131,0.066,0.279,0.135,0.444,0.205
				c0.226,0.098,0.428,0.201,0.607,0.311c0.18,0.109,0.334,0.233,0.462,0.371s0.227,0.296,0.294,0.473
				c0.068,0.178,0.103,0.384,0.103,0.619c0,0.325-0.06,0.598-0.179,0.818c-0.119,0.22-0.281,0.398-0.485,0.535
				s-0.442,0.235-0.713,0.294c-0.271,0.06-0.558,0.09-0.859,0.09c-0.309,0-0.604-0.027-0.882-0.081
				C28.76,22.922,28.518,22.841,28.313,22.732z"/>
		</g>
	</g>
</g>
<g id="remote_x5F_mysql">
</g>
<g id="addon_x5F_domains">
</g>
<g id="mysql_x5F_database_x5F_wizard">
</g>
<g id="multiphp_x5F_ini_x5F_editor">
</g>
</svg>
