<?xml version="1.0" encoding="utf-8"?>
<!-- Generator: Adobe Illustrator 21.1.0, SVG Export Plug-In . SVG Version: 6.00 Build 0)  -->
<svg version="1.1" xmlns="http://www.w3.org/2000/svg" xmlns:xlink="http://www.w3.org/1999/xlink" x="0px" y="0px"
	 viewBox="0 0 48 48" style="enable-background:new 0 0 48 48;" xml:space="preserve">
<style type="text/css">
	.st0{fill:#E0E0E0;}
	.st1{fill:#262626;}
	.st2{fill:#4F5B94;}
	.st3{fill:#15587C;}
	.st4{fill:none;}
	.st5{fill:#BCBCBC;}
	.st6{fill:#FFFFFF;}
	.st7{fill:#D34231;}
	.st8{fill:#666666;}
	.st9{fill:#EDA72B;}
	.st10{fill:#25323C;}
	.st11{fill:#336792;}
	.st12{fill:#32415B;}
	.st13{fill:#84B556;}
	.st14{fill:#6A9638;}
	.st15{fill:#189BD8;}
	.st16{fill:#BA342A;}
	.st17{fill:#FF6C2C;}
	.st18{fill:#8892BF;}
	.st19{fill:#FFFFFF;stroke:#FFFFFF;stroke-width:0.25;stroke-miterlimit:10;}
	.st20{fill:#FFFFFF;stroke:#FFFFFF;stroke-miterlimit:10;}
	.st21{fill:#FF6A1A;}
	.st22{fill:#00AA17;}
	.st23{fill:#FA741D;}
	.st24{fill:none;stroke:#15587C;stroke-miterlimit:10;}
	.st25{fill:none;stroke:#15587C;stroke-width:1.5;stroke-miterlimit:10;}
	.st26{fill:none;stroke:#BA342A;stroke-width:5;stroke-miterlimit:10;}
	.st27{fill:#000004;}
	.st28{fill:#000004;stroke:#FFFFFF;stroke-width:0.5;stroke-miterlimit:10;}
	.st29{fill:#017F00;}
	.st30{fill:none;stroke:#BCBCBC;stroke-miterlimit:10;}
	.st31{fill:#39FF2A;}
	.st32{fill:#FF00B3;}
	.st33{fill:#4DFF00;}
	.st34{fill:#FFFFFF;stroke:#FFFFFF;stroke-width:1.5;stroke-miterlimit:10;}
	.st35{fill:#FFFFFF;stroke:#FFFFFF;stroke-width:0.5;stroke-miterlimit:10;}
	.st36{fill:#FFFFFF;stroke:#BCBCBC;stroke-miterlimit:10;}
</style>
<g id="Layer_1">
	<g>
		<path class="st4" d="M32.859,37.944c0,2.534,2.054,4.589,4.589,4.589c2.195,0,4.025-1.544,4.477-3.603
			c0.07-0.318,0.112-0.646,0.112-0.985c0-1.683-0.916-3.139-2.268-3.938c-0.683-0.404-1.47-0.651-2.321-0.651
			C34.914,33.355,32.859,35.41,32.859,37.944z"/>
		<path class="st8" d="M47.02,39.703v-3.354l-2.292-0.389c-0.171-0.603-0.416-1.174-0.723-1.705l1.451-1.86l-2.459-2.362
			l-1.85,1.405c-0.529-0.296-1.097-0.529-1.694-0.692l-0.229-2.083c0,0-3.298,0-3.382,0l-0.37,2.087
			c-0.015,0.004-0.029,0.011-0.044,0.015c-0.574,0.161-1.121,0.386-1.631,0.67L31.9,30.033l-2.487,2.362l1.432,2.017
			c-0.264,0.482-0.476,0.995-0.63,1.533l-2.423,0.348v3.242l2.376,0.408c0.165,0.631,0.41,1.231,0.723,1.786L30,42.984l-0.503,0.709
			l2.487,2.362l1.884-1.393c0.527,0.287,1.092,0.512,1.686,0.668l0.371,2.095c0.084,0,3.382,0,3.382,0l0.235-2.138
			c0.574-0.164,1.12-0.394,1.629-0.681l1.908,1.449l2.459-2.362l-1.509-1.935c0.283-0.497,0.512-1.03,0.677-1.589L47.02,39.703z
			 M42.037,37.944c0,0.339-0.042,0.667-0.112,0.985c-0.452,2.059-2.281,3.603-4.477,3.603c-2.534,0-4.589-2.055-4.589-4.589
			c0-2.534,2.054-4.589,4.589-4.589c0.851,0,1.638,0.247,2.321,0.651C41.12,34.804,42.037,36.26,42.037,37.944z"/>
	</g>
	<path class="st10" d="M23.978,0C10.735,0,0,10.735,0,23.978c0,13.243,10.735,23.978,23.978,23.978c2.017,0,3.974-0.252,5.845-0.721
		c-2.751-2.207-4.518-5.588-4.518-9.391c0-0.642,0.065-1.267,0.161-1.881H12.645c0,0-0.131-3.711,2.749-5.02l4.909-1.908
		c0,0,3.207-0.968,1.113-3.193s-2.487-6.18-2.487-6.18s-0.131-6.858,6.48-7.185c0,0,5.956-0.59,6.48,7.068
		c0,0-0.065,4.238-2.094,6.398c-1.416,1.508-0.728,2.261-0.183,2.579c-0.858,0.71-1.613,1.541-2.238,2.466
		c-0.156,0.232-0.305,0.549-0.445,0.833c1.675-2.896,4.513-5.031,7.882-5.758c-0.037,0.007-0.075,0.01-0.112,0.017
		c-0.76,0.155-1.492,0.385-2.191,0.68c-0.51,0.216-0.994,0.478-1.464,0.761c-0.158-0.025-0.253-0.039-0.253-0.039
		c6.022-8.705,0.458-14.432,0.458-14.432c4.123-3.616,7.854,0.861,7.854,0.861c3.273,4.974-0.524,9.434-0.524,9.434
		c-1.523,1.299-0.9,2.104-0.355,2.484c3.599,0.255,6.752,2.086,8.788,4.811c0.611-2.116,0.945-4.35,0.945-6.663
		C47.957,10.735,37.221,0,23.978,0z M20.107,27.684c0,0-4.909,0.631-6.284,2.071c0,0-1.702,2.012-2.225,2.012h-6.48
		c0,0-0.785-2.837,3.796-4.735l3.273-0.767c0,0,2.356-0.916,0.131-2.814c0,0-3.796-4.477-0.524-9.451c0,0,3.731-4.45,7.854-0.833
		C19.649,13.167,14.085,18.979,20.107,27.684z"/>
	<path class="st10" d="M26.567,32.5c-0.379,0.695-0.668,1.285-0.866,2.332C25.91,34.018,26.201,33.238,26.567,32.5z"/>
	<path class="st11" d="M29.611,28.523c-0.545-0.318-1.233-1.072,0.183-2.579c2.029-2.16,2.094-6.398,2.094-6.398
		c-0.524-7.658-6.48-7.068-6.48-7.068c-6.611,0.327-6.48,7.185-6.48,7.185s0.393,3.955,2.487,6.18s-1.113,3.193-1.113,3.193
		l-4.909,1.908c-2.88,1.309-2.749,5.02-2.749,5.02h12.821c0.06-0.384,0.138-0.761,0.234-1.132c0.199-1.047,0.487-1.637,0.866-2.332
		c0.114-0.23,0.233-0.456,0.361-0.678c0.14-0.284,0.288-0.601,0.445-0.833C27.998,30.064,28.753,29.234,29.611,28.523z"/>
	<path class="st12" d="M38.579,23.347c0,0,3.796-4.46,0.524-9.434c0,0-3.731-4.477-7.854-0.861c0,0,5.564,5.727-0.458,14.432
		c0,0,0.095,0.014,0.253,0.039c0.47-0.283,0.954-0.545,1.464-0.761c0.698-0.295,1.431-0.525,2.191-0.68
		c0.037-0.008,0.075-0.01,0.112-0.017c0.824-0.178,1.676-0.277,2.553-0.277c0.29,0,0.575,0.023,0.861,0.043
		C37.679,25.451,37.056,24.646,38.579,23.347z"/>
	<path class="st12" d="M11.794,14.001c-3.273,4.974,0.524,9.451,0.524,9.451c2.225,1.898-0.131,2.814-0.131,2.814l-3.273,0.767
		c-4.582,1.898-3.796,4.735-3.796,4.735h6.48c0.524,0,2.225-2.012,2.225-2.012c1.375-1.44,6.284-2.071,6.284-2.071
		c-6.022-8.705-0.458-14.517-0.458-14.517C15.525,9.551,11.794,14.001,11.794,14.001z"/>
</g>
<g id="remote_x5F_mysql">
</g>
<g id="addon_x5F_domains">
</g>
<g id="mysql_x5F_database_x5F_wizard">
</g>
<g id="multiphp_x5F_ini_x5F_editor">
</g>
</svg>
