<svg xmlns="http://www.w3.org/2000/svg" viewBox="0 0 48 48">
 <defs>
  <style>.cls-1 {
        fill: #4f5b94;
      }

      .cls-2 {
        fill: #fff;
      }</style>
 </defs>
<g stroke="null" id="version-control-2">
 <circle stroke="null" id="svg_1" r="24.027272" cy="24.027273" cx="24.027273" class="cls-1"/>
 <path stroke="null" id="svg_2" d="m32.432251,20.64701l-7.400035,-7.400035a5.390149,5.390149 0 0 0 -6.943242,-6.851884l-4.202489,-4.202489a24.027273,24.027273 0 0 0 -3.928413,2.283961l4.933356,4.933356a5.390149,5.390149 0 0 0 2.740754,7.034601l0,19.002558a5.390149,5.390149 0 1 0 4.385206,0l0,-18.819841l6.943242,6.943242a5.481507,5.481507 0 0 0 0.548151,5.664224a5.207432,5.207432 0 0 0 2.832112,1.918528a5.390149,5.390149 0 1 0 1.461735,-10.59758l-1.370377,0.091358zm-9.958071,19.733426a2.649395,2.649395 0 1 1 -2.649395,-2.649395a2.649395,2.649395 0 0 1 2.649395,2.649395zm-1.461735,-26.58531a2.649395,2.649395 0 1 1 1.461735,-2.37532l0,0a2.558037,2.558037 0 0 1 -1.461735,2.37532zm12.881542,14.708711a2.649395,2.649395 0 1 1 2.649395,-2.649395l0,0a2.649395,2.649395 0 0 1 -2.649395,2.649395z" class="cls-2"/>
</g>
</svg>