<?xml version="1.0" encoding="utf-8"?>
<!-- Generator: Adobe Illustrator 21.1.0, SVG Export Plug-In . SVG Version: 6.00 Build 0)  -->
<svg version="1.1" xmlns="http://www.w3.org/2000/svg" xmlns:xlink="http://www.w3.org/1999/xlink" x="0px" y="0px"
	 viewBox="0 0 48 48" style="enable-background:new 0 0 48 48;" xml:space="preserve">
<style type="text/css">
	.st0{fill:#E0E0E0;}
	.st1{fill:#262626;}
	.st2{fill:#4F5B94;}
	.st3{fill:#15587C;}
	.st4{fill:none;}
	.st5{fill:#BCBCBC;}
	.st6{fill:#FFFFFF;}
	.st7{fill:#D34231;}
	.st8{fill:#666666;}
	.st9{fill:#EDA72B;}
	.st10{fill:#25323C;}
	.st11{fill:#336792;}
	.st12{fill:#32415B;}
	.st13{fill:#84B556;}
	.st14{fill:#6A9638;}
	.st15{fill:#189BD8;}
	.st16{fill:#BA342A;}
	.st17{fill:#FF6C2C;}
	.st18{fill:#8892BF;}
	.st19{fill:#FFFFFF;stroke:#FFFFFF;stroke-width:0.25;stroke-miterlimit:10;}
	.st20{fill:#FFFFFF;stroke:#FFFFFF;stroke-miterlimit:10;}
	.st21{fill:#FF6A1A;}
	.st22{fill:#00AA17;}
	.st23{fill:#FA741D;}
	.st24{fill:none;stroke:#15587C;stroke-miterlimit:10;}
	.st25{fill:none;stroke:#15587C;stroke-width:1.5;stroke-miterlimit:10;}
	.st26{fill:none;stroke:#BA342A;stroke-width:5;stroke-miterlimit:10;}
	.st27{fill:#000004;}
	.st28{fill:#000004;stroke:#FFFFFF;stroke-width:0.5;stroke-miterlimit:10;}
	.st29{fill:#017F00;}
	.st30{fill:none;stroke:#BCBCBC;stroke-miterlimit:10;}
	.st31{fill:#39FF2A;}
	.st32{fill:#FF00B3;}
	.st33{fill:#4DFF00;}
	.st34{fill:#FFFFFF;stroke:#FFFFFF;stroke-width:1.5;stroke-miterlimit:10;}
	.st35{fill:#FFFFFF;stroke:#FFFFFF;stroke-width:0.5;stroke-miterlimit:10;}
	.st36{fill:#FFFFFF;stroke:#BCBCBC;stroke-miterlimit:10;}
</style>
<g id="Layer_1">
	<g>
		<g>
			<ellipse transform="matrix(1 -0.008 0.008 1 -0.1245 0.1257)" class="st0" cx="15.721" cy="15.685" rx="12.581" ry="12.581"/>
			<path class="st8" d="M28.376,25.048c1.951-2.642,3.094-5.916,3.065-9.453C31.372,6.913,24.278-0.069,15.596,0.001
				S-0.069,7.164,0.001,15.846C0.07,24.528,7.164,31.51,15.846,31.441c3.514-0.028,6.749-1.208,9.351-3.177l-0.001,0.001l3.038,3.02
				l3.247-3.298l-3.105-2.94L28.376,25.048z M15.821,28.266C8.873,28.322,3.195,22.734,3.14,15.785
				C3.084,8.837,8.672,3.16,15.62,3.104c6.948-0.055,12.626,5.532,12.681,12.481C28.357,22.533,22.769,28.211,15.821,28.266z"/>
			<path class="st10" d="M47.418,40.692L34.37,27.845c-0.767-0.755-2.013-0.746-2.769,0.021l-0.12,0.122l-3.247,3.298l-0.119,0.121
				c-0.755,0.767-0.746,2.013,0.021,2.769l13.048,12.847c0.767,0.755,2.013,0.746,2.769-0.021l3.486-3.54
				C48.195,42.693,48.185,41.447,47.418,40.692z"/>
		</g>
		<path class="st7" d="M24.22,15.685h-2.307c-0.08-0.625-0.237-1.222-0.461-1.779l1.798-1.291c0.452-0.324,0.555-0.953,0.231-1.405
			c-0.324-0.452-0.953-0.555-1.405-0.231l-1.642,1.179c-0.491-0.609-1.081-1.117-1.741-1.495c0.047-0.205,0.074-0.418,0.074-0.637
			c0-1.569-1.272-2.841-2.841-2.841c-1.569,0-2.841,1.272-2.841,2.841c0,0.219,0.027,0.432,0.074,0.637
			c-0.662,0.379-1.253,0.889-1.745,1.5l-1.644-1.178c-0.452-0.324-1.081-0.22-1.405,0.232s-0.22,1.081,0.232,1.405l1.8,1.289
			c-0.222,0.556-0.379,1.15-0.458,1.773H7.63c-0.556,0-1.007,0.451-1.007,1.007c0,0.556,0.451,1.007,1.007,1.007h2.322
			c0.084,0.584,0.236,1.142,0.446,1.666L8.6,20.655c-0.452,0.324-0.555,0.953-0.231,1.405c0.324,0.452,0.953,0.555,1.405,0.231
			l1.642-1.179c1.108,1.374,2.717,2.24,4.508,2.24c1.794,0,3.405-0.868,4.512-2.245l1.644,1.178c0.452,0.324,1.081,0.22,1.405-0.232
			h0c0.324-0.452,0.22-1.081-0.232-1.405l-1.8-1.289c0.209-0.522,0.36-1.078,0.444-1.66h2.322c0.556,0,1.007-0.451,1.007-1.007
			C25.226,16.135,24.775,15.685,24.22,15.685z"/>
	</g>
</g>
<g id="remote_x5F_mysql">
</g>
<g id="addon_x5F_domains">
</g>
<g id="mysql_x5F_database_x5F_wizard">
</g>
<g id="multiphp_x5F_ini_x5F_editor">
</g>
</svg>
