<?xml version="1.0" encoding="utf-8"?>
<!-- Generator: Adobe Illustrator 21.1.0, SVG Export Plug-In . SVG Version: 6.00 Build 0)  -->
<svg version="1.1" xmlns="http://www.w3.org/2000/svg" xmlns:xlink="http://www.w3.org/1999/xlink" x="0px" y="0px"
	 viewBox="0 0 48 48" style="enable-background:new 0 0 48 48;" xml:space="preserve">
<style type="text/css">
	.st0{fill:#E0E0E0;}
	.st1{fill:#262626;}
	.st2{fill:#4F5B94;}
	.st3{fill:#15587C;}
	.st4{fill:none;}
	.st5{fill:#BCBCBC;}
	.st6{fill:#FFFFFF;}
	.st7{fill:#D34231;}
	.st8{fill:#666666;}
	.st9{fill:#EDA72B;}
	.st10{fill:#25323C;}
	.st11{fill:#336792;}
	.st12{fill:#32415B;}
	.st13{fill:#84B556;}
	.st14{fill:#6A9638;}
	.st15{fill:#189BD8;}
	.st16{fill:#BA342A;}
	.st17{fill:#FF6C2C;}
	.st18{fill:#8892BF;}
	.st19{fill:#FFFFFF;stroke:#FFFFFF;stroke-width:0.25;stroke-miterlimit:10;}
	.st20{fill:#FFFFFF;stroke:#FFFFFF;stroke-miterlimit:10;}
	.st21{fill:#FF6A1A;}
	.st22{fill:#00AA17;}
	.st23{fill:#FA741D;}
	.st24{fill:none;stroke:#15587C;stroke-miterlimit:10;}
	.st25{fill:none;stroke:#15587C;stroke-width:1.5;stroke-miterlimit:10;}
	.st26{fill:none;stroke:#BA342A;stroke-width:5;stroke-miterlimit:10;}
	.st27{fill:#000004;}
	.st28{fill:#000004;stroke:#FFFFFF;stroke-width:0.5;stroke-miterlimit:10;}
	.st29{fill:#017F00;}
	.st30{fill:none;stroke:#BCBCBC;stroke-miterlimit:10;}
	.st31{fill:#39FF2A;}
	.st32{fill:#FF00B3;}
	.st33{fill:#4DFF00;}
	.st34{fill:#FFFFFF;stroke:#FFFFFF;stroke-width:1.5;stroke-miterlimit:10;}
	.st35{fill:#FFFFFF;stroke:#FFFFFF;stroke-width:0.5;stroke-miterlimit:10;}
	.st36{fill:#FFFFFF;stroke:#BCBCBC;stroke-miterlimit:10;}
</style>
<g id="Layer_1">
	<path class="st32" d="M35.776,26.387l-0.017,0.014c0.019-0.001,0.039-0.002,0.058-0.003L35.776,26.387z"/>
	<path class="st13" d="M29.052,29.492l4.424-2.702C31.766,27.291,30.247,28.236,29.052,29.492z"/>
	<path class="st13" d="M28.284,33.5l0.158,0.316l0.158,0.221l0.158,0.379l0.158,0.253l0.126,0.537h0.379c0,0,0.284,0.158,0,0.727
		c-0.284,0.569-0.253,1.549,0.126,2.308C29.928,39,30.339,39,30.339,39s0.126,0.537,0.379,0.853c0.253,0.316-0.19,1.106-0.19,1.106
		l0.268,0.664c0,0,0.048,1.454,0.523,1.454c0,0-0.379,1.043,0.948,1.17c0,0,0.569,0.095,0.19-0.569l0.13-0.443v-0.411l0.818-1.328
		c0,0,0.095-0.537,0.569-0.664c0.474-0.126,0.474-0.126,0.474-0.126s0.601,0.126,0.727-1.012c0,0,0.917-0.253,0.98-1.106
		c0.063-0.853-0.569-1.328-0.569-1.328h-0.569l-0.569-0.537l-0.537,0.032c0,0-0.095-0.632-0.537-1.201l-0.379-0.063
		c0,0-0.095-0.316-0.885-0.253l-0.063-0.348l-1.58-0.569l-0.601,0.632l-0.695-0.474l0.063-0.474l-0.537-0.379l0.221-0.316
		l0.095-0.443H28.79c0,0-0.98-0.537,0-1.675l1.075-0.095l0.095,0.474l0.316,0.601l0.601-0.664l-0.063-0.443
		c0,0,0.727-0.284,0.759-0.822c0,0,0.126,0.126,1.296-0.569h0.853l-0.063-0.506h0.158h0.474l0.443-0.348l-0.348-0.601l0.126-0.316
		h-0.316l-0.379-0.379l-0.379,0.506l-0.284,0.032c0,0-0.727,1.201-0.885-0.063l0.885-0.822h0.284l0.537-0.158
		c0,0,0.506,0.822,0.759,0c0,0,0.411,0.032,0.063-0.284l0.019-0.239c-0.457,0.068-0.904,0.167-1.339,0.294l-4.424,2.702
		c-0.513,0.54-0.967,1.137-1.35,1.781l-0.192,0.709C27.51,31.982,27.146,33.057,28.284,33.5z"/>
	<path class="st11" d="M45.733,37.988v0.569l-0.19,0.316v0.348l-0.379,0.885l-0.69,0.885l-0.227,0.443l-0.158,0.221
		c0,0-0.063,0.632-0.79,0.98s-0.853-0.253-0.853-0.253l0.158-0.474c-0.695-0.569,0.221-1.359,0.221-1.359s0,0,0.126-0.443
		c0.126-0.443-0.095-1.296-0.095-1.296l0.379-0.569v-0.885l-0.348-0.411c0.411-1.012-0.506-0.822-0.506-0.822l-0.36-0.474
		l-0.272,0.316l-1.011,0.158c0,0-0.411,0-0.854-0.474c-0.443-0.474-0.316-1.043-0.229-0.948c0.087,0.095,0.198-0.664,0.198-0.664
		l-0.19-0.126c-0.095-1.581,0.664-1.581,0.664-1.581c-0.063-0.632,0.506-0.759,0.506-0.759c1.865-0.601,2.529,0.325,2.529,0.325
		s0.066-0.106,0.181-0.186c0.139-0.097,0.35-0.156,0.609,0.051c0.474,0.379,0.284-0.158,0.284-0.158l-0.253-0.531h-0.537
		c0,0-0.126-0.101-0.126-0.196c0-0.082-0.283,0.124-0.36,0.181c-0.012,0.009-0.02,0.015-0.02,0.015v-0.048v-0.148
		c-0.079-0.109-0.14-0.156-0.186-0.169c-0.101-0.028-0.13,0.106-0.13,0.106c-0.632,0.284-0.474-0.063-0.474-0.063
		c0.379-0.727-0.569-0.284-0.569-0.284c-0.474-0.253-0.443,0.284-0.443,0.284s-1.138,0.822-1.359-0.158s0.695-0.348,0.695-0.348
		l0.284-0.506h0.379v-0.506l-0.379-0.284V28.79l-0.648-0.443h-0.174l-0.221-0.632l-0.253-0.158v-0.253h0.81
		c-1.273-0.588-2.69-0.917-4.184-0.917c-0.158,0-0.316,0.004-0.472,0.011l0.654,0.178h0.411l0.126,0.221h0.474l-0.379,0.506h-0.285
		c-0.126,0.474-0.348,0.284-0.348,0.284c-1.138,0.98-0.822-0.601-0.822-0.601l-0.284-0.253l0.394-0.334
		c-0.319,0.017-0.634,0.049-0.944,0.095l-0.019,0.239c0.348,0.316-0.063,0.284-0.063,0.284c-0.253,0.822-0.759,0-0.759,0
		l-0.537,0.158h-0.284l-0.885,0.822c0.158,1.264,0.885,0.063,0.885,0.063l0.284-0.032l0.379-0.506l0.379,0.379h0.316l-0.126,0.316
		l0.348,0.601l-0.443,0.348h-0.474h-0.158l0.063,0.506h-0.853c-1.17,0.695-1.296,0.569-1.296,0.569
		c-0.032,0.537-0.759,0.822-0.759,0.822l0.063,0.443l-0.601,0.664l-0.316-0.601l-0.095-0.474l-1.075,0.095
		c-0.98,1.138,0,1.675,0,1.675h0.221l-0.095,0.443l-0.221,0.316l0.537,0.379l-0.063,0.474l0.695,0.474l0.601-0.632l1.58,0.569
		l0.063,0.348c0.79-0.063,0.885,0.253,0.885,0.253l0.379,0.063c0.443,0.569,0.537,1.201,0.537,1.201l0.537-0.032l0.569,0.537h0.569
		c0,0,0.632,0.474,0.569,1.328c-0.063,0.854-0.98,1.106-0.98,1.106c-0.126,1.138-0.727,1.011-0.727,1.011s0,0-0.474,0.126
		c-0.474,0.126-0.569,0.664-0.569,0.664l-0.818,1.328v0.411l-0.13,0.443c0.379,0.664-0.19,0.569-0.19,0.569
		c-1.328-0.126-0.948-1.17-0.948-1.17c-0.474,0-0.523-1.454-0.523-1.454l-0.268-0.664c0,0,0.443-0.79,0.19-1.106
		S30.339,39,30.339,39s-0.411,0-0.79-0.759c-0.379-0.759-0.411-1.739-0.126-2.308s0-0.727,0-0.727h-0.379l-0.126-0.537l-0.158-0.253
		L28.6,34.037l-0.158-0.221L28.284,33.5c-1.138-0.443-0.774-1.517-0.774-1.517l0.192-0.709c-0.889,1.494-1.401,3.238-1.401,5.103
		c0,4.254,2.659,7.886,6.406,9.326l0.129-0.223l0.379,0.158c0,0,0.19-0.443,0.601-0.443c0,0,0.095,0.253,0.695,0.443
		s0.885-0.126,0.885-0.126l0.759,0.126c0,0,0.221-0.443,0.695-0.19c0.474,0.253,0.695,0.19,0.695,0.19l0.379-0.253l0.379,0.032
		l0.632-0.221c0,0,0.474-0.316,0.79,0.443c0.014,0.034,0.029,0.069,0.043,0.103c3.473-1.291,6.033-4.46,6.448-8.272L45.733,37.988z"
		/>
	<path class="st13" d="M41.167,27.658c-0.226-0.127-0.457-0.245-0.693-0.354h-0.81v0.253l0.253,0.158l0.221,0.632h0.174l0.648,0.443
		v0.158l0.379,0.284v0.506H40.96l-0.284,0.506c0,0-0.917-0.632-0.695,0.348s1.359,0.158,1.359,0.158s-0.032-0.537,0.443-0.284
		c0,0,0.948-0.443,0.569,0.284c0,0-0.158,0.348,0.474,0.063c0,0,0.03-0.134,0.13-0.106c0.046,0.013,0.107,0.06,0.186,0.169v0.148
		v0.048c0,0,0.007-0.006,0.02-0.015c0.077-0.058,0.36-0.263,0.36-0.181c0,0.095,0.126,0.196,0.126,0.196h0.537l0.253,0.531
		c0,0,0.19,0.537-0.284,0.158c-0.259-0.207-0.47-0.147-0.609-0.051c-0.115,0.08-0.181,0.186-0.181,0.186s-0.664-0.926-2.529-0.325
		c0,0-0.569,0.126-0.506,0.759c0,0-0.759,0-0.664,1.581l0.19,0.126c0,0-0.111,0.759-0.198,0.664
		c-0.087-0.095-0.213,0.474,0.229,0.948c0.443,0.474,0.854,0.474,0.854,0.474l1.011-0.158l0.272-0.316l0.36,0.474
		c0,0,0.917-0.19,0.506,0.822l0.348,0.411v0.885l-0.379,0.569c0,0,0.221,0.853,0.095,1.296c-0.126,0.443-0.126,0.443-0.126,0.443
		s-0.917,0.79-0.221,1.359l-0.158,0.474c0,0,0.126,0.601,0.853,0.253s0.79-0.98,0.79-0.98l0.158-0.221l0.227-0.443l0.69-0.885
		l0.379-0.885v-0.348l0.19-0.316v-0.569l0.486-0.519c0.039-0.359,0.06-0.723,0.06-1.093v-0.001
		C46.278,32.63,44.217,29.368,41.167,27.658z"/>
	<path class="st13" d="M38.937,45.195l-0.632,0.221l-0.379-0.032l-0.379,0.253c0,0-0.221,0.063-0.695-0.19
		c-0.474-0.253-0.695,0.19-0.695,0.19l-0.759-0.126c0,0-0.284,0.316-0.885,0.126c-0.601-0.19-0.695-0.443-0.695-0.443
		c-0.411,0-0.601,0.443-0.601,0.443l-0.379-0.158l-0.129,0.223c1.112,0.428,2.32,0.662,3.583,0.662c1.224,0,2.397-0.221,3.481-0.624
		c-0.015-0.035-0.029-0.069-0.043-0.103C39.411,44.879,38.937,45.195,38.937,45.195z"/>
	<path class="st13" d="M35.649,26.988c0,0-0.316,1.58,0.822,0.601c0,0,0.221,0.19,0.348-0.284h0.284l0.379-0.506h-0.474
		l-0.126-0.221h-0.411l-0.654-0.178c-0.019,0.001-0.039,0.002-0.058,0.003l-0.394,0.334L35.649,26.988z"/>
	<path class="st12" d="M24.66,36.33c0-1.624,0.333-3.169,0.932-4.573H6.338c-1.146,0-2.075-0.929-2.075-2.075v-8.918
		c0-0.791,0.448-1.471,1.1-1.821l7.874-5.765h0.001c0.347-0.339,0.82-0.549,1.344-0.549h19.625c0.523,0,0.997,0.21,1.344,0.549
		l7.875,5.765c0.652,0.35,1.1,1.03,1.1,1.821v7.261c0.96,0.948,1.748,2.065,2.335,3.296C47.597,29.013,48,26.554,48,24
		C48,10.745,37.255,0,24,0S0,10.745,0,24s10.745,24,24,24c2.554,0,5.013-0.403,7.322-1.141C27.386,44.983,24.66,40.98,24.66,36.33z"
		/>
	<path class="st5" d="M12.656,18.689h23.475h6.318c0.354,0,0.683,0.097,0.975,0.254l-7.875-5.765
		c-0.347-0.339-0.82-0.549-1.344-0.549H14.581c-0.523,0-0.997,0.21-1.344,0.549h-0.001l-7.874,5.765
		c0.292-0.157,0.621-0.254,0.975-0.254H12.656z"/>
	<path class="st0" d="M43.424,18.943c-0.292-0.157-0.621-0.254-0.975-0.254h-6.318H12.656H6.338c-0.354,0-0.683,0.097-0.975,0.254
		c-0.652,0.35-1.1,1.03-1.1,1.821v8.918c0,1.146,0.929,2.075,2.075,2.075h19.254c1.779-4.172,5.917-7.097,10.738-7.097
		c3.194,0,6.087,1.286,8.194,3.365v-7.261C44.524,19.972,44.076,19.293,43.424,18.943z M10.468,30.034H8.075v-2.393h2.393V30.034z
		 M14.486,30.034h-2.393v-2.393h2.393V30.034z M18.504,30.034h-2.393v-2.393h2.393V30.034z M36.814,23.261
		c-0.696,0-1.266-0.57-1.266-1.266c0-0.696,0.57-1.266,1.266-1.266c0.696,0,1.266,0.57,1.266,1.266
		C38.08,22.691,37.51,23.261,36.814,23.261z M41.245,23.261c-0.696,0-1.266-0.57-1.266-1.266c0-0.696,0.57-1.266,1.266-1.266
		c0.696,0,1.266,0.57,1.266,1.266C42.512,22.691,41.942,23.261,41.245,23.261z"/>
	<circle class="st14" cx="41.245" cy="21.995" r="1.266"/>
	<circle class="st7" cx="36.814" cy="21.995" r="1.266"/>
	<rect x="8.075" y="27.641" class="st10" width="2.393" height="2.393"/>
	<rect x="12.093" y="27.641" class="st10" width="2.393" height="2.393"/>
	<rect x="16.111" y="27.641" class="st10" width="2.393" height="2.393"/>
</g>
<g id="remote_x5F_mysql">
</g>
<g id="addon_x5F_domains">
</g>
<g id="mysql_x5F_database_x5F_wizard">
</g>
<g id="multiphp_x5F_ini_x5F_editor">
</g>
</svg>
