<?xml version="1.0" encoding="utf-8"?>
<!-- Generator: Adobe Illustrator 21.1.0, SVG Export Plug-In . SVG Version: 6.00 Build 0)  -->
<svg version="1.1" xmlns="http://www.w3.org/2000/svg" xmlns:xlink="http://www.w3.org/1999/xlink" x="0px" y="0px"
	 viewBox="0 0 48 48" style="enable-background:new 0 0 48 48;" xml:space="preserve">
<style type="text/css">
	.st0{fill:#E0E0E0;}
	.st1{fill:#262626;}
	.st2{fill:#4F5B94;}
	.st3{fill:#15587C;}
	.st4{fill:none;}
	.st5{fill:#BCBCBC;}
	.st6{fill:#FFFFFF;}
	.st7{fill:#D34231;}
	.st8{fill:#666666;}
	.st9{fill:#EDA72B;}
	.st10{fill:#25323C;}
	.st11{fill:#336792;}
	.st12{fill:#32415B;}
	.st13{fill:#84B556;}
	.st14{fill:#6A9638;}
	.st15{fill:#189BD8;}
	.st16{fill:#BA342A;}
	.st17{fill:#FF6C2C;}
	.st18{fill:#8892BF;}
	.st19{fill:#FFFFFF;stroke:#FFFFFF;stroke-width:0.25;stroke-miterlimit:10;}
	.st20{fill:#FFFFFF;stroke:#FFFFFF;stroke-miterlimit:10;}
	.st21{fill:#FF6A1A;}
	.st22{fill:#00AA17;}
	.st23{fill:#FA741D;}
	.st24{fill:none;stroke:#15587C;stroke-miterlimit:10;}
	.st25{fill:none;stroke:#15587C;stroke-width:1.5;stroke-miterlimit:10;}
	.st26{fill:none;stroke:#BA342A;stroke-width:5;stroke-miterlimit:10;}
	.st27{fill:#000004;}
	.st28{fill:#000004;stroke:#FFFFFF;stroke-width:0.5;stroke-miterlimit:10;}
	.st29{fill:#017F00;}
	.st30{fill:none;stroke:#BCBCBC;stroke-miterlimit:10;}
	.st31{fill:#39FF2A;}
	.st32{fill:#FF00B3;}
	.st33{fill:#4DFF00;}
	.st34{fill:#FFFFFF;stroke:#FFFFFF;stroke-width:1.5;stroke-miterlimit:10;}
	.st35{fill:#FFFFFF;stroke:#FFFFFF;stroke-width:0.5;stroke-miterlimit:10;}
	.st36{fill:#FFFFFF;stroke:#BCBCBC;stroke-miterlimit:10;}
</style>
<g id="Layer_1">
	<path class="st12" d="M46.812,42.898H1.214c-0.653,0-1.188-0.534-1.188-1.188V6.188C0.027,5.534,0.561,5,1.214,5h45.598
		C47.466,5,48,5.534,48,6.188v35.523C48,42.364,47.466,42.898,46.812,42.898z"/>
	<path class="st11" d="M44.162,40.715H3.865c-0.688,0-1.25-0.562-1.25-1.25V14.79c0-0.688,0.562-1.25,1.25-1.25h40.297
		c0.688,0,1.25,0.562,1.25,1.25v24.676C45.412,40.153,44.849,40.715,44.162,40.715z"/>
	<path class="st6" d="M4.147,10.877H3.778c-0.691,0-1.256-0.565-1.256-1.256V9.252c0-0.691,0.565-1.256,1.256-1.256h0.369
		c0.691,0,1.256,0.565,1.256,1.256v0.369C5.404,10.312,4.838,10.877,4.147,10.877z"/>
	<path class="st6" d="M9.289,10.877H8.92c-0.691,0-1.256-0.565-1.256-1.256V9.252c0-0.691,0.565-1.256,1.256-1.256h0.369
		c0.691,0,1.256,0.565,1.256,1.256v0.369C10.545,10.312,9.98,10.877,9.289,10.877z"/>
	<path class="st6" d="M14.43,10.877h-0.369c-0.691,0-1.256-0.565-1.256-1.256V9.252c0-0.691,0.565-1.256,1.256-1.256h0.369
		c0.691,0,1.256,0.565,1.256,1.256v0.369C15.686,10.312,15.121,10.877,14.43,10.877z"/>
	<ellipse class="st11" cx="43.103" cy="23.085" rx="1.402" ry="2.276"/>
	<g>
		<path class="st6" d="M19.641,23.204l-1.817,6.737c-0.109,0.403-0.277,0.775-0.504,1.116s-0.499,0.631-0.814,0.87
			c-0.315,0.24-0.667,0.428-1.053,0.562c-0.387,0.135-0.791,0.202-1.211,0.202H4.287l2.536-9.525
			c0.042-0.168,0.133-0.305,0.271-0.41s0.296-0.157,0.473-0.157h1.35c0.16,0,0.288,0.062,0.385,0.188
			c0.096,0.127,0.124,0.266,0.082,0.417l-1.879,7.015h2.561l1.893-7.053c0.042-0.168,0.132-0.305,0.271-0.41s0.292-0.157,0.46-0.157
			h1.363c0.16,0,0.286,0.062,0.378,0.188c0.092,0.127,0.118,0.266,0.076,0.417l-1.88,7.015h1.539c0.303,0,0.574-0.091,0.814-0.271
			s0.397-0.418,0.473-0.713l1.627-6.068c0.042-0.168,0.132-0.305,0.271-0.41c0.139-0.105,0.296-0.157,0.473-0.157h1.35
			c0.16,0,0.288,0.062,0.385,0.188C19.656,22.914,19.683,23.053,19.641,23.204z"/>
		<path class="st6" d="M22.278,28.881l-0.871,3.243c-0.042,0.168-0.132,0.305-0.271,0.41c-0.139,0.104-0.296,0.157-0.473,0.157
			h-1.35c-0.151,0-0.275-0.063-0.372-0.189s-0.124-0.261-0.082-0.403l2.385-8.933c0.042-0.168,0.132-0.305,0.271-0.41
			s0.296-0.157,0.473-0.157h1.956l-0.997,3.81h3.154l0.871-3.242c0.042-0.168,0.133-0.305,0.271-0.41s0.292-0.157,0.46-0.157h1.981
			l-2.562,9.525c-0.042,0.168-0.132,0.305-0.271,0.41c-0.139,0.104-0.292,0.157-0.46,0.157h-1.363c-0.16,0-0.286-0.063-0.378-0.189
			c-0.093-0.126-0.118-0.261-0.076-0.403l0.858-3.218H22.278z"/>
		<path class="st6" d="M29.255,32.086l2.549-9.487h7.974c0.614,0,1.175,0.132,1.684,0.397c0.509,0.265,0.932,0.616,1.268,1.053
			c0.336,0.438,0.568,0.938,0.694,1.502c0.126,0.563,0.109,1.14-0.05,1.729l-1.3,4.845c-0.042,0.168-0.132,0.305-0.271,0.41
			c-0.139,0.104-0.296,0.157-0.473,0.157h-1.35c-0.16,0-0.288-0.063-0.385-0.189s-0.124-0.265-0.082-0.416l1.375-5.098
			c0.059-0.235,0.063-0.469,0.012-0.7c-0.05-0.23-0.145-0.437-0.284-0.618c-0.139-0.181-0.311-0.325-0.517-0.435
			c-0.207-0.109-0.436-0.164-0.688-0.164h-0.58l-1.893,7.053c-0.042,0.168-0.132,0.305-0.271,0.41
			c-0.139,0.104-0.292,0.157-0.461,0.157h-1.362c-0.16,0-0.286-0.063-0.378-0.189c-0.093-0.126-0.118-0.265-0.076-0.416l1.88-7.015
			h-2.562l-1.892,7.053c-0.042,0.168-0.133,0.305-0.271,0.41c-0.139,0.104-0.296,0.157-0.473,0.157h-1.35
			c-0.16,0-0.288-0.063-0.385-0.189S29.213,32.237,29.255,32.086z"/>
	</g>
	<g>
		<path class="st6" d="M42.59,23.391c0-0.117,0.029-0.228,0.088-0.33c0.059-0.104,0.14-0.185,0.243-0.244
			c0.103-0.06,0.214-0.089,0.333-0.089c0.118,0,0.228,0.029,0.331,0.088c0.103,0.06,0.184,0.14,0.244,0.243
			c0.06,0.103,0.089,0.214,0.089,0.332c0,0.116-0.029,0.226-0.086,0.327s-0.137,0.183-0.24,0.244s-0.216,0.092-0.338,0.092
			s-0.234-0.03-0.337-0.091c-0.103-0.062-0.183-0.143-0.24-0.244C42.619,23.617,42.59,23.508,42.59,23.391z M42.683,23.391
			c0,0.103,0.026,0.197,0.077,0.286c0.051,0.088,0.121,0.158,0.209,0.209s0.183,0.076,0.285,0.076c0.102,0,0.197-0.025,0.285-0.077
			c0.088-0.051,0.157-0.12,0.209-0.207c0.051-0.088,0.077-0.183,0.077-0.287c0-0.102-0.026-0.197-0.077-0.284
			c-0.051-0.088-0.121-0.157-0.208-0.209s-0.183-0.077-0.286-0.077c-0.103,0-0.198,0.025-0.285,0.076
			c-0.088,0.052-0.157,0.121-0.208,0.208C42.708,23.192,42.683,23.287,42.683,23.391z M43.523,23.23
			c0,0.047-0.013,0.089-0.038,0.125s-0.06,0.063-0.105,0.081l0.21,0.348h-0.148l-0.183-0.312H43.14v0.312h-0.131v-0.786h0.23
			c0.098,0,0.169,0.02,0.215,0.058C43.5,23.094,43.523,23.152,43.523,23.23z M43.14,23.363h0.095c0.047,0,0.085-0.012,0.113-0.036
			s0.043-0.056,0.043-0.093c0-0.045-0.013-0.076-0.038-0.095c-0.025-0.02-0.065-0.029-0.12-0.029H43.14V23.363z"/>
	</g>
</g>
<g id="remote_x5F_mysql">
</g>
<g id="addon_x5F_domains">
</g>
<g id="mysql_x5F_database_x5F_wizard">
</g>
<g id="multiphp_x5F_ini_x5F_editor">
</g>
</svg>
