<?xml version="1.0" encoding="utf-8"?>
<!-- Generator: Adobe Illustrator 21.1.0, SVG Export Plug-In . SVG Version: 6.00 Build 0)  -->
<svg version="1.1" xmlns="http://www.w3.org/2000/svg" xmlns:xlink="http://www.w3.org/1999/xlink" x="0px" y="0px"
	 viewBox="0 0 48 48" style="enable-background:new 0 0 48 48;" xml:space="preserve">
<style type="text/css">
	.st0{fill:#E0E0E0;}
	.st1{fill:#262626;}
	.st2{fill:#4F5B94;}
	.st3{fill:#15587C;}
	.st4{fill:none;}
	.st5{fill:#BCBCBC;}
	.st6{fill:#FFFFFF;}
	.st7{fill:#D34231;}
	.st8{fill:#666666;}
	.st9{fill:#EDA72B;}
	.st10{fill:#25323C;}
	.st11{fill:#336792;}
	.st12{fill:#32415B;}
	.st13{fill:#84B556;}
	.st14{fill:#6A9638;}
	.st15{fill:#189BD8;}
	.st16{fill:#BA342A;}
	.st17{fill:#FF6C2C;}
	.st18{fill:#8892BF;}
	.st19{fill:#FFFFFF;stroke:#FFFFFF;stroke-width:0.25;stroke-miterlimit:10;}
	.st20{fill:#FFFFFF;stroke:#FFFFFF;stroke-miterlimit:10;}
	.st21{fill:#FF6A1A;}
	.st22{fill:#00AA17;}
	.st23{fill:#FA741D;}
	.st24{fill:none;stroke:#15587C;stroke-miterlimit:10;}
	.st25{fill:none;stroke:#15587C;stroke-width:1.5;stroke-miterlimit:10;}
	.st26{fill:none;stroke:#BA342A;stroke-width:5;stroke-miterlimit:10;}
	.st27{fill:#000004;}
	.st28{fill:#000004;stroke:#FFFFFF;stroke-width:0.5;stroke-miterlimit:10;}
	.st29{fill:#017F00;}
	.st30{fill:none;stroke:#BCBCBC;stroke-miterlimit:10;}
	.st31{fill:#39FF2A;}
	.st32{fill:#FF00B3;}
	.st33{fill:#4DFF00;}
	.st34{fill:#FFFFFF;stroke:#FFFFFF;stroke-width:1.5;stroke-miterlimit:10;}
	.st35{fill:#FFFFFF;stroke:#FFFFFF;stroke-width:0.5;stroke-miterlimit:10;}
	.st36{fill:#FFFFFF;stroke:#BCBCBC;stroke-miterlimit:10;}
</style>
<g id="Layer_1">
	<g>
		<g>
			<path class="st5" d="M46.812,41.919H1.188C0.534,41.919,0,41.385,0,40.732V5.188C0,4.534,0.534,4,1.188,4h45.625
				C47.466,4,48,4.534,48,5.188v35.544C48,41.385,47.466,41.919,46.812,41.919z"/>
			<path class="st0" d="M44.16,39.735H3.84c-0.688,0-1.25-0.562-1.25-1.25V13.795c0-0.688,0.562-1.25,1.25-1.25H44.16
				c0.688,0,1.25,0.562,1.25,1.25v24.691C45.41,39.173,44.848,39.735,44.16,39.735z"/>
			<path class="st10" d="M4.124,9.881H3.753c-0.691,0-1.256-0.565-1.256-1.256V8.254c0-0.691,0.565-1.256,1.256-1.256h0.371
				c0.691,0,1.256,0.565,1.256,1.256v0.371C5.38,9.315,4.815,9.881,4.124,9.881z"/>
			<path class="st10" d="M9.268,9.881H8.897c-0.691,0-1.256-0.565-1.256-1.256V8.254c0-0.691,0.565-1.256,1.256-1.256h0.371
				c0.691,0,1.256,0.565,1.256,1.256v0.371C10.524,9.315,9.959,9.881,9.268,9.881z"/>
			<path class="st10" d="M14.412,9.881h-0.371c-0.691,0-1.256-0.565-1.256-1.256V8.254c0-0.691,0.565-1.256,1.256-1.256h0.371
				c0.691,0,1.256,0.565,1.256,1.256v0.371C15.668,9.315,15.103,9.881,14.412,9.881z"/>
		</g>
		<rect x="22.814" y="14.683" class="st15" width="2.372" height="23.1"/>
		<rect x="26.055" y="18.209" class="st15" width="2.372" height="16.048"/>
		<rect x="19.573" y="17.354" class="st15" width="2.372" height="17.757"/>
		<rect x="29.296" y="22.483" class="st15" width="2.372" height="7.5"/>
		<rect x="16.332" y="22.666" class="st15" width="2.372" height="7.133"/>
		<rect x="13.091" y="20.832" class="st15" width="2.372" height="10.802"/>
		<rect x="9.85" y="24.421" class="st15" width="2.372" height="3.624"/>
		<rect x="32.537" y="24.447" class="st15" width="2.372" height="3.572"/>
		<rect x="35.779" y="25.317" class="st15" width="2.372" height="1.831"/>
		<rect x="39.02" y="25.744" class="st15" width="2.372" height="0.976"/>
		<rect x="6.609" y="25.331" class="st15" width="2.372" height="1.803"/>
		<g>
			<rect x="22.814" y="17.659" class="st3" width="2.372" height="17.025"/>
			<rect x="26.055" y="24.141" class="st3" width="2.372" height="4.167"/>
			<rect x="19.573" y="19.119" class="st3" width="2.372" height="14.211"/>
			<rect x="29.296" y="23.18" class="st3" width="2.372" height="5.912"/>
			<rect x="16.332" y="25.596" class="st3" width="2.372" height="1.211"/>
			<rect x="13.091" y="21.483" class="st3" width="2.372" height="9.545"/>
			<rect x="9.85" y="25.648" class="st3" width="2.372" height="1.185"/>
			<rect x="32.537" y="25.586" class="st3" width="2.372" height="1.211"/>
			<rect x="6.609" y="25.922" class="st3" width="2.372" height="0.651"/>
		</g>
	</g>
</g>
<g id="remote_x5F_mysql">
</g>
<g id="addon_x5F_domains">
</g>
<g id="mysql_x5F_database_x5F_wizard">
</g>
<g id="multiphp_x5F_ini_x5F_editor">
</g>
</svg>
