<?xml version="1.0" encoding="utf-8"?>
<!-- Generator: Adobe Illustrator 21.1.0, SVG Export Plug-In . SVG Version: 6.00 Build 0)  -->
<svg version="1.1" xmlns="http://www.w3.org/2000/svg" xmlns:xlink="http://www.w3.org/1999/xlink" x="0px" y="0px"
	 viewBox="0 0 48 48" style="enable-background:new 0 0 48 48;" xml:space="preserve">
<style type="text/css">
	.st0{fill:#E0E0E0;}
	.st1{fill:#262626;}
	.st2{fill:#4F5B94;}
	.st3{fill:#15587C;}
	.st4{fill:none;}
	.st5{fill:#BCBCBC;}
	.st6{fill:#FFFFFF;}
	.st7{fill:#D34231;}
	.st8{fill:#666666;}
	.st9{fill:#EDA72B;}
	.st10{fill:#25323C;}
	.st11{fill:#336792;}
	.st12{fill:#32415B;}
	.st13{fill:#84B556;}
	.st14{fill:#6A9638;}
	.st15{fill:#189BD8;}
	.st16{fill:#BA342A;}
	.st17{fill:#FF6C2C;}
	.st18{fill:#8892BF;}
	.st19{fill:#FFFFFF;stroke:#FFFFFF;stroke-width:0.25;stroke-miterlimit:10;}
	.st20{fill:#FFFFFF;stroke:#FFFFFF;stroke-miterlimit:10;}
	.st21{fill:#FF6A1A;}
	.st22{fill:#00AA17;}
	.st23{fill:#FA741D;}
	.st24{fill:none;stroke:#15587C;stroke-miterlimit:10;}
	.st25{fill:none;stroke:#15587C;stroke-width:1.5;stroke-miterlimit:10;}
	.st26{fill:none;stroke:#BA342A;stroke-width:5;stroke-miterlimit:10;}
	.st27{fill:#000004;}
	.st28{fill:#000004;stroke:#FFFFFF;stroke-width:0.5;stroke-miterlimit:10;}
	.st29{fill:#017F00;}
	.st30{fill:none;stroke:#BCBCBC;stroke-miterlimit:10;}
	.st31{fill:#39FF2A;}
	.st32{fill:#FF00B3;}
	.st33{fill:#4DFF00;}
	.st34{fill:#FFFFFF;stroke:#FFFFFF;stroke-width:1.5;stroke-miterlimit:10;}
	.st35{fill:#FFFFFF;stroke:#FFFFFF;stroke-width:0.5;stroke-miterlimit:10;}
	.st36{fill:#FFFFFF;stroke:#BCBCBC;stroke-miterlimit:10;}
</style>
<g id="Layer_1">
	<g>
		<g>
			<path class="st5" d="M31.881,15.688v-3.757V9.856C31.881,8.831,31.05,8,30.024,8H2.025C1,8,0.169,8.831,0.169,9.856v2.075v15.616
				v5.788h2.283c0.573-3.008,3.216-5.283,6.392-5.283c3.175,0,5.818,2.275,6.392,5.283h16.646v-5.788V15.688z"/>
			<path class="st8" d="M47.868,23.769c0,0-2.446-5.067-3.32-6.641s-2.271-1.44-2.271-1.44H31.881v11.859v5.788h0.466
				c0.573-3.008,3.216-5.283,6.392-5.283s5.818,2.275,6.392,5.283h2.738V23.769z"/>
			<circle class="st8" cx="38.836" cy="34.923" r="5.077"/>
			<circle class="st8" cx="8.844" cy="34.923" r="5.077"/>
			<circle class="st0" cx="8.895" cy="34.871" r="2.393"/>
			<circle class="st0" cx="38.836" cy="34.871" r="2.393"/>
			<path class="st6" d="M35.768,17.981h5.809c0,0,0.612-0.087,1.136,0.961c0.524,1.048,1.922,3.844,1.922,3.844v2.337l-4.434-0.022
				l-1.769-2.053h-3.32v-5.069L35.768,17.981z"/>
		</g>
		<rect x="14.901" y="11.844" class="st15" width="1.678" height="16.34"/>
		<rect x="17.193" y="14.338" class="st15" width="1.678" height="11.352"/>
		<rect x="12.608" y="13.733" class="st15" width="1.678" height="12.561"/>
		<rect x="19.486" y="17.361" class="st15" width="1.678" height="5.305"/>
		<rect x="10.315" y="17.491" class="st15" width="1.678" height="5.046"/>
		<rect x="8.023" y="16.193" class="st15" width="1.678" height="7.641"/>
		<rect x="5.73" y="18.732" class="st15" width="1.678" height="2.564"/>
		<rect x="21.779" y="18.751" class="st15" width="1.678" height="2.527"/>
		<rect x="24.071" y="19.366" class="st15" width="1.678" height="1.295"/>
		<rect x="26.364" y="19.669" class="st15" width="1.678" height="0.691"/>
		<rect x="3.437" y="19.376" class="st15" width="1.678" height="1.275"/>
		<g>
			<rect x="14.901" y="13.949" class="st3" width="1.678" height="12.043"/>
			<rect x="17.193" y="18.534" class="st3" width="1.678" height="2.948"/>
			<rect x="12.608" y="14.982" class="st3" width="1.678" height="10.052"/>
			<rect x="19.486" y="17.854" class="st3" width="1.678" height="4.182"/>
			<rect x="10.315" y="19.564" class="st3" width="1.678" height="0.857"/>
			<rect x="8.023" y="16.654" class="st3" width="1.678" height="6.752"/>
			<rect x="5.73" y="19.6" class="st3" width="1.678" height="0.839"/>
			<rect x="21.779" y="19.557" class="st3" width="1.678" height="0.857"/>
			<rect x="3.437" y="19.794" class="st3" width="1.678" height="0.461"/>
		</g>
	</g>
</g>
<g id="remote_x5F_mysql">
</g>
<g id="addon_x5F_domains">
</g>
<g id="mysql_x5F_database_x5F_wizard">
</g>
<g id="multiphp_x5F_ini_x5F_editor">
</g>
</svg>
